<?xml version="1.0" encoding="utf-8" standalone="no"?>
<!DOCTYPE svg PUBLIC "-//W3C//DTD SVG 1.1//EN"
  "http://www.w3.org/Graphics/SVG/1.1/DTD/svg11.dtd">
<svg xmlns:xlink="http://www.w3.org/1999/xlink" width="972pt" height="288pt" viewBox="0 0 972 288" xmlns="http://www.w3.org/2000/svg" version="1.1">
 <metadata>
  <rdf:RDF xmlns:dc="http://purl.org/dc/elements/1.1/" xmlns:cc="http://creativecommons.org/ns#" xmlns:rdf="http://www.w3.org/1999/02/22-rdf-syntax-ns#">
   <cc:Work>
    <dc:type rdf:resource="http://purl.org/dc/dcmitype/StillImage"/>
    <dc:date>2026-04-14T17:33:56.985242</dc:date>
    <dc:format>image/svg+xml</dc:format>
    <dc:creator>
     <cc:Agent>
      <dc:title>Matplotlib v3.10.1, https://matplotlib.org/</dc:title>
     </cc:Agent>
    </dc:creator>
   </cc:Work>
  </rdf:RDF>
 </metadata>
 <defs>
  <style type="text/css">*{stroke-linejoin: round; stroke-linecap: butt}</style>
 </defs>
 <g id="figure_1">
  <g id="patch_1">
   <path d="M 0 288 
L 972 288 
L 972 0 
L 0 0 
z
" style="fill: #ffffff"/>
  </g>
  <g id="axes_1">
   <g id="patch_2">
    <path d="M 34.05 249.54 
L 316.74 249.54 
L 316.74 25.44 
L 34.05 25.44 
z
" style="fill: #ffffff"/>
   </g>
   <g id="matplotlib.axis_1">
    <g id="xtick_1">
     <g id="line2d_1">
      <path d="M 46.899545 249.54 
L 46.899545 25.44 
" clip-path="url(#p1864920b42)" style="fill: none; stroke: #cccccc; stroke-width: 0.8; stroke-linecap: round"/>
     </g>
     <g id="line2d_2"/>
     <g id="text_1">
      <!-- 1 -->
      <g style="fill: #262626" transform="translate(44.119077 260.286875) scale(0.1 -0.1)">
       <defs>
        <path id="LiberationSans-31" d="M 488 0 
L 488 478 
L 1609 478 
L 1609 3866 
L 616 3156 
L 616 3688 
L 1656 4403 
L 2175 4403 
L 2175 478 
L 3247 478 
L 3247 0 
L 488 0 
z
" transform="scale(0.015625)"/>
       </defs>
       <use xlink:href="#LiberationSans-31"/>
      </g>
     </g>
    </g>
    <g id="xtick_2">
     <g id="line2d_3">
      <path d="M 83.612532 249.54 
L 83.612532 25.44 
" clip-path="url(#p1864920b42)" style="fill: none; stroke: #cccccc; stroke-width: 0.8; stroke-linecap: round"/>
     </g>
     <g id="line2d_4"/>
     <g id="text_2">
      <!-- 2 -->
      <g style="fill: #262626" transform="translate(80.832064 260.286875) scale(0.1 -0.1)">
       <defs>
        <path id="LiberationSans-32" d="M 322 0 
L 322 397 
Q 481 763 711 1042 
Q 941 1322 1194 1548 
Q 1447 1775 1695 1969 
Q 1944 2163 2144 2356 
Q 2344 2550 2467 2762 
Q 2591 2975 2591 3244 
Q 2591 3606 2378 3806 
Q 2166 4006 1788 4006 
Q 1428 4006 1195 3811 
Q 963 3616 922 3263 
L 347 3316 
Q 409 3844 795 4156 
Q 1181 4469 1788 4469 
Q 2453 4469 2811 4155 
Q 3169 3841 3169 3263 
Q 3169 3006 3051 2753 
Q 2934 2500 2703 2247 
Q 2472 1994 1819 1463 
Q 1459 1169 1246 933 
Q 1034 697 941 478 
L 3238 478 
L 3238 0 
L 322 0 
z
" transform="scale(0.015625)"/>
       </defs>
       <use xlink:href="#LiberationSans-32"/>
      </g>
     </g>
    </g>
    <g id="xtick_3">
     <g id="line2d_5">
      <path d="M 120.325519 249.54 
L 120.325519 25.44 
" clip-path="url(#p1864920b42)" style="fill: none; stroke: #cccccc; stroke-width: 0.8; stroke-linecap: round"/>
     </g>
     <g id="line2d_6"/>
     <g id="text_3">
      <!-- 3 -->
      <g style="fill: #262626" transform="translate(117.545051 260.286875) scale(0.1 -0.1)">
       <defs>
        <path id="LiberationSans-33" d="M 3278 1216 
Q 3278 606 2890 271 
Q 2503 -63 1784 -63 
Q 1116 -63 717 239 
Q 319 541 244 1131 
L 825 1184 
Q 938 403 1784 403 
Q 2209 403 2451 612 
Q 2694 822 2694 1234 
Q 2694 1594 2417 1795 
Q 2141 1997 1619 1997 
L 1300 1997 
L 1300 2484 
L 1606 2484 
Q 2069 2484 2323 2686 
Q 2578 2888 2578 3244 
Q 2578 3597 2370 3801 
Q 2163 4006 1753 4006 
Q 1381 4006 1151 3815 
Q 922 3625 884 3278 
L 319 3322 
Q 381 3863 767 4166 
Q 1153 4469 1759 4469 
Q 2422 4469 2789 4161 
Q 3156 3853 3156 3303 
Q 3156 2881 2920 2617 
Q 2684 2353 2234 2259 
L 2234 2247 
Q 2728 2194 3003 1916 
Q 3278 1638 3278 1216 
z
" transform="scale(0.015625)"/>
       </defs>
       <use xlink:href="#LiberationSans-33"/>
      </g>
     </g>
    </g>
    <g id="xtick_4">
     <g id="line2d_7">
      <path d="M 157.038506 249.54 
L 157.038506 25.44 
" clip-path="url(#p1864920b42)" style="fill: none; stroke: #cccccc; stroke-width: 0.8; stroke-linecap: round"/>
     </g>
     <g id="line2d_8"/>
     <g id="text_4">
      <!-- 4 -->
      <g style="fill: #262626" transform="translate(154.258038 260.286875) scale(0.1 -0.1)">
       <defs>
        <path id="LiberationSans-34" d="M 2753 997 
L 2753 0 
L 2222 0 
L 2222 997 
L 147 997 
L 147 1434 
L 2163 4403 
L 2753 4403 
L 2753 1441 
L 3372 1441 
L 3372 997 
L 2753 997 
z
M 2222 3769 
Q 2216 3750 2134 3603 
Q 2053 3456 2013 3397 
L 884 1734 
L 716 1503 
L 666 1441 
L 2222 1441 
L 2222 3769 
z
" transform="scale(0.015625)"/>
       </defs>
       <use xlink:href="#LiberationSans-34"/>
      </g>
     </g>
    </g>
    <g id="xtick_5">
     <g id="line2d_9">
      <path d="M 193.751494 249.54 
L 193.751494 25.44 
" clip-path="url(#p1864920b42)" style="fill: none; stroke: #cccccc; stroke-width: 0.8; stroke-linecap: round"/>
     </g>
     <g id="line2d_10"/>
     <g id="text_5">
      <!-- 5 -->
      <g style="fill: #262626" transform="translate(190.971025 260.286875) scale(0.1 -0.1)">
       <defs>
        <path id="LiberationSans-35" d="M 3291 1434 
Q 3291 738 2877 337 
Q 2463 -63 1728 -63 
Q 1113 -63 734 206 
Q 356 475 256 984 
L 825 1050 
Q 1003 397 1741 397 
Q 2194 397 2450 670 
Q 2706 944 2706 1422 
Q 2706 1838 2448 2094 
Q 2191 2350 1753 2350 
Q 1525 2350 1328 2278 
Q 1131 2206 934 2034 
L 384 2034 
L 531 4403 
L 3034 4403 
L 3034 3925 
L 1044 3925 
L 959 2528 
Q 1325 2809 1869 2809 
Q 2519 2809 2905 2428 
Q 3291 2047 3291 1434 
z
" transform="scale(0.015625)"/>
       </defs>
       <use xlink:href="#LiberationSans-35"/>
      </g>
     </g>
    </g>
    <g id="xtick_6">
     <g id="line2d_11">
      <path d="M 230.464481 249.54 
L 230.464481 25.44 
" clip-path="url(#p1864920b42)" style="fill: none; stroke: #cccccc; stroke-width: 0.8; stroke-linecap: round"/>
     </g>
     <g id="line2d_12"/>
     <g id="text_6">
      <!-- 6 -->
      <g style="fill: #262626" transform="translate(227.684012 260.286875) scale(0.1 -0.1)">
       <defs>
        <path id="LiberationSans-36" d="M 3278 1441 
Q 3278 744 2900 340 
Q 2522 -63 1856 -63 
Q 1113 -63 719 490 
Q 325 1044 325 2100 
Q 325 3244 734 3856 
Q 1144 4469 1900 4469 
Q 2897 4469 3156 3572 
L 2619 3475 
Q 2453 4013 1894 4013 
Q 1413 4013 1148 3564 
Q 884 3116 884 2266 
Q 1038 2550 1316 2698 
Q 1594 2847 1953 2847 
Q 2563 2847 2920 2465 
Q 3278 2084 3278 1441 
z
M 2706 1416 
Q 2706 1894 2472 2153 
Q 2238 2413 1819 2413 
Q 1425 2413 1183 2183 
Q 941 1953 941 1550 
Q 941 1041 1192 716 
Q 1444 391 1838 391 
Q 2244 391 2475 664 
Q 2706 938 2706 1416 
z
" transform="scale(0.015625)"/>
       </defs>
       <use xlink:href="#LiberationSans-36"/>
      </g>
     </g>
    </g>
    <g id="xtick_7">
     <g id="line2d_13">
      <path d="M 267.177468 249.54 
L 267.177468 25.44 
" clip-path="url(#p1864920b42)" style="fill: none; stroke: #cccccc; stroke-width: 0.8; stroke-linecap: round"/>
     </g>
     <g id="line2d_14"/>
     <g id="text_7">
      <!-- 7 -->
      <g style="fill: #262626" transform="translate(264.396999 260.286875) scale(0.1 -0.1)">
       <defs>
        <path id="LiberationSans-37" d="M 3238 3947 
Q 2563 2916 2284 2331 
Q 2006 1747 1867 1178 
Q 1728 609 1728 0 
L 1141 0 
Q 1141 844 1498 1776 
Q 1856 2709 2694 3925 
L 328 3925 
L 328 4403 
L 3238 4403 
L 3238 3947 
z
" transform="scale(0.015625)"/>
       </defs>
       <use xlink:href="#LiberationSans-37"/>
      </g>
     </g>
    </g>
    <g id="xtick_8">
     <g id="line2d_15">
      <path d="M 303.890455 249.54 
L 303.890455 25.44 
" clip-path="url(#p1864920b42)" style="fill: none; stroke: #cccccc; stroke-width: 0.8; stroke-linecap: round"/>
     </g>
     <g id="line2d_16"/>
     <g id="text_8">
      <!-- 8 -->
      <g style="fill: #262626" transform="translate(301.109986 260.286875) scale(0.1 -0.1)">
       <defs>
        <path id="LiberationSans-38" d="M 3281 1228 
Q 3281 619 2893 278 
Q 2506 -63 1781 -63 
Q 1075 -63 676 271 
Q 278 606 278 1222 
Q 278 1653 525 1947 
Q 772 2241 1156 2303 
L 1156 2316 
Q 797 2400 589 2681 
Q 381 2963 381 3341 
Q 381 3844 757 4156 
Q 1134 4469 1769 4469 
Q 2419 4469 2795 4162 
Q 3172 3856 3172 3334 
Q 3172 2956 2962 2675 
Q 2753 2394 2391 2322 
L 2391 2309 
Q 2813 2241 3047 1952 
Q 3281 1663 3281 1228 
z
M 2588 3303 
Q 2588 4050 1769 4050 
Q 1372 4050 1164 3862 
Q 956 3675 956 3303 
Q 956 2925 1170 2726 
Q 1384 2528 1775 2528 
Q 2172 2528 2380 2711 
Q 2588 2894 2588 3303 
z
M 2697 1281 
Q 2697 1691 2453 1898 
Q 2209 2106 1769 2106 
Q 1341 2106 1100 1882 
Q 859 1659 859 1269 
Q 859 359 1788 359 
Q 2247 359 2472 579 
Q 2697 800 2697 1281 
z
" transform="scale(0.015625)"/>
       </defs>
       <use xlink:href="#LiberationSans-38"/>
      </g>
     </g>
    </g>
    <g id="text_9">
     <!-- lmax -->
     <g style="fill: #262626" transform="translate(164.83875 273.60875) scale(0.1 -0.1)">
      <defs>
       <path id="LiberationSans-6c" d="M 431 0 
L 431 4638 
L 994 4638 
L 994 0 
L 431 0 
z
" transform="scale(0.015625)"/>
       <path id="LiberationSans-6d" d="M 2400 0 
L 2400 2144 
Q 2400 2634 2265 2821 
Q 2131 3009 1781 3009 
Q 1422 3009 1212 2734 
Q 1003 2459 1003 1959 
L 1003 0 
L 444 0 
L 444 2659 
Q 444 3250 425 3381 
L 956 3381 
Q 959 3366 962 3297 
Q 966 3228 970 3139 
Q 975 3050 981 2803 
L 991 2803 
Q 1172 3163 1406 3303 
Q 1641 3444 1978 3444 
Q 2363 3444 2586 3291 
Q 2809 3138 2897 2803 
L 2906 2803 
Q 3081 3144 3329 3294 
Q 3578 3444 3931 3444 
Q 4444 3444 4676 3166 
Q 4909 2888 4909 2253 
L 4909 0 
L 4353 0 
L 4353 2144 
Q 4353 2634 4218 2821 
Q 4084 3009 3734 3009 
Q 3366 3009 3161 2736 
Q 2956 2463 2956 1959 
L 2956 0 
L 2400 0 
z
" transform="scale(0.015625)"/>
       <path id="LiberationSans-61" d="M 1294 -63 
Q 784 -63 528 206 
Q 272 475 272 944 
Q 272 1469 617 1750 
Q 963 2031 1731 2050 
L 2491 2063 
L 2491 2247 
Q 2491 2659 2316 2837 
Q 2141 3016 1766 3016 
Q 1388 3016 1216 2887 
Q 1044 2759 1009 2478 
L 422 2531 
Q 566 3444 1778 3444 
Q 2416 3444 2737 3151 
Q 3059 2859 3059 2306 
L 3059 850 
Q 3059 600 3125 473 
Q 3191 347 3375 347 
Q 3456 347 3559 369 
L 3559 19 
Q 3347 -31 3125 -31 
Q 2813 -31 2670 133 
Q 2528 297 2509 647 
L 2491 647 
Q 2275 259 1989 98 
Q 1703 -63 1294 -63 
z
M 1422 359 
Q 1731 359 1972 500 
Q 2213 641 2352 886 
Q 2491 1131 2491 1391 
L 2491 1669 
L 1875 1656 
Q 1478 1650 1273 1575 
Q 1069 1500 959 1344 
Q 850 1188 850 934 
Q 850 659 998 509 
Q 1147 359 1422 359 
z
" transform="scale(0.015625)"/>
       <path id="LiberationSans-78" d="M 2503 0 
L 1594 1388 
L 678 0 
L 72 0 
L 1275 1738 
L 128 3381 
L 750 3381 
L 1594 2066 
L 2431 3381 
L 3059 3381 
L 1913 1744 
L 3131 0 
L 2503 0 
z
" transform="scale(0.015625)"/>
      </defs>
      <use xlink:href="#LiberationSans-6c"/>
      <use xlink:href="#LiberationSans-6d" transform="translate(22.216797 0)"/>
      <use xlink:href="#LiberationSans-61" transform="translate(105.517578 0)"/>
      <use xlink:href="#LiberationSans-78" transform="translate(161.132812 0)"/>
     </g>
    </g>
   </g>
   <g id="matplotlib.axis_2">
    <g id="ytick_1">
     <g id="line2d_17">
      <path d="M 34.05 203.8281 
L 316.74 203.8281 
" clip-path="url(#p1864920b42)" style="fill: none; stroke: #cccccc; stroke-width: 0.8; stroke-linecap: round"/>
     </g>
     <g id="line2d_18"/>
     <g id="text_10">
      <!-- 1 -->
      <g style="fill: #262626" transform="translate(24.989062 207.451537) scale(0.1 -0.1)">
       <use xlink:href="#LiberationSans-31"/>
      </g>
     </g>
    </g>
    <g id="ytick_2">
     <g id="line2d_19">
      <path d="M 34.05 155.867084 
L 316.74 155.867084 
" clip-path="url(#p1864920b42)" style="fill: none; stroke: #cccccc; stroke-width: 0.8; stroke-linecap: round"/>
     </g>
     <g id="line2d_20"/>
     <g id="text_11">
      <!-- 2 -->
      <g style="fill: #262626" transform="translate(24.989062 159.490522) scale(0.1 -0.1)">
       <use xlink:href="#LiberationSans-32"/>
      </g>
     </g>
    </g>
    <g id="ytick_3">
     <g id="line2d_21">
      <path d="M 34.05 107.906068 
L 316.74 107.906068 
" clip-path="url(#p1864920b42)" style="fill: none; stroke: #cccccc; stroke-width: 0.8; stroke-linecap: round"/>
     </g>
     <g id="line2d_22"/>
     <g id="text_12">
      <!-- 3 -->
      <g style="fill: #262626" transform="translate(24.989062 111.529506) scale(0.1 -0.1)">
       <use xlink:href="#LiberationSans-33"/>
      </g>
     </g>
    </g>
    <g id="ytick_4">
     <g id="line2d_23">
      <path d="M 34.05 59.945053 
L 316.74 59.945053 
" clip-path="url(#p1864920b42)" style="fill: none; stroke: #cccccc; stroke-width: 0.8; stroke-linecap: round"/>
     </g>
     <g id="line2d_24"/>
     <g id="text_13">
      <!-- 4 -->
      <g style="fill: #262626" transform="translate(24.989062 63.56849) scale(0.1 -0.1)">
       <use xlink:href="#LiberationSans-34"/>
      </g>
     </g>
    </g>
    <g id="text_14">
     <!-- Share of model time (%) -->
     <g style="fill: #262626" transform="translate(18.914062 191.395469) rotate(-90) scale(0.1 -0.1)">
      <defs>
       <path id="LiberationSans-53" d="M 3975 1216 
Q 3975 606 3498 271 
Q 3022 -63 2156 -63 
Q 547 -63 291 1056 
L 869 1172 
Q 969 775 1294 589 
Q 1619 403 2178 403 
Q 2756 403 3070 601 
Q 3384 800 3384 1184 
Q 3384 1400 3286 1534 
Q 3188 1669 3009 1756 
Q 2831 1844 2584 1903 
Q 2338 1963 2038 2031 
Q 1516 2147 1245 2262 
Q 975 2378 819 2520 
Q 663 2663 580 2853 
Q 497 3044 497 3291 
Q 497 3856 930 4162 
Q 1363 4469 2169 4469 
Q 2919 4469 3316 4239 
Q 3713 4009 3872 3456 
L 3284 3353 
Q 3188 3703 2916 3861 
Q 2644 4019 2163 4019 
Q 1634 4019 1356 3844 
Q 1078 3669 1078 3322 
Q 1078 3119 1186 2986 
Q 1294 2853 1497 2761 
Q 1700 2669 2306 2534 
Q 2509 2488 2711 2439 
Q 2913 2391 3097 2323 
Q 3281 2256 3442 2165 
Q 3603 2075 3722 1944 
Q 3841 1813 3908 1634 
Q 3975 1456 3975 1216 
z
" transform="scale(0.015625)"/>
       <path id="LiberationSans-68" d="M 991 2803 
Q 1172 3134 1426 3289 
Q 1681 3444 2072 3444 
Q 2622 3444 2883 3170 
Q 3144 2897 3144 2253 
L 3144 0 
L 2578 0 
L 2578 2144 
Q 2578 2500 2512 2673 
Q 2447 2847 2297 2928 
Q 2147 3009 1881 3009 
Q 1484 3009 1245 2734 
Q 1006 2459 1006 1994 
L 1006 0 
L 444 0 
L 444 4638 
L 1006 4638 
L 1006 3431 
Q 1006 3241 995 3037 
Q 984 2834 981 2803 
L 991 2803 
z
" transform="scale(0.015625)"/>
       <path id="LiberationSans-72" d="M 444 0 
L 444 2594 
Q 444 2950 425 3381 
L 956 3381 
Q 981 2806 981 2691 
L 994 2691 
Q 1128 3125 1303 3284 
Q 1478 3444 1797 3444 
Q 1909 3444 2025 3413 
L 2025 2897 
Q 1913 2928 1725 2928 
Q 1375 2928 1190 2626 
Q 1006 2325 1006 1763 
L 1006 0 
L 444 0 
z
" transform="scale(0.015625)"/>
       <path id="LiberationSans-65" d="M 863 1572 
Q 863 991 1103 675 
Q 1344 359 1806 359 
Q 2172 359 2392 506 
Q 2613 653 2691 878 
L 3184 738 
Q 2881 -63 1806 -63 
Q 1056 -63 664 384 
Q 272 831 272 1713 
Q 272 2550 664 2997 
Q 1056 3444 1784 3444 
Q 3275 3444 3275 1647 
L 3275 1572 
L 863 1572 
z
M 2694 2003 
Q 2647 2538 2422 2783 
Q 2197 3028 1775 3028 
Q 1366 3028 1127 2754 
Q 888 2481 869 2003 
L 2694 2003 
z
" transform="scale(0.015625)"/>
       <path id="LiberationSans-20" transform="scale(0.015625)"/>
       <path id="LiberationSans-6f" d="M 3291 1694 
Q 3291 806 2900 371 
Q 2509 -63 1766 -63 
Q 1025 -63 647 389 
Q 269 841 269 1694 
Q 269 3444 1784 3444 
Q 2559 3444 2925 3017 
Q 3291 2591 3291 1694 
z
M 2700 1694 
Q 2700 2394 2492 2711 
Q 2284 3028 1794 3028 
Q 1300 3028 1079 2704 
Q 859 2381 859 1694 
Q 859 1025 1076 689 
Q 1294 353 1759 353 
Q 2266 353 2483 678 
Q 2700 1003 2700 1694 
z
" transform="scale(0.015625)"/>
       <path id="LiberationSans-66" d="M 1128 2972 
L 1128 0 
L 566 0 
L 566 2972 
L 91 2972 
L 91 3381 
L 566 3381 
L 566 3763 
Q 566 4225 769 4428 
Q 972 4631 1391 4631 
Q 1625 4631 1788 4594 
L 1788 4166 
Q 1647 4191 1538 4191 
Q 1322 4191 1225 4081 
Q 1128 3972 1128 3684 
L 1128 3381 
L 1788 3381 
L 1788 2972 
L 1128 2972 
z
" transform="scale(0.015625)"/>
       <path id="LiberationSans-64" d="M 2566 544 
Q 2409 219 2151 78 
Q 1894 -63 1513 -63 
Q 872 -63 570 368 
Q 269 800 269 1675 
Q 269 3444 1513 3444 
Q 1897 3444 2153 3303 
Q 2409 3163 2566 2856 
L 2572 2856 
L 2566 3234 
L 2566 4638 
L 3128 4638 
L 3128 697 
Q 3128 169 3147 0 
L 2609 0 
Q 2600 50 2589 231 
Q 2578 413 2578 544 
L 2566 544 
z
M 859 1694 
Q 859 984 1046 678 
Q 1234 372 1656 372 
Q 2134 372 2350 703 
Q 2566 1034 2566 1731 
Q 2566 2403 2350 2715 
Q 2134 3028 1663 3028 
Q 1238 3028 1048 2714 
Q 859 2400 859 1694 
z
" transform="scale(0.015625)"/>
       <path id="LiberationSans-74" d="M 1731 25 
Q 1453 -50 1163 -50 
Q 488 -50 488 716 
L 488 2972 
L 97 2972 
L 97 3381 
L 509 3381 
L 675 4138 
L 1050 4138 
L 1050 3381 
L 1675 3381 
L 1675 2972 
L 1050 2972 
L 1050 838 
Q 1050 594 1129 495 
Q 1209 397 1406 397 
Q 1519 397 1731 441 
L 1731 25 
z
" transform="scale(0.015625)"/>
       <path id="LiberationSans-69" d="M 428 4100 
L 428 4638 
L 991 4638 
L 991 4100 
L 428 4100 
z
M 428 0 
L 428 3381 
L 991 3381 
L 991 0 
L 428 0 
z
" transform="scale(0.015625)"/>
       <path id="LiberationSans-28" d="M 397 1663 
Q 397 2566 680 3284 
Q 963 4003 1550 4638 
L 2094 4638 
Q 1509 3988 1236 3256 
Q 963 2525 963 1656 
Q 963 791 1233 62 
Q 1503 -666 2094 -1325 
L 1550 -1325 
Q 959 -688 678 32 
Q 397 753 397 1650 
L 397 1663 
z
" transform="scale(0.015625)"/>
       <path id="LiberationSans-25" d="M 5463 1356 
Q 5463 684 5209 323 
Q 4956 -38 4463 -38 
Q 3975 -38 3726 314 
Q 3478 666 3478 1356 
Q 3478 2069 3717 2417 
Q 3956 2766 4475 2766 
Q 4988 2766 5225 2408 
Q 5463 2050 5463 1356 
z
M 1647 0 
L 1163 0 
L 4044 4403 
L 4534 4403 
L 1647 0 
z
M 1231 4441 
Q 1728 4441 1968 4091 
Q 2209 3741 2209 3047 
Q 2209 2369 1961 2003 
Q 1713 1638 1219 1638 
Q 725 1638 476 2000 
Q 228 2363 228 3047 
Q 228 3744 468 4092 
Q 709 4441 1231 4441 
z
M 5000 1356 
Q 5000 1916 4879 2167 
Q 4759 2419 4475 2419 
Q 4191 2419 4064 2172 
Q 3938 1925 3938 1356 
Q 3938 822 4061 564 
Q 4184 306 4469 306 
Q 4744 306 4872 567 
Q 5000 828 5000 1356 
z
M 1750 3047 
Q 1750 3597 1631 3850 
Q 1513 4103 1231 4103 
Q 938 4103 813 3854 
Q 688 3606 688 3047 
Q 688 2506 813 2248 
Q 938 1991 1225 1991 
Q 1497 1991 1623 2253 
Q 1750 2516 1750 3047 
z
" transform="scale(0.015625)"/>
       <path id="LiberationSans-29" d="M 1734 1650 
Q 1734 747 1451 28 
Q 1169 -691 581 -1325 
L 38 -1325 
Q 625 -669 897 57 
Q 1169 784 1169 1656 
Q 1169 2528 895 3256 
Q 622 3984 38 4638 
L 581 4638 
Q 1172 4000 1453 3279 
Q 1734 2559 1734 1663 
L 1734 1650 
z
" transform="scale(0.015625)"/>
      </defs>
      <use xlink:href="#LiberationSans-53"/>
      <use xlink:href="#LiberationSans-68" transform="translate(66.699219 0)"/>
      <use xlink:href="#LiberationSans-61" transform="translate(122.314453 0)"/>
      <use xlink:href="#LiberationSans-72" transform="translate(177.929688 0)"/>
      <use xlink:href="#LiberationSans-65" transform="translate(211.230469 0)"/>
      <use xlink:href="#LiberationSans-20" transform="translate(266.845703 0)"/>
      <use xlink:href="#LiberationSans-6f" transform="translate(294.628906 0)"/>
      <use xlink:href="#LiberationSans-66" transform="translate(350.244141 0)"/>
      <use xlink:href="#LiberationSans-20" transform="translate(378.027344 0)"/>
      <use xlink:href="#LiberationSans-6d" transform="translate(405.810547 0)"/>
      <use xlink:href="#LiberationSans-6f" transform="translate(489.111328 0)"/>
      <use xlink:href="#LiberationSans-64" transform="translate(544.726562 0)"/>
      <use xlink:href="#LiberationSans-65" transform="translate(600.341797 0)"/>
      <use xlink:href="#LiberationSans-6c" transform="translate(655.957031 0)"/>
      <use xlink:href="#LiberationSans-20" transform="translate(678.173828 0)"/>
      <use xlink:href="#LiberationSans-74" transform="translate(705.957031 0)"/>
      <use xlink:href="#LiberationSans-69" transform="translate(733.740234 0)"/>
      <use xlink:href="#LiberationSans-6d" transform="translate(755.957031 0)"/>
      <use xlink:href="#LiberationSans-65" transform="translate(839.257812 0)"/>
      <use xlink:href="#LiberationSans-20" transform="translate(894.873047 0)"/>
      <use xlink:href="#LiberationSans-28" transform="translate(922.65625 0)"/>
      <use xlink:href="#LiberationSans-25" transform="translate(955.957031 0)"/>
      <use xlink:href="#LiberationSans-29" transform="translate(1044.873047 0)"/>
     </g>
    </g>
   </g>
   <g id="line2d_25">
    <path d="M 46.899545 149.599809 
L 83.612532 139.624577 
L 120.325519 139.574809 
L 157.038506 101.84025 
L 193.751494 77.657683 
L 230.464481 50.164883 
L 267.177468 43.440679 
L 303.890455 35.626364 
" clip-path="url(#p1864920b42)" style="fill: none; stroke: #0072b2; stroke-width: 1.5; stroke-linecap: round"/>
    <defs>
     <path id="mca97d608d2" d="M 0 3 
C 0.795609 3 1.55874 2.683901 2.12132 2.12132 
C 2.683901 1.55874 3 0.795609 3 0 
C 3 -0.795609 2.683901 -1.55874 2.12132 -2.12132 
C 1.55874 -2.683901 0.795609 -3 0 -3 
C -0.795609 -3 -1.55874 -2.683901 -2.12132 -2.12132 
C -2.683901 -1.55874 -3 -0.795609 -3 0 
C -3 0.795609 -2.683901 1.55874 -2.12132 2.12132 
C -1.55874 2.683901 -0.795609 3 0 3 
z
" style="stroke: #0072b2"/>
    </defs>
    <g clip-path="url(#p1864920b42)">
     <use xlink:href="#mca97d608d2" x="46.899545" y="149.599809" style="fill: #0072b2; stroke: #0072b2"/>
     <use xlink:href="#mca97d608d2" x="83.612532" y="139.624577" style="fill: #0072b2; stroke: #0072b2"/>
     <use xlink:href="#mca97d608d2" x="120.325519" y="139.574809" style="fill: #0072b2; stroke: #0072b2"/>
     <use xlink:href="#mca97d608d2" x="157.038506" y="101.84025" style="fill: #0072b2; stroke: #0072b2"/>
     <use xlink:href="#mca97d608d2" x="193.751494" y="77.657683" style="fill: #0072b2; stroke: #0072b2"/>
     <use xlink:href="#mca97d608d2" x="230.464481" y="50.164883" style="fill: #0072b2; stroke: #0072b2"/>
     <use xlink:href="#mca97d608d2" x="267.177468" y="43.440679" style="fill: #0072b2; stroke: #0072b2"/>
     <use xlink:href="#mca97d608d2" x="303.890455" y="35.626364" style="fill: #0072b2; stroke: #0072b2"/>
    </g>
   </g>
   <g id="line2d_26">
    <path d="M 46.899545 157.06224 
L 83.612532 140.99933 
L 120.325519 141.901328 
L 157.038506 147.499802 
L 193.751494 175.692768 
L 230.464481 201.483368 
L 267.177468 214.821659 
L 303.890455 224.558935 
" clip-path="url(#p1864920b42)" style="fill: none; stroke: #d55e00; stroke-width: 1.5; stroke-linecap: round"/>
    <defs>
     <path id="mc2cb4cb0a9" d="M 0 3 
C 0.795609 3 1.55874 2.683901 2.12132 2.12132 
C 2.683901 1.55874 3 0.795609 3 0 
C 3 -0.795609 2.683901 -1.55874 2.12132 -2.12132 
C 1.55874 -2.683901 0.795609 -3 0 -3 
C -0.795609 -3 -1.55874 -2.683901 -2.12132 -2.12132 
C -2.683901 -1.55874 -3 -0.795609 -3 0 
C -3 0.795609 -2.683901 1.55874 -2.12132 2.12132 
C -1.55874 2.683901 -0.795609 3 0 3 
z
" style="stroke: #d55e00"/>
    </defs>
    <g clip-path="url(#p1864920b42)">
     <use xlink:href="#mc2cb4cb0a9" x="46.899545" y="157.06224" style="fill: #d55e00; stroke: #d55e00"/>
     <use xlink:href="#mc2cb4cb0a9" x="83.612532" y="140.99933" style="fill: #d55e00; stroke: #d55e00"/>
     <use xlink:href="#mc2cb4cb0a9" x="120.325519" y="141.901328" style="fill: #d55e00; stroke: #d55e00"/>
     <use xlink:href="#mc2cb4cb0a9" x="157.038506" y="147.499802" style="fill: #d55e00; stroke: #d55e00"/>
     <use xlink:href="#mc2cb4cb0a9" x="193.751494" y="175.692768" style="fill: #d55e00; stroke: #d55e00"/>
     <use xlink:href="#mc2cb4cb0a9" x="230.464481" y="201.483368" style="fill: #d55e00; stroke: #d55e00"/>
     <use xlink:href="#mc2cb4cb0a9" x="267.177468" y="214.821659" style="fill: #d55e00; stroke: #d55e00"/>
     <use xlink:href="#mc2cb4cb0a9" x="303.890455" y="224.558935" style="fill: #d55e00; stroke: #d55e00"/>
    </g>
   </g>
   <g id="line2d_27">
    <path d="M 46.899545 155.961009 
L 83.612532 141.255385 
L 120.325519 142.545305 
L 157.038506 113.354326 
L 193.751494 144.970377 
L 230.464481 179.743243 
L 267.177468 201.192993 
L 303.890455 212.69874 
" clip-path="url(#p1864920b42)" style="fill: none; stroke: #009e73; stroke-width: 1.5; stroke-linecap: round"/>
    <defs>
     <path id="m4402247a4f" d="M 0 3 
C 0.795609 3 1.55874 2.683901 2.12132 2.12132 
C 2.683901 1.55874 3 0.795609 3 0 
C 3 -0.795609 2.683901 -1.55874 2.12132 -2.12132 
C 1.55874 -2.683901 0.795609 -3 0 -3 
C -0.795609 -3 -1.55874 -2.683901 -2.12132 -2.12132 
C -2.683901 -1.55874 -3 -0.795609 -3 0 
C -3 0.795609 -2.683901 1.55874 -2.12132 2.12132 
C -1.55874 2.683901 -0.795609 3 0 3 
z
" style="stroke: #009e73"/>
    </defs>
    <g clip-path="url(#p1864920b42)">
     <use xlink:href="#m4402247a4f" x="46.899545" y="155.961009" style="fill: #009e73; stroke: #009e73"/>
     <use xlink:href="#m4402247a4f" x="83.612532" y="141.255385" style="fill: #009e73; stroke: #009e73"/>
     <use xlink:href="#m4402247a4f" x="120.325519" y="142.545305" style="fill: #009e73; stroke: #009e73"/>
     <use xlink:href="#m4402247a4f" x="157.038506" y="113.354326" style="fill: #009e73; stroke: #009e73"/>
     <use xlink:href="#m4402247a4f" x="193.751494" y="144.970377" style="fill: #009e73; stroke: #009e73"/>
     <use xlink:href="#m4402247a4f" x="230.464481" y="179.743243" style="fill: #009e73; stroke: #009e73"/>
     <use xlink:href="#m4402247a4f" x="267.177468" y="201.192993" style="fill: #009e73; stroke: #009e73"/>
     <use xlink:href="#m4402247a4f" x="303.890455" y="212.69874" style="fill: #009e73; stroke: #009e73"/>
    </g>
   </g>
   <g id="line2d_28">
    <path d="M 46.899545 158.623541 
L 83.612532 145.887004 
L 120.325519 181.316906 
L 157.038506 201.43952 
L 193.751494 217.267293 
L 230.464481 227.507187 
L 267.177468 234.450062 
L 303.890455 239.353636 
" clip-path="url(#p1864920b42)" style="fill: none; stroke: #cc79a7; stroke-width: 1.5; stroke-linecap: round"/>
    <defs>
     <path id="m81e7fc2c56" d="M 0 3 
C 0.795609 3 1.55874 2.683901 2.12132 2.12132 
C 2.683901 1.55874 3 0.795609 3 0 
C 3 -0.795609 2.683901 -1.55874 2.12132 -2.12132 
C 1.55874 -2.683901 0.795609 -3 0 -3 
C -0.795609 -3 -1.55874 -2.683901 -2.12132 -2.12132 
C -2.683901 -1.55874 -3 -0.795609 -3 0 
C -3 0.795609 -2.683901 1.55874 -2.12132 2.12132 
C -1.55874 2.683901 -0.795609 3 0 3 
z
" style="stroke: #cc79a7"/>
    </defs>
    <g clip-path="url(#p1864920b42)">
     <use xlink:href="#m81e7fc2c56" x="46.899545" y="158.623541" style="fill: #cc79a7; stroke: #cc79a7"/>
     <use xlink:href="#m81e7fc2c56" x="83.612532" y="145.887004" style="fill: #cc79a7; stroke: #cc79a7"/>
     <use xlink:href="#m81e7fc2c56" x="120.325519" y="181.316906" style="fill: #cc79a7; stroke: #cc79a7"/>
     <use xlink:href="#m81e7fc2c56" x="157.038506" y="201.43952" style="fill: #cc79a7; stroke: #cc79a7"/>
     <use xlink:href="#m81e7fc2c56" x="193.751494" y="217.267293" style="fill: #cc79a7; stroke: #cc79a7"/>
     <use xlink:href="#m81e7fc2c56" x="230.464481" y="227.507187" style="fill: #cc79a7; stroke: #cc79a7"/>
     <use xlink:href="#m81e7fc2c56" x="267.177468" y="234.450062" style="fill: #cc79a7; stroke: #cc79a7"/>
     <use xlink:href="#m81e7fc2c56" x="303.890455" y="239.353636" style="fill: #cc79a7; stroke: #cc79a7"/>
    </g>
   </g>
   <g id="patch_3">
    <path d="M 34.05 249.54 
L 34.05 25.44 
" style="fill: none; stroke: #cccccc; stroke-linejoin: miter; stroke-linecap: square"/>
   </g>
   <g id="patch_4">
    <path d="M 316.74 249.54 
L 316.74 25.44 
" style="fill: none; stroke: #cccccc; stroke-linejoin: miter; stroke-linecap: square"/>
   </g>
   <g id="patch_5">
    <path d="M 34.05 249.54 
L 316.74 249.54 
" style="fill: none; stroke: #cccccc; stroke-linejoin: miter; stroke-linecap: square"/>
   </g>
   <g id="patch_6">
    <path d="M 34.05 25.44 
L 316.74 25.44 
" style="fill: none; stroke: #cccccc; stroke-linejoin: miter; stroke-linecap: square"/>
   </g>
   <g id="text_15">
    <!-- SH share -->
    <g style="fill: #262626" transform="translate(150.385312 19.44) scale(0.12 -0.12)">
     <defs>
      <path id="LiberationSans-48" d="M 3503 0 
L 3503 2041 
L 1122 2041 
L 1122 0 
L 525 0 
L 525 4403 
L 1122 4403 
L 1122 2541 
L 3503 2541 
L 3503 4403 
L 4100 4403 
L 4100 0 
L 3503 0 
z
" transform="scale(0.015625)"/>
      <path id="LiberationSans-73" d="M 2969 934 
Q 2969 456 2608 196 
Q 2247 -63 1597 -63 
Q 966 -63 623 145 
Q 281 353 178 794 
L 675 891 
Q 747 619 972 492 
Q 1197 366 1597 366 
Q 2025 366 2223 497 
Q 2422 628 2422 891 
Q 2422 1091 2284 1216 
Q 2147 1341 1841 1422 
L 1438 1528 
Q 953 1653 748 1773 
Q 544 1894 428 2066 
Q 313 2238 313 2488 
Q 313 2950 642 3192 
Q 972 3434 1603 3434 
Q 2163 3434 2492 3237 
Q 2822 3041 2909 2606 
L 2403 2544 
Q 2356 2769 2151 2889 
Q 1947 3009 1603 3009 
Q 1222 3009 1040 2893 
Q 859 2778 859 2544 
Q 859 2400 934 2306 
Q 1009 2213 1156 2147 
Q 1303 2081 1775 1966 
Q 2222 1853 2419 1758 
Q 2616 1663 2730 1547 
Q 2844 1431 2906 1279 
Q 2969 1128 2969 934 
z
" transform="scale(0.015625)"/>
     </defs>
     <use xlink:href="#LiberationSans-53"/>
     <use xlink:href="#LiberationSans-48" transform="translate(66.699219 0)"/>
     <use xlink:href="#LiberationSans-20" transform="translate(138.916016 0)"/>
     <use xlink:href="#LiberationSans-73" transform="translate(166.699219 0)"/>
     <use xlink:href="#LiberationSans-68" transform="translate(216.699219 0)"/>
     <use xlink:href="#LiberationSans-61" transform="translate(272.314453 0)"/>
     <use xlink:href="#LiberationSans-72" transform="translate(327.929688 0)"/>
     <use xlink:href="#LiberationSans-65" transform="translate(361.230469 0)"/>
    </g>
   </g>
   <g id="legend_1">
    <g id="line2d_29">
     <path d="M 43.05 38.186875 
L 53.05 38.186875 
L 63.05 38.186875 
" style="fill: none; stroke: #0072b2; stroke-width: 1.5; stroke-linecap: round"/>
     <g>
      <use xlink:href="#mca97d608d2" x="53.05" y="38.186875" style="fill: #0072b2; stroke: #0072b2"/>
     </g>
    </g>
    <g id="text_16">
     <!-- small_sparse -->
     <g style="fill: #262626" transform="translate(71.05 41.686875) scale(0.1 -0.1)">
      <defs>
       <path id="LiberationSans-5f" d="M -97 -1272 
L -97 -866 
L 3631 -866 
L 3631 -1272 
L -97 -1272 
z
" transform="scale(0.015625)"/>
       <path id="LiberationSans-70" d="M 3291 1706 
Q 3291 -63 2047 -63 
Q 1266 -63 997 525 
L 981 525 
Q 994 500 994 -6 
L 994 -1328 
L 431 -1328 
L 431 2691 
Q 431 3213 413 3381 
L 956 3381 
Q 959 3369 965 3292 
Q 972 3216 980 3056 
Q 988 2897 988 2838 
L 1000 2838 
Q 1150 3150 1397 3295 
Q 1644 3441 2047 3441 
Q 2672 3441 2981 3022 
Q 3291 2603 3291 1706 
z
M 2700 1694 
Q 2700 2400 2509 2703 
Q 2319 3006 1903 3006 
Q 1569 3006 1380 2865 
Q 1191 2725 1092 2426 
Q 994 2128 994 1650 
Q 994 984 1206 668 
Q 1419 353 1897 353 
Q 2316 353 2508 661 
Q 2700 969 2700 1694 
z
" transform="scale(0.015625)"/>
      </defs>
      <use xlink:href="#LiberationSans-73"/>
      <use xlink:href="#LiberationSans-6d" transform="translate(50 0)"/>
      <use xlink:href="#LiberationSans-61" transform="translate(133.300781 0)"/>
      <use xlink:href="#LiberationSans-6c" transform="translate(188.916016 0)"/>
      <use xlink:href="#LiberationSans-6c" transform="translate(211.132812 0)"/>
      <use xlink:href="#LiberationSans-5f" transform="translate(233.349609 0)"/>
      <use xlink:href="#LiberationSans-73" transform="translate(288.964844 0)"/>
      <use xlink:href="#LiberationSans-70" transform="translate(338.964844 0)"/>
      <use xlink:href="#LiberationSans-61" transform="translate(394.580078 0)"/>
      <use xlink:href="#LiberationSans-72" transform="translate(450.195312 0)"/>
      <use xlink:href="#LiberationSans-73" transform="translate(483.496094 0)"/>
      <use xlink:href="#LiberationSans-65" transform="translate(533.496094 0)"/>
     </g>
    </g>
    <g id="line2d_30">
     <path d="M 43.05 52.50875 
L 53.05 52.50875 
L 63.05 52.50875 
" style="fill: none; stroke: #d55e00; stroke-width: 1.5; stroke-linecap: round"/>
     <g>
      <use xlink:href="#mc2cb4cb0a9" x="53.05" y="52.50875" style="fill: #d55e00; stroke: #d55e00"/>
     </g>
    </g>
    <g id="text_17">
     <!-- small_dense -->
     <g style="fill: #262626" transform="translate(71.05 56.00875) scale(0.1 -0.1)">
      <defs>
       <path id="LiberationSans-6e" d="M 2578 0 
L 2578 2144 
Q 2578 2478 2512 2662 
Q 2447 2847 2303 2928 
Q 2159 3009 1881 3009 
Q 1475 3009 1240 2731 
Q 1006 2453 1006 1959 
L 1006 0 
L 444 0 
L 444 2659 
Q 444 3250 425 3381 
L 956 3381 
Q 959 3366 962 3297 
Q 966 3228 970 3139 
Q 975 3050 981 2803 
L 991 2803 
Q 1184 3153 1439 3298 
Q 1694 3444 2072 3444 
Q 2628 3444 2886 3167 
Q 3144 2891 3144 2253 
L 3144 0 
L 2578 0 
z
" transform="scale(0.015625)"/>
      </defs>
      <use xlink:href="#LiberationSans-73"/>
      <use xlink:href="#LiberationSans-6d" transform="translate(50 0)"/>
      <use xlink:href="#LiberationSans-61" transform="translate(133.300781 0)"/>
      <use xlink:href="#LiberationSans-6c" transform="translate(188.916016 0)"/>
      <use xlink:href="#LiberationSans-6c" transform="translate(211.132812 0)"/>
      <use xlink:href="#LiberationSans-5f" transform="translate(233.349609 0)"/>
      <use xlink:href="#LiberationSans-64" transform="translate(288.964844 0)"/>
      <use xlink:href="#LiberationSans-65" transform="translate(344.580078 0)"/>
      <use xlink:href="#LiberationSans-6e" transform="translate(400.195312 0)"/>
      <use xlink:href="#LiberationSans-73" transform="translate(455.810547 0)"/>
      <use xlink:href="#LiberationSans-65" transform="translate(505.810547 0)"/>
     </g>
    </g>
    <g id="line2d_31">
     <path d="M 43.05 66.830625 
L 53.05 66.830625 
L 63.05 66.830625 
" style="fill: none; stroke: #009e73; stroke-width: 1.5; stroke-linecap: round"/>
     <g>
      <use xlink:href="#m4402247a4f" x="53.05" y="66.830625" style="fill: #009e73; stroke: #009e73"/>
     </g>
    </g>
    <g id="text_18">
     <!-- large_sparse -->
     <g style="fill: #262626" transform="translate(71.05 70.330625) scale(0.1 -0.1)">
      <defs>
       <path id="LiberationSans-67" d="M 1713 -1328 
Q 1159 -1328 831 -1111 
Q 503 -894 409 -494 
L 975 -413 
Q 1031 -647 1223 -773 
Q 1416 -900 1728 -900 
Q 2569 -900 2569 84 
L 2569 628 
L 2563 628 
Q 2403 303 2125 139 
Q 1847 -25 1475 -25 
Q 853 -25 561 387 
Q 269 800 269 1684 
Q 269 2581 583 3007 
Q 897 3434 1538 3434 
Q 1897 3434 2161 3270 
Q 2425 3106 2569 2803 
L 2575 2803 
Q 2575 2897 2587 3128 
Q 2600 3359 2613 3381 
L 3147 3381 
Q 3128 3213 3128 2681 
L 3128 97 
Q 3128 -1328 1713 -1328 
z
M 2569 1691 
Q 2569 2103 2456 2401 
Q 2344 2700 2139 2858 
Q 1934 3016 1675 3016 
Q 1244 3016 1047 2703 
Q 850 2391 850 1691 
Q 850 997 1034 694 
Q 1219 391 1666 391 
Q 1931 391 2137 547 
Q 2344 703 2456 995 
Q 2569 1288 2569 1691 
z
" transform="scale(0.015625)"/>
      </defs>
      <use xlink:href="#LiberationSans-6c"/>
      <use xlink:href="#LiberationSans-61" transform="translate(22.216797 0)"/>
      <use xlink:href="#LiberationSans-72" transform="translate(77.832031 0)"/>
      <use xlink:href="#LiberationSans-67" transform="translate(111.132812 0)"/>
      <use xlink:href="#LiberationSans-65" transform="translate(166.748047 0)"/>
      <use xlink:href="#LiberationSans-5f" transform="translate(222.363281 0)"/>
      <use xlink:href="#LiberationSans-73" transform="translate(277.978516 0)"/>
      <use xlink:href="#LiberationSans-70" transform="translate(327.978516 0)"/>
      <use xlink:href="#LiberationSans-61" transform="translate(383.59375 0)"/>
      <use xlink:href="#LiberationSans-72" transform="translate(439.208984 0)"/>
      <use xlink:href="#LiberationSans-73" transform="translate(472.509766 0)"/>
      <use xlink:href="#LiberationSans-65" transform="translate(522.509766 0)"/>
     </g>
    </g>
    <g id="line2d_32">
     <path d="M 43.05 81.1525 
L 53.05 81.1525 
L 63.05 81.1525 
" style="fill: none; stroke: #cc79a7; stroke-width: 1.5; stroke-linecap: round"/>
     <g>
      <use xlink:href="#m81e7fc2c56" x="53.05" y="81.1525" style="fill: #cc79a7; stroke: #cc79a7"/>
     </g>
    </g>
    <g id="text_19">
     <!-- large_dense -->
     <g style="fill: #262626" transform="translate(71.05 84.6525) scale(0.1 -0.1)">
      <use xlink:href="#LiberationSans-6c"/>
      <use xlink:href="#LiberationSans-61" transform="translate(22.216797 0)"/>
      <use xlink:href="#LiberationSans-72" transform="translate(77.832031 0)"/>
      <use xlink:href="#LiberationSans-67" transform="translate(111.132812 0)"/>
      <use xlink:href="#LiberationSans-65" transform="translate(166.748047 0)"/>
      <use xlink:href="#LiberationSans-5f" transform="translate(222.363281 0)"/>
      <use xlink:href="#LiberationSans-64" transform="translate(277.978516 0)"/>
      <use xlink:href="#LiberationSans-65" transform="translate(333.59375 0)"/>
      <use xlink:href="#LiberationSans-6e" transform="translate(389.208984 0)"/>
      <use xlink:href="#LiberationSans-73" transform="translate(444.824219 0)"/>
      <use xlink:href="#LiberationSans-65" transform="translate(494.824219 0)"/>
     </g>
    </g>
   </g>
  </g>
  <g id="axes_2">
   <g id="patch_7">
    <path d="M 356.28 249.54 
L 638.97 249.54 
L 638.97 25.44 
L 356.28 25.44 
z
" style="fill: #ffffff"/>
   </g>
   <g id="matplotlib.axis_3">
    <g id="xtick_9">
     <g id="line2d_33">
      <path d="M 369.129545 249.54 
L 369.129545 25.44 
" clip-path="url(#pdb76b93cc1)" style="fill: none; stroke: #cccccc; stroke-width: 0.8; stroke-linecap: round"/>
     </g>
     <g id="line2d_34"/>
     <g id="text_20">
      <!-- 1 -->
      <g style="fill: #262626" transform="translate(366.349077 260.286875) scale(0.1 -0.1)">
       <use xlink:href="#LiberationSans-31"/>
      </g>
     </g>
    </g>
    <g id="xtick_10">
     <g id="line2d_35">
      <path d="M 405.842532 249.54 
L 405.842532 25.44 
" clip-path="url(#pdb76b93cc1)" style="fill: none; stroke: #cccccc; stroke-width: 0.8; stroke-linecap: round"/>
     </g>
     <g id="line2d_36"/>
     <g id="text_21">
      <!-- 2 -->
      <g style="fill: #262626" transform="translate(403.062064 260.286875) scale(0.1 -0.1)">
       <use xlink:href="#LiberationSans-32"/>
      </g>
     </g>
    </g>
    <g id="xtick_11">
     <g id="line2d_37">
      <path d="M 442.555519 249.54 
L 442.555519 25.44 
" clip-path="url(#pdb76b93cc1)" style="fill: none; stroke: #cccccc; stroke-width: 0.8; stroke-linecap: round"/>
     </g>
     <g id="line2d_38"/>
     <g id="text_22">
      <!-- 3 -->
      <g style="fill: #262626" transform="translate(439.775051 260.286875) scale(0.1 -0.1)">
       <use xlink:href="#LiberationSans-33"/>
      </g>
     </g>
    </g>
    <g id="xtick_12">
     <g id="line2d_39">
      <path d="M 479.268506 249.54 
L 479.268506 25.44 
" clip-path="url(#pdb76b93cc1)" style="fill: none; stroke: #cccccc; stroke-width: 0.8; stroke-linecap: round"/>
     </g>
     <g id="line2d_40"/>
     <g id="text_23">
      <!-- 4 -->
      <g style="fill: #262626" transform="translate(476.488038 260.286875) scale(0.1 -0.1)">
       <use xlink:href="#LiberationSans-34"/>
      </g>
     </g>
    </g>
    <g id="xtick_13">
     <g id="line2d_41">
      <path d="M 515.981494 249.54 
L 515.981494 25.44 
" clip-path="url(#pdb76b93cc1)" style="fill: none; stroke: #cccccc; stroke-width: 0.8; stroke-linecap: round"/>
     </g>
     <g id="line2d_42"/>
     <g id="text_24">
      <!-- 5 -->
      <g style="fill: #262626" transform="translate(513.201025 260.286875) scale(0.1 -0.1)">
       <use xlink:href="#LiberationSans-35"/>
      </g>
     </g>
    </g>
    <g id="xtick_14">
     <g id="line2d_43">
      <path d="M 552.694481 249.54 
L 552.694481 25.44 
" clip-path="url(#pdb76b93cc1)" style="fill: none; stroke: #cccccc; stroke-width: 0.8; stroke-linecap: round"/>
     </g>
     <g id="line2d_44"/>
     <g id="text_25">
      <!-- 6 -->
      <g style="fill: #262626" transform="translate(549.914012 260.286875) scale(0.1 -0.1)">
       <use xlink:href="#LiberationSans-36"/>
      </g>
     </g>
    </g>
    <g id="xtick_15">
     <g id="line2d_45">
      <path d="M 589.407468 249.54 
L 589.407468 25.44 
" clip-path="url(#pdb76b93cc1)" style="fill: none; stroke: #cccccc; stroke-width: 0.8; stroke-linecap: round"/>
     </g>
     <g id="line2d_46"/>
     <g id="text_26">
      <!-- 7 -->
      <g style="fill: #262626" transform="translate(586.626999 260.286875) scale(0.1 -0.1)">
       <use xlink:href="#LiberationSans-37"/>
      </g>
     </g>
    </g>
    <g id="xtick_16">
     <g id="line2d_47">
      <path d="M 626.120455 249.54 
L 626.120455 25.44 
" clip-path="url(#pdb76b93cc1)" style="fill: none; stroke: #cccccc; stroke-width: 0.8; stroke-linecap: round"/>
     </g>
     <g id="line2d_48"/>
     <g id="text_27">
      <!-- 8 -->
      <g style="fill: #262626" transform="translate(623.339986 260.286875) scale(0.1 -0.1)">
       <use xlink:href="#LiberationSans-38"/>
      </g>
     </g>
    </g>
    <g id="text_28">
     <!-- lmax -->
     <g style="fill: #262626" transform="translate(487.06875 273.60875) scale(0.1 -0.1)">
      <use xlink:href="#LiberationSans-6c"/>
      <use xlink:href="#LiberationSans-6d" transform="translate(22.216797 0)"/>
      <use xlink:href="#LiberationSans-61" transform="translate(105.517578 0)"/>
      <use xlink:href="#LiberationSans-78" transform="translate(161.132812 0)"/>
     </g>
    </g>
   </g>
   <g id="matplotlib.axis_4">
    <g id="ytick_5">
     <g id="line2d_49">
      <path d="M 356.28 222.914845 
L 638.97 222.914845 
" clip-path="url(#pdb76b93cc1)" style="fill: none; stroke: #cccccc; stroke-width: 0.8; stroke-linecap: round"/>
     </g>
     <g id="line2d_50"/>
     <g id="text_29">
      <!-- 8 -->
      <g style="fill: #262626" transform="translate(347.219063 226.538283) scale(0.1 -0.1)">
       <use xlink:href="#LiberationSans-38"/>
      </g>
     </g>
    </g>
    <g id="ytick_6">
     <g id="line2d_51">
      <path d="M 356.28 179.67424 
L 638.97 179.67424 
" clip-path="url(#pdb76b93cc1)" style="fill: none; stroke: #cccccc; stroke-width: 0.8; stroke-linecap: round"/>
     </g>
     <g id="line2d_52"/>
     <g id="text_30">
      <!-- 10 -->
      <g style="fill: #262626" transform="translate(341.658125 183.297677) scale(0.1 -0.1)">
       <defs>
        <path id="LiberationSans-30" d="M 3309 2203 
Q 3309 1100 2920 518 
Q 2531 -63 1772 -63 
Q 1013 -63 631 515 
Q 250 1094 250 2203 
Q 250 3338 620 3903 
Q 991 4469 1791 4469 
Q 2569 4469 2939 3897 
Q 3309 3325 3309 2203 
z
M 2738 2203 
Q 2738 3156 2517 3584 
Q 2297 4013 1791 4013 
Q 1272 4013 1045 3591 
Q 819 3169 819 2203 
Q 819 1266 1048 831 
Q 1278 397 1778 397 
Q 2275 397 2506 840 
Q 2738 1284 2738 2203 
z
" transform="scale(0.015625)"/>
       </defs>
       <use xlink:href="#LiberationSans-31"/>
       <use xlink:href="#LiberationSans-30" transform="translate(55.615234 0)"/>
      </g>
     </g>
    </g>
    <g id="ytick_7">
     <g id="line2d_53">
      <path d="M 356.28 136.433634 
L 638.97 136.433634 
" clip-path="url(#pdb76b93cc1)" style="fill: none; stroke: #cccccc; stroke-width: 0.8; stroke-linecap: round"/>
     </g>
     <g id="line2d_54"/>
     <g id="text_31">
      <!-- 12 -->
      <g style="fill: #262626" transform="translate(341.658125 140.057072) scale(0.1 -0.1)">
       <use xlink:href="#LiberationSans-31"/>
       <use xlink:href="#LiberationSans-32" transform="translate(55.615234 0)"/>
      </g>
     </g>
    </g>
    <g id="ytick_8">
     <g id="line2d_55">
      <path d="M 356.28 93.193029 
L 638.97 93.193029 
" clip-path="url(#pdb76b93cc1)" style="fill: none; stroke: #cccccc; stroke-width: 0.8; stroke-linecap: round"/>
     </g>
     <g id="line2d_56"/>
     <g id="text_32">
      <!-- 14 -->
      <g style="fill: #262626" transform="translate(341.658125 96.816466) scale(0.1 -0.1)">
       <use xlink:href="#LiberationSans-31"/>
       <use xlink:href="#LiberationSans-34" transform="translate(55.615234 0)"/>
      </g>
     </g>
    </g>
    <g id="ytick_9">
     <g id="line2d_57">
      <path d="M 356.28 49.952423 
L 638.97 49.952423 
" clip-path="url(#pdb76b93cc1)" style="fill: none; stroke: #cccccc; stroke-width: 0.8; stroke-linecap: round"/>
     </g>
     <g id="line2d_58"/>
     <g id="text_33">
      <!-- 16 -->
      <g style="fill: #262626" transform="translate(341.658125 53.575861) scale(0.1 -0.1)">
       <use xlink:href="#LiberationSans-31"/>
       <use xlink:href="#LiberationSans-36" transform="translate(55.615234 0)"/>
      </g>
     </g>
    </g>
    <g id="text_34">
     <!-- Share of model time (%) -->
     <g style="fill: #262626" transform="translate(335.583125 191.395469) rotate(-90) scale(0.1 -0.1)">
      <use xlink:href="#LiberationSans-53"/>
      <use xlink:href="#LiberationSans-68" transform="translate(66.699219 0)"/>
      <use xlink:href="#LiberationSans-61" transform="translate(122.314453 0)"/>
      <use xlink:href="#LiberationSans-72" transform="translate(177.929688 0)"/>
      <use xlink:href="#LiberationSans-65" transform="translate(211.230469 0)"/>
      <use xlink:href="#LiberationSans-20" transform="translate(266.845703 0)"/>
      <use xlink:href="#LiberationSans-6f" transform="translate(294.628906 0)"/>
      <use xlink:href="#LiberationSans-66" transform="translate(350.244141 0)"/>
      <use xlink:href="#LiberationSans-20" transform="translate(378.027344 0)"/>
      <use xlink:href="#LiberationSans-6d" transform="translate(405.810547 0)"/>
      <use xlink:href="#LiberationSans-6f" transform="translate(489.111328 0)"/>
      <use xlink:href="#LiberationSans-64" transform="translate(544.726562 0)"/>
      <use xlink:href="#LiberationSans-65" transform="translate(600.341797 0)"/>
      <use xlink:href="#LiberationSans-6c" transform="translate(655.957031 0)"/>
      <use xlink:href="#LiberationSans-20" transform="translate(678.173828 0)"/>
      <use xlink:href="#LiberationSans-74" transform="translate(705.957031 0)"/>
      <use xlink:href="#LiberationSans-69" transform="translate(733.740234 0)"/>
      <use xlink:href="#LiberationSans-6d" transform="translate(755.957031 0)"/>
      <use xlink:href="#LiberationSans-65" transform="translate(839.257812 0)"/>
      <use xlink:href="#LiberationSans-20" transform="translate(894.873047 0)"/>
      <use xlink:href="#LiberationSans-28" transform="translate(922.65625 0)"/>
      <use xlink:href="#LiberationSans-25" transform="translate(955.957031 0)"/>
      <use xlink:href="#LiberationSans-29" transform="translate(1044.873047 0)"/>
     </g>
    </g>
   </g>
   <g id="line2d_59">
    <path d="M 369.129545 239.353636 
L 405.842532 203.751049 
L 442.555519 161.929477 
L 479.268506 119.88482 
L 515.981494 90.666442 
L 552.694481 68.218375 
L 589.407468 50.864916 
L 626.120455 35.626364 
" clip-path="url(#pdb76b93cc1)" style="fill: none; stroke: #0072b2; stroke-width: 1.5; stroke-linecap: round"/>
    <g clip-path="url(#pdb76b93cc1)">
     <use xlink:href="#mca97d608d2" x="369.129545" y="239.353636" style="fill: #0072b2; stroke: #0072b2"/>
     <use xlink:href="#mca97d608d2" x="405.842532" y="203.751049" style="fill: #0072b2; stroke: #0072b2"/>
     <use xlink:href="#mca97d608d2" x="442.555519" y="161.929477" style="fill: #0072b2; stroke: #0072b2"/>
     <use xlink:href="#mca97d608d2" x="479.268506" y="119.88482" style="fill: #0072b2; stroke: #0072b2"/>
     <use xlink:href="#mca97d608d2" x="515.981494" y="90.666442" style="fill: #0072b2; stroke: #0072b2"/>
     <use xlink:href="#mca97d608d2" x="552.694481" y="68.218375" style="fill: #0072b2; stroke: #0072b2"/>
     <use xlink:href="#mca97d608d2" x="589.407468" y="50.864916" style="fill: #0072b2; stroke: #0072b2"/>
     <use xlink:href="#mca97d608d2" x="626.120455" y="35.626364" style="fill: #0072b2; stroke: #0072b2"/>
    </g>
   </g>
   <g id="line2d_60">
    <path d="M 369.129545 194.674097 
L 405.842532 202.86307 
L 442.555519 93.942463 
L 479.268506 77.475101 
L 515.981494 112.611415 
L 552.694481 160.138203 
L 589.407468 185.923719 
L 626.120455 206.12853 
" clip-path="url(#pdb76b93cc1)" style="fill: none; stroke: #d55e00; stroke-width: 1.5; stroke-linecap: round"/>
    <g clip-path="url(#pdb76b93cc1)">
     <use xlink:href="#mc2cb4cb0a9" x="369.129545" y="194.674097" style="fill: #d55e00; stroke: #d55e00"/>
     <use xlink:href="#mc2cb4cb0a9" x="405.842532" y="202.86307" style="fill: #d55e00; stroke: #d55e00"/>
     <use xlink:href="#mc2cb4cb0a9" x="442.555519" y="93.942463" style="fill: #d55e00; stroke: #d55e00"/>
     <use xlink:href="#mc2cb4cb0a9" x="479.268506" y="77.475101" style="fill: #d55e00; stroke: #d55e00"/>
     <use xlink:href="#mc2cb4cb0a9" x="515.981494" y="112.611415" style="fill: #d55e00; stroke: #d55e00"/>
     <use xlink:href="#mc2cb4cb0a9" x="552.694481" y="160.138203" style="fill: #d55e00; stroke: #d55e00"/>
     <use xlink:href="#mc2cb4cb0a9" x="589.407468" y="185.923719" style="fill: #d55e00; stroke: #d55e00"/>
     <use xlink:href="#mc2cb4cb0a9" x="626.120455" y="206.12853" style="fill: #d55e00; stroke: #d55e00"/>
    </g>
   </g>
   <g id="line2d_61">
    <path d="M 369.129545 213.059306 
L 405.842532 203.290579 
L 442.555519 130.021462 
L 479.268506 63.549309 
L 515.981494 93.481741 
L 552.694481 138.014112 
L 589.407468 181.301511 
L 626.120455 203.885647 
" clip-path="url(#pdb76b93cc1)" style="fill: none; stroke: #009e73; stroke-width: 1.5; stroke-linecap: round"/>
    <g clip-path="url(#pdb76b93cc1)">
     <use xlink:href="#m4402247a4f" x="369.129545" y="213.059306" style="fill: #009e73; stroke: #009e73"/>
     <use xlink:href="#m4402247a4f" x="405.842532" y="203.290579" style="fill: #009e73; stroke: #009e73"/>
     <use xlink:href="#m4402247a4f" x="442.555519" y="130.021462" style="fill: #009e73; stroke: #009e73"/>
     <use xlink:href="#m4402247a4f" x="479.268506" y="63.549309" style="fill: #009e73; stroke: #009e73"/>
     <use xlink:href="#m4402247a4f" x="515.981494" y="93.481741" style="fill: #009e73; stroke: #009e73"/>
     <use xlink:href="#m4402247a4f" x="552.694481" y="138.014112" style="fill: #009e73; stroke: #009e73"/>
     <use xlink:href="#m4402247a4f" x="589.407468" y="181.301511" style="fill: #009e73; stroke: #009e73"/>
     <use xlink:href="#m4402247a4f" x="626.120455" y="203.885647" style="fill: #009e73; stroke: #009e73"/>
    </g>
   </g>
   <g id="line2d_62">
    <path d="M 369.129545 137.256522 
L 405.842532 141.448149 
L 442.555519 88.838848 
L 479.268506 119.376221 
L 515.981494 147.045954 
L 552.694481 172.448413 
L 589.407468 196.165094 
L 626.120455 213.703515 
" clip-path="url(#pdb76b93cc1)" style="fill: none; stroke: #cc79a7; stroke-width: 1.5; stroke-linecap: round"/>
    <g clip-path="url(#pdb76b93cc1)">
     <use xlink:href="#m81e7fc2c56" x="369.129545" y="137.256522" style="fill: #cc79a7; stroke: #cc79a7"/>
     <use xlink:href="#m81e7fc2c56" x="405.842532" y="141.448149" style="fill: #cc79a7; stroke: #cc79a7"/>
     <use xlink:href="#m81e7fc2c56" x="442.555519" y="88.838848" style="fill: #cc79a7; stroke: #cc79a7"/>
     <use xlink:href="#m81e7fc2c56" x="479.268506" y="119.376221" style="fill: #cc79a7; stroke: #cc79a7"/>
     <use xlink:href="#m81e7fc2c56" x="515.981494" y="147.045954" style="fill: #cc79a7; stroke: #cc79a7"/>
     <use xlink:href="#m81e7fc2c56" x="552.694481" y="172.448413" style="fill: #cc79a7; stroke: #cc79a7"/>
     <use xlink:href="#m81e7fc2c56" x="589.407468" y="196.165094" style="fill: #cc79a7; stroke: #cc79a7"/>
     <use xlink:href="#m81e7fc2c56" x="626.120455" y="213.703515" style="fill: #cc79a7; stroke: #cc79a7"/>
    </g>
   </g>
   <g id="patch_8">
    <path d="M 356.28 249.54 
L 356.28 25.44 
" style="fill: none; stroke: #cccccc; stroke-linejoin: miter; stroke-linecap: square"/>
   </g>
   <g id="patch_9">
    <path d="M 638.97 249.54 
L 638.97 25.44 
" style="fill: none; stroke: #cccccc; stroke-linejoin: miter; stroke-linecap: square"/>
   </g>
   <g id="patch_10">
    <path d="M 356.28 249.54 
L 638.97 249.54 
" style="fill: none; stroke: #cccccc; stroke-linejoin: miter; stroke-linecap: square"/>
   </g>
   <g id="patch_11">
    <path d="M 356.28 25.44 
L 638.97 25.44 
" style="fill: none; stroke: #cccccc; stroke-linejoin: miter; stroke-linecap: square"/>
   </g>
   <g id="text_35">
    <!-- TP share -->
    <g style="fill: #262626" transform="translate(473.38875 19.44) scale(0.12 -0.12)">
     <defs>
      <path id="LiberationSans-54" d="M 2250 3916 
L 2250 0 
L 1656 0 
L 1656 3916 
L 144 3916 
L 144 4403 
L 3763 4403 
L 3763 3916 
L 2250 3916 
z
" transform="scale(0.015625)"/>
      <path id="LiberationSans-50" d="M 3931 3078 
Q 3931 2453 3523 2084 
Q 3116 1716 2416 1716 
L 1122 1716 
L 1122 0 
L 525 0 
L 525 4403 
L 2378 4403 
Q 3119 4403 3525 4056 
Q 3931 3709 3931 3078 
z
M 3331 3072 
Q 3331 3925 2306 3925 
L 1122 3925 
L 1122 2188 
L 2331 2188 
Q 3331 2188 3331 3072 
z
" transform="scale(0.015625)"/>
     </defs>
     <use xlink:href="#LiberationSans-54"/>
     <use xlink:href="#LiberationSans-50" transform="translate(61.083984 0)"/>
     <use xlink:href="#LiberationSans-20" transform="translate(126.033203 0)"/>
     <use xlink:href="#LiberationSans-73" transform="translate(153.816406 0)"/>
     <use xlink:href="#LiberationSans-68" transform="translate(203.816406 0)"/>
     <use xlink:href="#LiberationSans-61" transform="translate(259.431641 0)"/>
     <use xlink:href="#LiberationSans-72" transform="translate(315.046875 0)"/>
     <use xlink:href="#LiberationSans-65" transform="translate(348.347656 0)"/>
    </g>
   </g>
  </g>
  <g id="axes_3">
   <g id="patch_12">
    <path d="M 678.51 249.54 
L 961.2 249.54 
L 961.2 25.44 
L 678.51 25.44 
z
" style="fill: #ffffff"/>
   </g>
   <g id="matplotlib.axis_5">
    <g id="xtick_17">
     <g id="line2d_63">
      <path d="M 691.359545 249.54 
L 691.359545 25.44 
" clip-path="url(#pf8e54c98a7)" style="fill: none; stroke: #cccccc; stroke-width: 0.8; stroke-linecap: round"/>
     </g>
     <g id="line2d_64"/>
     <g id="text_36">
      <!-- 1 -->
      <g style="fill: #262626" transform="translate(688.579077 260.286875) scale(0.1 -0.1)">
       <use xlink:href="#LiberationSans-31"/>
      </g>
     </g>
    </g>
    <g id="xtick_18">
     <g id="line2d_65">
      <path d="M 728.072532 249.54 
L 728.072532 25.44 
" clip-path="url(#pf8e54c98a7)" style="fill: none; stroke: #cccccc; stroke-width: 0.8; stroke-linecap: round"/>
     </g>
     <g id="line2d_66"/>
     <g id="text_37">
      <!-- 2 -->
      <g style="fill: #262626" transform="translate(725.292064 260.286875) scale(0.1 -0.1)">
       <use xlink:href="#LiberationSans-32"/>
      </g>
     </g>
    </g>
    <g id="xtick_19">
     <g id="line2d_67">
      <path d="M 764.785519 249.54 
L 764.785519 25.44 
" clip-path="url(#pf8e54c98a7)" style="fill: none; stroke: #cccccc; stroke-width: 0.8; stroke-linecap: round"/>
     </g>
     <g id="line2d_68"/>
     <g id="text_38">
      <!-- 3 -->
      <g style="fill: #262626" transform="translate(762.005051 260.286875) scale(0.1 -0.1)">
       <use xlink:href="#LiberationSans-33"/>
      </g>
     </g>
    </g>
    <g id="xtick_20">
     <g id="line2d_69">
      <path d="M 801.498506 249.54 
L 801.498506 25.44 
" clip-path="url(#pf8e54c98a7)" style="fill: none; stroke: #cccccc; stroke-width: 0.8; stroke-linecap: round"/>
     </g>
     <g id="line2d_70"/>
     <g id="text_39">
      <!-- 4 -->
      <g style="fill: #262626" transform="translate(798.718038 260.286875) scale(0.1 -0.1)">
       <use xlink:href="#LiberationSans-34"/>
      </g>
     </g>
    </g>
    <g id="xtick_21">
     <g id="line2d_71">
      <path d="M 838.211494 249.54 
L 838.211494 25.44 
" clip-path="url(#pf8e54c98a7)" style="fill: none; stroke: #cccccc; stroke-width: 0.8; stroke-linecap: round"/>
     </g>
     <g id="line2d_72"/>
     <g id="text_40">
      <!-- 5 -->
      <g style="fill: #262626" transform="translate(835.431025 260.286875) scale(0.1 -0.1)">
       <use xlink:href="#LiberationSans-35"/>
      </g>
     </g>
    </g>
    <g id="xtick_22">
     <g id="line2d_73">
      <path d="M 874.924481 249.54 
L 874.924481 25.44 
" clip-path="url(#pf8e54c98a7)" style="fill: none; stroke: #cccccc; stroke-width: 0.8; stroke-linecap: round"/>
     </g>
     <g id="line2d_74"/>
     <g id="text_41">
      <!-- 6 -->
      <g style="fill: #262626" transform="translate(872.144012 260.286875) scale(0.1 -0.1)">
       <use xlink:href="#LiberationSans-36"/>
      </g>
     </g>
    </g>
    <g id="xtick_23">
     <g id="line2d_75">
      <path d="M 911.637468 249.54 
L 911.637468 25.44 
" clip-path="url(#pf8e54c98a7)" style="fill: none; stroke: #cccccc; stroke-width: 0.8; stroke-linecap: round"/>
     </g>
     <g id="line2d_76"/>
     <g id="text_42">
      <!-- 7 -->
      <g style="fill: #262626" transform="translate(908.856999 260.286875) scale(0.1 -0.1)">
       <use xlink:href="#LiberationSans-37"/>
      </g>
     </g>
    </g>
    <g id="xtick_24">
     <g id="line2d_77">
      <path d="M 948.350455 249.54 
L 948.350455 25.44 
" clip-path="url(#pf8e54c98a7)" style="fill: none; stroke: #cccccc; stroke-width: 0.8; stroke-linecap: round"/>
     </g>
     <g id="line2d_78"/>
     <g id="text_43">
      <!-- 8 -->
      <g style="fill: #262626" transform="translate(945.569986 260.286875) scale(0.1 -0.1)">
       <use xlink:href="#LiberationSans-38"/>
      </g>
     </g>
    </g>
    <g id="text_44">
     <!-- lmax -->
     <g style="fill: #262626" transform="translate(809.29875 273.60875) scale(0.1 -0.1)">
      <use xlink:href="#LiberationSans-6c"/>
      <use xlink:href="#LiberationSans-6d" transform="translate(22.216797 0)"/>
      <use xlink:href="#LiberationSans-61" transform="translate(105.517578 0)"/>
      <use xlink:href="#LiberationSans-78" transform="translate(161.132812 0)"/>
     </g>
    </g>
   </g>
   <g id="matplotlib.axis_6">
    <g id="ytick_10">
     <g id="line2d_79">
      <path d="M 678.51 242.098008 
L 961.2 242.098008 
" clip-path="url(#pf8e54c98a7)" style="fill: none; stroke: #cccccc; stroke-width: 0.8; stroke-linecap: round"/>
     </g>
     <g id="line2d_80"/>
     <g id="text_45">
      <!-- 50 -->
      <g style="fill: #262626" transform="translate(663.888125 245.721445) scale(0.1 -0.1)">
       <use xlink:href="#LiberationSans-35"/>
       <use xlink:href="#LiberationSans-30" transform="translate(55.615234 0)"/>
      </g>
     </g>
    </g>
    <g id="ytick_11">
     <g id="line2d_81">
      <path d="M 678.51 216.38523 
L 961.2 216.38523 
" clip-path="url(#pf8e54c98a7)" style="fill: none; stroke: #cccccc; stroke-width: 0.8; stroke-linecap: round"/>
     </g>
     <g id="line2d_82"/>
     <g id="text_46">
      <!-- 55 -->
      <g style="fill: #262626" transform="translate(663.888125 220.008667) scale(0.1 -0.1)">
       <use xlink:href="#LiberationSans-35"/>
       <use xlink:href="#LiberationSans-35" transform="translate(55.615234 0)"/>
      </g>
     </g>
    </g>
    <g id="ytick_12">
     <g id="line2d_83">
      <path d="M 678.51 190.672452 
L 961.2 190.672452 
" clip-path="url(#pf8e54c98a7)" style="fill: none; stroke: #cccccc; stroke-width: 0.8; stroke-linecap: round"/>
     </g>
     <g id="line2d_84"/>
     <g id="text_47">
      <!-- 60 -->
      <g style="fill: #262626" transform="translate(663.888125 194.29589) scale(0.1 -0.1)">
       <use xlink:href="#LiberationSans-36"/>
       <use xlink:href="#LiberationSans-30" transform="translate(55.615234 0)"/>
      </g>
     </g>
    </g>
    <g id="ytick_13">
     <g id="line2d_85">
      <path d="M 678.51 164.959674 
L 961.2 164.959674 
" clip-path="url(#pf8e54c98a7)" style="fill: none; stroke: #cccccc; stroke-width: 0.8; stroke-linecap: round"/>
     </g>
     <g id="line2d_86"/>
     <g id="text_48">
      <!-- 65 -->
      <g style="fill: #262626" transform="translate(663.888125 168.583112) scale(0.1 -0.1)">
       <use xlink:href="#LiberationSans-36"/>
       <use xlink:href="#LiberationSans-35" transform="translate(55.615234 0)"/>
      </g>
     </g>
    </g>
    <g id="ytick_14">
     <g id="line2d_87">
      <path d="M 678.51 139.246897 
L 961.2 139.246897 
" clip-path="url(#pf8e54c98a7)" style="fill: none; stroke: #cccccc; stroke-width: 0.8; stroke-linecap: round"/>
     </g>
     <g id="line2d_88"/>
     <g id="text_49">
      <!-- 70 -->
      <g style="fill: #262626" transform="translate(663.888125 142.870334) scale(0.1 -0.1)">
       <use xlink:href="#LiberationSans-37"/>
       <use xlink:href="#LiberationSans-30" transform="translate(55.615234 0)"/>
      </g>
     </g>
    </g>
    <g id="ytick_15">
     <g id="line2d_89">
      <path d="M 678.51 113.534119 
L 961.2 113.534119 
" clip-path="url(#pf8e54c98a7)" style="fill: none; stroke: #cccccc; stroke-width: 0.8; stroke-linecap: round"/>
     </g>
     <g id="line2d_90"/>
     <g id="text_50">
      <!-- 75 -->
      <g style="fill: #262626" transform="translate(663.888125 117.157556) scale(0.1 -0.1)">
       <use xlink:href="#LiberationSans-37"/>
       <use xlink:href="#LiberationSans-35" transform="translate(55.615234 0)"/>
      </g>
     </g>
    </g>
    <g id="ytick_16">
     <g id="line2d_91">
      <path d="M 678.51 87.821341 
L 961.2 87.821341 
" clip-path="url(#pf8e54c98a7)" style="fill: none; stroke: #cccccc; stroke-width: 0.8; stroke-linecap: round"/>
     </g>
     <g id="line2d_92"/>
     <g id="text_51">
      <!-- 80 -->
      <g style="fill: #262626" transform="translate(663.888125 91.444779) scale(0.1 -0.1)">
       <use xlink:href="#LiberationSans-38"/>
       <use xlink:href="#LiberationSans-30" transform="translate(55.615234 0)"/>
      </g>
     </g>
    </g>
    <g id="ytick_17">
     <g id="line2d_93">
      <path d="M 678.51 62.108563 
L 961.2 62.108563 
" clip-path="url(#pf8e54c98a7)" style="fill: none; stroke: #cccccc; stroke-width: 0.8; stroke-linecap: round"/>
     </g>
     <g id="line2d_94"/>
     <g id="text_52">
      <!-- 85 -->
      <g style="fill: #262626" transform="translate(663.888125 65.732001) scale(0.1 -0.1)">
       <use xlink:href="#LiberationSans-38"/>
       <use xlink:href="#LiberationSans-35" transform="translate(55.615234 0)"/>
      </g>
     </g>
    </g>
    <g id="ytick_18">
     <g id="line2d_95">
      <path d="M 678.51 36.395786 
L 961.2 36.395786 
" clip-path="url(#pf8e54c98a7)" style="fill: none; stroke: #cccccc; stroke-width: 0.8; stroke-linecap: round"/>
     </g>
     <g id="line2d_96"/>
     <g id="text_53">
      <!-- 90 -->
      <g style="fill: #262626" transform="translate(663.888125 40.019223) scale(0.1 -0.1)">
       <defs>
        <path id="LiberationSans-39" d="M 3256 2291 
Q 3256 1156 2842 546 
Q 2428 -63 1663 -63 
Q 1147 -63 836 154 
Q 525 372 391 856 
L 928 941 
Q 1097 391 1672 391 
Q 2156 391 2422 841 
Q 2688 1291 2700 2125 
Q 2575 1844 2272 1673 
Q 1969 1503 1606 1503 
Q 1013 1503 656 1909 
Q 300 2316 300 2988 
Q 300 3678 687 4073 
Q 1075 4469 1766 4469 
Q 2500 4469 2878 3925 
Q 3256 3381 3256 2291 
z
M 2644 2834 
Q 2644 3366 2400 3689 
Q 2156 4013 1747 4013 
Q 1341 4013 1106 3736 
Q 872 3459 872 2988 
Q 872 2506 1106 2226 
Q 1341 1947 1741 1947 
Q 1984 1947 2193 2058 
Q 2403 2169 2523 2372 
Q 2644 2575 2644 2834 
z
" transform="scale(0.015625)"/>
       </defs>
       <use xlink:href="#LiberationSans-39"/>
       <use xlink:href="#LiberationSans-30" transform="translate(55.615234 0)"/>
      </g>
     </g>
    </g>
    <g id="text_54">
     <!-- Share of model time (%) -->
     <g style="fill: #262626" transform="translate(657.813125 191.395469) rotate(-90) scale(0.1 -0.1)">
      <use xlink:href="#LiberationSans-53"/>
      <use xlink:href="#LiberationSans-68" transform="translate(66.699219 0)"/>
      <use xlink:href="#LiberationSans-61" transform="translate(122.314453 0)"/>
      <use xlink:href="#LiberationSans-72" transform="translate(177.929688 0)"/>
      <use xlink:href="#LiberationSans-65" transform="translate(211.230469 0)"/>
      <use xlink:href="#LiberationSans-20" transform="translate(266.845703 0)"/>
      <use xlink:href="#LiberationSans-6f" transform="translate(294.628906 0)"/>
      <use xlink:href="#LiberationSans-66" transform="translate(350.244141 0)"/>
      <use xlink:href="#LiberationSans-20" transform="translate(378.027344 0)"/>
      <use xlink:href="#LiberationSans-6d" transform="translate(405.810547 0)"/>
      <use xlink:href="#LiberationSans-6f" transform="translate(489.111328 0)"/>
      <use xlink:href="#LiberationSans-64" transform="translate(544.726562 0)"/>
      <use xlink:href="#LiberationSans-65" transform="translate(600.341797 0)"/>
      <use xlink:href="#LiberationSans-6c" transform="translate(655.957031 0)"/>
      <use xlink:href="#LiberationSans-20" transform="translate(678.173828 0)"/>
      <use xlink:href="#LiberationSans-74" transform="translate(705.957031 0)"/>
      <use xlink:href="#LiberationSans-69" transform="translate(733.740234 0)"/>
      <use xlink:href="#LiberationSans-6d" transform="translate(755.957031 0)"/>
      <use xlink:href="#LiberationSans-65" transform="translate(839.257812 0)"/>
      <use xlink:href="#LiberationSans-20" transform="translate(894.873047 0)"/>
      <use xlink:href="#LiberationSans-28" transform="translate(922.65625 0)"/>
      <use xlink:href="#LiberationSans-25" transform="translate(955.957031 0)"/>
      <use xlink:href="#LiberationSans-29" transform="translate(1044.873047 0)"/>
     </g>
    </g>
   </g>
   <g id="line2d_97">
    <path d="M 691.359545 229.144314 
L 728.072532 196.956867 
L 764.785519 182.703745 
L 801.498506 165.558376 
L 838.211494 153.212054 
L 874.924481 147.138005 
L 911.637468 142.65305 
L 948.350455 144.208523 
" clip-path="url(#pf8e54c98a7)" style="fill: none; stroke: #0072b2; stroke-width: 1.5; stroke-linecap: round"/>
    <g clip-path="url(#pf8e54c98a7)">
     <use xlink:href="#mca97d608d2" x="691.359545" y="229.144314" style="fill: #0072b2; stroke: #0072b2"/>
     <use xlink:href="#mca97d608d2" x="728.072532" y="196.956867" style="fill: #0072b2; stroke: #0072b2"/>
     <use xlink:href="#mca97d608d2" x="764.785519" y="182.703745" style="fill: #0072b2; stroke: #0072b2"/>
     <use xlink:href="#mca97d608d2" x="801.498506" y="165.558376" style="fill: #0072b2; stroke: #0072b2"/>
     <use xlink:href="#mca97d608d2" x="838.211494" y="153.212054" style="fill: #0072b2; stroke: #0072b2"/>
     <use xlink:href="#mca97d608d2" x="874.924481" y="147.138005" style="fill: #0072b2; stroke: #0072b2"/>
     <use xlink:href="#mca97d608d2" x="911.637468" y="142.65305" style="fill: #0072b2; stroke: #0072b2"/>
     <use xlink:href="#mca97d608d2" x="948.350455" y="144.208523" style="fill: #0072b2; stroke: #0072b2"/>
    </g>
   </g>
   <g id="line2d_98">
    <path d="M 691.359545 228.561598 
L 728.072532 196.989203 
L 764.785519 191.797109 
L 801.498506 144.343417 
L 838.211494 98.499468 
L 874.924481 67.765496 
L 911.637468 52.194055 
L 948.350455 41.8815 
" clip-path="url(#pf8e54c98a7)" style="fill: none; stroke: #d55e00; stroke-width: 1.5; stroke-linecap: round"/>
    <g clip-path="url(#pf8e54c98a7)">
     <use xlink:href="#mc2cb4cb0a9" x="691.359545" y="228.561598" style="fill: #d55e00; stroke: #d55e00"/>
     <use xlink:href="#mc2cb4cb0a9" x="728.072532" y="196.989203" style="fill: #d55e00; stroke: #d55e00"/>
     <use xlink:href="#mc2cb4cb0a9" x="764.785519" y="191.797109" style="fill: #d55e00; stroke: #d55e00"/>
     <use xlink:href="#mc2cb4cb0a9" x="801.498506" y="144.343417" style="fill: #d55e00; stroke: #d55e00"/>
     <use xlink:href="#mc2cb4cb0a9" x="838.211494" y="98.499468" style="fill: #d55e00; stroke: #d55e00"/>
     <use xlink:href="#mc2cb4cb0a9" x="874.924481" y="67.765496" style="fill: #d55e00; stroke: #d55e00"/>
     <use xlink:href="#mc2cb4cb0a9" x="911.637468" y="52.194055" style="fill: #d55e00; stroke: #d55e00"/>
     <use xlink:href="#mc2cb4cb0a9" x="948.350455" y="41.8815" style="fill: #d55e00; stroke: #d55e00"/>
    </g>
   </g>
   <g id="line2d_99">
    <path d="M 691.359545 221.998853 
L 728.072532 197.182354 
L 764.785519 183.316155 
L 801.498506 172.661153 
L 838.211494 119.560345 
L 874.924481 82.947098 
L 911.637468 58.681668 
L 948.350455 46.46238 
" clip-path="url(#pf8e54c98a7)" style="fill: none; stroke: #009e73; stroke-width: 1.5; stroke-linecap: round"/>
    <g clip-path="url(#pf8e54c98a7)">
     <use xlink:href="#m4402247a4f" x="691.359545" y="221.998853" style="fill: #009e73; stroke: #009e73"/>
     <use xlink:href="#m4402247a4f" x="728.072532" y="197.182354" style="fill: #009e73; stroke: #009e73"/>
     <use xlink:href="#m4402247a4f" x="764.785519" y="183.316155" style="fill: #009e73; stroke: #009e73"/>
     <use xlink:href="#m4402247a4f" x="801.498506" y="172.661153" style="fill: #009e73; stroke: #009e73"/>
     <use xlink:href="#m4402247a4f" x="838.211494" y="119.560345" style="fill: #009e73; stroke: #009e73"/>
     <use xlink:href="#m4402247a4f" x="874.924481" y="82.947098" style="fill: #009e73; stroke: #009e73"/>
     <use xlink:href="#m4402247a4f" x="911.637468" y="58.681668" style="fill: #009e73; stroke: #009e73"/>
     <use xlink:href="#m4402247a4f" x="948.350455" y="46.46238" style="fill: #009e73; stroke: #009e73"/>
    </g>
   </g>
   <g id="line2d_100">
    <path d="M 691.359545 239.353636 
L 728.072532 211.811309 
L 764.785519 149.279337 
L 801.498506 95.736118 
L 838.211494 68.680199 
L 874.924481 53.29714 
L 911.637468 42.692755 
L 948.350455 35.626364 
" clip-path="url(#pf8e54c98a7)" style="fill: none; stroke: #cc79a7; stroke-width: 1.5; stroke-linecap: round"/>
    <g clip-path="url(#pf8e54c98a7)">
     <use xlink:href="#m81e7fc2c56" x="691.359545" y="239.353636" style="fill: #cc79a7; stroke: #cc79a7"/>
     <use xlink:href="#m81e7fc2c56" x="728.072532" y="211.811309" style="fill: #cc79a7; stroke: #cc79a7"/>
     <use xlink:href="#m81e7fc2c56" x="764.785519" y="149.279337" style="fill: #cc79a7; stroke: #cc79a7"/>
     <use xlink:href="#m81e7fc2c56" x="801.498506" y="95.736118" style="fill: #cc79a7; stroke: #cc79a7"/>
     <use xlink:href="#m81e7fc2c56" x="838.211494" y="68.680199" style="fill: #cc79a7; stroke: #cc79a7"/>
     <use xlink:href="#m81e7fc2c56" x="874.924481" y="53.29714" style="fill: #cc79a7; stroke: #cc79a7"/>
     <use xlink:href="#m81e7fc2c56" x="911.637468" y="42.692755" style="fill: #cc79a7; stroke: #cc79a7"/>
     <use xlink:href="#m81e7fc2c56" x="948.350455" y="35.626364" style="fill: #cc79a7; stroke: #cc79a7"/>
    </g>
   </g>
   <g id="patch_13">
    <path d="M 678.51 249.54 
L 678.51 25.44 
" style="fill: none; stroke: #cccccc; stroke-linejoin: miter; stroke-linecap: square"/>
   </g>
   <g id="patch_14">
    <path d="M 961.2 249.54 
L 961.2 25.44 
" style="fill: none; stroke: #cccccc; stroke-linejoin: miter; stroke-linecap: square"/>
   </g>
   <g id="patch_15">
    <path d="M 678.51 249.54 
L 961.2 249.54 
" style="fill: none; stroke: #cccccc; stroke-linejoin: miter; stroke-linecap: square"/>
   </g>
   <g id="patch_16">
    <path d="M 678.51 25.44 
L 961.2 25.44 
" style="fill: none; stroke: #cccccc; stroke-linejoin: miter; stroke-linecap: square"/>
   </g>
   <g id="text_55">
    <!-- Force share -->
    <g style="fill: #262626" transform="translate(787.845 19.44) scale(0.12 -0.12)">
     <defs>
      <path id="LiberationSans-46" d="M 1122 3916 
L 1122 2278 
L 3578 2278 
L 3578 1784 
L 1122 1784 
L 1122 0 
L 525 0 
L 525 4403 
L 3653 4403 
L 3653 3916 
L 1122 3916 
z
" transform="scale(0.015625)"/>
      <path id="LiberationSans-63" d="M 859 1706 
Q 859 1031 1071 706 
Q 1284 381 1713 381 
Q 2013 381 2214 543 
Q 2416 706 2463 1044 
L 3031 1006 
Q 2966 519 2616 228 
Q 2266 -63 1728 -63 
Q 1019 -63 645 385 
Q 272 834 272 1694 
Q 272 2547 647 2995 
Q 1022 3444 1722 3444 
Q 2241 3444 2583 3175 
Q 2925 2906 3013 2434 
L 2434 2391 
Q 2391 2672 2212 2837 
Q 2034 3003 1706 3003 
Q 1259 3003 1059 2706 
Q 859 2409 859 1706 
z
" transform="scale(0.015625)"/>
     </defs>
     <use xlink:href="#LiberationSans-46"/>
     <use xlink:href="#LiberationSans-6f" transform="translate(61.083984 0)"/>
     <use xlink:href="#LiberationSans-72" transform="translate(116.699219 0)"/>
     <use xlink:href="#LiberationSans-63" transform="translate(150 0)"/>
     <use xlink:href="#LiberationSans-65" transform="translate(200 0)"/>
     <use xlink:href="#LiberationSans-20" transform="translate(255.615234 0)"/>
     <use xlink:href="#LiberationSans-73" transform="translate(283.398438 0)"/>
     <use xlink:href="#LiberationSans-68" transform="translate(333.398438 0)"/>
     <use xlink:href="#LiberationSans-61" transform="translate(389.013672 0)"/>
     <use xlink:href="#LiberationSans-72" transform="translate(444.628906 0)"/>
     <use xlink:href="#LiberationSans-65" transform="translate(477.929688 0)"/>
    </g>
   </g>
  </g>
 </g>
 <defs>
  <clipPath id="p1864920b42">
   <rect x="34.05" y="25.44" width="282.69" height="224.1"/>
  </clipPath>
  <clipPath id="pdb76b93cc1">
   <rect x="356.28" y="25.44" width="282.69" height="224.1"/>
  </clipPath>
  <clipPath id="pf8e54c98a7">
   <rect x="678.51" y="25.44" width="282.69" height="224.1"/>
  </clipPath>
 </defs>
</svg>
