<?xml version="1.0" encoding="utf-8" standalone="no"?>
<!DOCTYPE svg PUBLIC "-//W3C//DTD SVG 1.1//EN"
  "http://www.w3.org/Graphics/SVG/1.1/DTD/svg11.dtd">
<svg xmlns:xlink="http://www.w3.org/1999/xlink" width="612pt" height="360pt" viewBox="0 0 612 360" xmlns="http://www.w3.org/2000/svg" version="1.1">
 <metadata>
  <rdf:RDF xmlns:dc="http://purl.org/dc/elements/1.1/" xmlns:cc="http://creativecommons.org/ns#" xmlns:rdf="http://www.w3.org/1999/02/22-rdf-syntax-ns#">
   <cc:Work>
    <dc:type rdf:resource="http://purl.org/dc/dcmitype/StillImage"/>
    <dc:date>2026-04-14T17:33:56.734102</dc:date>
    <dc:format>image/svg+xml</dc:format>
    <dc:creator>
     <cc:Agent>
      <dc:title>Matplotlib v3.10.1, https://matplotlib.org/</dc:title>
     </cc:Agent>
    </dc:creator>
   </cc:Work>
  </rdf:RDF>
 </metadata>
 <defs>
  <style type="text/css">*{stroke-linejoin: round; stroke-linecap: butt}</style>
 </defs>
 <g id="figure_1">
  <g id="patch_1">
   <path d="M 0 360 
L 612 360 
L 612 0 
L 0 0 
z
" style="fill: #ffffff"/>
  </g>
  <g id="axes_1">
   <g id="patch_2">
    <path d="M 45.21 321.54 
L 601.2 321.54 
L 601.2 25.44 
L 45.21 25.44 
z
" style="fill: #ffffff"/>
   </g>
   <g id="matplotlib.axis_1">
    <g id="xtick_1">
     <g id="line2d_1">
      <path d="M 70.482273 321.54 
L 70.482273 25.44 
" clip-path="url(#pb1ab9d1b17)" style="fill: none; stroke: #cccccc; stroke-width: 0.8; stroke-linecap: round"/>
     </g>
     <g id="line2d_2"/>
     <g id="text_1">
      <!-- 1 -->
      <g style="fill: #262626" transform="translate(67.701804 332.286875) scale(0.1 -0.1)">
       <defs>
        <path id="LiberationSans-31" d="M 488 0 
L 488 478 
L 1609 478 
L 1609 3866 
L 616 3156 
L 616 3688 
L 1656 4403 
L 2175 4403 
L 2175 478 
L 3247 478 
L 3247 0 
L 488 0 
z
" transform="scale(0.015625)"/>
       </defs>
       <use xlink:href="#LiberationSans-31"/>
      </g>
     </g>
    </g>
    <g id="xtick_2">
     <g id="line2d_3">
      <path d="M 142.688766 321.54 
L 142.688766 25.44 
" clip-path="url(#pb1ab9d1b17)" style="fill: none; stroke: #cccccc; stroke-width: 0.8; stroke-linecap: round"/>
     </g>
     <g id="line2d_4"/>
     <g id="text_2">
      <!-- 2 -->
      <g style="fill: #262626" transform="translate(139.908297 332.286875) scale(0.1 -0.1)">
       <defs>
        <path id="LiberationSans-32" d="M 322 0 
L 322 397 
Q 481 763 711 1042 
Q 941 1322 1194 1548 
Q 1447 1775 1695 1969 
Q 1944 2163 2144 2356 
Q 2344 2550 2467 2762 
Q 2591 2975 2591 3244 
Q 2591 3606 2378 3806 
Q 2166 4006 1788 4006 
Q 1428 4006 1195 3811 
Q 963 3616 922 3263 
L 347 3316 
Q 409 3844 795 4156 
Q 1181 4469 1788 4469 
Q 2453 4469 2811 4155 
Q 3169 3841 3169 3263 
Q 3169 3006 3051 2753 
Q 2934 2500 2703 2247 
Q 2472 1994 1819 1463 
Q 1459 1169 1246 933 
Q 1034 697 941 478 
L 3238 478 
L 3238 0 
L 322 0 
z
" transform="scale(0.015625)"/>
       </defs>
       <use xlink:href="#LiberationSans-32"/>
      </g>
     </g>
    </g>
    <g id="xtick_3">
     <g id="line2d_5">
      <path d="M 214.89526 321.54 
L 214.89526 25.44 
" clip-path="url(#pb1ab9d1b17)" style="fill: none; stroke: #cccccc; stroke-width: 0.8; stroke-linecap: round"/>
     </g>
     <g id="line2d_6"/>
     <g id="text_3">
      <!-- 3 -->
      <g style="fill: #262626" transform="translate(212.114791 332.286875) scale(0.1 -0.1)">
       <defs>
        <path id="LiberationSans-33" d="M 3278 1216 
Q 3278 606 2890 271 
Q 2503 -63 1784 -63 
Q 1116 -63 717 239 
Q 319 541 244 1131 
L 825 1184 
Q 938 403 1784 403 
Q 2209 403 2451 612 
Q 2694 822 2694 1234 
Q 2694 1594 2417 1795 
Q 2141 1997 1619 1997 
L 1300 1997 
L 1300 2484 
L 1606 2484 
Q 2069 2484 2323 2686 
Q 2578 2888 2578 3244 
Q 2578 3597 2370 3801 
Q 2163 4006 1753 4006 
Q 1381 4006 1151 3815 
Q 922 3625 884 3278 
L 319 3322 
Q 381 3863 767 4166 
Q 1153 4469 1759 4469 
Q 2422 4469 2789 4161 
Q 3156 3853 3156 3303 
Q 3156 2881 2920 2617 
Q 2684 2353 2234 2259 
L 2234 2247 
Q 2728 2194 3003 1916 
Q 3278 1638 3278 1216 
z
" transform="scale(0.015625)"/>
       </defs>
       <use xlink:href="#LiberationSans-33"/>
      </g>
     </g>
    </g>
    <g id="xtick_4">
     <g id="line2d_7">
      <path d="M 287.101753 321.54 
L 287.101753 25.44 
" clip-path="url(#pb1ab9d1b17)" style="fill: none; stroke: #cccccc; stroke-width: 0.8; stroke-linecap: round"/>
     </g>
     <g id="line2d_8"/>
     <g id="text_4">
      <!-- 4 -->
      <g style="fill: #262626" transform="translate(284.321284 332.286875) scale(0.1 -0.1)">
       <defs>
        <path id="LiberationSans-34" d="M 2753 997 
L 2753 0 
L 2222 0 
L 2222 997 
L 147 997 
L 147 1434 
L 2163 4403 
L 2753 4403 
L 2753 1441 
L 3372 1441 
L 3372 997 
L 2753 997 
z
M 2222 3769 
Q 2216 3750 2134 3603 
Q 2053 3456 2013 3397 
L 884 1734 
L 716 1503 
L 666 1441 
L 2222 1441 
L 2222 3769 
z
" transform="scale(0.015625)"/>
       </defs>
       <use xlink:href="#LiberationSans-34"/>
      </g>
     </g>
    </g>
    <g id="xtick_5">
     <g id="line2d_9">
      <path d="M 359.308247 321.54 
L 359.308247 25.44 
" clip-path="url(#pb1ab9d1b17)" style="fill: none; stroke: #cccccc; stroke-width: 0.8; stroke-linecap: round"/>
     </g>
     <g id="line2d_10"/>
     <g id="text_5">
      <!-- 5 -->
      <g style="fill: #262626" transform="translate(356.527778 332.286875) scale(0.1 -0.1)">
       <defs>
        <path id="LiberationSans-35" d="M 3291 1434 
Q 3291 738 2877 337 
Q 2463 -63 1728 -63 
Q 1113 -63 734 206 
Q 356 475 256 984 
L 825 1050 
Q 1003 397 1741 397 
Q 2194 397 2450 670 
Q 2706 944 2706 1422 
Q 2706 1838 2448 2094 
Q 2191 2350 1753 2350 
Q 1525 2350 1328 2278 
Q 1131 2206 934 2034 
L 384 2034 
L 531 4403 
L 3034 4403 
L 3034 3925 
L 1044 3925 
L 959 2528 
Q 1325 2809 1869 2809 
Q 2519 2809 2905 2428 
Q 3291 2047 3291 1434 
z
" transform="scale(0.015625)"/>
       </defs>
       <use xlink:href="#LiberationSans-35"/>
      </g>
     </g>
    </g>
    <g id="xtick_6">
     <g id="line2d_11">
      <path d="M 431.51474 321.54 
L 431.51474 25.44 
" clip-path="url(#pb1ab9d1b17)" style="fill: none; stroke: #cccccc; stroke-width: 0.8; stroke-linecap: round"/>
     </g>
     <g id="line2d_12"/>
     <g id="text_6">
      <!-- 6 -->
      <g style="fill: #262626" transform="translate(428.734272 332.286875) scale(0.1 -0.1)">
       <defs>
        <path id="LiberationSans-36" d="M 3278 1441 
Q 3278 744 2900 340 
Q 2522 -63 1856 -63 
Q 1113 -63 719 490 
Q 325 1044 325 2100 
Q 325 3244 734 3856 
Q 1144 4469 1900 4469 
Q 2897 4469 3156 3572 
L 2619 3475 
Q 2453 4013 1894 4013 
Q 1413 4013 1148 3564 
Q 884 3116 884 2266 
Q 1038 2550 1316 2698 
Q 1594 2847 1953 2847 
Q 2563 2847 2920 2465 
Q 3278 2084 3278 1441 
z
M 2706 1416 
Q 2706 1894 2472 2153 
Q 2238 2413 1819 2413 
Q 1425 2413 1183 2183 
Q 941 1953 941 1550 
Q 941 1041 1192 716 
Q 1444 391 1838 391 
Q 2244 391 2475 664 
Q 2706 938 2706 1416 
z
" transform="scale(0.015625)"/>
       </defs>
       <use xlink:href="#LiberationSans-36"/>
      </g>
     </g>
    </g>
    <g id="xtick_7">
     <g id="line2d_13">
      <path d="M 503.721234 321.54 
L 503.721234 25.44 
" clip-path="url(#pb1ab9d1b17)" style="fill: none; stroke: #cccccc; stroke-width: 0.8; stroke-linecap: round"/>
     </g>
     <g id="line2d_14"/>
     <g id="text_7">
      <!-- 7 -->
      <g style="fill: #262626" transform="translate(500.940765 332.286875) scale(0.1 -0.1)">
       <defs>
        <path id="LiberationSans-37" d="M 3238 3947 
Q 2563 2916 2284 2331 
Q 2006 1747 1867 1178 
Q 1728 609 1728 0 
L 1141 0 
Q 1141 844 1498 1776 
Q 1856 2709 2694 3925 
L 328 3925 
L 328 4403 
L 3238 4403 
L 3238 3947 
z
" transform="scale(0.015625)"/>
       </defs>
       <use xlink:href="#LiberationSans-37"/>
      </g>
     </g>
    </g>
    <g id="xtick_8">
     <g id="line2d_15">
      <path d="M 575.927727 321.54 
L 575.927727 25.44 
" clip-path="url(#pb1ab9d1b17)" style="fill: none; stroke: #cccccc; stroke-width: 0.8; stroke-linecap: round"/>
     </g>
     <g id="line2d_16"/>
     <g id="text_8">
      <!-- 8 -->
      <g style="fill: #262626" transform="translate(573.147259 332.286875) scale(0.1 -0.1)">
       <defs>
        <path id="LiberationSans-38" d="M 3281 1228 
Q 3281 619 2893 278 
Q 2506 -63 1781 -63 
Q 1075 -63 676 271 
Q 278 606 278 1222 
Q 278 1653 525 1947 
Q 772 2241 1156 2303 
L 1156 2316 
Q 797 2400 589 2681 
Q 381 2963 381 3341 
Q 381 3844 757 4156 
Q 1134 4469 1769 4469 
Q 2419 4469 2795 4162 
Q 3172 3856 3172 3334 
Q 3172 2956 2962 2675 
Q 2753 2394 2391 2322 
L 2391 2309 
Q 2813 2241 3047 1952 
Q 3281 1663 3281 1228 
z
M 2588 3303 
Q 2588 4050 1769 4050 
Q 1372 4050 1164 3862 
Q 956 3675 956 3303 
Q 956 2925 1170 2726 
Q 1384 2528 1775 2528 
Q 2172 2528 2380 2711 
Q 2588 2894 2588 3303 
z
M 2697 1281 
Q 2697 1691 2453 1898 
Q 2209 2106 1769 2106 
Q 1341 2106 1100 1882 
Q 859 1659 859 1269 
Q 859 359 1788 359 
Q 2247 359 2472 579 
Q 2697 800 2697 1281 
z
" transform="scale(0.015625)"/>
       </defs>
       <use xlink:href="#LiberationSans-38"/>
      </g>
     </g>
    </g>
    <g id="text_9">
     <!-- lmax -->
     <g style="fill: #262626" transform="translate(312.64875 345.60875) scale(0.1 -0.1)">
      <defs>
       <path id="LiberationSans-6c" d="M 431 0 
L 431 4638 
L 994 4638 
L 994 0 
L 431 0 
z
" transform="scale(0.015625)"/>
       <path id="LiberationSans-6d" d="M 2400 0 
L 2400 2144 
Q 2400 2634 2265 2821 
Q 2131 3009 1781 3009 
Q 1422 3009 1212 2734 
Q 1003 2459 1003 1959 
L 1003 0 
L 444 0 
L 444 2659 
Q 444 3250 425 3381 
L 956 3381 
Q 959 3366 962 3297 
Q 966 3228 970 3139 
Q 975 3050 981 2803 
L 991 2803 
Q 1172 3163 1406 3303 
Q 1641 3444 1978 3444 
Q 2363 3444 2586 3291 
Q 2809 3138 2897 2803 
L 2906 2803 
Q 3081 3144 3329 3294 
Q 3578 3444 3931 3444 
Q 4444 3444 4676 3166 
Q 4909 2888 4909 2253 
L 4909 0 
L 4353 0 
L 4353 2144 
Q 4353 2634 4218 2821 
Q 4084 3009 3734 3009 
Q 3366 3009 3161 2736 
Q 2956 2463 2956 1959 
L 2956 0 
L 2400 0 
z
" transform="scale(0.015625)"/>
       <path id="LiberationSans-61" d="M 1294 -63 
Q 784 -63 528 206 
Q 272 475 272 944 
Q 272 1469 617 1750 
Q 963 2031 1731 2050 
L 2491 2063 
L 2491 2247 
Q 2491 2659 2316 2837 
Q 2141 3016 1766 3016 
Q 1388 3016 1216 2887 
Q 1044 2759 1009 2478 
L 422 2531 
Q 566 3444 1778 3444 
Q 2416 3444 2737 3151 
Q 3059 2859 3059 2306 
L 3059 850 
Q 3059 600 3125 473 
Q 3191 347 3375 347 
Q 3456 347 3559 369 
L 3559 19 
Q 3347 -31 3125 -31 
Q 2813 -31 2670 133 
Q 2528 297 2509 647 
L 2491 647 
Q 2275 259 1989 98 
Q 1703 -63 1294 -63 
z
M 1422 359 
Q 1731 359 1972 500 
Q 2213 641 2352 886 
Q 2491 1131 2491 1391 
L 2491 1669 
L 1875 1656 
Q 1478 1650 1273 1575 
Q 1069 1500 959 1344 
Q 850 1188 850 934 
Q 850 659 998 509 
Q 1147 359 1422 359 
z
" transform="scale(0.015625)"/>
       <path id="LiberationSans-78" d="M 2503 0 
L 1594 1388 
L 678 0 
L 72 0 
L 1275 1738 
L 128 3381 
L 750 3381 
L 1594 2066 
L 2431 3381 
L 3059 3381 
L 1913 1744 
L 3131 0 
L 2503 0 
z
" transform="scale(0.015625)"/>
      </defs>
      <use xlink:href="#LiberationSans-6c"/>
      <use xlink:href="#LiberationSans-6d" transform="translate(22.216797 0)"/>
      <use xlink:href="#LiberationSans-61" transform="translate(105.517578 0)"/>
      <use xlink:href="#LiberationSans-78" transform="translate(161.132812 0)"/>
     </g>
    </g>
   </g>
   <g id="matplotlib.axis_2">
    <g id="ytick_1">
     <g id="line2d_17">
      <path d="M 45.21 309.459171 
L 601.2 309.459171 
" clip-path="url(#pb1ab9d1b17)" style="fill: none; stroke: #cccccc; stroke-width: 0.8; stroke-linecap: round"/>
     </g>
     <g id="line2d_18"/>
     <g id="text_10">
      <!-- 0 -->
      <g style="fill: #262626" transform="translate(36.149063 313.082608) scale(0.1 -0.1)">
       <defs>
        <path id="LiberationSans-30" d="M 3309 2203 
Q 3309 1100 2920 518 
Q 2531 -63 1772 -63 
Q 1013 -63 631 515 
Q 250 1094 250 2203 
Q 250 3338 620 3903 
Q 991 4469 1791 4469 
Q 2569 4469 2939 3897 
Q 3309 3325 3309 2203 
z
M 2738 2203 
Q 2738 3156 2517 3584 
Q 2297 4013 1791 4013 
Q 1272 4013 1045 3591 
Q 819 3169 819 2203 
Q 819 1266 1048 831 
Q 1278 397 1778 397 
Q 2275 397 2506 840 
Q 2738 1284 2738 2203 
z
" transform="scale(0.015625)"/>
       </defs>
       <use xlink:href="#LiberationSans-30"/>
      </g>
     </g>
    </g>
    <g id="ytick_2">
     <g id="line2d_19">
      <path d="M 45.21 275.002624 
L 601.2 275.002624 
" clip-path="url(#pb1ab9d1b17)" style="fill: none; stroke: #cccccc; stroke-width: 0.8; stroke-linecap: round"/>
     </g>
     <g id="line2d_20"/>
     <g id="text_11">
      <!-- 25 -->
      <g style="fill: #262626" transform="translate(30.588125 278.626062) scale(0.1 -0.1)">
       <use xlink:href="#LiberationSans-32"/>
       <use xlink:href="#LiberationSans-35" transform="translate(55.615234 0)"/>
      </g>
     </g>
    </g>
    <g id="ytick_3">
     <g id="line2d_21">
      <path d="M 45.21 240.546077 
L 601.2 240.546077 
" clip-path="url(#pb1ab9d1b17)" style="fill: none; stroke: #cccccc; stroke-width: 0.8; stroke-linecap: round"/>
     </g>
     <g id="line2d_22"/>
     <g id="text_12">
      <!-- 50 -->
      <g style="fill: #262626" transform="translate(30.588125 244.169515) scale(0.1 -0.1)">
       <use xlink:href="#LiberationSans-35"/>
       <use xlink:href="#LiberationSans-30" transform="translate(55.615234 0)"/>
      </g>
     </g>
    </g>
    <g id="ytick_4">
     <g id="line2d_23">
      <path d="M 45.21 206.089531 
L 601.2 206.089531 
" clip-path="url(#pb1ab9d1b17)" style="fill: none; stroke: #cccccc; stroke-width: 0.8; stroke-linecap: round"/>
     </g>
     <g id="line2d_24"/>
     <g id="text_13">
      <!-- 75 -->
      <g style="fill: #262626" transform="translate(30.588125 209.712968) scale(0.1 -0.1)">
       <use xlink:href="#LiberationSans-37"/>
       <use xlink:href="#LiberationSans-35" transform="translate(55.615234 0)"/>
      </g>
     </g>
    </g>
    <g id="ytick_5">
     <g id="line2d_25">
      <path d="M 45.21 171.632984 
L 601.2 171.632984 
" clip-path="url(#pb1ab9d1b17)" style="fill: none; stroke: #cccccc; stroke-width: 0.8; stroke-linecap: round"/>
     </g>
     <g id="line2d_26"/>
     <g id="text_14">
      <!-- 100 -->
      <g style="fill: #262626" transform="translate(25.027188 175.256421) scale(0.1 -0.1)">
       <use xlink:href="#LiberationSans-31"/>
       <use xlink:href="#LiberationSans-30" transform="translate(55.615234 0)"/>
       <use xlink:href="#LiberationSans-30" transform="translate(111.230469 0)"/>
      </g>
     </g>
    </g>
    <g id="ytick_6">
     <g id="line2d_27">
      <path d="M 45.21 137.176437 
L 601.2 137.176437 
" clip-path="url(#pb1ab9d1b17)" style="fill: none; stroke: #cccccc; stroke-width: 0.8; stroke-linecap: round"/>
     </g>
     <g id="line2d_28"/>
     <g id="text_15">
      <!-- 125 -->
      <g style="fill: #262626" transform="translate(25.027188 140.799874) scale(0.1 -0.1)">
       <use xlink:href="#LiberationSans-31"/>
       <use xlink:href="#LiberationSans-32" transform="translate(55.615234 0)"/>
       <use xlink:href="#LiberationSans-35" transform="translate(111.230469 0)"/>
      </g>
     </g>
    </g>
    <g id="ytick_7">
     <g id="line2d_29">
      <path d="M 45.21 102.71989 
L 601.2 102.71989 
" clip-path="url(#pb1ab9d1b17)" style="fill: none; stroke: #cccccc; stroke-width: 0.8; stroke-linecap: round"/>
     </g>
     <g id="line2d_30"/>
     <g id="text_16">
      <!-- 150 -->
      <g style="fill: #262626" transform="translate(25.027188 106.343328) scale(0.1 -0.1)">
       <use xlink:href="#LiberationSans-31"/>
       <use xlink:href="#LiberationSans-35" transform="translate(55.615234 0)"/>
       <use xlink:href="#LiberationSans-30" transform="translate(111.230469 0)"/>
      </g>
     </g>
    </g>
    <g id="ytick_8">
     <g id="line2d_31">
      <path d="M 45.21 68.263343 
L 601.2 68.263343 
" clip-path="url(#pb1ab9d1b17)" style="fill: none; stroke: #cccccc; stroke-width: 0.8; stroke-linecap: round"/>
     </g>
     <g id="line2d_32"/>
     <g id="text_17">
      <!-- 175 -->
      <g style="fill: #262626" transform="translate(25.027188 71.886781) scale(0.1 -0.1)">
       <use xlink:href="#LiberationSans-31"/>
       <use xlink:href="#LiberationSans-37" transform="translate(55.615234 0)"/>
       <use xlink:href="#LiberationSans-35" transform="translate(111.230469 0)"/>
      </g>
     </g>
    </g>
    <g id="ytick_9">
     <g id="line2d_33">
      <path d="M 45.21 33.806797 
L 601.2 33.806797 
" clip-path="url(#pb1ab9d1b17)" style="fill: none; stroke: #cccccc; stroke-width: 0.8; stroke-linecap: round"/>
     </g>
     <g id="line2d_34"/>
     <g id="text_18">
      <!-- 200 -->
      <g style="fill: #262626" transform="translate(25.027188 37.430234) scale(0.1 -0.1)">
       <use xlink:href="#LiberationSans-32"/>
       <use xlink:href="#LiberationSans-30" transform="translate(55.615234 0)"/>
       <use xlink:href="#LiberationSans-30" transform="translate(111.230469 0)"/>
      </g>
     </g>
    </g>
    <g id="text_19">
     <!-- Latency growth (x vs lmax=1) -->
     <g style="fill: #262626" transform="translate(18.952188 238.650156) rotate(-90) scale(0.1 -0.1)">
      <defs>
       <path id="LiberationSans-4c" d="M 525 0 
L 525 4403 
L 1122 4403 
L 1122 488 
L 3347 488 
L 3347 0 
L 525 0 
z
" transform="scale(0.015625)"/>
       <path id="LiberationSans-74" d="M 1731 25 
Q 1453 -50 1163 -50 
Q 488 -50 488 716 
L 488 2972 
L 97 2972 
L 97 3381 
L 509 3381 
L 675 4138 
L 1050 4138 
L 1050 3381 
L 1675 3381 
L 1675 2972 
L 1050 2972 
L 1050 838 
Q 1050 594 1129 495 
Q 1209 397 1406 397 
Q 1519 397 1731 441 
L 1731 25 
z
" transform="scale(0.015625)"/>
       <path id="LiberationSans-65" d="M 863 1572 
Q 863 991 1103 675 
Q 1344 359 1806 359 
Q 2172 359 2392 506 
Q 2613 653 2691 878 
L 3184 738 
Q 2881 -63 1806 -63 
Q 1056 -63 664 384 
Q 272 831 272 1713 
Q 272 2550 664 2997 
Q 1056 3444 1784 3444 
Q 3275 3444 3275 1647 
L 3275 1572 
L 863 1572 
z
M 2694 2003 
Q 2647 2538 2422 2783 
Q 2197 3028 1775 3028 
Q 1366 3028 1127 2754 
Q 888 2481 869 2003 
L 2694 2003 
z
" transform="scale(0.015625)"/>
       <path id="LiberationSans-6e" d="M 2578 0 
L 2578 2144 
Q 2578 2478 2512 2662 
Q 2447 2847 2303 2928 
Q 2159 3009 1881 3009 
Q 1475 3009 1240 2731 
Q 1006 2453 1006 1959 
L 1006 0 
L 444 0 
L 444 2659 
Q 444 3250 425 3381 
L 956 3381 
Q 959 3366 962 3297 
Q 966 3228 970 3139 
Q 975 3050 981 2803 
L 991 2803 
Q 1184 3153 1439 3298 
Q 1694 3444 2072 3444 
Q 2628 3444 2886 3167 
Q 3144 2891 3144 2253 
L 3144 0 
L 2578 0 
z
" transform="scale(0.015625)"/>
       <path id="LiberationSans-63" d="M 859 1706 
Q 859 1031 1071 706 
Q 1284 381 1713 381 
Q 2013 381 2214 543 
Q 2416 706 2463 1044 
L 3031 1006 
Q 2966 519 2616 228 
Q 2266 -63 1728 -63 
Q 1019 -63 645 385 
Q 272 834 272 1694 
Q 272 2547 647 2995 
Q 1022 3444 1722 3444 
Q 2241 3444 2583 3175 
Q 2925 2906 3013 2434 
L 2434 2391 
Q 2391 2672 2212 2837 
Q 2034 3003 1706 3003 
Q 1259 3003 1059 2706 
Q 859 2409 859 1706 
z
" transform="scale(0.015625)"/>
       <path id="LiberationSans-79" d="M 597 -1328 
Q 366 -1328 209 -1294 
L 209 -872 
Q 328 -891 472 -891 
Q 997 -891 1303 -119 
L 1356 16 
L 16 3381 
L 616 3381 
L 1328 1513 
Q 1344 1469 1366 1408 
Q 1388 1347 1506 1000 
Q 1625 653 1634 613 
L 1853 1228 
L 2594 3381 
L 3188 3381 
L 1888 0 
Q 1678 -541 1497 -805 
Q 1316 -1069 1095 -1198 
Q 875 -1328 597 -1328 
z
" transform="scale(0.015625)"/>
       <path id="LiberationSans-20" transform="scale(0.015625)"/>
       <path id="LiberationSans-67" d="M 1713 -1328 
Q 1159 -1328 831 -1111 
Q 503 -894 409 -494 
L 975 -413 
Q 1031 -647 1223 -773 
Q 1416 -900 1728 -900 
Q 2569 -900 2569 84 
L 2569 628 
L 2563 628 
Q 2403 303 2125 139 
Q 1847 -25 1475 -25 
Q 853 -25 561 387 
Q 269 800 269 1684 
Q 269 2581 583 3007 
Q 897 3434 1538 3434 
Q 1897 3434 2161 3270 
Q 2425 3106 2569 2803 
L 2575 2803 
Q 2575 2897 2587 3128 
Q 2600 3359 2613 3381 
L 3147 3381 
Q 3128 3213 3128 2681 
L 3128 97 
Q 3128 -1328 1713 -1328 
z
M 2569 1691 
Q 2569 2103 2456 2401 
Q 2344 2700 2139 2858 
Q 1934 3016 1675 3016 
Q 1244 3016 1047 2703 
Q 850 2391 850 1691 
Q 850 997 1034 694 
Q 1219 391 1666 391 
Q 1931 391 2137 547 
Q 2344 703 2456 995 
Q 2569 1288 2569 1691 
z
" transform="scale(0.015625)"/>
       <path id="LiberationSans-72" d="M 444 0 
L 444 2594 
Q 444 2950 425 3381 
L 956 3381 
Q 981 2806 981 2691 
L 994 2691 
Q 1128 3125 1303 3284 
Q 1478 3444 1797 3444 
Q 1909 3444 2025 3413 
L 2025 2897 
Q 1913 2928 1725 2928 
Q 1375 2928 1190 2626 
Q 1006 2325 1006 1763 
L 1006 0 
L 444 0 
z
" transform="scale(0.015625)"/>
       <path id="LiberationSans-6f" d="M 3291 1694 
Q 3291 806 2900 371 
Q 2509 -63 1766 -63 
Q 1025 -63 647 389 
Q 269 841 269 1694 
Q 269 3444 1784 3444 
Q 2559 3444 2925 3017 
Q 3291 2591 3291 1694 
z
M 2700 1694 
Q 2700 2394 2492 2711 
Q 2284 3028 1794 3028 
Q 1300 3028 1079 2704 
Q 859 2381 859 1694 
Q 859 1025 1076 689 
Q 1294 353 1759 353 
Q 2266 353 2483 678 
Q 2700 1003 2700 1694 
z
" transform="scale(0.015625)"/>
       <path id="LiberationSans-77" d="M 3669 0 
L 3016 0 
L 2425 2391 
L 2313 2919 
Q 2284 2778 2225 2514 
Q 2166 2250 1588 0 
L 938 0 
L -9 3381 
L 547 3381 
L 1119 1084 
Q 1141 1009 1253 466 
L 1306 697 
L 2013 3381 
L 2616 3381 
L 3206 1059 
L 3350 466 
L 3447 900 
L 4088 3381 
L 4638 3381 
L 3669 0 
z
" transform="scale(0.015625)"/>
       <path id="LiberationSans-68" d="M 991 2803 
Q 1172 3134 1426 3289 
Q 1681 3444 2072 3444 
Q 2622 3444 2883 3170 
Q 3144 2897 3144 2253 
L 3144 0 
L 2578 0 
L 2578 2144 
Q 2578 2500 2512 2673 
Q 2447 2847 2297 2928 
Q 2147 3009 1881 3009 
Q 1484 3009 1245 2734 
Q 1006 2459 1006 1994 
L 1006 0 
L 444 0 
L 444 4638 
L 1006 4638 
L 1006 3431 
Q 1006 3241 995 3037 
Q 984 2834 981 2803 
L 991 2803 
z
" transform="scale(0.015625)"/>
       <path id="LiberationSans-28" d="M 397 1663 
Q 397 2566 680 3284 
Q 963 4003 1550 4638 
L 2094 4638 
Q 1509 3988 1236 3256 
Q 963 2525 963 1656 
Q 963 791 1233 62 
Q 1503 -666 2094 -1325 
L 1550 -1325 
Q 959 -688 678 32 
Q 397 753 397 1650 
L 397 1663 
z
" transform="scale(0.015625)"/>
       <path id="LiberationSans-76" d="M 1916 0 
L 1250 0 
L 22 3381 
L 622 3381 
L 1366 1181 
Q 1406 1056 1581 441 
L 1691 806 
L 1813 1175 
L 2581 3381 
L 3178 3381 
L 1916 0 
z
" transform="scale(0.015625)"/>
       <path id="LiberationSans-73" d="M 2969 934 
Q 2969 456 2608 196 
Q 2247 -63 1597 -63 
Q 966 -63 623 145 
Q 281 353 178 794 
L 675 891 
Q 747 619 972 492 
Q 1197 366 1597 366 
Q 2025 366 2223 497 
Q 2422 628 2422 891 
Q 2422 1091 2284 1216 
Q 2147 1341 1841 1422 
L 1438 1528 
Q 953 1653 748 1773 
Q 544 1894 428 2066 
Q 313 2238 313 2488 
Q 313 2950 642 3192 
Q 972 3434 1603 3434 
Q 2163 3434 2492 3237 
Q 2822 3041 2909 2606 
L 2403 2544 
Q 2356 2769 2151 2889 
Q 1947 3009 1603 3009 
Q 1222 3009 1040 2893 
Q 859 2778 859 2544 
Q 859 2400 934 2306 
Q 1009 2213 1156 2147 
Q 1303 2081 1775 1966 
Q 2222 1853 2419 1758 
Q 2616 1663 2730 1547 
Q 2844 1431 2906 1279 
Q 2969 1128 2969 934 
z
" transform="scale(0.015625)"/>
       <path id="LiberationSans-3d" d="M 313 2675 
L 313 3138 
L 3422 3138 
L 3422 2675 
L 313 2675 
z
M 313 1075 
L 313 1538 
L 3422 1538 
L 3422 1075 
L 313 1075 
z
" transform="scale(0.015625)"/>
       <path id="LiberationSans-29" d="M 1734 1650 
Q 1734 747 1451 28 
Q 1169 -691 581 -1325 
L 38 -1325 
Q 625 -669 897 57 
Q 1169 784 1169 1656 
Q 1169 2528 895 3256 
Q 622 3984 38 4638 
L 581 4638 
Q 1172 4000 1453 3279 
Q 1734 2559 1734 1663 
L 1734 1650 
z
" transform="scale(0.015625)"/>
      </defs>
      <use xlink:href="#LiberationSans-4c"/>
      <use xlink:href="#LiberationSans-61" transform="translate(55.615234 0)"/>
      <use xlink:href="#LiberationSans-74" transform="translate(111.230469 0)"/>
      <use xlink:href="#LiberationSans-65" transform="translate(139.013672 0)"/>
      <use xlink:href="#LiberationSans-6e" transform="translate(194.628906 0)"/>
      <use xlink:href="#LiberationSans-63" transform="translate(250.244141 0)"/>
      <use xlink:href="#LiberationSans-79" transform="translate(300.244141 0)"/>
      <use xlink:href="#LiberationSans-20" transform="translate(350.244141 0)"/>
      <use xlink:href="#LiberationSans-67" transform="translate(378.027344 0)"/>
      <use xlink:href="#LiberationSans-72" transform="translate(433.642578 0)"/>
      <use xlink:href="#LiberationSans-6f" transform="translate(466.943359 0)"/>
      <use xlink:href="#LiberationSans-77" transform="translate(522.558594 0)"/>
      <use xlink:href="#LiberationSans-74" transform="translate(594.775391 0)"/>
      <use xlink:href="#LiberationSans-68" transform="translate(622.558594 0)"/>
      <use xlink:href="#LiberationSans-20" transform="translate(678.173828 0)"/>
      <use xlink:href="#LiberationSans-28" transform="translate(705.957031 0)"/>
      <use xlink:href="#LiberationSans-78" transform="translate(739.257812 0)"/>
      <use xlink:href="#LiberationSans-20" transform="translate(789.257812 0)"/>
      <use xlink:href="#LiberationSans-76" transform="translate(817.041016 0)"/>
      <use xlink:href="#LiberationSans-73" transform="translate(867.041016 0)"/>
      <use xlink:href="#LiberationSans-20" transform="translate(917.041016 0)"/>
      <use xlink:href="#LiberationSans-6c" transform="translate(944.824219 0)"/>
      <use xlink:href="#LiberationSans-6d" transform="translate(967.041016 0)"/>
      <use xlink:href="#LiberationSans-61" transform="translate(1050.341797 0)"/>
      <use xlink:href="#LiberationSans-78" transform="translate(1105.957031 0)"/>
      <use xlink:href="#LiberationSans-3d" transform="translate(1155.957031 0)"/>
      <use xlink:href="#LiberationSans-31" transform="translate(1214.355469 0)"/>
      <use xlink:href="#LiberationSans-29" transform="translate(1269.970703 0)"/>
     </g>
    </g>
   </g>
   <g id="line2d_35">
    <path d="M 70.482273 308.080909 
L 142.688766 307.454874 
L 214.89526 306.664009 
L 287.101753 305.332711 
L 359.308247 303.631803 
L 431.51474 301.316493 
L 503.721234 298.429262 
L 575.927727 294.7518 
" clip-path="url(#pb1ab9d1b17)" style="fill: none; stroke: #0072b2; stroke-width: 1.5; stroke-linecap: round"/>
    <defs>
     <path id="mfc786db541" d="M 0 3 
C 0.795609 3 1.55874 2.683901 2.12132 2.12132 
C 2.683901 1.55874 3 0.795609 3 0 
C 3 -0.795609 2.683901 -1.55874 2.12132 -2.12132 
C 1.55874 -2.683901 0.795609 -3 0 -3 
C -0.795609 -3 -1.55874 -2.683901 -2.12132 -2.12132 
C -2.683901 -1.55874 -3 -0.795609 -3 0 
C -3 0.795609 -2.683901 1.55874 -2.12132 2.12132 
C -1.55874 2.683901 -0.795609 3 0 3 
z
" style="stroke: #0072b2"/>
    </defs>
    <g clip-path="url(#pb1ab9d1b17)">
     <use xlink:href="#mfc786db541" x="70.482273" y="308.080909" style="fill: #0072b2; stroke: #0072b2"/>
     <use xlink:href="#mfc786db541" x="142.688766" y="307.454874" style="fill: #0072b2; stroke: #0072b2"/>
     <use xlink:href="#mfc786db541" x="214.89526" y="306.664009" style="fill: #0072b2; stroke: #0072b2"/>
     <use xlink:href="#mfc786db541" x="287.101753" y="305.332711" style="fill: #0072b2; stroke: #0072b2"/>
     <use xlink:href="#mfc786db541" x="359.308247" y="303.631803" style="fill: #0072b2; stroke: #0072b2"/>
     <use xlink:href="#mfc786db541" x="431.51474" y="301.316493" style="fill: #0072b2; stroke: #0072b2"/>
     <use xlink:href="#mfc786db541" x="503.721234" y="298.429262" style="fill: #0072b2; stroke: #0072b2"/>
     <use xlink:href="#mfc786db541" x="575.927727" y="294.7518" style="fill: #0072b2; stroke: #0072b2"/>
    </g>
   </g>
   <g id="line2d_36">
    <path d="M 70.482273 308.080909 
L 142.688766 307.473333 
L 214.89526 306.697062 
L 287.101753 303.775514 
L 359.308247 295.993679 
L 431.51474 277.685255 
L 503.721234 245.495898 
L 575.927727 188.208781 
" clip-path="url(#pb1ab9d1b17)" style="fill: none; stroke: #d55e00; stroke-width: 1.5; stroke-linecap: round"/>
    <defs>
     <path id="m0dd81d8d56" d="M 0 3 
C 0.795609 3 1.55874 2.683901 2.12132 2.12132 
C 2.683901 1.55874 3 0.795609 3 0 
C 3 -0.795609 2.683901 -1.55874 2.12132 -2.12132 
C 1.55874 -2.683901 0.795609 -3 0 -3 
C -0.795609 -3 -1.55874 -2.683901 -2.12132 -2.12132 
C -2.683901 -1.55874 -3 -0.795609 -3 0 
C -3 0.795609 -2.683901 1.55874 -2.12132 2.12132 
C -1.55874 2.683901 -0.795609 3 0 3 
z
" style="stroke: #d55e00"/>
    </defs>
    <g clip-path="url(#pb1ab9d1b17)">
     <use xlink:href="#m0dd81d8d56" x="70.482273" y="308.080909" style="fill: #d55e00; stroke: #d55e00"/>
     <use xlink:href="#m0dd81d8d56" x="142.688766" y="307.473333" style="fill: #d55e00; stroke: #d55e00"/>
     <use xlink:href="#m0dd81d8d56" x="214.89526" y="306.697062" style="fill: #d55e00; stroke: #d55e00"/>
     <use xlink:href="#m0dd81d8d56" x="287.101753" y="303.775514" style="fill: #d55e00; stroke: #d55e00"/>
     <use xlink:href="#m0dd81d8d56" x="359.308247" y="295.993679" style="fill: #d55e00; stroke: #d55e00"/>
     <use xlink:href="#m0dd81d8d56" x="431.51474" y="277.685255" style="fill: #d55e00; stroke: #d55e00"/>
     <use xlink:href="#m0dd81d8d56" x="503.721234" y="245.495898" style="fill: #d55e00; stroke: #d55e00"/>
     <use xlink:href="#m0dd81d8d56" x="575.927727" y="188.208781" style="fill: #d55e00; stroke: #d55e00"/>
    </g>
   </g>
   <g id="line2d_37">
    <path d="M 70.482273 308.080909 
L 142.688766 307.51366 
L 214.89526 306.674697 
L 287.101753 305.126513 
L 359.308247 300.13204 
L 431.51474 288.380129 
L 503.721234 264.703049 
L 575.927727 225.130319 
" clip-path="url(#pb1ab9d1b17)" style="fill: none; stroke: #009e73; stroke-width: 1.5; stroke-linecap: round"/>
    <defs>
     <path id="m25baba8a1c" d="M 0 3 
C 0.795609 3 1.55874 2.683901 2.12132 2.12132 
C 2.683901 1.55874 3 0.795609 3 0 
C 3 -0.795609 2.683901 -1.55874 2.12132 -2.12132 
C 1.55874 -2.683901 0.795609 -3 0 -3 
C -0.795609 -3 -1.55874 -2.683901 -2.12132 -2.12132 
C -2.683901 -1.55874 -3 -0.795609 -3 0 
C -3 0.795609 -2.683901 1.55874 -2.12132 2.12132 
C -1.55874 2.683901 -0.795609 3 0 3 
z
" style="stroke: #009e73"/>
    </defs>
    <g clip-path="url(#pb1ab9d1b17)">
     <use xlink:href="#m25baba8a1c" x="70.482273" y="308.080909" style="fill: #009e73; stroke: #009e73"/>
     <use xlink:href="#m25baba8a1c" x="142.688766" y="307.51366" style="fill: #009e73; stroke: #009e73"/>
     <use xlink:href="#m25baba8a1c" x="214.89526" y="306.674697" style="fill: #009e73; stroke: #009e73"/>
     <use xlink:href="#m25baba8a1c" x="287.101753" y="305.126513" style="fill: #009e73; stroke: #009e73"/>
     <use xlink:href="#m25baba8a1c" x="359.308247" y="300.13204" style="fill: #009e73; stroke: #009e73"/>
     <use xlink:href="#m25baba8a1c" x="431.51474" y="288.380129" style="fill: #009e73; stroke: #009e73"/>
     <use xlink:href="#m25baba8a1c" x="503.721234" y="264.703049" style="fill: #009e73; stroke: #009e73"/>
     <use xlink:href="#m25baba8a1c" x="575.927727" y="225.130319" style="fill: #009e73; stroke: #009e73"/>
    </g>
   </g>
   <g id="line2d_38">
    <path d="M 70.482273 308.080909 
L 142.688766 307.511295 
L 214.89526 305.214681 
L 287.101753 297.142442 
L 359.308247 278.351638 
L 431.51474 239.866664 
L 503.721234 166.994381 
L 575.927727 38.899091 
" clip-path="url(#pb1ab9d1b17)" style="fill: none; stroke: #cc79a7; stroke-width: 1.5; stroke-linecap: round"/>
    <defs>
     <path id="m958672f8c0" d="M 0 3 
C 0.795609 3 1.55874 2.683901 2.12132 2.12132 
C 2.683901 1.55874 3 0.795609 3 0 
C 3 -0.795609 2.683901 -1.55874 2.12132 -2.12132 
C 1.55874 -2.683901 0.795609 -3 0 -3 
C -0.795609 -3 -1.55874 -2.683901 -2.12132 -2.12132 
C -2.683901 -1.55874 -3 -0.795609 -3 0 
C -3 0.795609 -2.683901 1.55874 -2.12132 2.12132 
C -1.55874 2.683901 -0.795609 3 0 3 
z
" style="stroke: #cc79a7"/>
    </defs>
    <g clip-path="url(#pb1ab9d1b17)">
     <use xlink:href="#m958672f8c0" x="70.482273" y="308.080909" style="fill: #cc79a7; stroke: #cc79a7"/>
     <use xlink:href="#m958672f8c0" x="142.688766" y="307.511295" style="fill: #cc79a7; stroke: #cc79a7"/>
     <use xlink:href="#m958672f8c0" x="214.89526" y="305.214681" style="fill: #cc79a7; stroke: #cc79a7"/>
     <use xlink:href="#m958672f8c0" x="287.101753" y="297.142442" style="fill: #cc79a7; stroke: #cc79a7"/>
     <use xlink:href="#m958672f8c0" x="359.308247" y="278.351638" style="fill: #cc79a7; stroke: #cc79a7"/>
     <use xlink:href="#m958672f8c0" x="431.51474" y="239.866664" style="fill: #cc79a7; stroke: #cc79a7"/>
     <use xlink:href="#m958672f8c0" x="503.721234" y="166.994381" style="fill: #cc79a7; stroke: #cc79a7"/>
     <use xlink:href="#m958672f8c0" x="575.927727" y="38.899091" style="fill: #cc79a7; stroke: #cc79a7"/>
    </g>
   </g>
   <g id="patch_3">
    <path d="M 45.21 321.54 
L 45.21 25.44 
" style="fill: none; stroke: #cccccc; stroke-linejoin: miter; stroke-linecap: square"/>
   </g>
   <g id="patch_4">
    <path d="M 601.2 321.54 
L 601.2 25.44 
" style="fill: none; stroke: #cccccc; stroke-linejoin: miter; stroke-linecap: square"/>
   </g>
   <g id="patch_5">
    <path d="M 45.21 321.54 
L 601.2 321.54 
" style="fill: none; stroke: #cccccc; stroke-linejoin: miter; stroke-linecap: square"/>
   </g>
   <g id="patch_6">
    <path d="M 45.21 25.44 
L 601.2 25.44 
" style="fill: none; stroke: #cccccc; stroke-linejoin: miter; stroke-linecap: square"/>
   </g>
   <g id="text_20">
    <!-- How quickly runtime grows with lmax -->
    <g style="fill: #262626" transform="translate(225.181875 19.44) scale(0.12 -0.12)">
     <defs>
      <path id="LiberationSans-48" d="M 3503 0 
L 3503 2041 
L 1122 2041 
L 1122 0 
L 525 0 
L 525 4403 
L 1122 4403 
L 1122 2541 
L 3503 2541 
L 3503 4403 
L 4100 4403 
L 4100 0 
L 3503 0 
z
" transform="scale(0.015625)"/>
      <path id="LiberationSans-71" d="M 1513 -63 
Q 869 -63 569 371 
Q 269 806 269 1675 
Q 269 3444 1513 3444 
Q 1897 3444 2147 3308 
Q 2397 3172 2566 2856 
L 2572 2856 
Q 2572 2950 2584 3179 
Q 2597 3409 2609 3425 
L 3150 3425 
Q 3128 3241 3128 2503 
L 3128 -1328 
L 2566 -1328 
L 2566 44 
L 2578 556 
L 2572 556 
Q 2403 222 2156 79 
Q 1909 -63 1513 -63 
z
M 2566 1731 
Q 2566 2391 2350 2709 
Q 2134 3028 1663 3028 
Q 1234 3028 1046 2709 
Q 859 2391 859 1694 
Q 859 984 1048 678 
Q 1238 372 1656 372 
Q 2134 372 2350 712 
Q 2566 1053 2566 1731 
z
" transform="scale(0.015625)"/>
      <path id="LiberationSans-75" d="M 981 3381 
L 981 1238 
Q 981 903 1047 718 
Q 1113 534 1256 453 
Q 1400 372 1678 372 
Q 2084 372 2318 650 
Q 2553 928 2553 1422 
L 2553 3381 
L 3116 3381 
L 3116 722 
Q 3116 131 3134 0 
L 2603 0 
Q 2600 16 2597 84 
Q 2594 153 2589 242 
Q 2584 331 2578 578 
L 2569 578 
Q 2375 228 2120 82 
Q 1866 -63 1488 -63 
Q 931 -63 673 214 
Q 416 491 416 1128 
L 416 3381 
L 981 3381 
z
" transform="scale(0.015625)"/>
      <path id="LiberationSans-69" d="M 428 4100 
L 428 4638 
L 991 4638 
L 991 4100 
L 428 4100 
z
M 428 0 
L 428 3381 
L 991 3381 
L 991 0 
L 428 0 
z
" transform="scale(0.015625)"/>
      <path id="LiberationSans-6b" d="M 2550 0 
L 1406 1544 
L 994 1203 
L 994 0 
L 431 0 
L 431 4638 
L 994 4638 
L 994 1741 
L 2478 3381 
L 3138 3381 
L 1766 1928 
L 3209 0 
L 2550 0 
z
" transform="scale(0.015625)"/>
     </defs>
     <use xlink:href="#LiberationSans-48"/>
     <use xlink:href="#LiberationSans-6f" transform="translate(72.216797 0)"/>
     <use xlink:href="#LiberationSans-77" transform="translate(127.832031 0)"/>
     <use xlink:href="#LiberationSans-20" transform="translate(200.048828 0)"/>
     <use xlink:href="#LiberationSans-71" transform="translate(227.832031 0)"/>
     <use xlink:href="#LiberationSans-75" transform="translate(283.447266 0)"/>
     <use xlink:href="#LiberationSans-69" transform="translate(339.0625 0)"/>
     <use xlink:href="#LiberationSans-63" transform="translate(361.279297 0)"/>
     <use xlink:href="#LiberationSans-6b" transform="translate(411.279297 0)"/>
     <use xlink:href="#LiberationSans-6c" transform="translate(461.279297 0)"/>
     <use xlink:href="#LiberationSans-79" transform="translate(483.496094 0)"/>
     <use xlink:href="#LiberationSans-20" transform="translate(533.496094 0)"/>
     <use xlink:href="#LiberationSans-72" transform="translate(561.279297 0)"/>
     <use xlink:href="#LiberationSans-75" transform="translate(594.580078 0)"/>
     <use xlink:href="#LiberationSans-6e" transform="translate(650.195312 0)"/>
     <use xlink:href="#LiberationSans-74" transform="translate(705.810547 0)"/>
     <use xlink:href="#LiberationSans-69" transform="translate(733.59375 0)"/>
     <use xlink:href="#LiberationSans-6d" transform="translate(755.810547 0)"/>
     <use xlink:href="#LiberationSans-65" transform="translate(839.111328 0)"/>
     <use xlink:href="#LiberationSans-20" transform="translate(894.726562 0)"/>
     <use xlink:href="#LiberationSans-67" transform="translate(922.509766 0)"/>
     <use xlink:href="#LiberationSans-72" transform="translate(978.125 0)"/>
     <use xlink:href="#LiberationSans-6f" transform="translate(1011.425781 0)"/>
     <use xlink:href="#LiberationSans-77" transform="translate(1067.041016 0)"/>
     <use xlink:href="#LiberationSans-73" transform="translate(1139.257812 0)"/>
     <use xlink:href="#LiberationSans-20" transform="translate(1189.257812 0)"/>
     <use xlink:href="#LiberationSans-77" transform="translate(1217.041016 0)"/>
     <use xlink:href="#LiberationSans-69" transform="translate(1289.257812 0)"/>
     <use xlink:href="#LiberationSans-74" transform="translate(1311.474609 0)"/>
     <use xlink:href="#LiberationSans-68" transform="translate(1339.257812 0)"/>
     <use xlink:href="#LiberationSans-20" transform="translate(1394.873047 0)"/>
     <use xlink:href="#LiberationSans-6c" transform="translate(1422.65625 0)"/>
     <use xlink:href="#LiberationSans-6d" transform="translate(1444.873047 0)"/>
     <use xlink:href="#LiberationSans-61" transform="translate(1528.173828 0)"/>
     <use xlink:href="#LiberationSans-78" transform="translate(1583.789062 0)"/>
    </g>
   </g>
   <g id="legend_1">
    <g id="line2d_39">
     <path d="M 54.21 38.186875 
L 64.21 38.186875 
L 74.21 38.186875 
" style="fill: none; stroke: #0072b2; stroke-width: 1.5; stroke-linecap: round"/>
     <g>
      <use xlink:href="#mfc786db541" x="64.21" y="38.186875" style="fill: #0072b2; stroke: #0072b2"/>
     </g>
    </g>
    <g id="text_21">
     <!-- small_sparse -->
     <g style="fill: #262626" transform="translate(82.21 41.686875) scale(0.1 -0.1)">
      <defs>
       <path id="LiberationSans-5f" d="M -97 -1272 
L -97 -866 
L 3631 -866 
L 3631 -1272 
L -97 -1272 
z
" transform="scale(0.015625)"/>
       <path id="LiberationSans-70" d="M 3291 1706 
Q 3291 -63 2047 -63 
Q 1266 -63 997 525 
L 981 525 
Q 994 500 994 -6 
L 994 -1328 
L 431 -1328 
L 431 2691 
Q 431 3213 413 3381 
L 956 3381 
Q 959 3369 965 3292 
Q 972 3216 980 3056 
Q 988 2897 988 2838 
L 1000 2838 
Q 1150 3150 1397 3295 
Q 1644 3441 2047 3441 
Q 2672 3441 2981 3022 
Q 3291 2603 3291 1706 
z
M 2700 1694 
Q 2700 2400 2509 2703 
Q 2319 3006 1903 3006 
Q 1569 3006 1380 2865 
Q 1191 2725 1092 2426 
Q 994 2128 994 1650 
Q 994 984 1206 668 
Q 1419 353 1897 353 
Q 2316 353 2508 661 
Q 2700 969 2700 1694 
z
" transform="scale(0.015625)"/>
      </defs>
      <use xlink:href="#LiberationSans-73"/>
      <use xlink:href="#LiberationSans-6d" transform="translate(50 0)"/>
      <use xlink:href="#LiberationSans-61" transform="translate(133.300781 0)"/>
      <use xlink:href="#LiberationSans-6c" transform="translate(188.916016 0)"/>
      <use xlink:href="#LiberationSans-6c" transform="translate(211.132812 0)"/>
      <use xlink:href="#LiberationSans-5f" transform="translate(233.349609 0)"/>
      <use xlink:href="#LiberationSans-73" transform="translate(288.964844 0)"/>
      <use xlink:href="#LiberationSans-70" transform="translate(338.964844 0)"/>
      <use xlink:href="#LiberationSans-61" transform="translate(394.580078 0)"/>
      <use xlink:href="#LiberationSans-72" transform="translate(450.195312 0)"/>
      <use xlink:href="#LiberationSans-73" transform="translate(483.496094 0)"/>
      <use xlink:href="#LiberationSans-65" transform="translate(533.496094 0)"/>
     </g>
    </g>
    <g id="line2d_40">
     <path d="M 54.21 52.50875 
L 64.21 52.50875 
L 74.21 52.50875 
" style="fill: none; stroke: #d55e00; stroke-width: 1.5; stroke-linecap: round"/>
     <g>
      <use xlink:href="#m0dd81d8d56" x="64.21" y="52.50875" style="fill: #d55e00; stroke: #d55e00"/>
     </g>
    </g>
    <g id="text_22">
     <!-- small_dense -->
     <g style="fill: #262626" transform="translate(82.21 56.00875) scale(0.1 -0.1)">
      <defs>
       <path id="LiberationSans-64" d="M 2566 544 
Q 2409 219 2151 78 
Q 1894 -63 1513 -63 
Q 872 -63 570 368 
Q 269 800 269 1675 
Q 269 3444 1513 3444 
Q 1897 3444 2153 3303 
Q 2409 3163 2566 2856 
L 2572 2856 
L 2566 3234 
L 2566 4638 
L 3128 4638 
L 3128 697 
Q 3128 169 3147 0 
L 2609 0 
Q 2600 50 2589 231 
Q 2578 413 2578 544 
L 2566 544 
z
M 859 1694 
Q 859 984 1046 678 
Q 1234 372 1656 372 
Q 2134 372 2350 703 
Q 2566 1034 2566 1731 
Q 2566 2403 2350 2715 
Q 2134 3028 1663 3028 
Q 1238 3028 1048 2714 
Q 859 2400 859 1694 
z
" transform="scale(0.015625)"/>
      </defs>
      <use xlink:href="#LiberationSans-73"/>
      <use xlink:href="#LiberationSans-6d" transform="translate(50 0)"/>
      <use xlink:href="#LiberationSans-61" transform="translate(133.300781 0)"/>
      <use xlink:href="#LiberationSans-6c" transform="translate(188.916016 0)"/>
      <use xlink:href="#LiberationSans-6c" transform="translate(211.132812 0)"/>
      <use xlink:href="#LiberationSans-5f" transform="translate(233.349609 0)"/>
      <use xlink:href="#LiberationSans-64" transform="translate(288.964844 0)"/>
      <use xlink:href="#LiberationSans-65" transform="translate(344.580078 0)"/>
      <use xlink:href="#LiberationSans-6e" transform="translate(400.195312 0)"/>
      <use xlink:href="#LiberationSans-73" transform="translate(455.810547 0)"/>
      <use xlink:href="#LiberationSans-65" transform="translate(505.810547 0)"/>
     </g>
    </g>
    <g id="line2d_41">
     <path d="M 54.21 66.830625 
L 64.21 66.830625 
L 74.21 66.830625 
" style="fill: none; stroke: #009e73; stroke-width: 1.5; stroke-linecap: round"/>
     <g>
      <use xlink:href="#m25baba8a1c" x="64.21" y="66.830625" style="fill: #009e73; stroke: #009e73"/>
     </g>
    </g>
    <g id="text_23">
     <!-- large_sparse -->
     <g style="fill: #262626" transform="translate(82.21 70.330625) scale(0.1 -0.1)">
      <use xlink:href="#LiberationSans-6c"/>
      <use xlink:href="#LiberationSans-61" transform="translate(22.216797 0)"/>
      <use xlink:href="#LiberationSans-72" transform="translate(77.832031 0)"/>
      <use xlink:href="#LiberationSans-67" transform="translate(111.132812 0)"/>
      <use xlink:href="#LiberationSans-65" transform="translate(166.748047 0)"/>
      <use xlink:href="#LiberationSans-5f" transform="translate(222.363281 0)"/>
      <use xlink:href="#LiberationSans-73" transform="translate(277.978516 0)"/>
      <use xlink:href="#LiberationSans-70" transform="translate(327.978516 0)"/>
      <use xlink:href="#LiberationSans-61" transform="translate(383.59375 0)"/>
      <use xlink:href="#LiberationSans-72" transform="translate(439.208984 0)"/>
      <use xlink:href="#LiberationSans-73" transform="translate(472.509766 0)"/>
      <use xlink:href="#LiberationSans-65" transform="translate(522.509766 0)"/>
     </g>
    </g>
    <g id="line2d_42">
     <path d="M 54.21 81.1525 
L 64.21 81.1525 
L 74.21 81.1525 
" style="fill: none; stroke: #cc79a7; stroke-width: 1.5; stroke-linecap: round"/>
     <g>
      <use xlink:href="#m958672f8c0" x="64.21" y="81.1525" style="fill: #cc79a7; stroke: #cc79a7"/>
     </g>
    </g>
    <g id="text_24">
     <!-- large_dense -->
     <g style="fill: #262626" transform="translate(82.21 84.6525) scale(0.1 -0.1)">
      <use xlink:href="#LiberationSans-6c"/>
      <use xlink:href="#LiberationSans-61" transform="translate(22.216797 0)"/>
      <use xlink:href="#LiberationSans-72" transform="translate(77.832031 0)"/>
      <use xlink:href="#LiberationSans-67" transform="translate(111.132812 0)"/>
      <use xlink:href="#LiberationSans-65" transform="translate(166.748047 0)"/>
      <use xlink:href="#LiberationSans-5f" transform="translate(222.363281 0)"/>
      <use xlink:href="#LiberationSans-64" transform="translate(277.978516 0)"/>
      <use xlink:href="#LiberationSans-65" transform="translate(333.59375 0)"/>
      <use xlink:href="#LiberationSans-6e" transform="translate(389.208984 0)"/>
      <use xlink:href="#LiberationSans-73" transform="translate(444.824219 0)"/>
      <use xlink:href="#LiberationSans-65" transform="translate(494.824219 0)"/>
     </g>
    </g>
   </g>
  </g>
 </g>
 <defs>
  <clipPath id="pb1ab9d1b17">
   <rect x="45.21" y="25.44" width="555.99" height="296.1"/>
  </clipPath>
 </defs>
</svg>
