<?xml version="1.0" encoding="utf-8" standalone="no"?>
<!DOCTYPE svg PUBLIC "-//W3C//DTD SVG 1.1//EN"
  "http://www.w3.org/Graphics/SVG/1.1/DTD/svg11.dtd">
<svg xmlns:xlink="http://www.w3.org/1999/xlink" width="545.205625pt" height="381.052952pt" viewBox="0 0 545.205625 381.052952" xmlns="http://www.w3.org/2000/svg" version="1.1">
 <metadata>
  <rdf:RDF xmlns:dc="http://purl.org/dc/elements/1.1/" xmlns:cc="http://creativecommons.org/ns#" xmlns:rdf="http://www.w3.org/1999/02/22-rdf-syntax-ns#">
   <cc:Work>
    <dc:type rdf:resource="http://purl.org/dc/dcmitype/StillImage"/>
    <dc:date>2026-04-13T14:12:52.807118</dc:date>
    <dc:format>image/svg+xml</dc:format>
    <dc:creator>
     <cc:Agent>
      <dc:title>Matplotlib v3.10.1, https://matplotlib.org/</dc:title>
     </cc:Agent>
    </dc:creator>
   </cc:Work>
  </rdf:RDF>
 </metadata>
 <defs>
  <style type="text/css">*{stroke-linejoin: round; stroke-linecap: butt}</style>
 </defs>
 <g id="figure_1">
  <g id="patch_1">
   <path d="M 0 381.052952 
L 545.205625 381.052952 
L 545.205625 0 
L 0 0 
z
" style="fill: #ffffff"/>
  </g>
  <g id="axes_1">
   <g id="patch_2">
    <path d="M 46.965625 332.782125 
L 538.005625 332.782125 
L 538.005625 22.318125 
L 46.965625 22.318125 
z
" style="fill: #ffffff"/>
   </g>
   <g id="patch_3">
    <path d="M 69.285625 332.782125 
L 158.565625 332.782125 
L 158.565625 332.532089 
L 69.285625 332.532089 
z
" clip-path="url(#p076f4b4847)" style="fill: #e69f00"/>
   </g>
   <g id="patch_4">
    <path d="M 188.325625 332.782125 
L 277.605625 332.782125 
L 277.605625 332.537145 
L 188.325625 332.537145 
z
" clip-path="url(#p076f4b4847)" style="fill: #e69f00"/>
   </g>
   <g id="patch_5">
    <path d="M 307.365625 332.782125 
L 396.645625 332.782125 
L 396.645625 332.529802 
L 307.365625 332.529802 
z
" clip-path="url(#p076f4b4847)" style="fill: #e69f00"/>
   </g>
   <g id="patch_6">
    <path d="M 426.405625 332.782125 
L 515.685625 332.782125 
L 515.685625 332.532497 
L 426.405625 332.532497 
z
" clip-path="url(#p076f4b4847)" style="fill: #e69f00"/>
   </g>
   <g id="patch_7">
    <path d="M 69.285625 332.532089 
L 158.565625 332.532089 
L 158.565625 332.496425 
L 69.285625 332.496425 
z
" clip-path="url(#p076f4b4847)" style="fill: #56b4e9"/>
   </g>
   <g id="patch_8">
    <path d="M 188.325625 332.537145 
L 277.605625 332.537145 
L 277.605625 332.502622 
L 188.325625 332.502622 
z
" clip-path="url(#p076f4b4847)" style="fill: #56b4e9"/>
   </g>
   <g id="patch_9">
    <path d="M 307.365625 332.529802 
L 396.645625 332.529802 
L 396.645625 332.494187 
L 307.365625 332.494187 
z
" clip-path="url(#p076f4b4847)" style="fill: #56b4e9"/>
   </g>
   <g id="patch_10">
    <path d="M 426.405625 332.532497 
L 515.685625 332.532497 
L 515.685625 332.495848 
L 426.405625 332.495848 
z
" clip-path="url(#p076f4b4847)" style="fill: #56b4e9"/>
   </g>
   <g id="patch_11">
    <path d="M 69.285625 332.496425 
L 158.565625 332.496425 
L 158.565625 332.424231 
L 69.285625 332.424231 
z
" clip-path="url(#p076f4b4847)" style="fill: #009e73"/>
   </g>
   <g id="patch_12">
    <path d="M 188.325625 332.502622 
L 277.605625 332.502622 
L 277.605625 332.432969 
L 188.325625 332.432969 
z
" clip-path="url(#p076f4b4847)" style="fill: #009e73"/>
   </g>
   <g id="patch_13">
    <path d="M 307.365625 332.494187 
L 396.645625 332.494187 
L 396.645625 332.420885 
L 307.365625 332.420885 
z
" clip-path="url(#p076f4b4847)" style="fill: #009e73"/>
   </g>
   <g id="patch_14">
    <path d="M 426.405625 332.495848 
L 515.685625 332.495848 
L 515.685625 332.423 
L 426.405625 332.423 
z
" clip-path="url(#p076f4b4847)" style="fill: #009e73"/>
   </g>
   <g id="patch_15">
    <path d="M 69.285625 332.424231 
L 158.565625 332.424231 
L 158.565625 331.624497 
L 69.285625 331.624497 
z
" clip-path="url(#p076f4b4847)" style="fill: #4c9f70"/>
   </g>
   <g id="patch_16">
    <path d="M 188.325625 332.432969 
L 277.605625 332.432969 
L 277.605625 331.637958 
L 188.325625 331.637958 
z
" clip-path="url(#p076f4b4847)" style="fill: #4c9f70"/>
   </g>
   <g id="patch_17">
    <path d="M 307.365625 332.420885 
L 396.645625 332.420885 
L 396.645625 331.852719 
L 307.365625 331.852719 
z
" clip-path="url(#p076f4b4847)" style="fill: #4c9f70"/>
   </g>
   <g id="patch_18">
    <path d="M 426.405625 332.423 
L 515.685625 332.423 
L 515.685625 331.859428 
L 426.405625 331.859428 
z
" clip-path="url(#p076f4b4847)" style="fill: #4c9f70"/>
   </g>
   <g id="patch_19">
    <path d="M 69.285625 331.624497 
L 158.565625 331.624497 
L 158.565625 331.624497 
L 69.285625 331.624497 
z
" clip-path="url(#p076f4b4847)" style="fill: #8b6bb8"/>
   </g>
   <g id="patch_20">
    <path d="M 188.325625 331.637958 
L 277.605625 331.637958 
L 277.605625 331.637958 
L 188.325625 331.637958 
z
" clip-path="url(#p076f4b4847)" style="fill: #8b6bb8"/>
   </g>
   <g id="patch_21">
    <path d="M 307.365625 331.852719 
L 396.645625 331.852719 
L 396.645625 331.783214 
L 307.365625 331.783214 
z
" clip-path="url(#p076f4b4847)" style="fill: #8b6bb8"/>
   </g>
   <g id="patch_22">
    <path d="M 426.405625 331.859428 
L 515.685625 331.859428 
L 515.685625 331.789444 
L 426.405625 331.789444 
z
" clip-path="url(#p076f4b4847)" style="fill: #8b6bb8"/>
   </g>
   <g id="patch_23">
    <path d="M 69.285625 331.624497 
L 158.565625 331.624497 
L 158.565625 331.624497 
L 69.285625 331.624497 
z
" clip-path="url(#p076f4b4847)" style="fill: #a84832"/>
   </g>
   <g id="patch_24">
    <path d="M 188.325625 331.637958 
L 277.605625 331.637958 
L 277.605625 331.637958 
L 188.325625 331.637958 
z
" clip-path="url(#p076f4b4847)" style="fill: #a84832"/>
   </g>
   <g id="patch_25">
    <path d="M 307.365625 331.783214 
L 396.645625 331.783214 
L 396.645625 331.157361 
L 307.365625 331.157361 
z
" clip-path="url(#p076f4b4847)" style="fill: #a84832"/>
   </g>
   <g id="patch_26">
    <path d="M 426.405625 331.789444 
L 515.685625 331.789444 
L 515.685625 330.892971 
L 426.405625 330.892971 
z
" clip-path="url(#p076f4b4847)" style="fill: #a84832"/>
   </g>
   <g id="patch_27">
    <path d="M 69.285625 331.624497 
L 158.565625 331.624497 
L 158.565625 331.303136 
L 69.285625 331.303136 
z
" clip-path="url(#p076f4b4847)" style="fill: #a6cee3"/>
   </g>
   <g id="patch_28">
    <path d="M 188.325625 331.637958 
L 277.605625 331.637958 
L 277.605625 331.637958 
L 188.325625 331.637958 
z
" clip-path="url(#p076f4b4847)" style="fill: #a6cee3"/>
   </g>
   <g id="patch_29">
    <path d="M 307.365625 331.157361 
L 396.645625 331.157361 
L 396.645625 330.858742 
L 307.365625 330.858742 
z
" clip-path="url(#p076f4b4847)" style="fill: #a6cee3"/>
   </g>
   <g id="patch_30">
    <path d="M 426.405625 330.892971 
L 515.685625 330.892971 
L 515.685625 330.892971 
L 426.405625 330.892971 
z
" clip-path="url(#p076f4b4847)" style="fill: #a6cee3"/>
   </g>
   <g id="patch_31">
    <path d="M 69.285625 331.303136 
L 158.565625 331.303136 
L 158.565625 331.303136 
L 69.285625 331.303136 
z
" clip-path="url(#p076f4b4847)" style="fill: #1f78b4"/>
   </g>
   <g id="patch_32">
    <path d="M 188.325625 331.637958 
L 277.605625 331.637958 
L 277.605625 331.637958 
L 188.325625 331.637958 
z
" clip-path="url(#p076f4b4847)" style="fill: #1f78b4"/>
   </g>
   <g id="patch_33">
    <path d="M 307.365625 330.858742 
L 396.645625 330.858742 
L 396.645625 330.781383 
L 307.365625 330.781383 
z
" clip-path="url(#p076f4b4847)" style="fill: #1f78b4"/>
   </g>
   <g id="patch_34">
    <path d="M 426.405625 330.892971 
L 515.685625 330.892971 
L 515.685625 330.892971 
L 426.405625 330.892971 
z
" clip-path="url(#p076f4b4847)" style="fill: #1f78b4"/>
   </g>
   <g id="patch_35">
    <path d="M 69.285625 331.303136 
L 158.565625 331.303136 
L 158.565625 264.549061 
L 69.285625 264.549061 
z
" clip-path="url(#p076f4b4847)" style="fill: #4d4d4d"/>
   </g>
   <g id="patch_36">
    <path d="M 188.325625 331.637958 
L 277.605625 331.637958 
L 277.605625 331.637958 
L 188.325625 331.637958 
z
" clip-path="url(#p076f4b4847)" style="fill: #4d4d4d"/>
   </g>
   <g id="patch_37">
    <path d="M 307.365625 330.781383 
L 396.645625 330.781383 
L 396.645625 311.202197 
L 307.365625 311.202197 
z
" clip-path="url(#p076f4b4847)" style="fill: #4d4d4d"/>
   </g>
   <g id="patch_38">
    <path d="M 426.405625 330.892971 
L 515.685625 330.892971 
L 515.685625 330.892971 
L 426.405625 330.892971 
z
" clip-path="url(#p076f4b4847)" style="fill: #4d4d4d"/>
   </g>
   <g id="patch_39">
    <path d="M 69.285625 264.549061 
L 158.565625 264.549061 
L 158.565625 264.549061 
L 69.285625 264.549061 
z
" clip-path="url(#p076f4b4847)" style="fill: #cc79a7"/>
   </g>
   <g id="patch_40">
    <path d="M 188.325625 331.637958 
L 277.605625 331.637958 
L 277.605625 328.862142 
L 188.325625 328.862142 
z
" clip-path="url(#p076f4b4847)" style="fill: #cc79a7"/>
   </g>
   <g id="patch_41">
    <path d="M 307.365625 311.202197 
L 396.645625 311.202197 
L 396.645625 311.202197 
L 307.365625 311.202197 
z
" clip-path="url(#p076f4b4847)" style="fill: #cc79a7"/>
   </g>
   <g id="patch_42">
    <path d="M 426.405625 330.892971 
L 515.685625 330.892971 
L 515.685625 328.143939 
L 426.405625 328.143939 
z
" clip-path="url(#p076f4b4847)" style="fill: #cc79a7"/>
   </g>
   <g id="patch_43">
    <path d="M 69.285625 264.549061 
L 158.565625 264.549061 
L 158.565625 262.221718 
L 69.285625 262.221718 
z
" clip-path="url(#p076f4b4847)" style="fill: #7f7f7f"/>
   </g>
   <g id="patch_44">
    <path d="M 188.325625 328.862142 
L 277.605625 328.862142 
L 277.605625 328.862142 
L 188.325625 328.862142 
z
" clip-path="url(#p076f4b4847)" style="fill: #7f7f7f"/>
   </g>
   <g id="patch_45">
    <path d="M 307.365625 311.202197 
L 396.645625 311.202197 
L 396.645625 308.562588 
L 307.365625 308.562588 
z
" clip-path="url(#p076f4b4847)" style="fill: #7f7f7f"/>
   </g>
   <g id="patch_46">
    <path d="M 426.405625 328.143939 
L 515.685625 328.143939 
L 515.685625 328.143939 
L 426.405625 328.143939 
z
" clip-path="url(#p076f4b4847)" style="fill: #7f7f7f"/>
   </g>
   <g id="patch_47">
    <path d="M 69.285625 262.221718 
L 158.565625 262.221718 
L 158.565625 107.634839 
L 69.285625 107.634839 
z
" clip-path="url(#p076f4b4847)" style="fill: #3b4c63"/>
   </g>
   <g id="patch_48">
    <path d="M 188.325625 328.862142 
L 277.605625 328.862142 
L 277.605625 315.999396 
L 188.325625 315.999396 
z
" clip-path="url(#p076f4b4847)" style="fill: #3b4c63"/>
   </g>
   <g id="patch_49">
    <path d="M 307.365625 308.562588 
L 396.645625 308.562588 
L 396.645625 159.238711 
L 307.365625 159.238711 
z
" clip-path="url(#p076f4b4847)" style="fill: #3b4c63"/>
   </g>
   <g id="patch_50">
    <path d="M 426.405625 328.143939 
L 515.685625 328.143939 
L 515.685625 315.329282 
L 426.405625 315.329282 
z
" clip-path="url(#p076f4b4847)" style="fill: #3b4c63"/>
   </g>
   <g id="patch_51">
    <path d="M 69.285625 107.634839 
L 158.565625 107.634839 
L 158.565625 37.102125 
L 69.285625 37.102125 
z
" clip-path="url(#p076f4b4847)" style="fill: #bdbdbd"/>
   </g>
   <g id="patch_52">
    <path d="M 188.325625 315.999396 
L 277.605625 315.999396 
L 277.605625 312.147198 
L 188.325625 312.147198 
z
" clip-path="url(#p076f4b4847)" style="fill: #bdbdbd"/>
   </g>
   <g id="patch_53">
    <path d="M 307.365625 159.238711 
L 396.645625 159.238711 
L 396.645625 134.608048 
L 307.365625 134.608048 
z
" clip-path="url(#p076f4b4847)" style="fill: #bdbdbd"/>
   </g>
   <g id="patch_54">
    <path d="M 426.405625 315.329282 
L 515.685625 315.329282 
L 515.685625 310.766215 
L 426.405625 310.766215 
z
" clip-path="url(#p076f4b4847)" style="fill: #bdbdbd"/>
   </g>
   <g id="matplotlib.axis_1">
    <g id="xtick_1">
     <g id="line2d_1">
      <defs>
       <path id="m27ed04ba86" d="M 0 0 
L 0 3.5 
" style="stroke: #000000; stroke-width: 0.8"/>
      </defs>
      <g>
       <use xlink:href="#m27ed04ba86" x="113.925625" y="332.782125" style="stroke: #000000; stroke-width: 0.8"/>
      </g>
     </g>
     <g id="text_1">
      <!-- No Option -->
      <g transform="translate(64.943164 360.102236) rotate(-15) scale(0.1 -0.1)">
       <defs>
        <path id="DejaVuSans-4e" d="M 628 4666 
L 1478 4666 
L 3547 763 
L 3547 4666 
L 4159 4666 
L 4159 0 
L 3309 0 
L 1241 3903 
L 1241 0 
L 628 0 
L 628 4666 
z
" transform="scale(0.015625)"/>
        <path id="DejaVuSans-6f" d="M 1959 3097 
Q 1497 3097 1228 2736 
Q 959 2375 959 1747 
Q 959 1119 1226 758 
Q 1494 397 1959 397 
Q 2419 397 2687 759 
Q 2956 1122 2956 1747 
Q 2956 2369 2687 2733 
Q 2419 3097 1959 3097 
z
M 1959 3584 
Q 2709 3584 3137 3096 
Q 3566 2609 3566 1747 
Q 3566 888 3137 398 
Q 2709 -91 1959 -91 
Q 1206 -91 779 398 
Q 353 888 353 1747 
Q 353 2609 779 3096 
Q 1206 3584 1959 3584 
z
" transform="scale(0.015625)"/>
        <path id="DejaVuSans-20" transform="scale(0.015625)"/>
        <path id="DejaVuSans-4f" d="M 2522 4238 
Q 1834 4238 1429 3725 
Q 1025 3213 1025 2328 
Q 1025 1447 1429 934 
Q 1834 422 2522 422 
Q 3209 422 3611 934 
Q 4013 1447 4013 2328 
Q 4013 3213 3611 3725 
Q 3209 4238 2522 4238 
z
M 2522 4750 
Q 3503 4750 4090 4092 
Q 4678 3434 4678 2328 
Q 4678 1225 4090 567 
Q 3503 -91 2522 -91 
Q 1538 -91 948 565 
Q 359 1222 359 2328 
Q 359 3434 948 4092 
Q 1538 4750 2522 4750 
z
" transform="scale(0.015625)"/>
        <path id="DejaVuSans-70" d="M 1159 525 
L 1159 -1331 
L 581 -1331 
L 581 3500 
L 1159 3500 
L 1159 2969 
Q 1341 3281 1617 3432 
Q 1894 3584 2278 3584 
Q 2916 3584 3314 3078 
Q 3713 2572 3713 1747 
Q 3713 922 3314 415 
Q 2916 -91 2278 -91 
Q 1894 -91 1617 61 
Q 1341 213 1159 525 
z
M 3116 1747 
Q 3116 2381 2855 2742 
Q 2594 3103 2138 3103 
Q 1681 3103 1420 2742 
Q 1159 2381 1159 1747 
Q 1159 1113 1420 752 
Q 1681 391 2138 391 
Q 2594 391 2855 752 
Q 3116 1113 3116 1747 
z
" transform="scale(0.015625)"/>
        <path id="DejaVuSans-74" d="M 1172 4494 
L 1172 3500 
L 2356 3500 
L 2356 3053 
L 1172 3053 
L 1172 1153 
Q 1172 725 1289 603 
Q 1406 481 1766 481 
L 2356 481 
L 2356 0 
L 1766 0 
Q 1100 0 847 248 
Q 594 497 594 1153 
L 594 3053 
L 172 3053 
L 172 3500 
L 594 3500 
L 594 4494 
L 1172 4494 
z
" transform="scale(0.015625)"/>
        <path id="DejaVuSans-69" d="M 603 3500 
L 1178 3500 
L 1178 0 
L 603 0 
L 603 3500 
z
M 603 4863 
L 1178 4863 
L 1178 4134 
L 603 4134 
L 603 4863 
z
" transform="scale(0.015625)"/>
        <path id="DejaVuSans-6e" d="M 3513 2113 
L 3513 0 
L 2938 0 
L 2938 2094 
Q 2938 2591 2744 2837 
Q 2550 3084 2163 3084 
Q 1697 3084 1428 2787 
Q 1159 2491 1159 1978 
L 1159 0 
L 581 0 
L 581 3500 
L 1159 3500 
L 1159 2956 
Q 1366 3272 1645 3428 
Q 1925 3584 2291 3584 
Q 2894 3584 3203 3211 
Q 3513 2838 3513 2113 
z
" transform="scale(0.015625)"/>
       </defs>
       <use xlink:href="#DejaVuSans-4e"/>
       <use xlink:href="#DejaVuSans-6f" transform="translate(74.804688 0)"/>
       <use xlink:href="#DejaVuSans-20" transform="translate(135.986328 0)"/>
       <use xlink:href="#DejaVuSans-4f" transform="translate(167.773438 0)"/>
       <use xlink:href="#DejaVuSans-70" transform="translate(246.484375 0)"/>
       <use xlink:href="#DejaVuSans-74" transform="translate(309.960938 0)"/>
       <use xlink:href="#DejaVuSans-69" transform="translate(349.169922 0)"/>
       <use xlink:href="#DejaVuSans-6f" transform="translate(376.953125 0)"/>
       <use xlink:href="#DejaVuSans-6e" transform="translate(438.134766 0)"/>
      </g>
     </g>
    </g>
    <g id="xtick_2">
     <g id="line2d_2">
      <g>
       <use xlink:href="#m27ed04ba86" x="232.965625" y="332.782125" style="stroke: #000000; stroke-width: 0.8"/>
      </g>
     </g>
     <g id="text_2">
      <!-- FlashTP Only -->
      <g transform="translate(170.196082 363.796473) rotate(-15) scale(0.1 -0.1)">
       <defs>
        <path id="DejaVuSans-46" d="M 628 4666 
L 3309 4666 
L 3309 4134 
L 1259 4134 
L 1259 2759 
L 3109 2759 
L 3109 2228 
L 1259 2228 
L 1259 0 
L 628 0 
L 628 4666 
z
" transform="scale(0.015625)"/>
        <path id="DejaVuSans-6c" d="M 603 4863 
L 1178 4863 
L 1178 0 
L 603 0 
L 603 4863 
z
" transform="scale(0.015625)"/>
        <path id="DejaVuSans-61" d="M 2194 1759 
Q 1497 1759 1228 1600 
Q 959 1441 959 1056 
Q 959 750 1161 570 
Q 1363 391 1709 391 
Q 2188 391 2477 730 
Q 2766 1069 2766 1631 
L 2766 1759 
L 2194 1759 
z
M 3341 1997 
L 3341 0 
L 2766 0 
L 2766 531 
Q 2569 213 2275 61 
Q 1981 -91 1556 -91 
Q 1019 -91 701 211 
Q 384 513 384 1019 
Q 384 1609 779 1909 
Q 1175 2209 1959 2209 
L 2766 2209 
L 2766 2266 
Q 2766 2663 2505 2880 
Q 2244 3097 1772 3097 
Q 1472 3097 1187 3025 
Q 903 2953 641 2809 
L 641 3341 
Q 956 3463 1253 3523 
Q 1550 3584 1831 3584 
Q 2591 3584 2966 3190 
Q 3341 2797 3341 1997 
z
" transform="scale(0.015625)"/>
        <path id="DejaVuSans-73" d="M 2834 3397 
L 2834 2853 
Q 2591 2978 2328 3040 
Q 2066 3103 1784 3103 
Q 1356 3103 1142 2972 
Q 928 2841 928 2578 
Q 928 2378 1081 2264 
Q 1234 2150 1697 2047 
L 1894 2003 
Q 2506 1872 2764 1633 
Q 3022 1394 3022 966 
Q 3022 478 2636 193 
Q 2250 -91 1575 -91 
Q 1294 -91 989 -36 
Q 684 19 347 128 
L 347 722 
Q 666 556 975 473 
Q 1284 391 1588 391 
Q 1994 391 2212 530 
Q 2431 669 2431 922 
Q 2431 1156 2273 1281 
Q 2116 1406 1581 1522 
L 1381 1569 
Q 847 1681 609 1914 
Q 372 2147 372 2553 
Q 372 3047 722 3315 
Q 1072 3584 1716 3584 
Q 2034 3584 2315 3537 
Q 2597 3491 2834 3397 
z
" transform="scale(0.015625)"/>
        <path id="DejaVuSans-68" d="M 3513 2113 
L 3513 0 
L 2938 0 
L 2938 2094 
Q 2938 2591 2744 2837 
Q 2550 3084 2163 3084 
Q 1697 3084 1428 2787 
Q 1159 2491 1159 1978 
L 1159 0 
L 581 0 
L 581 4863 
L 1159 4863 
L 1159 2956 
Q 1366 3272 1645 3428 
Q 1925 3584 2291 3584 
Q 2894 3584 3203 3211 
Q 3513 2838 3513 2113 
z
" transform="scale(0.015625)"/>
        <path id="DejaVuSans-54" d="M -19 4666 
L 3928 4666 
L 3928 4134 
L 2272 4134 
L 2272 0 
L 1638 0 
L 1638 4134 
L -19 4134 
L -19 4666 
z
" transform="scale(0.015625)"/>
        <path id="DejaVuSans-50" d="M 1259 4147 
L 1259 2394 
L 2053 2394 
Q 2494 2394 2734 2622 
Q 2975 2850 2975 3272 
Q 2975 3691 2734 3919 
Q 2494 4147 2053 4147 
L 1259 4147 
z
M 628 4666 
L 2053 4666 
Q 2838 4666 3239 4311 
Q 3641 3956 3641 3272 
Q 3641 2581 3239 2228 
Q 2838 1875 2053 1875 
L 1259 1875 
L 1259 0 
L 628 0 
L 628 4666 
z
" transform="scale(0.015625)"/>
        <path id="DejaVuSans-79" d="M 2059 -325 
Q 1816 -950 1584 -1140 
Q 1353 -1331 966 -1331 
L 506 -1331 
L 506 -850 
L 844 -850 
Q 1081 -850 1212 -737 
Q 1344 -625 1503 -206 
L 1606 56 
L 191 3500 
L 800 3500 
L 1894 763 
L 2988 3500 
L 3597 3500 
L 2059 -325 
z
" transform="scale(0.015625)"/>
       </defs>
       <use xlink:href="#DejaVuSans-46"/>
       <use xlink:href="#DejaVuSans-6c" transform="translate(57.519531 0)"/>
       <use xlink:href="#DejaVuSans-61" transform="translate(85.302734 0)"/>
       <use xlink:href="#DejaVuSans-73" transform="translate(146.582031 0)"/>
       <use xlink:href="#DejaVuSans-68" transform="translate(198.681641 0)"/>
       <use xlink:href="#DejaVuSans-54" transform="translate(262.060547 0)"/>
       <use xlink:href="#DejaVuSans-50" transform="translate(323.144531 0)"/>
       <use xlink:href="#DejaVuSans-20" transform="translate(383.447266 0)"/>
       <use xlink:href="#DejaVuSans-4f" transform="translate(415.234375 0)"/>
       <use xlink:href="#DejaVuSans-6e" transform="translate(493.945312 0)"/>
       <use xlink:href="#DejaVuSans-6c" transform="translate(557.324219 0)"/>
       <use xlink:href="#DejaVuSans-79" transform="translate(585.107422 0)"/>
      </g>
     </g>
    </g>
    <g id="xtick_3">
     <g id="line2d_3">
      <g>
       <use xlink:href="#m27ed04ba86" x="352.005625" y="332.782125" style="stroke: #000000; stroke-width: 0.8"/>
      </g>
     </g>
     <g id="text_3">
      <!-- Proposal Only -->
      <g transform="translate(285.275786 364.857631) rotate(-15) scale(0.1 -0.1)">
       <defs>
        <path id="DejaVuSans-72" d="M 2631 2963 
Q 2534 3019 2420 3045 
Q 2306 3072 2169 3072 
Q 1681 3072 1420 2755 
Q 1159 2438 1159 1844 
L 1159 0 
L 581 0 
L 581 3500 
L 1159 3500 
L 1159 2956 
Q 1341 3275 1631 3429 
Q 1922 3584 2338 3584 
Q 2397 3584 2469 3576 
Q 2541 3569 2628 3553 
L 2631 2963 
z
" transform="scale(0.015625)"/>
       </defs>
       <use xlink:href="#DejaVuSans-50"/>
       <use xlink:href="#DejaVuSans-72" transform="translate(58.552734 0)"/>
       <use xlink:href="#DejaVuSans-6f" transform="translate(97.416016 0)"/>
       <use xlink:href="#DejaVuSans-70" transform="translate(158.597656 0)"/>
       <use xlink:href="#DejaVuSans-6f" transform="translate(222.074219 0)"/>
       <use xlink:href="#DejaVuSans-73" transform="translate(283.255859 0)"/>
       <use xlink:href="#DejaVuSans-61" transform="translate(335.355469 0)"/>
       <use xlink:href="#DejaVuSans-6c" transform="translate(396.634766 0)"/>
       <use xlink:href="#DejaVuSans-20" transform="translate(424.417969 0)"/>
       <use xlink:href="#DejaVuSans-4f" transform="translate(456.205078 0)"/>
       <use xlink:href="#DejaVuSans-6e" transform="translate(534.916016 0)"/>
       <use xlink:href="#DejaVuSans-6c" transform="translate(598.294922 0)"/>
       <use xlink:href="#DejaVuSans-79" transform="translate(626.078125 0)"/>
      </g>
     </g>
    </g>
    <g id="xtick_4">
     <g id="line2d_4">
      <g>
       <use xlink:href="#m27ed04ba86" x="471.045625" y="332.782125" style="stroke: #000000; stroke-width: 0.8"/>
      </g>
     </g>
     <g id="text_4">
      <!-- FlashTP + Proposal -->
      <g transform="translate(378.241825 371.844128) rotate(-15) scale(0.1 -0.1)">
       <defs>
        <path id="DejaVuSans-2b" d="M 2944 4013 
L 2944 2272 
L 4684 2272 
L 4684 1741 
L 2944 1741 
L 2944 0 
L 2419 0 
L 2419 1741 
L 678 1741 
L 678 2272 
L 2419 2272 
L 2419 4013 
L 2944 4013 
z
" transform="scale(0.015625)"/>
       </defs>
       <use xlink:href="#DejaVuSans-46"/>
       <use xlink:href="#DejaVuSans-6c" transform="translate(57.519531 0)"/>
       <use xlink:href="#DejaVuSans-61" transform="translate(85.302734 0)"/>
       <use xlink:href="#DejaVuSans-73" transform="translate(146.582031 0)"/>
       <use xlink:href="#DejaVuSans-68" transform="translate(198.681641 0)"/>
       <use xlink:href="#DejaVuSans-54" transform="translate(262.060547 0)"/>
       <use xlink:href="#DejaVuSans-50" transform="translate(323.144531 0)"/>
       <use xlink:href="#DejaVuSans-20" transform="translate(383.447266 0)"/>
       <use xlink:href="#DejaVuSans-2b" transform="translate(415.234375 0)"/>
       <use xlink:href="#DejaVuSans-20" transform="translate(499.023438 0)"/>
       <use xlink:href="#DejaVuSans-50" transform="translate(530.810547 0)"/>
       <use xlink:href="#DejaVuSans-72" transform="translate(589.363281 0)"/>
       <use xlink:href="#DejaVuSans-6f" transform="translate(628.226562 0)"/>
       <use xlink:href="#DejaVuSans-70" transform="translate(689.408203 0)"/>
       <use xlink:href="#DejaVuSans-6f" transform="translate(752.884766 0)"/>
       <use xlink:href="#DejaVuSans-73" transform="translate(814.066406 0)"/>
       <use xlink:href="#DejaVuSans-61" transform="translate(866.166016 0)"/>
       <use xlink:href="#DejaVuSans-6c" transform="translate(927.445312 0)"/>
      </g>
     </g>
    </g>
   </g>
   <g id="matplotlib.axis_2">
    <g id="ytick_1">
     <g id="line2d_5">
      <defs>
       <path id="mf657ad1e70" d="M 0 0 
L -3.5 0 
" style="stroke: #000000; stroke-width: 0.8"/>
      </defs>
      <g>
       <use xlink:href="#mf657ad1e70" x="46.965625" y="332.782125" style="stroke: #000000; stroke-width: 0.8"/>
      </g>
     </g>
     <g id="text_5">
      <!-- 0 -->
      <g transform="translate(33.603125 336.581344) scale(0.1 -0.1)">
       <defs>
        <path id="DejaVuSans-30" d="M 2034 4250 
Q 1547 4250 1301 3770 
Q 1056 3291 1056 2328 
Q 1056 1369 1301 889 
Q 1547 409 2034 409 
Q 2525 409 2770 889 
Q 3016 1369 3016 2328 
Q 3016 3291 2770 3770 
Q 2525 4250 2034 4250 
z
M 2034 4750 
Q 2819 4750 3233 4129 
Q 3647 3509 3647 2328 
Q 3647 1150 3233 529 
Q 2819 -91 2034 -91 
Q 1250 -91 836 529 
Q 422 1150 422 2328 
Q 422 3509 836 4129 
Q 1250 4750 2034 4750 
z
" transform="scale(0.015625)"/>
       </defs>
       <use xlink:href="#DejaVuSans-30"/>
      </g>
     </g>
    </g>
    <g id="ytick_2">
     <g id="line2d_6">
      <g>
       <use xlink:href="#mf657ad1e70" x="46.965625" y="291.41974" style="stroke: #000000; stroke-width: 0.8"/>
      </g>
     </g>
     <g id="text_6">
      <!-- 50 -->
      <g transform="translate(27.240625 295.218959) scale(0.1 -0.1)">
       <defs>
        <path id="DejaVuSans-35" d="M 691 4666 
L 3169 4666 
L 3169 4134 
L 1269 4134 
L 1269 2991 
Q 1406 3038 1543 3061 
Q 1681 3084 1819 3084 
Q 2600 3084 3056 2656 
Q 3513 2228 3513 1497 
Q 3513 744 3044 326 
Q 2575 -91 1722 -91 
Q 1428 -91 1123 -41 
Q 819 9 494 109 
L 494 744 
Q 775 591 1075 516 
Q 1375 441 1709 441 
Q 2250 441 2565 725 
Q 2881 1009 2881 1497 
Q 2881 1984 2565 2268 
Q 2250 2553 1709 2553 
Q 1456 2553 1204 2497 
Q 953 2441 691 2322 
L 691 4666 
z
" transform="scale(0.015625)"/>
       </defs>
       <use xlink:href="#DejaVuSans-35"/>
       <use xlink:href="#DejaVuSans-30" transform="translate(63.623047 0)"/>
      </g>
     </g>
    </g>
    <g id="ytick_3">
     <g id="line2d_7">
      <g>
       <use xlink:href="#mf657ad1e70" x="46.965625" y="250.057355" style="stroke: #000000; stroke-width: 0.8"/>
      </g>
     </g>
     <g id="text_7">
      <!-- 100 -->
      <g transform="translate(20.878125 253.856574) scale(0.1 -0.1)">
       <defs>
        <path id="DejaVuSans-31" d="M 794 531 
L 1825 531 
L 1825 4091 
L 703 3866 
L 703 4441 
L 1819 4666 
L 2450 4666 
L 2450 531 
L 3481 531 
L 3481 0 
L 794 0 
L 794 531 
z
" transform="scale(0.015625)"/>
       </defs>
       <use xlink:href="#DejaVuSans-31"/>
       <use xlink:href="#DejaVuSans-30" transform="translate(63.623047 0)"/>
       <use xlink:href="#DejaVuSans-30" transform="translate(127.246094 0)"/>
      </g>
     </g>
    </g>
    <g id="ytick_4">
     <g id="line2d_8">
      <g>
       <use xlink:href="#mf657ad1e70" x="46.965625" y="208.69497" style="stroke: #000000; stroke-width: 0.8"/>
      </g>
     </g>
     <g id="text_8">
      <!-- 150 -->
      <g transform="translate(20.878125 212.494189) scale(0.1 -0.1)">
       <use xlink:href="#DejaVuSans-31"/>
       <use xlink:href="#DejaVuSans-35" transform="translate(63.623047 0)"/>
       <use xlink:href="#DejaVuSans-30" transform="translate(127.246094 0)"/>
      </g>
     </g>
    </g>
    <g id="ytick_5">
     <g id="line2d_9">
      <g>
       <use xlink:href="#mf657ad1e70" x="46.965625" y="167.332585" style="stroke: #000000; stroke-width: 0.8"/>
      </g>
     </g>
     <g id="text_9">
      <!-- 200 -->
      <g transform="translate(20.878125 171.131804) scale(0.1 -0.1)">
       <defs>
        <path id="DejaVuSans-32" d="M 1228 531 
L 3431 531 
L 3431 0 
L 469 0 
L 469 531 
Q 828 903 1448 1529 
Q 2069 2156 2228 2338 
Q 2531 2678 2651 2914 
Q 2772 3150 2772 3378 
Q 2772 3750 2511 3984 
Q 2250 4219 1831 4219 
Q 1534 4219 1204 4116 
Q 875 4013 500 3803 
L 500 4441 
Q 881 4594 1212 4672 
Q 1544 4750 1819 4750 
Q 2544 4750 2975 4387 
Q 3406 4025 3406 3419 
Q 3406 3131 3298 2873 
Q 3191 2616 2906 2266 
Q 2828 2175 2409 1742 
Q 1991 1309 1228 531 
z
" transform="scale(0.015625)"/>
       </defs>
       <use xlink:href="#DejaVuSans-32"/>
       <use xlink:href="#DejaVuSans-30" transform="translate(63.623047 0)"/>
       <use xlink:href="#DejaVuSans-30" transform="translate(127.246094 0)"/>
      </g>
     </g>
    </g>
    <g id="ytick_6">
     <g id="line2d_10">
      <g>
       <use xlink:href="#mf657ad1e70" x="46.965625" y="125.9702" style="stroke: #000000; stroke-width: 0.8"/>
      </g>
     </g>
     <g id="text_10">
      <!-- 250 -->
      <g transform="translate(20.878125 129.769419) scale(0.1 -0.1)">
       <use xlink:href="#DejaVuSans-32"/>
       <use xlink:href="#DejaVuSans-35" transform="translate(63.623047 0)"/>
       <use xlink:href="#DejaVuSans-30" transform="translate(127.246094 0)"/>
      </g>
     </g>
    </g>
    <g id="ytick_7">
     <g id="line2d_11">
      <g>
       <use xlink:href="#mf657ad1e70" x="46.965625" y="84.607815" style="stroke: #000000; stroke-width: 0.8"/>
      </g>
     </g>
     <g id="text_11">
      <!-- 300 -->
      <g transform="translate(20.878125 88.407034) scale(0.1 -0.1)">
       <defs>
        <path id="DejaVuSans-33" d="M 2597 2516 
Q 3050 2419 3304 2112 
Q 3559 1806 3559 1356 
Q 3559 666 3084 287 
Q 2609 -91 1734 -91 
Q 1441 -91 1130 -33 
Q 819 25 488 141 
L 488 750 
Q 750 597 1062 519 
Q 1375 441 1716 441 
Q 2309 441 2620 675 
Q 2931 909 2931 1356 
Q 2931 1769 2642 2001 
Q 2353 2234 1838 2234 
L 1294 2234 
L 1294 2753 
L 1863 2753 
Q 2328 2753 2575 2939 
Q 2822 3125 2822 3475 
Q 2822 3834 2567 4026 
Q 2313 4219 1838 4219 
Q 1578 4219 1281 4162 
Q 984 4106 628 3988 
L 628 4550 
Q 988 4650 1302 4700 
Q 1616 4750 1894 4750 
Q 2613 4750 3031 4423 
Q 3450 4097 3450 3541 
Q 3450 3153 3228 2886 
Q 3006 2619 2597 2516 
z
" transform="scale(0.015625)"/>
       </defs>
       <use xlink:href="#DejaVuSans-33"/>
       <use xlink:href="#DejaVuSans-30" transform="translate(63.623047 0)"/>
       <use xlink:href="#DejaVuSans-30" transform="translate(127.246094 0)"/>
      </g>
     </g>
    </g>
    <g id="ytick_8">
     <g id="line2d_12">
      <g>
       <use xlink:href="#mf657ad1e70" x="46.965625" y="43.24543" style="stroke: #000000; stroke-width: 0.8"/>
      </g>
     </g>
     <g id="text_12">
      <!-- 350 -->
      <g transform="translate(20.878125 47.044648) scale(0.1 -0.1)">
       <use xlink:href="#DejaVuSans-33"/>
       <use xlink:href="#DejaVuSans-35" transform="translate(63.623047 0)"/>
       <use xlink:href="#DejaVuSans-30" transform="translate(127.246094 0)"/>
      </g>
     </g>
    </g>
    <g id="text_13">
     <!-- Intrusive stage time (ms) -->
     <g transform="translate(14.798438 240.727469) rotate(-90) scale(0.1 -0.1)">
      <defs>
       <path id="DejaVuSans-49" d="M 628 4666 
L 1259 4666 
L 1259 0 
L 628 0 
L 628 4666 
z
" transform="scale(0.015625)"/>
       <path id="DejaVuSans-75" d="M 544 1381 
L 544 3500 
L 1119 3500 
L 1119 1403 
Q 1119 906 1312 657 
Q 1506 409 1894 409 
Q 2359 409 2629 706 
Q 2900 1003 2900 1516 
L 2900 3500 
L 3475 3500 
L 3475 0 
L 2900 0 
L 2900 538 
Q 2691 219 2414 64 
Q 2138 -91 1772 -91 
Q 1169 -91 856 284 
Q 544 659 544 1381 
z
M 1991 3584 
L 1991 3584 
z
" transform="scale(0.015625)"/>
       <path id="DejaVuSans-76" d="M 191 3500 
L 800 3500 
L 1894 563 
L 2988 3500 
L 3597 3500 
L 2284 0 
L 1503 0 
L 191 3500 
z
" transform="scale(0.015625)"/>
       <path id="DejaVuSans-65" d="M 3597 1894 
L 3597 1613 
L 953 1613 
Q 991 1019 1311 708 
Q 1631 397 2203 397 
Q 2534 397 2845 478 
Q 3156 559 3463 722 
L 3463 178 
Q 3153 47 2828 -22 
Q 2503 -91 2169 -91 
Q 1331 -91 842 396 
Q 353 884 353 1716 
Q 353 2575 817 3079 
Q 1281 3584 2069 3584 
Q 2775 3584 3186 3129 
Q 3597 2675 3597 1894 
z
M 3022 2063 
Q 3016 2534 2758 2815 
Q 2500 3097 2075 3097 
Q 1594 3097 1305 2825 
Q 1016 2553 972 2059 
L 3022 2063 
z
" transform="scale(0.015625)"/>
       <path id="DejaVuSans-67" d="M 2906 1791 
Q 2906 2416 2648 2759 
Q 2391 3103 1925 3103 
Q 1463 3103 1205 2759 
Q 947 2416 947 1791 
Q 947 1169 1205 825 
Q 1463 481 1925 481 
Q 2391 481 2648 825 
Q 2906 1169 2906 1791 
z
M 3481 434 
Q 3481 -459 3084 -895 
Q 2688 -1331 1869 -1331 
Q 1566 -1331 1297 -1286 
Q 1028 -1241 775 -1147 
L 775 -588 
Q 1028 -725 1275 -790 
Q 1522 -856 1778 -856 
Q 2344 -856 2625 -561 
Q 2906 -266 2906 331 
L 2906 616 
Q 2728 306 2450 153 
Q 2172 0 1784 0 
Q 1141 0 747 490 
Q 353 981 353 1791 
Q 353 2603 747 3093 
Q 1141 3584 1784 3584 
Q 2172 3584 2450 3431 
Q 2728 3278 2906 2969 
L 2906 3500 
L 3481 3500 
L 3481 434 
z
" transform="scale(0.015625)"/>
       <path id="DejaVuSans-6d" d="M 3328 2828 
Q 3544 3216 3844 3400 
Q 4144 3584 4550 3584 
Q 5097 3584 5394 3201 
Q 5691 2819 5691 2113 
L 5691 0 
L 5113 0 
L 5113 2094 
Q 5113 2597 4934 2840 
Q 4756 3084 4391 3084 
Q 3944 3084 3684 2787 
Q 3425 2491 3425 1978 
L 3425 0 
L 2847 0 
L 2847 2094 
Q 2847 2600 2669 2842 
Q 2491 3084 2119 3084 
Q 1678 3084 1418 2786 
Q 1159 2488 1159 1978 
L 1159 0 
L 581 0 
L 581 3500 
L 1159 3500 
L 1159 2956 
Q 1356 3278 1631 3431 
Q 1906 3584 2284 3584 
Q 2666 3584 2933 3390 
Q 3200 3197 3328 2828 
z
" transform="scale(0.015625)"/>
       <path id="DejaVuSans-28" d="M 1984 4856 
Q 1566 4138 1362 3434 
Q 1159 2731 1159 2009 
Q 1159 1288 1364 580 
Q 1569 -128 1984 -844 
L 1484 -844 
Q 1016 -109 783 600 
Q 550 1309 550 2009 
Q 550 2706 781 3412 
Q 1013 4119 1484 4856 
L 1984 4856 
z
" transform="scale(0.015625)"/>
       <path id="DejaVuSans-29" d="M 513 4856 
L 1013 4856 
Q 1481 4119 1714 3412 
Q 1947 2706 1947 2009 
Q 1947 1309 1714 600 
Q 1481 -109 1013 -844 
L 513 -844 
Q 928 -128 1133 580 
Q 1338 1288 1338 2009 
Q 1338 2731 1133 3434 
Q 928 4138 513 4856 
z
" transform="scale(0.015625)"/>
      </defs>
      <use xlink:href="#DejaVuSans-49"/>
      <use xlink:href="#DejaVuSans-6e" transform="translate(29.492188 0)"/>
      <use xlink:href="#DejaVuSans-74" transform="translate(92.871094 0)"/>
      <use xlink:href="#DejaVuSans-72" transform="translate(132.080078 0)"/>
      <use xlink:href="#DejaVuSans-75" transform="translate(173.193359 0)"/>
      <use xlink:href="#DejaVuSans-73" transform="translate(236.572266 0)"/>
      <use xlink:href="#DejaVuSans-69" transform="translate(288.671875 0)"/>
      <use xlink:href="#DejaVuSans-76" transform="translate(316.455078 0)"/>
      <use xlink:href="#DejaVuSans-65" transform="translate(375.634766 0)"/>
      <use xlink:href="#DejaVuSans-20" transform="translate(437.158203 0)"/>
      <use xlink:href="#DejaVuSans-73" transform="translate(468.945312 0)"/>
      <use xlink:href="#DejaVuSans-74" transform="translate(521.044922 0)"/>
      <use xlink:href="#DejaVuSans-61" transform="translate(560.253906 0)"/>
      <use xlink:href="#DejaVuSans-67" transform="translate(621.533203 0)"/>
      <use xlink:href="#DejaVuSans-65" transform="translate(685.009766 0)"/>
      <use xlink:href="#DejaVuSans-20" transform="translate(746.533203 0)"/>
      <use xlink:href="#DejaVuSans-74" transform="translate(778.320312 0)"/>
      <use xlink:href="#DejaVuSans-69" transform="translate(817.529297 0)"/>
      <use xlink:href="#DejaVuSans-6d" transform="translate(845.3125 0)"/>
      <use xlink:href="#DejaVuSans-65" transform="translate(942.724609 0)"/>
      <use xlink:href="#DejaVuSans-20" transform="translate(1004.248047 0)"/>
      <use xlink:href="#DejaVuSans-28" transform="translate(1036.035156 0)"/>
      <use xlink:href="#DejaVuSans-6d" transform="translate(1075.048828 0)"/>
      <use xlink:href="#DejaVuSans-73" transform="translate(1172.460938 0)"/>
      <use xlink:href="#DejaVuSans-29" transform="translate(1224.560547 0)"/>
     </g>
    </g>
   </g>
   <g id="patch_55">
    <path d="M 46.965625 332.782125 
L 46.965625 22.318125 
" style="fill: none; stroke: #000000; stroke-width: 0.8; stroke-linejoin: miter; stroke-linecap: square"/>
   </g>
   <g id="patch_56">
    <path d="M 538.005625 332.782125 
L 538.005625 22.318125 
" style="fill: none; stroke: #000000; stroke-width: 0.8; stroke-linejoin: miter; stroke-linecap: square"/>
   </g>
   <g id="patch_57">
    <path d="M 46.965625 332.782125 
L 538.005625 332.782125 
" style="fill: none; stroke: #000000; stroke-width: 0.8; stroke-linejoin: miter; stroke-linecap: square"/>
   </g>
   <g id="patch_58">
    <path d="M 46.965625 22.318125 
L 538.005625 22.318125 
" style="fill: none; stroke: #000000; stroke-width: 0.8; stroke-linejoin: miter; stroke-linecap: square"/>
   </g>
   <g id="text_14">
    <!-- oc22_s2ef_train: four-case stage breakdown -->
    <g transform="translate(159.969063 16.318125) scale(0.12 -0.12)">
     <defs>
      <path id="DejaVuSans-63" d="M 3122 3366 
L 3122 2828 
Q 2878 2963 2633 3030 
Q 2388 3097 2138 3097 
Q 1578 3097 1268 2742 
Q 959 2388 959 1747 
Q 959 1106 1268 751 
Q 1578 397 2138 397 
Q 2388 397 2633 464 
Q 2878 531 3122 666 
L 3122 134 
Q 2881 22 2623 -34 
Q 2366 -91 2075 -91 
Q 1284 -91 818 406 
Q 353 903 353 1747 
Q 353 2603 823 3093 
Q 1294 3584 2113 3584 
Q 2378 3584 2631 3529 
Q 2884 3475 3122 3366 
z
" transform="scale(0.015625)"/>
      <path id="DejaVuSans-5f" d="M 3263 -1063 
L 3263 -1509 
L -63 -1509 
L -63 -1063 
L 3263 -1063 
z
" transform="scale(0.015625)"/>
      <path id="DejaVuSans-66" d="M 2375 4863 
L 2375 4384 
L 1825 4384 
Q 1516 4384 1395 4259 
Q 1275 4134 1275 3809 
L 1275 3500 
L 2222 3500 
L 2222 3053 
L 1275 3053 
L 1275 0 
L 697 0 
L 697 3053 
L 147 3053 
L 147 3500 
L 697 3500 
L 697 3744 
Q 697 4328 969 4595 
Q 1241 4863 1831 4863 
L 2375 4863 
z
" transform="scale(0.015625)"/>
      <path id="DejaVuSans-3a" d="M 750 794 
L 1409 794 
L 1409 0 
L 750 0 
L 750 794 
z
M 750 3309 
L 1409 3309 
L 1409 2516 
L 750 2516 
L 750 3309 
z
" transform="scale(0.015625)"/>
      <path id="DejaVuSans-2d" d="M 313 2009 
L 1997 2009 
L 1997 1497 
L 313 1497 
L 313 2009 
z
" transform="scale(0.015625)"/>
      <path id="DejaVuSans-62" d="M 3116 1747 
Q 3116 2381 2855 2742 
Q 2594 3103 2138 3103 
Q 1681 3103 1420 2742 
Q 1159 2381 1159 1747 
Q 1159 1113 1420 752 
Q 1681 391 2138 391 
Q 2594 391 2855 752 
Q 3116 1113 3116 1747 
z
M 1159 2969 
Q 1341 3281 1617 3432 
Q 1894 3584 2278 3584 
Q 2916 3584 3314 3078 
Q 3713 2572 3713 1747 
Q 3713 922 3314 415 
Q 2916 -91 2278 -91 
Q 1894 -91 1617 61 
Q 1341 213 1159 525 
L 1159 0 
L 581 0 
L 581 4863 
L 1159 4863 
L 1159 2969 
z
" transform="scale(0.015625)"/>
      <path id="DejaVuSans-6b" d="M 581 4863 
L 1159 4863 
L 1159 1991 
L 2875 3500 
L 3609 3500 
L 1753 1863 
L 3688 0 
L 2938 0 
L 1159 1709 
L 1159 0 
L 581 0 
L 581 4863 
z
" transform="scale(0.015625)"/>
      <path id="DejaVuSans-64" d="M 2906 2969 
L 2906 4863 
L 3481 4863 
L 3481 0 
L 2906 0 
L 2906 525 
Q 2725 213 2448 61 
Q 2172 -91 1784 -91 
Q 1150 -91 751 415 
Q 353 922 353 1747 
Q 353 2572 751 3078 
Q 1150 3584 1784 3584 
Q 2172 3584 2448 3432 
Q 2725 3281 2906 2969 
z
M 947 1747 
Q 947 1113 1208 752 
Q 1469 391 1925 391 
Q 2381 391 2643 752 
Q 2906 1113 2906 1747 
Q 2906 2381 2643 2742 
Q 2381 3103 1925 3103 
Q 1469 3103 1208 2742 
Q 947 2381 947 1747 
z
" transform="scale(0.015625)"/>
      <path id="DejaVuSans-77" d="M 269 3500 
L 844 3500 
L 1563 769 
L 2278 3500 
L 2956 3500 
L 3675 769 
L 4391 3500 
L 4966 3500 
L 4050 0 
L 3372 0 
L 2619 2869 
L 1863 0 
L 1184 0 
L 269 3500 
z
" transform="scale(0.015625)"/>
     </defs>
     <use xlink:href="#DejaVuSans-6f"/>
     <use xlink:href="#DejaVuSans-63" transform="translate(61.181641 0)"/>
     <use xlink:href="#DejaVuSans-32" transform="translate(116.162109 0)"/>
     <use xlink:href="#DejaVuSans-32" transform="translate(179.785156 0)"/>
     <use xlink:href="#DejaVuSans-5f" transform="translate(243.408203 0)"/>
     <use xlink:href="#DejaVuSans-73" transform="translate(293.408203 0)"/>
     <use xlink:href="#DejaVuSans-32" transform="translate(345.507812 0)"/>
     <use xlink:href="#DejaVuSans-65" transform="translate(409.130859 0)"/>
     <use xlink:href="#DejaVuSans-66" transform="translate(470.654297 0)"/>
     <use xlink:href="#DejaVuSans-5f" transform="translate(505.859375 0)"/>
     <use xlink:href="#DejaVuSans-74" transform="translate(555.859375 0)"/>
     <use xlink:href="#DejaVuSans-72" transform="translate(595.068359 0)"/>
     <use xlink:href="#DejaVuSans-61" transform="translate(636.181641 0)"/>
     <use xlink:href="#DejaVuSans-69" transform="translate(697.460938 0)"/>
     <use xlink:href="#DejaVuSans-6e" transform="translate(725.244141 0)"/>
     <use xlink:href="#DejaVuSans-3a" transform="translate(788.623047 0)"/>
     <use xlink:href="#DejaVuSans-20" transform="translate(822.314453 0)"/>
     <use xlink:href="#DejaVuSans-66" transform="translate(854.101562 0)"/>
     <use xlink:href="#DejaVuSans-6f" transform="translate(889.306641 0)"/>
     <use xlink:href="#DejaVuSans-75" transform="translate(950.488281 0)"/>
     <use xlink:href="#DejaVuSans-72" transform="translate(1013.867188 0)"/>
     <use xlink:href="#DejaVuSans-2d" transform="translate(1048.605469 0)"/>
     <use xlink:href="#DejaVuSans-63" transform="translate(1084.689453 0)"/>
     <use xlink:href="#DejaVuSans-61" transform="translate(1139.669922 0)"/>
     <use xlink:href="#DejaVuSans-73" transform="translate(1200.949219 0)"/>
     <use xlink:href="#DejaVuSans-65" transform="translate(1253.048828 0)"/>
     <use xlink:href="#DejaVuSans-20" transform="translate(1314.572266 0)"/>
     <use xlink:href="#DejaVuSans-73" transform="translate(1346.359375 0)"/>
     <use xlink:href="#DejaVuSans-74" transform="translate(1398.458984 0)"/>
     <use xlink:href="#DejaVuSans-61" transform="translate(1437.667969 0)"/>
     <use xlink:href="#DejaVuSans-67" transform="translate(1498.947266 0)"/>
     <use xlink:href="#DejaVuSans-65" transform="translate(1562.423828 0)"/>
     <use xlink:href="#DejaVuSans-20" transform="translate(1623.947266 0)"/>
     <use xlink:href="#DejaVuSans-62" transform="translate(1655.734375 0)"/>
     <use xlink:href="#DejaVuSans-72" transform="translate(1719.210938 0)"/>
     <use xlink:href="#DejaVuSans-65" transform="translate(1758.074219 0)"/>
     <use xlink:href="#DejaVuSans-61" transform="translate(1819.597656 0)"/>
     <use xlink:href="#DejaVuSans-6b" transform="translate(1880.876953 0)"/>
     <use xlink:href="#DejaVuSans-64" transform="translate(1938.787109 0)"/>
     <use xlink:href="#DejaVuSans-6f" transform="translate(2002.263672 0)"/>
     <use xlink:href="#DejaVuSans-77" transform="translate(2063.445312 0)"/>
     <use xlink:href="#DejaVuSans-6e" transform="translate(2145.232422 0)"/>
    </g>
   </g>
   <g id="legend_1">
    <g id="patch_59">
     <path d="M 156.583125 88.543125 
L 532.405625 88.543125 
Q 534.005625 88.543125 534.005625 86.943125 
L 534.005625 27.918125 
Q 534.005625 26.318125 532.405625 26.318125 
L 156.583125 26.318125 
Q 154.983125 26.318125 154.983125 27.918125 
L 154.983125 86.943125 
Q 154.983125 88.543125 156.583125 88.543125 
z
" style="fill: #ffffff; opacity: 0.8; stroke: #cccccc; stroke-linejoin: miter"/>
    </g>
    <g id="patch_60">
     <path d="M 158.183125 35.596875 
L 174.183125 35.596875 
L 174.183125 29.996875 
L 158.183125 29.996875 
z
" style="fill: #e69f00"/>
    </g>
    <g id="text_15">
     <!-- spherical_harmonics_ms -->
     <g transform="translate(180.583125 35.596875) scale(0.08 -0.08)">
      <use xlink:href="#DejaVuSans-73"/>
      <use xlink:href="#DejaVuSans-70" transform="translate(52.099609 0)"/>
      <use xlink:href="#DejaVuSans-68" transform="translate(115.576172 0)"/>
      <use xlink:href="#DejaVuSans-65" transform="translate(178.955078 0)"/>
      <use xlink:href="#DejaVuSans-72" transform="translate(240.478516 0)"/>
      <use xlink:href="#DejaVuSans-69" transform="translate(281.591797 0)"/>
      <use xlink:href="#DejaVuSans-63" transform="translate(309.375 0)"/>
      <use xlink:href="#DejaVuSans-61" transform="translate(364.355469 0)"/>
      <use xlink:href="#DejaVuSans-6c" transform="translate(425.634766 0)"/>
      <use xlink:href="#DejaVuSans-5f" transform="translate(453.417969 0)"/>
      <use xlink:href="#DejaVuSans-68" transform="translate(503.417969 0)"/>
      <use xlink:href="#DejaVuSans-61" transform="translate(566.796875 0)"/>
      <use xlink:href="#DejaVuSans-72" transform="translate(628.076172 0)"/>
      <use xlink:href="#DejaVuSans-6d" transform="translate(667.439453 0)"/>
      <use xlink:href="#DejaVuSans-6f" transform="translate(764.851562 0)"/>
      <use xlink:href="#DejaVuSans-6e" transform="translate(826.033203 0)"/>
      <use xlink:href="#DejaVuSans-69" transform="translate(889.412109 0)"/>
      <use xlink:href="#DejaVuSans-63" transform="translate(917.195312 0)"/>
      <use xlink:href="#DejaVuSans-73" transform="translate(972.175781 0)"/>
      <use xlink:href="#DejaVuSans-5f" transform="translate(1024.275391 0)"/>
      <use xlink:href="#DejaVuSans-6d" transform="translate(1074.275391 0)"/>
      <use xlink:href="#DejaVuSans-73" transform="translate(1171.6875 0)"/>
     </g>
    </g>
    <g id="patch_61">
     <path d="M 158.183125 47.561875 
L 174.183125 47.561875 
L 174.183125 41.961875 
L 158.183125 41.961875 
z
" style="fill: #56b4e9"/>
    </g>
    <g id="text_16">
     <!-- radial_basis_ms -->
     <g transform="translate(180.583125 47.561875) scale(0.08 -0.08)">
      <use xlink:href="#DejaVuSans-72"/>
      <use xlink:href="#DejaVuSans-61" transform="translate(41.113281 0)"/>
      <use xlink:href="#DejaVuSans-64" transform="translate(102.392578 0)"/>
      <use xlink:href="#DejaVuSans-69" transform="translate(165.869141 0)"/>
      <use xlink:href="#DejaVuSans-61" transform="translate(193.652344 0)"/>
      <use xlink:href="#DejaVuSans-6c" transform="translate(254.931641 0)"/>
      <use xlink:href="#DejaVuSans-5f" transform="translate(282.714844 0)"/>
      <use xlink:href="#DejaVuSans-62" transform="translate(332.714844 0)"/>
      <use xlink:href="#DejaVuSans-61" transform="translate(396.191406 0)"/>
      <use xlink:href="#DejaVuSans-73" transform="translate(457.470703 0)"/>
      <use xlink:href="#DejaVuSans-69" transform="translate(509.570312 0)"/>
      <use xlink:href="#DejaVuSans-73" transform="translate(537.353516 0)"/>
      <use xlink:href="#DejaVuSans-5f" transform="translate(589.453125 0)"/>
      <use xlink:href="#DejaVuSans-6d" transform="translate(639.453125 0)"/>
      <use xlink:href="#DejaVuSans-73" transform="translate(736.865234 0)"/>
     </g>
    </g>
    <g id="patch_62">
     <path d="M 158.183125 59.526875 
L 174.183125 59.526875 
L 174.183125 53.926875 
L 158.183125 53.926875 
z
" style="fill: #009e73"/>
    </g>
    <g id="text_17">
     <!-- cutoff_ms -->
     <g transform="translate(180.583125 59.526875) scale(0.08 -0.08)">
      <use xlink:href="#DejaVuSans-63"/>
      <use xlink:href="#DejaVuSans-75" transform="translate(54.980469 0)"/>
      <use xlink:href="#DejaVuSans-74" transform="translate(118.359375 0)"/>
      <use xlink:href="#DejaVuSans-6f" transform="translate(157.568359 0)"/>
      <use xlink:href="#DejaVuSans-66" transform="translate(218.75 0)"/>
      <use xlink:href="#DejaVuSans-66" transform="translate(253.955078 0)"/>
      <use xlink:href="#DejaVuSans-5f" transform="translate(289.160156 0)"/>
      <use xlink:href="#DejaVuSans-6d" transform="translate(339.160156 0)"/>
      <use xlink:href="#DejaVuSans-73" transform="translate(436.572266 0)"/>
     </g>
    </g>
    <g id="patch_63">
     <path d="M 158.183125 71.491875 
L 174.183125 71.491875 
L 174.183125 65.891875 
L 158.183125 65.891875 
z
" style="fill: #4c9f70"/>
    </g>
    <g id="text_18">
     <!-- conv_weight_nn_ms -->
     <g transform="translate(180.583125 71.491875) scale(0.08 -0.08)">
      <use xlink:href="#DejaVuSans-63"/>
      <use xlink:href="#DejaVuSans-6f" transform="translate(54.980469 0)"/>
      <use xlink:href="#DejaVuSans-6e" transform="translate(116.162109 0)"/>
      <use xlink:href="#DejaVuSans-76" transform="translate(179.541016 0)"/>
      <use xlink:href="#DejaVuSans-5f" transform="translate(238.720703 0)"/>
      <use xlink:href="#DejaVuSans-77" transform="translate(288.720703 0)"/>
      <use xlink:href="#DejaVuSans-65" transform="translate(370.507812 0)"/>
      <use xlink:href="#DejaVuSans-69" transform="translate(432.03125 0)"/>
      <use xlink:href="#DejaVuSans-67" transform="translate(459.814453 0)"/>
      <use xlink:href="#DejaVuSans-68" transform="translate(523.291016 0)"/>
      <use xlink:href="#DejaVuSans-74" transform="translate(586.669922 0)"/>
      <use xlink:href="#DejaVuSans-5f" transform="translate(625.878906 0)"/>
      <use xlink:href="#DejaVuSans-6e" transform="translate(675.878906 0)"/>
      <use xlink:href="#DejaVuSans-6e" transform="translate(739.257812 0)"/>
      <use xlink:href="#DejaVuSans-5f" transform="translate(802.636719 0)"/>
      <use xlink:href="#DejaVuSans-6d" transform="translate(852.636719 0)"/>
      <use xlink:href="#DejaVuSans-73" transform="translate(950.048828 0)"/>
     </g>
    </g>
    <g id="patch_64">
     <path d="M 158.183125 83.456875 
L 174.183125 83.456875 
L 174.183125 77.856875 
L 158.183125 77.856875 
z
" style="fill: #8b6bb8"/>
    </g>
    <g id="text_19">
     <!-- pair_expand_ms -->
     <g transform="translate(180.583125 83.456875) scale(0.08 -0.08)">
      <defs>
       <path id="DejaVuSans-78" d="M 3513 3500 
L 2247 1797 
L 3578 0 
L 2900 0 
L 1881 1375 
L 863 0 
L 184 0 
L 1544 1831 
L 300 3500 
L 978 3500 
L 1906 2253 
L 2834 3500 
L 3513 3500 
z
" transform="scale(0.015625)"/>
      </defs>
      <use xlink:href="#DejaVuSans-70"/>
      <use xlink:href="#DejaVuSans-61" transform="translate(63.476562 0)"/>
      <use xlink:href="#DejaVuSans-69" transform="translate(124.755859 0)"/>
      <use xlink:href="#DejaVuSans-72" transform="translate(152.539062 0)"/>
      <use xlink:href="#DejaVuSans-5f" transform="translate(193.652344 0)"/>
      <use xlink:href="#DejaVuSans-65" transform="translate(243.652344 0)"/>
      <use xlink:href="#DejaVuSans-78" transform="translate(303.425781 0)"/>
      <use xlink:href="#DejaVuSans-70" transform="translate(362.605469 0)"/>
      <use xlink:href="#DejaVuSans-61" transform="translate(426.082031 0)"/>
      <use xlink:href="#DejaVuSans-6e" transform="translate(487.361328 0)"/>
      <use xlink:href="#DejaVuSans-64" transform="translate(550.740234 0)"/>
      <use xlink:href="#DejaVuSans-5f" transform="translate(614.216797 0)"/>
      <use xlink:href="#DejaVuSans-6d" transform="translate(664.216797 0)"/>
      <use xlink:href="#DejaVuSans-73" transform="translate(761.628906 0)"/>
     </g>
    </g>
    <g id="patch_65">
     <path d="M 294.484375 35.596875 
L 310.484375 35.596875 
L 310.484375 29.996875 
L 294.484375 29.996875 
z
" style="fill: #a84832"/>
    </g>
    <g id="text_20">
     <!-- pair_indexing_ms -->
     <g transform="translate(316.884375 35.596875) scale(0.08 -0.08)">
      <use xlink:href="#DejaVuSans-70"/>
      <use xlink:href="#DejaVuSans-61" transform="translate(63.476562 0)"/>
      <use xlink:href="#DejaVuSans-69" transform="translate(124.755859 0)"/>
      <use xlink:href="#DejaVuSans-72" transform="translate(152.539062 0)"/>
      <use xlink:href="#DejaVuSans-5f" transform="translate(193.652344 0)"/>
      <use xlink:href="#DejaVuSans-69" transform="translate(243.652344 0)"/>
      <use xlink:href="#DejaVuSans-6e" transform="translate(271.435547 0)"/>
      <use xlink:href="#DejaVuSans-64" transform="translate(334.814453 0)"/>
      <use xlink:href="#DejaVuSans-65" transform="translate(398.291016 0)"/>
      <use xlink:href="#DejaVuSans-78" transform="translate(458.064453 0)"/>
      <use xlink:href="#DejaVuSans-69" transform="translate(517.244141 0)"/>
      <use xlink:href="#DejaVuSans-6e" transform="translate(545.027344 0)"/>
      <use xlink:href="#DejaVuSans-67" transform="translate(608.40625 0)"/>
      <use xlink:href="#DejaVuSans-5f" transform="translate(671.882812 0)"/>
      <use xlink:href="#DejaVuSans-6d" transform="translate(721.882812 0)"/>
      <use xlink:href="#DejaVuSans-73" transform="translate(819.294922 0)"/>
     </g>
    </g>
    <g id="patch_66">
     <path d="M 294.484375 47.561875 
L 310.484375 47.561875 
L 310.484375 41.961875 
L 294.484375 41.961875 
z
" style="fill: #a6cee3"/>
    </g>
    <g id="text_21">
     <!-- conv_src_gather_ms -->
     <g transform="translate(316.884375 47.561875) scale(0.08 -0.08)">
      <use xlink:href="#DejaVuSans-63"/>
      <use xlink:href="#DejaVuSans-6f" transform="translate(54.980469 0)"/>
      <use xlink:href="#DejaVuSans-6e" transform="translate(116.162109 0)"/>
      <use xlink:href="#DejaVuSans-76" transform="translate(179.541016 0)"/>
      <use xlink:href="#DejaVuSans-5f" transform="translate(238.720703 0)"/>
      <use xlink:href="#DejaVuSans-73" transform="translate(288.720703 0)"/>
      <use xlink:href="#DejaVuSans-72" transform="translate(340.820312 0)"/>
      <use xlink:href="#DejaVuSans-63" transform="translate(379.683594 0)"/>
      <use xlink:href="#DejaVuSans-5f" transform="translate(434.664062 0)"/>
      <use xlink:href="#DejaVuSans-67" transform="translate(484.664062 0)"/>
      <use xlink:href="#DejaVuSans-61" transform="translate(548.140625 0)"/>
      <use xlink:href="#DejaVuSans-74" transform="translate(609.419922 0)"/>
      <use xlink:href="#DejaVuSans-68" transform="translate(648.628906 0)"/>
      <use xlink:href="#DejaVuSans-65" transform="translate(712.007812 0)"/>
      <use xlink:href="#DejaVuSans-72" transform="translate(773.53125 0)"/>
      <use xlink:href="#DejaVuSans-5f" transform="translate(814.644531 0)"/>
      <use xlink:href="#DejaVuSans-6d" transform="translate(864.644531 0)"/>
      <use xlink:href="#DejaVuSans-73" transform="translate(962.056641 0)"/>
     </g>
    </g>
    <g id="patch_67">
     <path d="M 294.484375 59.526875 
L 310.484375 59.526875 
L 310.484375 53.926875 
L 294.484375 53.926875 
z
" style="fill: #1f78b4"/>
    </g>
    <g id="text_22">
     <!-- conv_filter_gather_ms -->
     <g transform="translate(316.884375 59.526875) scale(0.08 -0.08)">
      <use xlink:href="#DejaVuSans-63"/>
      <use xlink:href="#DejaVuSans-6f" transform="translate(54.980469 0)"/>
      <use xlink:href="#DejaVuSans-6e" transform="translate(116.162109 0)"/>
      <use xlink:href="#DejaVuSans-76" transform="translate(179.541016 0)"/>
      <use xlink:href="#DejaVuSans-5f" transform="translate(238.720703 0)"/>
      <use xlink:href="#DejaVuSans-66" transform="translate(288.720703 0)"/>
      <use xlink:href="#DejaVuSans-69" transform="translate(323.925781 0)"/>
      <use xlink:href="#DejaVuSans-6c" transform="translate(351.708984 0)"/>
      <use xlink:href="#DejaVuSans-74" transform="translate(379.492188 0)"/>
      <use xlink:href="#DejaVuSans-65" transform="translate(418.701172 0)"/>
      <use xlink:href="#DejaVuSans-72" transform="translate(480.224609 0)"/>
      <use xlink:href="#DejaVuSans-5f" transform="translate(521.337891 0)"/>
      <use xlink:href="#DejaVuSans-67" transform="translate(571.337891 0)"/>
      <use xlink:href="#DejaVuSans-61" transform="translate(634.814453 0)"/>
      <use xlink:href="#DejaVuSans-74" transform="translate(696.09375 0)"/>
      <use xlink:href="#DejaVuSans-68" transform="translate(735.302734 0)"/>
      <use xlink:href="#DejaVuSans-65" transform="translate(798.681641 0)"/>
      <use xlink:href="#DejaVuSans-72" transform="translate(860.205078 0)"/>
      <use xlink:href="#DejaVuSans-5f" transform="translate(901.318359 0)"/>
      <use xlink:href="#DejaVuSans-6d" transform="translate(951.318359 0)"/>
      <use xlink:href="#DejaVuSans-73" transform="translate(1048.730469 0)"/>
     </g>
    </g>
    <g id="patch_68">
     <path d="M 294.484375 71.491875 
L 310.484375 71.491875 
L 310.484375 65.891875 
L 294.484375 65.891875 
z
" style="fill: #4d4d4d"/>
    </g>
    <g id="text_23">
     <!-- conv_message_tp_ms -->
     <g transform="translate(316.884375 71.491875) scale(0.08 -0.08)">
      <use xlink:href="#DejaVuSans-63"/>
      <use xlink:href="#DejaVuSans-6f" transform="translate(54.980469 0)"/>
      <use xlink:href="#DejaVuSans-6e" transform="translate(116.162109 0)"/>
      <use xlink:href="#DejaVuSans-76" transform="translate(179.541016 0)"/>
      <use xlink:href="#DejaVuSans-5f" transform="translate(238.720703 0)"/>
      <use xlink:href="#DejaVuSans-6d" transform="translate(288.720703 0)"/>
      <use xlink:href="#DejaVuSans-65" transform="translate(386.132812 0)"/>
      <use xlink:href="#DejaVuSans-73" transform="translate(447.65625 0)"/>
      <use xlink:href="#DejaVuSans-73" transform="translate(499.755859 0)"/>
      <use xlink:href="#DejaVuSans-61" transform="translate(551.855469 0)"/>
      <use xlink:href="#DejaVuSans-67" transform="translate(613.134766 0)"/>
      <use xlink:href="#DejaVuSans-65" transform="translate(676.611328 0)"/>
      <use xlink:href="#DejaVuSans-5f" transform="translate(738.134766 0)"/>
      <use xlink:href="#DejaVuSans-74" transform="translate(788.134766 0)"/>
      <use xlink:href="#DejaVuSans-70" transform="translate(827.34375 0)"/>
      <use xlink:href="#DejaVuSans-5f" transform="translate(890.820312 0)"/>
      <use xlink:href="#DejaVuSans-6d" transform="translate(940.820312 0)"/>
      <use xlink:href="#DejaVuSans-73" transform="translate(1038.232422 0)"/>
     </g>
    </g>
    <g id="patch_69">
     <path d="M 420.950625 35.596875 
L 436.950625 35.596875 
L 436.950625 29.996875 
L 420.950625 29.996875 
z
" style="fill: #cc79a7"/>
    </g>
    <g id="text_24">
     <!-- flash_fused_conv_ms -->
     <g transform="translate(443.350625 35.596875) scale(0.08 -0.08)">
      <use xlink:href="#DejaVuSans-66"/>
      <use xlink:href="#DejaVuSans-6c" transform="translate(35.205078 0)"/>
      <use xlink:href="#DejaVuSans-61" transform="translate(62.988281 0)"/>
      <use xlink:href="#DejaVuSans-73" transform="translate(124.267578 0)"/>
      <use xlink:href="#DejaVuSans-68" transform="translate(176.367188 0)"/>
      <use xlink:href="#DejaVuSans-5f" transform="translate(239.746094 0)"/>
      <use xlink:href="#DejaVuSans-66" transform="translate(289.746094 0)"/>
      <use xlink:href="#DejaVuSans-75" transform="translate(324.951172 0)"/>
      <use xlink:href="#DejaVuSans-73" transform="translate(388.330078 0)"/>
      <use xlink:href="#DejaVuSans-65" transform="translate(440.429688 0)"/>
      <use xlink:href="#DejaVuSans-64" transform="translate(501.953125 0)"/>
      <use xlink:href="#DejaVuSans-5f" transform="translate(565.429688 0)"/>
      <use xlink:href="#DejaVuSans-63" transform="translate(615.429688 0)"/>
      <use xlink:href="#DejaVuSans-6f" transform="translate(670.410156 0)"/>
      <use xlink:href="#DejaVuSans-6e" transform="translate(731.591797 0)"/>
      <use xlink:href="#DejaVuSans-76" transform="translate(794.970703 0)"/>
      <use xlink:href="#DejaVuSans-5f" transform="translate(854.150391 0)"/>
      <use xlink:href="#DejaVuSans-6d" transform="translate(904.150391 0)"/>
      <use xlink:href="#DejaVuSans-73" transform="translate(1001.5625 0)"/>
     </g>
    </g>
    <g id="patch_70">
     <path d="M 420.950625 47.561875 
L 436.950625 47.561875 
L 436.950625 41.961875 
L 420.950625 41.961875 
z
" style="fill: #7f7f7f"/>
    </g>
    <g id="text_25">
     <!-- conv_aggregation_ms -->
     <g transform="translate(443.350625 47.561875) scale(0.08 -0.08)">
      <use xlink:href="#DejaVuSans-63"/>
      <use xlink:href="#DejaVuSans-6f" transform="translate(54.980469 0)"/>
      <use xlink:href="#DejaVuSans-6e" transform="translate(116.162109 0)"/>
      <use xlink:href="#DejaVuSans-76" transform="translate(179.541016 0)"/>
      <use xlink:href="#DejaVuSans-5f" transform="translate(238.720703 0)"/>
      <use xlink:href="#DejaVuSans-61" transform="translate(288.720703 0)"/>
      <use xlink:href="#DejaVuSans-67" transform="translate(350 0)"/>
      <use xlink:href="#DejaVuSans-67" transform="translate(413.476562 0)"/>
      <use xlink:href="#DejaVuSans-72" transform="translate(476.953125 0)"/>
      <use xlink:href="#DejaVuSans-65" transform="translate(515.816406 0)"/>
      <use xlink:href="#DejaVuSans-67" transform="translate(577.339844 0)"/>
      <use xlink:href="#DejaVuSans-61" transform="translate(640.816406 0)"/>
      <use xlink:href="#DejaVuSans-74" transform="translate(702.095703 0)"/>
      <use xlink:href="#DejaVuSans-69" transform="translate(741.304688 0)"/>
      <use xlink:href="#DejaVuSans-6f" transform="translate(769.087891 0)"/>
      <use xlink:href="#DejaVuSans-6e" transform="translate(830.269531 0)"/>
      <use xlink:href="#DejaVuSans-5f" transform="translate(893.648438 0)"/>
      <use xlink:href="#DejaVuSans-6d" transform="translate(943.648438 0)"/>
      <use xlink:href="#DejaVuSans-73" transform="translate(1041.060547 0)"/>
     </g>
    </g>
    <g id="patch_71">
     <path d="M 420.950625 59.526875 
L 436.950625 59.526875 
L 436.950625 53.926875 
L 420.950625 53.926875 
z
" style="fill: #3b4c63"/>
    </g>
    <g id="text_26">
     <!-- top_force_output_ms -->
     <g transform="translate(443.350625 59.526875) scale(0.08 -0.08)">
      <use xlink:href="#DejaVuSans-74"/>
      <use xlink:href="#DejaVuSans-6f" transform="translate(39.208984 0)"/>
      <use xlink:href="#DejaVuSans-70" transform="translate(100.390625 0)"/>
      <use xlink:href="#DejaVuSans-5f" transform="translate(163.867188 0)"/>
      <use xlink:href="#DejaVuSans-66" transform="translate(213.867188 0)"/>
      <use xlink:href="#DejaVuSans-6f" transform="translate(249.072266 0)"/>
      <use xlink:href="#DejaVuSans-72" transform="translate(310.253906 0)"/>
      <use xlink:href="#DejaVuSans-63" transform="translate(349.117188 0)"/>
      <use xlink:href="#DejaVuSans-65" transform="translate(404.097656 0)"/>
      <use xlink:href="#DejaVuSans-5f" transform="translate(465.621094 0)"/>
      <use xlink:href="#DejaVuSans-6f" transform="translate(515.621094 0)"/>
      <use xlink:href="#DejaVuSans-75" transform="translate(576.802734 0)"/>
      <use xlink:href="#DejaVuSans-74" transform="translate(640.181641 0)"/>
      <use xlink:href="#DejaVuSans-70" transform="translate(679.390625 0)"/>
      <use xlink:href="#DejaVuSans-75" transform="translate(742.867188 0)"/>
      <use xlink:href="#DejaVuSans-74" transform="translate(806.246094 0)"/>
      <use xlink:href="#DejaVuSans-5f" transform="translate(845.455078 0)"/>
      <use xlink:href="#DejaVuSans-6d" transform="translate(895.455078 0)"/>
      <use xlink:href="#DejaVuSans-73" transform="translate(992.867188 0)"/>
     </g>
    </g>
    <g id="patch_72">
     <path d="M 420.950625 71.491875 
L 436.950625 71.491875 
L 436.950625 65.891875 
L 420.950625 65.891875 
z
" style="fill: #bdbdbd"/>
    </g>
    <g id="text_27">
     <!-- other_ms -->
     <g transform="translate(443.350625 71.491875) scale(0.08 -0.08)">
      <use xlink:href="#DejaVuSans-6f"/>
      <use xlink:href="#DejaVuSans-74" transform="translate(61.181641 0)"/>
      <use xlink:href="#DejaVuSans-68" transform="translate(100.390625 0)"/>
      <use xlink:href="#DejaVuSans-65" transform="translate(163.769531 0)"/>
      <use xlink:href="#DejaVuSans-72" transform="translate(225.292969 0)"/>
      <use xlink:href="#DejaVuSans-5f" transform="translate(266.40625 0)"/>
      <use xlink:href="#DejaVuSans-6d" transform="translate(316.40625 0)"/>
      <use xlink:href="#DejaVuSans-73" transform="translate(413.818359 0)"/>
     </g>
    </g>
   </g>
  </g>
 </g>
 <defs>
  <clipPath id="p076f4b4847">
   <rect x="46.965625" y="22.318125" width="491.04" height="310.464"/>
  </clipPath>
 </defs>
</svg>
