<?xml version="1.0" encoding="utf-8" standalone="no"?>
<!DOCTYPE svg PUBLIC "-//W3C//DTD SVG 1.1//EN"
  "http://www.w3.org/Graphics/SVG/1.1/DTD/svg11.dtd">
<svg xmlns:xlink="http://www.w3.org/1999/xlink" width="708.583375pt" height="432.441354pt" viewBox="0 0 708.583375 432.441354" xmlns="http://www.w3.org/2000/svg" version="1.1">
 <metadata>
  <rdf:RDF xmlns:dc="http://purl.org/dc/elements/1.1/" xmlns:cc="http://creativecommons.org/ns#" xmlns:rdf="http://www.w3.org/1999/02/22-rdf-syntax-ns#">
   <cc:Work>
    <dc:type rdf:resource="http://purl.org/dc/dcmitype/StillImage"/>
    <dc:date>2026-04-13T14:49:19.416303</dc:date>
    <dc:format>image/svg+xml</dc:format>
    <dc:creator>
     <cc:Agent>
      <dc:title>Matplotlib v3.10.1, https://matplotlib.org/</dc:title>
     </cc:Agent>
    </dc:creator>
   </cc:Work>
  </rdf:RDF>
 </metadata>
 <defs>
  <style type="text/css">*{stroke-linejoin: round; stroke-linecap: butt}</style>
 </defs>
 <g id="figure_1">
  <g id="patch_1">
   <path d="M -0 432.441354 
L 708.583375 432.441354 
L 708.583375 -0 
L -0 -0 
z
" style="fill: #ffffff"/>
  </g>
  <g id="axes_1">
   <g id="patch_2">
    <path d="M 44.059375 299.518125 
L 701.383375 299.518125 
L 701.383375 22.318125 
L 44.059375 22.318125 
z
" style="fill: #ffffff"/>
   </g>
   <g id="patch_3">
    <path d="M 73.937739 299.518125 
L 89.458966 299.518125 
L 89.458966 35.518125 
L 73.937739 35.518125 
z
" clip-path="url(#p7051bfd1eb)" style="fill: #cc79a7"/>
   </g>
   <g id="patch_4">
    <path d="M 93.339273 299.518125 
L 108.860501 299.518125 
L 108.860501 38.206627 
L 93.339273 38.206627 
z
" clip-path="url(#p7051bfd1eb)" style="fill: #cc79a7"/>
   </g>
   <g id="patch_5">
    <path d="M 112.740808 299.518125 
L 128.262036 299.518125 
L 128.262036 42.23482 
L 112.740808 42.23482 
z
" clip-path="url(#p7051bfd1eb)" style="fill: #9c4e63"/>
   </g>
   <g id="patch_6">
    <path d="M 132.142343 299.518125 
L 147.663571 299.518125 
L 147.663571 45.296876 
L 132.142343 45.296876 
z
" clip-path="url(#p7051bfd1eb)" style="fill: #9c4e63"/>
   </g>
   <g id="patch_7">
    <path d="M 151.543878 299.518125 
L 167.065106 299.518125 
L 167.065106 45.649177 
L 151.543878 45.649177 
z
" clip-path="url(#p7051bfd1eb)" style="fill: #9c4e63"/>
   </g>
   <g id="patch_8">
    <path d="M 170.945413 299.518125 
L 186.466641 299.518125 
L 186.466641 46.690576 
L 170.945413 46.690576 
z
" clip-path="url(#p7051bfd1eb)" style="fill: #9c4e63"/>
   </g>
   <g id="patch_9">
    <path d="M 190.346948 299.518125 
L 205.868175 299.518125 
L 205.868175 47.175017 
L 190.346948 47.175017 
z
" clip-path="url(#p7051bfd1eb)" style="fill: #9c4e63"/>
   </g>
   <g id="patch_10">
    <path d="M 209.748482 299.518125 
L 225.26971 299.518125 
L 225.26971 53.801518 
L 209.748482 53.801518 
z
" clip-path="url(#p7051bfd1eb)" style="fill: #9c4e63"/>
   </g>
   <g id="patch_11">
    <path d="M 229.150017 299.518125 
L 244.671245 299.518125 
L 244.671245 55.109304 
L 229.150017 55.109304 
z
" clip-path="url(#p7051bfd1eb)" style="fill: #9c4e63"/>
   </g>
   <g id="patch_12">
    <path d="M 248.551552 299.518125 
L 264.07278 299.518125 
L 264.07278 55.555006 
L 248.551552 55.555006 
z
" clip-path="url(#p7051bfd1eb)" style="fill: #9c4e63"/>
   </g>
   <g id="patch_13">
    <path d="M 267.953087 299.518125 
L 283.474315 299.518125 
L 283.474315 55.628846 
L 267.953087 55.628846 
z
" clip-path="url(#p7051bfd1eb)" style="fill: #9c4e63"/>
   </g>
   <g id="patch_14">
    <path d="M 287.354622 299.518125 
L 302.87585 299.518125 
L 302.87585 61.020458 
L 287.354622 61.020458 
z
" clip-path="url(#p7051bfd1eb)" style="fill: #9c4e63"/>
   </g>
   <g id="patch_15">
    <path d="M 306.756157 299.518125 
L 322.277384 299.518125 
L 322.277384 62.202062 
L 306.756157 62.202062 
z
" clip-path="url(#p7051bfd1eb)" style="fill: #9c4e63"/>
   </g>
   <g id="patch_16">
    <path d="M 326.157691 299.518125 
L 341.678919 299.518125 
L 341.678919 72.38324 
L 326.157691 72.38324 
z
" clip-path="url(#p7051bfd1eb)" style="fill: #9c4e63"/>
   </g>
   <g id="patch_17">
    <path d="M 345.559226 299.518125 
L 361.080454 299.518125 
L 361.080454 74.743431 
L 345.559226 74.743431 
z
" clip-path="url(#p7051bfd1eb)" style="fill: #9c4e63"/>
   </g>
   <g id="patch_18">
    <path d="M 364.960761 299.518125 
L 380.481989 299.518125 
L 380.481989 79.692962 
L 364.960761 79.692962 
z
" clip-path="url(#p7051bfd1eb)" style="fill: #9c4e63"/>
   </g>
   <g id="patch_19">
    <path d="M 384.362296 299.518125 
L 399.883524 299.518125 
L 399.883524 79.712465 
L 384.362296 79.712465 
z
" clip-path="url(#p7051bfd1eb)" style="fill: #9c4e63"/>
   </g>
   <g id="patch_20">
    <path d="M 403.763831 299.518125 
L 419.285059 299.518125 
L 419.285059 81.545097 
L 403.763831 81.545097 
z
" clip-path="url(#p7051bfd1eb)" style="fill: #9c4e63"/>
   </g>
   <g id="patch_21">
    <path d="M 423.165366 299.518125 
L 438.686593 299.518125 
L 438.686593 93.845298 
L 423.165366 93.845298 
z
" clip-path="url(#p7051bfd1eb)" style="fill: #9c4e63"/>
   </g>
   <g id="patch_22">
    <path d="M 442.5669 299.518125 
L 458.088128 299.518125 
L 458.088128 108.226547 
L 442.5669 108.226547 
z
" clip-path="url(#p7051bfd1eb)" style="fill: #9c4e63"/>
   </g>
   <g id="patch_23">
    <path d="M 461.968435 299.518125 
L 477.489663 299.518125 
L 477.489663 113.826333 
L 461.968435 113.826333 
z
" clip-path="url(#p7051bfd1eb)" style="fill: #9c4e63"/>
   </g>
   <g id="patch_24">
    <path d="M 481.36997 299.518125 
L 496.891198 299.518125 
L 496.891198 121.743069 
L 481.36997 121.743069 
z
" clip-path="url(#p7051bfd1eb)" style="fill: #9c4e63"/>
   </g>
   <g id="patch_25">
    <path d="M 500.771505 299.518125 
L 516.292733 299.518125 
L 516.292733 124.048511 
L 500.771505 124.048511 
z
" clip-path="url(#p7051bfd1eb)" style="fill: #9c4e63"/>
   </g>
   <g id="patch_26">
    <path d="M 520.17304 299.518125 
L 535.694268 299.518125 
L 535.694268 126.463294 
L 520.17304 126.463294 
z
" clip-path="url(#p7051bfd1eb)" style="fill: #9c4e63"/>
   </g>
   <g id="patch_27">
    <path d="M 539.574575 299.518125 
L 555.095802 299.518125 
L 555.095802 126.867988 
L 539.574575 126.867988 
z
" clip-path="url(#p7051bfd1eb)" style="fill: #9c4e63"/>
   </g>
   <g id="patch_28">
    <path d="M 558.976109 299.518125 
L 574.497337 299.518125 
L 574.497337 130.442277 
L 558.976109 130.442277 
z
" clip-path="url(#p7051bfd1eb)" style="fill: #9c4e63"/>
   </g>
   <g id="patch_29">
    <path d="M 578.377644 299.518125 
L 593.898872 299.518125 
L 593.898872 140.639051 
L 578.377644 140.639051 
z
" clip-path="url(#p7051bfd1eb)" style="fill: #9c4e63"/>
   </g>
   <g id="patch_30">
    <path d="M 597.779179 299.518125 
L 613.300407 299.518125 
L 613.300407 140.930189 
L 597.779179 140.930189 
z
" clip-path="url(#p7051bfd1eb)" style="fill: #9c4e63"/>
   </g>
   <g id="patch_31">
    <path d="M 617.180714 299.518125 
L 632.701942 299.518125 
L 632.701942 147.389866 
L 617.180714 147.389866 
z
" clip-path="url(#p7051bfd1eb)" style="fill: #9c4e63"/>
   </g>
   <g id="patch_32">
    <path d="M 636.582249 299.518125 
L 652.103477 299.518125 
L 652.103477 158.219784 
L 636.582249 158.219784 
z
" clip-path="url(#p7051bfd1eb)" style="fill: #9c4e63"/>
   </g>
   <g id="patch_33">
    <path d="M 655.983784 299.518125 
L 671.505011 299.518125 
L 671.505011 167.536304 
L 655.983784 167.536304 
z
" clip-path="url(#p7051bfd1eb)" style="fill: #9c4e63"/>
   </g>
   <g id="matplotlib.axis_1">
    <g id="xtick_1">
     <g id="line2d_1">
      <defs>
       <path id="m83e06ba533" d="M 0 0 
L 0 3.5 
" style="stroke: #000000; stroke-width: 0.8"/>
      </defs>
      <g>
       <use xlink:href="#m83e06ba533" x="81.698353" y="299.518125" style="stroke: #000000; stroke-width: 0.8"/>
      </g>
     </g>
     <g id="text_1">
      <!-- omol25_validation -->
      <g transform="translate(51.124823 376.743772) rotate(-45) scale(0.1 -0.1)">
       <defs>
        <path id="DejaVuSans-6f" d="M 1959 3097 
Q 1497 3097 1228 2736 
Q 959 2375 959 1747 
Q 959 1119 1226 758 
Q 1494 397 1959 397 
Q 2419 397 2687 759 
Q 2956 1122 2956 1747 
Q 2956 2369 2687 2733 
Q 2419 3097 1959 3097 
z
M 1959 3584 
Q 2709 3584 3137 3096 
Q 3566 2609 3566 1747 
Q 3566 888 3137 398 
Q 2709 -91 1959 -91 
Q 1206 -91 779 398 
Q 353 888 353 1747 
Q 353 2609 779 3096 
Q 1206 3584 1959 3584 
z
" transform="scale(0.015625)"/>
        <path id="DejaVuSans-6d" d="M 3328 2828 
Q 3544 3216 3844 3400 
Q 4144 3584 4550 3584 
Q 5097 3584 5394 3201 
Q 5691 2819 5691 2113 
L 5691 0 
L 5113 0 
L 5113 2094 
Q 5113 2597 4934 2840 
Q 4756 3084 4391 3084 
Q 3944 3084 3684 2787 
Q 3425 2491 3425 1978 
L 3425 0 
L 2847 0 
L 2847 2094 
Q 2847 2600 2669 2842 
Q 2491 3084 2119 3084 
Q 1678 3084 1418 2786 
Q 1159 2488 1159 1978 
L 1159 0 
L 581 0 
L 581 3500 
L 1159 3500 
L 1159 2956 
Q 1356 3278 1631 3431 
Q 1906 3584 2284 3584 
Q 2666 3584 2933 3390 
Q 3200 3197 3328 2828 
z
" transform="scale(0.015625)"/>
        <path id="DejaVuSans-6c" d="M 603 4863 
L 1178 4863 
L 1178 0 
L 603 0 
L 603 4863 
z
" transform="scale(0.015625)"/>
        <path id="DejaVuSans-32" d="M 1228 531 
L 3431 531 
L 3431 0 
L 469 0 
L 469 531 
Q 828 903 1448 1529 
Q 2069 2156 2228 2338 
Q 2531 2678 2651 2914 
Q 2772 3150 2772 3378 
Q 2772 3750 2511 3984 
Q 2250 4219 1831 4219 
Q 1534 4219 1204 4116 
Q 875 4013 500 3803 
L 500 4441 
Q 881 4594 1212 4672 
Q 1544 4750 1819 4750 
Q 2544 4750 2975 4387 
Q 3406 4025 3406 3419 
Q 3406 3131 3298 2873 
Q 3191 2616 2906 2266 
Q 2828 2175 2409 1742 
Q 1991 1309 1228 531 
z
" transform="scale(0.015625)"/>
        <path id="DejaVuSans-35" d="M 691 4666 
L 3169 4666 
L 3169 4134 
L 1269 4134 
L 1269 2991 
Q 1406 3038 1543 3061 
Q 1681 3084 1819 3084 
Q 2600 3084 3056 2656 
Q 3513 2228 3513 1497 
Q 3513 744 3044 326 
Q 2575 -91 1722 -91 
Q 1428 -91 1123 -41 
Q 819 9 494 109 
L 494 744 
Q 775 591 1075 516 
Q 1375 441 1709 441 
Q 2250 441 2565 725 
Q 2881 1009 2881 1497 
Q 2881 1984 2565 2268 
Q 2250 2553 1709 2553 
Q 1456 2553 1204 2497 
Q 953 2441 691 2322 
L 691 4666 
z
" transform="scale(0.015625)"/>
        <path id="DejaVuSans-5f" d="M 3263 -1063 
L 3263 -1509 
L -63 -1509 
L -63 -1063 
L 3263 -1063 
z
" transform="scale(0.015625)"/>
        <path id="DejaVuSans-76" d="M 191 3500 
L 800 3500 
L 1894 563 
L 2988 3500 
L 3597 3500 
L 2284 0 
L 1503 0 
L 191 3500 
z
" transform="scale(0.015625)"/>
        <path id="DejaVuSans-61" d="M 2194 1759 
Q 1497 1759 1228 1600 
Q 959 1441 959 1056 
Q 959 750 1161 570 
Q 1363 391 1709 391 
Q 2188 391 2477 730 
Q 2766 1069 2766 1631 
L 2766 1759 
L 2194 1759 
z
M 3341 1997 
L 3341 0 
L 2766 0 
L 2766 531 
Q 2569 213 2275 61 
Q 1981 -91 1556 -91 
Q 1019 -91 701 211 
Q 384 513 384 1019 
Q 384 1609 779 1909 
Q 1175 2209 1959 2209 
L 2766 2209 
L 2766 2266 
Q 2766 2663 2505 2880 
Q 2244 3097 1772 3097 
Q 1472 3097 1187 3025 
Q 903 2953 641 2809 
L 641 3341 
Q 956 3463 1253 3523 
Q 1550 3584 1831 3584 
Q 2591 3584 2966 3190 
Q 3341 2797 3341 1997 
z
" transform="scale(0.015625)"/>
        <path id="DejaVuSans-69" d="M 603 3500 
L 1178 3500 
L 1178 0 
L 603 0 
L 603 3500 
z
M 603 4863 
L 1178 4863 
L 1178 4134 
L 603 4134 
L 603 4863 
z
" transform="scale(0.015625)"/>
        <path id="DejaVuSans-64" d="M 2906 2969 
L 2906 4863 
L 3481 4863 
L 3481 0 
L 2906 0 
L 2906 525 
Q 2725 213 2448 61 
Q 2172 -91 1784 -91 
Q 1150 -91 751 415 
Q 353 922 353 1747 
Q 353 2572 751 3078 
Q 1150 3584 1784 3584 
Q 2172 3584 2448 3432 
Q 2725 3281 2906 2969 
z
M 947 1747 
Q 947 1113 1208 752 
Q 1469 391 1925 391 
Q 2381 391 2643 752 
Q 2906 1113 2906 1747 
Q 2906 2381 2643 2742 
Q 2381 3103 1925 3103 
Q 1469 3103 1208 2742 
Q 947 2381 947 1747 
z
" transform="scale(0.015625)"/>
        <path id="DejaVuSans-74" d="M 1172 4494 
L 1172 3500 
L 2356 3500 
L 2356 3053 
L 1172 3053 
L 1172 1153 
Q 1172 725 1289 603 
Q 1406 481 1766 481 
L 2356 481 
L 2356 0 
L 1766 0 
Q 1100 0 847 248 
Q 594 497 594 1153 
L 594 3053 
L 172 3053 
L 172 3500 
L 594 3500 
L 594 4494 
L 1172 4494 
z
" transform="scale(0.015625)"/>
        <path id="DejaVuSans-6e" d="M 3513 2113 
L 3513 0 
L 2938 0 
L 2938 2094 
Q 2938 2591 2744 2837 
Q 2550 3084 2163 3084 
Q 1697 3084 1428 2787 
Q 1159 2491 1159 1978 
L 1159 0 
L 581 0 
L 581 3500 
L 1159 3500 
L 1159 2956 
Q 1366 3272 1645 3428 
Q 1925 3584 2291 3584 
Q 2894 3584 3203 3211 
Q 3513 2838 3513 2113 
z
" transform="scale(0.015625)"/>
       </defs>
       <use xlink:href="#DejaVuSans-6f"/>
       <use xlink:href="#DejaVuSans-6d" transform="translate(61.181641 0)"/>
       <use xlink:href="#DejaVuSans-6f" transform="translate(158.59375 0)"/>
       <use xlink:href="#DejaVuSans-6c" transform="translate(219.775391 0)"/>
       <use xlink:href="#DejaVuSans-32" transform="translate(247.558594 0)"/>
       <use xlink:href="#DejaVuSans-35" transform="translate(311.181641 0)"/>
       <use xlink:href="#DejaVuSans-5f" transform="translate(374.804688 0)"/>
       <use xlink:href="#DejaVuSans-76" transform="translate(424.804688 0)"/>
       <use xlink:href="#DejaVuSans-61" transform="translate(483.984375 0)"/>
       <use xlink:href="#DejaVuSans-6c" transform="translate(545.263672 0)"/>
       <use xlink:href="#DejaVuSans-69" transform="translate(573.046875 0)"/>
       <use xlink:href="#DejaVuSans-64" transform="translate(600.830078 0)"/>
       <use xlink:href="#DejaVuSans-61" transform="translate(664.306641 0)"/>
       <use xlink:href="#DejaVuSans-74" transform="translate(725.585938 0)"/>
       <use xlink:href="#DejaVuSans-69" transform="translate(764.794922 0)"/>
       <use xlink:href="#DejaVuSans-6f" transform="translate(792.578125 0)"/>
       <use xlink:href="#DejaVuSans-6e" transform="translate(853.759766 0)"/>
      </g>
     </g>
    </g>
    <g id="xtick_2">
     <g id="line2d_2">
      <g>
       <use xlink:href="#m83e06ba533" x="101.099887" y="299.518125" style="stroke: #000000; stroke-width: 0.8"/>
      </g>
     </g>
     <g id="text_2">
      <!-- oc22_s2ef_train -->
      <g transform="translate(75.070624 367.65524) rotate(-45) scale(0.1 -0.1)">
       <defs>
        <path id="DejaVuSans-63" d="M 3122 3366 
L 3122 2828 
Q 2878 2963 2633 3030 
Q 2388 3097 2138 3097 
Q 1578 3097 1268 2742 
Q 959 2388 959 1747 
Q 959 1106 1268 751 
Q 1578 397 2138 397 
Q 2388 397 2633 464 
Q 2878 531 3122 666 
L 3122 134 
Q 2881 22 2623 -34 
Q 2366 -91 2075 -91 
Q 1284 -91 818 406 
Q 353 903 353 1747 
Q 353 2603 823 3093 
Q 1294 3584 2113 3584 
Q 2378 3584 2631 3529 
Q 2884 3475 3122 3366 
z
" transform="scale(0.015625)"/>
        <path id="DejaVuSans-73" d="M 2834 3397 
L 2834 2853 
Q 2591 2978 2328 3040 
Q 2066 3103 1784 3103 
Q 1356 3103 1142 2972 
Q 928 2841 928 2578 
Q 928 2378 1081 2264 
Q 1234 2150 1697 2047 
L 1894 2003 
Q 2506 1872 2764 1633 
Q 3022 1394 3022 966 
Q 3022 478 2636 193 
Q 2250 -91 1575 -91 
Q 1294 -91 989 -36 
Q 684 19 347 128 
L 347 722 
Q 666 556 975 473 
Q 1284 391 1588 391 
Q 1994 391 2212 530 
Q 2431 669 2431 922 
Q 2431 1156 2273 1281 
Q 2116 1406 1581 1522 
L 1381 1569 
Q 847 1681 609 1914 
Q 372 2147 372 2553 
Q 372 3047 722 3315 
Q 1072 3584 1716 3584 
Q 2034 3584 2315 3537 
Q 2597 3491 2834 3397 
z
" transform="scale(0.015625)"/>
        <path id="DejaVuSans-65" d="M 3597 1894 
L 3597 1613 
L 953 1613 
Q 991 1019 1311 708 
Q 1631 397 2203 397 
Q 2534 397 2845 478 
Q 3156 559 3463 722 
L 3463 178 
Q 3153 47 2828 -22 
Q 2503 -91 2169 -91 
Q 1331 -91 842 396 
Q 353 884 353 1716 
Q 353 2575 817 3079 
Q 1281 3584 2069 3584 
Q 2775 3584 3186 3129 
Q 3597 2675 3597 1894 
z
M 3022 2063 
Q 3016 2534 2758 2815 
Q 2500 3097 2075 3097 
Q 1594 3097 1305 2825 
Q 1016 2553 972 2059 
L 3022 2063 
z
" transform="scale(0.015625)"/>
        <path id="DejaVuSans-66" d="M 2375 4863 
L 2375 4384 
L 1825 4384 
Q 1516 4384 1395 4259 
Q 1275 4134 1275 3809 
L 1275 3500 
L 2222 3500 
L 2222 3053 
L 1275 3053 
L 1275 0 
L 697 0 
L 697 3053 
L 147 3053 
L 147 3500 
L 697 3500 
L 697 3744 
Q 697 4328 969 4595 
Q 1241 4863 1831 4863 
L 2375 4863 
z
" transform="scale(0.015625)"/>
        <path id="DejaVuSans-72" d="M 2631 2963 
Q 2534 3019 2420 3045 
Q 2306 3072 2169 3072 
Q 1681 3072 1420 2755 
Q 1159 2438 1159 1844 
L 1159 0 
L 581 0 
L 581 3500 
L 1159 3500 
L 1159 2956 
Q 1341 3275 1631 3429 
Q 1922 3584 2338 3584 
Q 2397 3584 2469 3576 
Q 2541 3569 2628 3553 
L 2631 2963 
z
" transform="scale(0.015625)"/>
       </defs>
       <use xlink:href="#DejaVuSans-6f"/>
       <use xlink:href="#DejaVuSans-63" transform="translate(61.181641 0)"/>
       <use xlink:href="#DejaVuSans-32" transform="translate(116.162109 0)"/>
       <use xlink:href="#DejaVuSans-32" transform="translate(179.785156 0)"/>
       <use xlink:href="#DejaVuSans-5f" transform="translate(243.408203 0)"/>
       <use xlink:href="#DejaVuSans-73" transform="translate(293.408203 0)"/>
       <use xlink:href="#DejaVuSans-32" transform="translate(345.507812 0)"/>
       <use xlink:href="#DejaVuSans-65" transform="translate(409.130859 0)"/>
       <use xlink:href="#DejaVuSans-66" transform="translate(470.654297 0)"/>
       <use xlink:href="#DejaVuSans-5f" transform="translate(505.859375 0)"/>
       <use xlink:href="#DejaVuSans-74" transform="translate(555.859375 0)"/>
       <use xlink:href="#DejaVuSans-72" transform="translate(595.068359 0)"/>
       <use xlink:href="#DejaVuSans-61" transform="translate(636.181641 0)"/>
       <use xlink:href="#DejaVuSans-69" transform="translate(697.460938 0)"/>
       <use xlink:href="#DejaVuSans-6e" transform="translate(725.244141 0)"/>
      </g>
     </g>
    </g>
    <g id="xtick_3">
     <g id="line2d_3">
      <g>
       <use xlink:href="#m83e06ba533" x="120.501422" y="299.518125" style="stroke: #000000; stroke-width: 0.8"/>
      </g>
     </g>
     <g id="text_3">
      <!-- omat24_1m_official -->
      <g transform="translate(87.756854 381.08585) rotate(-45) scale(0.1 -0.1)">
       <defs>
        <path id="DejaVuSans-34" d="M 2419 4116 
L 825 1625 
L 2419 1625 
L 2419 4116 
z
M 2253 4666 
L 3047 4666 
L 3047 1625 
L 3713 1625 
L 3713 1100 
L 3047 1100 
L 3047 0 
L 2419 0 
L 2419 1100 
L 313 1100 
L 313 1709 
L 2253 4666 
z
" transform="scale(0.015625)"/>
        <path id="DejaVuSans-31" d="M 794 531 
L 1825 531 
L 1825 4091 
L 703 3866 
L 703 4441 
L 1819 4666 
L 2450 4666 
L 2450 531 
L 3481 531 
L 3481 0 
L 794 0 
L 794 531 
z
" transform="scale(0.015625)"/>
       </defs>
       <use xlink:href="#DejaVuSans-6f"/>
       <use xlink:href="#DejaVuSans-6d" transform="translate(61.181641 0)"/>
       <use xlink:href="#DejaVuSans-61" transform="translate(158.59375 0)"/>
       <use xlink:href="#DejaVuSans-74" transform="translate(219.873047 0)"/>
       <use xlink:href="#DejaVuSans-32" transform="translate(259.082031 0)"/>
       <use xlink:href="#DejaVuSans-34" transform="translate(322.705078 0)"/>
       <use xlink:href="#DejaVuSans-5f" transform="translate(386.328125 0)"/>
       <use xlink:href="#DejaVuSans-31" transform="translate(436.328125 0)"/>
       <use xlink:href="#DejaVuSans-6d" transform="translate(499.951172 0)"/>
       <use xlink:href="#DejaVuSans-5f" transform="translate(597.363281 0)"/>
       <use xlink:href="#DejaVuSans-6f" transform="translate(647.363281 0)"/>
       <use xlink:href="#DejaVuSans-66" transform="translate(708.544922 0)"/>
       <use xlink:href="#DejaVuSans-66" transform="translate(743.75 0)"/>
       <use xlink:href="#DejaVuSans-69" transform="translate(778.955078 0)"/>
       <use xlink:href="#DejaVuSans-63" transform="translate(806.738281 0)"/>
       <use xlink:href="#DejaVuSans-69" transform="translate(861.71875 0)"/>
       <use xlink:href="#DejaVuSans-61" transform="translate(889.501953 0)"/>
       <use xlink:href="#DejaVuSans-6c" transform="translate(950.78125 0)"/>
      </g>
     </g>
    </g>
    <g id="xtick_4">
     <g id="line2d_4">
      <g>
       <use xlink:href="#m83e06ba533" x="139.902957" y="299.518125" style="stroke: #000000; stroke-width: 0.8"/>
      </g>
     </g>
     <g id="text_4">
      <!-- oc20_s2ef_val_id -->
      <g transform="translate(111.866726 371.669176) rotate(-45) scale(0.1 -0.1)">
       <defs>
        <path id="DejaVuSans-30" d="M 2034 4250 
Q 1547 4250 1301 3770 
Q 1056 3291 1056 2328 
Q 1056 1369 1301 889 
Q 1547 409 2034 409 
Q 2525 409 2770 889 
Q 3016 1369 3016 2328 
Q 3016 3291 2770 3770 
Q 2525 4250 2034 4250 
z
M 2034 4750 
Q 2819 4750 3233 4129 
Q 3647 3509 3647 2328 
Q 3647 1150 3233 529 
Q 2819 -91 2034 -91 
Q 1250 -91 836 529 
Q 422 1150 422 2328 
Q 422 3509 836 4129 
Q 1250 4750 2034 4750 
z
" transform="scale(0.015625)"/>
       </defs>
       <use xlink:href="#DejaVuSans-6f"/>
       <use xlink:href="#DejaVuSans-63" transform="translate(61.181641 0)"/>
       <use xlink:href="#DejaVuSans-32" transform="translate(116.162109 0)"/>
       <use xlink:href="#DejaVuSans-30" transform="translate(179.785156 0)"/>
       <use xlink:href="#DejaVuSans-5f" transform="translate(243.408203 0)"/>
       <use xlink:href="#DejaVuSans-73" transform="translate(293.408203 0)"/>
       <use xlink:href="#DejaVuSans-32" transform="translate(345.507812 0)"/>
       <use xlink:href="#DejaVuSans-65" transform="translate(409.130859 0)"/>
       <use xlink:href="#DejaVuSans-66" transform="translate(470.654297 0)"/>
       <use xlink:href="#DejaVuSans-5f" transform="translate(505.859375 0)"/>
       <use xlink:href="#DejaVuSans-76" transform="translate(555.859375 0)"/>
       <use xlink:href="#DejaVuSans-61" transform="translate(615.039062 0)"/>
       <use xlink:href="#DejaVuSans-6c" transform="translate(676.318359 0)"/>
       <use xlink:href="#DejaVuSans-5f" transform="translate(704.101562 0)"/>
       <use xlink:href="#DejaVuSans-69" transform="translate(754.101562 0)"/>
       <use xlink:href="#DejaVuSans-64" transform="translate(781.884766 0)"/>
      </g>
     </g>
    </g>
    <g id="xtick_5">
     <g id="line2d_5">
      <g>
       <use xlink:href="#m83e06ba533" x="159.304492" y="299.518125" style="stroke: #000000; stroke-width: 0.8"/>
      </g>
     </g>
     <g id="text_5">
      <!-- iso17 -->
      <g transform="translate(151.769385 330.863591) rotate(-45) scale(0.1 -0.1)">
       <defs>
        <path id="DejaVuSans-37" d="M 525 4666 
L 3525 4666 
L 3525 4397 
L 1831 0 
L 1172 0 
L 2766 4134 
L 525 4134 
L 525 4666 
z
" transform="scale(0.015625)"/>
       </defs>
       <use xlink:href="#DejaVuSans-69"/>
       <use xlink:href="#DejaVuSans-73" transform="translate(27.783203 0)"/>
       <use xlink:href="#DejaVuSans-6f" transform="translate(79.882812 0)"/>
       <use xlink:href="#DejaVuSans-31" transform="translate(141.064453 0)"/>
       <use xlink:href="#DejaVuSans-37" transform="translate(204.6875 0)"/>
      </g>
     </g>
    </g>
    <g id="xtick_6">
     <g id="line2d_6">
      <g>
       <use xlink:href="#m83e06ba533" x="178.706027" y="299.518125" style="stroke: #000000; stroke-width: 0.8"/>
      </g>
     </g>
     <g id="text_6">
      <!-- salex_val_official -->
      <g transform="translate(150.875298 371.25817) rotate(-45) scale(0.1 -0.1)">
       <defs>
        <path id="DejaVuSans-78" d="M 3513 3500 
L 2247 1797 
L 3578 0 
L 2900 0 
L 1881 1375 
L 863 0 
L 184 0 
L 1544 1831 
L 300 3500 
L 978 3500 
L 1906 2253 
L 2834 3500 
L 3513 3500 
z
" transform="scale(0.015625)"/>
       </defs>
       <use xlink:href="#DejaVuSans-73"/>
       <use xlink:href="#DejaVuSans-61" transform="translate(52.099609 0)"/>
       <use xlink:href="#DejaVuSans-6c" transform="translate(113.378906 0)"/>
       <use xlink:href="#DejaVuSans-65" transform="translate(141.162109 0)"/>
       <use xlink:href="#DejaVuSans-78" transform="translate(200.935547 0)"/>
       <use xlink:href="#DejaVuSans-5f" transform="translate(260.115234 0)"/>
       <use xlink:href="#DejaVuSans-76" transform="translate(310.115234 0)"/>
       <use xlink:href="#DejaVuSans-61" transform="translate(369.294922 0)"/>
       <use xlink:href="#DejaVuSans-6c" transform="translate(430.574219 0)"/>
       <use xlink:href="#DejaVuSans-5f" transform="translate(458.357422 0)"/>
       <use xlink:href="#DejaVuSans-6f" transform="translate(508.357422 0)"/>
       <use xlink:href="#DejaVuSans-66" transform="translate(569.539062 0)"/>
       <use xlink:href="#DejaVuSans-66" transform="translate(604.744141 0)"/>
       <use xlink:href="#DejaVuSans-69" transform="translate(639.949219 0)"/>
       <use xlink:href="#DejaVuSans-63" transform="translate(667.732422 0)"/>
       <use xlink:href="#DejaVuSans-69" transform="translate(722.712891 0)"/>
       <use xlink:href="#DejaVuSans-61" transform="translate(750.496094 0)"/>
       <use xlink:href="#DejaVuSans-6c" transform="translate(811.775391 0)"/>
      </g>
     </g>
    </g>
    <g id="xtick_7">
     <g id="line2d_7">
      <g>
       <use xlink:href="#m83e06ba533" x="198.107562" y="299.518125" style="stroke: #000000; stroke-width: 0.8"/>
      </g>
     </g>
     <g id="text_7">
      <!-- phonondb_pbe -->
      <g transform="translate(173.746076 364.319685) rotate(-45) scale(0.1 -0.1)">
       <defs>
        <path id="DejaVuSans-70" d="M 1159 525 
L 1159 -1331 
L 581 -1331 
L 581 3500 
L 1159 3500 
L 1159 2969 
Q 1341 3281 1617 3432 
Q 1894 3584 2278 3584 
Q 2916 3584 3314 3078 
Q 3713 2572 3713 1747 
Q 3713 922 3314 415 
Q 2916 -91 2278 -91 
Q 1894 -91 1617 61 
Q 1341 213 1159 525 
z
M 3116 1747 
Q 3116 2381 2855 2742 
Q 2594 3103 2138 3103 
Q 1681 3103 1420 2742 
Q 1159 2381 1159 1747 
Q 1159 1113 1420 752 
Q 1681 391 2138 391 
Q 2594 391 2855 752 
Q 3116 1113 3116 1747 
z
" transform="scale(0.015625)"/>
        <path id="DejaVuSans-68" d="M 3513 2113 
L 3513 0 
L 2938 0 
L 2938 2094 
Q 2938 2591 2744 2837 
Q 2550 3084 2163 3084 
Q 1697 3084 1428 2787 
Q 1159 2491 1159 1978 
L 1159 0 
L 581 0 
L 581 4863 
L 1159 4863 
L 1159 2956 
Q 1366 3272 1645 3428 
Q 1925 3584 2291 3584 
Q 2894 3584 3203 3211 
Q 3513 2838 3513 2113 
z
" transform="scale(0.015625)"/>
        <path id="DejaVuSans-62" d="M 3116 1747 
Q 3116 2381 2855 2742 
Q 2594 3103 2138 3103 
Q 1681 3103 1420 2742 
Q 1159 2381 1159 1747 
Q 1159 1113 1420 752 
Q 1681 391 2138 391 
Q 2594 391 2855 752 
Q 3116 1113 3116 1747 
z
M 1159 2969 
Q 1341 3281 1617 3432 
Q 1894 3584 2278 3584 
Q 2916 3584 3314 3078 
Q 3713 2572 3713 1747 
Q 3713 922 3314 415 
Q 2916 -91 2278 -91 
Q 1894 -91 1617 61 
Q 1341 213 1159 525 
L 1159 0 
L 581 0 
L 581 4863 
L 1159 4863 
L 1159 2969 
z
" transform="scale(0.015625)"/>
       </defs>
       <use xlink:href="#DejaVuSans-70"/>
       <use xlink:href="#DejaVuSans-68" transform="translate(63.476562 0)"/>
       <use xlink:href="#DejaVuSans-6f" transform="translate(126.855469 0)"/>
       <use xlink:href="#DejaVuSans-6e" transform="translate(188.037109 0)"/>
       <use xlink:href="#DejaVuSans-6f" transform="translate(251.416016 0)"/>
       <use xlink:href="#DejaVuSans-6e" transform="translate(312.597656 0)"/>
       <use xlink:href="#DejaVuSans-64" transform="translate(375.976562 0)"/>
       <use xlink:href="#DejaVuSans-62" transform="translate(439.453125 0)"/>
       <use xlink:href="#DejaVuSans-5f" transform="translate(502.929688 0)"/>
       <use xlink:href="#DejaVuSans-70" transform="translate(552.929688 0)"/>
       <use xlink:href="#DejaVuSans-62" transform="translate(616.40625 0)"/>
       <use xlink:href="#DejaVuSans-65" transform="translate(679.882812 0)"/>
      </g>
     </g>
    </g>
    <g id="xtick_8">
     <g id="line2d_8">
      <g>
       <use xlink:href="#m83e06ba533" x="217.509096" y="299.518125" style="stroke: #000000; stroke-width: 0.8"/>
      </g>
     </g>
     <g id="text_8">
      <!-- qm9_hf -->
      <g transform="translate(206.171081 338.272744) rotate(-45) scale(0.1 -0.1)">
       <defs>
        <path id="DejaVuSans-71" d="M 947 1747 
Q 947 1113 1208 752 
Q 1469 391 1925 391 
Q 2381 391 2643 752 
Q 2906 1113 2906 1747 
Q 2906 2381 2643 2742 
Q 2381 3103 1925 3103 
Q 1469 3103 1208 2742 
Q 947 2381 947 1747 
z
M 2906 525 
Q 2725 213 2448 61 
Q 2172 -91 1784 -91 
Q 1150 -91 751 415 
Q 353 922 353 1747 
Q 353 2572 751 3078 
Q 1150 3584 1784 3584 
Q 2172 3584 2448 3432 
Q 2725 3281 2906 2969 
L 2906 3500 
L 3481 3500 
L 3481 -1331 
L 2906 -1331 
L 2906 525 
z
" transform="scale(0.015625)"/>
        <path id="DejaVuSans-39" d="M 703 97 
L 703 672 
Q 941 559 1184 500 
Q 1428 441 1663 441 
Q 2288 441 2617 861 
Q 2947 1281 2994 2138 
Q 2813 1869 2534 1725 
Q 2256 1581 1919 1581 
Q 1219 1581 811 2004 
Q 403 2428 403 3163 
Q 403 3881 828 4315 
Q 1253 4750 1959 4750 
Q 2769 4750 3195 4129 
Q 3622 3509 3622 2328 
Q 3622 1225 3098 567 
Q 2575 -91 1691 -91 
Q 1453 -91 1209 -44 
Q 966 3 703 97 
z
M 1959 2075 
Q 2384 2075 2632 2365 
Q 2881 2656 2881 3163 
Q 2881 3666 2632 3958 
Q 2384 4250 1959 4250 
Q 1534 4250 1286 3958 
Q 1038 3666 1038 3163 
Q 1038 2656 1286 2365 
Q 1534 2075 1959 2075 
z
" transform="scale(0.015625)"/>
       </defs>
       <use xlink:href="#DejaVuSans-71"/>
       <use xlink:href="#DejaVuSans-6d" transform="translate(63.476562 0)"/>
       <use xlink:href="#DejaVuSans-39" transform="translate(160.888672 0)"/>
       <use xlink:href="#DejaVuSans-5f" transform="translate(224.511719 0)"/>
       <use xlink:href="#DejaVuSans-68" transform="translate(274.511719 0)"/>
       <use xlink:href="#DejaVuSans-66" transform="translate(337.890625 0)"/>
      </g>
     </g>
    </g>
    <g id="xtick_9">
     <g id="line2d_9">
      <g>
       <use xlink:href="#m83e06ba533" x="236.910631" y="299.518125" style="stroke: #000000; stroke-width: 0.8"/>
      </g>
     </g>
     <g id="text_9">
      <!-- oc22_s2ef_val_id -->
      <g transform="translate(208.8744 371.669176) rotate(-45) scale(0.1 -0.1)">
       <use xlink:href="#DejaVuSans-6f"/>
       <use xlink:href="#DejaVuSans-63" transform="translate(61.181641 0)"/>
       <use xlink:href="#DejaVuSans-32" transform="translate(116.162109 0)"/>
       <use xlink:href="#DejaVuSans-32" transform="translate(179.785156 0)"/>
       <use xlink:href="#DejaVuSans-5f" transform="translate(243.408203 0)"/>
       <use xlink:href="#DejaVuSans-73" transform="translate(293.408203 0)"/>
       <use xlink:href="#DejaVuSans-32" transform="translate(345.507812 0)"/>
       <use xlink:href="#DejaVuSans-65" transform="translate(409.130859 0)"/>
       <use xlink:href="#DejaVuSans-66" transform="translate(470.654297 0)"/>
       <use xlink:href="#DejaVuSans-5f" transform="translate(505.859375 0)"/>
       <use xlink:href="#DejaVuSans-76" transform="translate(555.859375 0)"/>
       <use xlink:href="#DejaVuSans-61" transform="translate(615.039062 0)"/>
       <use xlink:href="#DejaVuSans-6c" transform="translate(676.318359 0)"/>
       <use xlink:href="#DejaVuSans-5f" transform="translate(704.101562 0)"/>
       <use xlink:href="#DejaVuSans-69" transform="translate(754.101562 0)"/>
       <use xlink:href="#DejaVuSans-64" transform="translate(781.884766 0)"/>
      </g>
     </g>
    </g>
    <g id="xtick_10">
     <g id="line2d_10">
      <g>
       <use xlink:href="#m83e06ba533" x="256.312166" y="299.518125" style="stroke: #000000; stroke-width: 0.8"/>
      </g>
     </g>
     <g id="text_10">
      <!-- oc22_s2ef_val_ood -->
      <g transform="translate(224.93154 378.357964) rotate(-45) scale(0.1 -0.1)">
       <use xlink:href="#DejaVuSans-6f"/>
       <use xlink:href="#DejaVuSans-63" transform="translate(61.181641 0)"/>
       <use xlink:href="#DejaVuSans-32" transform="translate(116.162109 0)"/>
       <use xlink:href="#DejaVuSans-32" transform="translate(179.785156 0)"/>
       <use xlink:href="#DejaVuSans-5f" transform="translate(243.408203 0)"/>
       <use xlink:href="#DejaVuSans-73" transform="translate(293.408203 0)"/>
       <use xlink:href="#DejaVuSans-32" transform="translate(345.507812 0)"/>
       <use xlink:href="#DejaVuSans-65" transform="translate(409.130859 0)"/>
       <use xlink:href="#DejaVuSans-66" transform="translate(470.654297 0)"/>
       <use xlink:href="#DejaVuSans-5f" transform="translate(505.859375 0)"/>
       <use xlink:href="#DejaVuSans-76" transform="translate(555.859375 0)"/>
       <use xlink:href="#DejaVuSans-61" transform="translate(615.039062 0)"/>
       <use xlink:href="#DejaVuSans-6c" transform="translate(676.318359 0)"/>
       <use xlink:href="#DejaVuSans-5f" transform="translate(704.101562 0)"/>
       <use xlink:href="#DejaVuSans-6f" transform="translate(754.101562 0)"/>
       <use xlink:href="#DejaVuSans-6f" transform="translate(815.283203 0)"/>
       <use xlink:href="#DejaVuSans-64" transform="translate(876.464844 0)"/>
      </g>
     </g>
    </g>
    <g id="xtick_11">
     <g id="line2d_11">
      <g>
       <use xlink:href="#m83e06ba533" x="275.713701" y="299.518125" style="stroke: #000000; stroke-width: 0.8"/>
      </g>
     </g>
     <g id="text_11">
      <!-- rmd17 -->
      <g transform="translate(266.086 335.048779) rotate(-45) scale(0.1 -0.1)">
       <use xlink:href="#DejaVuSans-72"/>
       <use xlink:href="#DejaVuSans-6d" transform="translate(39.363281 0)"/>
       <use xlink:href="#DejaVuSans-64" transform="translate(136.775391 0)"/>
       <use xlink:href="#DejaVuSans-31" transform="translate(200.251953 0)"/>
       <use xlink:href="#DejaVuSans-37" transform="translate(263.875 0)"/>
      </g>
     </g>
    </g>
    <g id="xtick_12">
     <g id="line2d_12">
      <g>
       <use xlink:href="#m83e06ba533" x="295.115236" y="299.518125" style="stroke: #000000; stroke-width: 0.8"/>
      </g>
     </g>
     <g id="text_12">
      <!-- omol25_train_4m -->
      <g transform="translate(266.25865 373.309885) rotate(-45) scale(0.1 -0.1)">
       <use xlink:href="#DejaVuSans-6f"/>
       <use xlink:href="#DejaVuSans-6d" transform="translate(61.181641 0)"/>
       <use xlink:href="#DejaVuSans-6f" transform="translate(158.59375 0)"/>
       <use xlink:href="#DejaVuSans-6c" transform="translate(219.775391 0)"/>
       <use xlink:href="#DejaVuSans-32" transform="translate(247.558594 0)"/>
       <use xlink:href="#DejaVuSans-35" transform="translate(311.181641 0)"/>
       <use xlink:href="#DejaVuSans-5f" transform="translate(374.804688 0)"/>
       <use xlink:href="#DejaVuSans-74" transform="translate(424.804688 0)"/>
       <use xlink:href="#DejaVuSans-72" transform="translate(464.013672 0)"/>
       <use xlink:href="#DejaVuSans-61" transform="translate(505.126953 0)"/>
       <use xlink:href="#DejaVuSans-69" transform="translate(566.40625 0)"/>
       <use xlink:href="#DejaVuSans-6e" transform="translate(594.189453 0)"/>
       <use xlink:href="#DejaVuSans-5f" transform="translate(657.568359 0)"/>
       <use xlink:href="#DejaVuSans-34" transform="translate(707.568359 0)"/>
       <use xlink:href="#DejaVuSans-6d" transform="translate(771.191406 0)"/>
      </g>
     </g>
    </g>
    <g id="xtick_13">
     <g id="line2d_13">
      <g>
       <use xlink:href="#m83e06ba533" x="314.516771" y="299.518125" style="stroke: #000000; stroke-width: 0.8"/>
      </g>
     </g>
     <g id="text_13">
      <!-- oc20_s2ef_val_ood_both -->
      <g transform="translate(273.333877 397.9625) rotate(-45) scale(0.1 -0.1)">
       <use xlink:href="#DejaVuSans-6f"/>
       <use xlink:href="#DejaVuSans-63" transform="translate(61.181641 0)"/>
       <use xlink:href="#DejaVuSans-32" transform="translate(116.162109 0)"/>
       <use xlink:href="#DejaVuSans-30" transform="translate(179.785156 0)"/>
       <use xlink:href="#DejaVuSans-5f" transform="translate(243.408203 0)"/>
       <use xlink:href="#DejaVuSans-73" transform="translate(293.408203 0)"/>
       <use xlink:href="#DejaVuSans-32" transform="translate(345.507812 0)"/>
       <use xlink:href="#DejaVuSans-65" transform="translate(409.130859 0)"/>
       <use xlink:href="#DejaVuSans-66" transform="translate(470.654297 0)"/>
       <use xlink:href="#DejaVuSans-5f" transform="translate(505.859375 0)"/>
       <use xlink:href="#DejaVuSans-76" transform="translate(555.859375 0)"/>
       <use xlink:href="#DejaVuSans-61" transform="translate(615.039062 0)"/>
       <use xlink:href="#DejaVuSans-6c" transform="translate(676.318359 0)"/>
       <use xlink:href="#DejaVuSans-5f" transform="translate(704.101562 0)"/>
       <use xlink:href="#DejaVuSans-6f" transform="translate(754.101562 0)"/>
       <use xlink:href="#DejaVuSans-6f" transform="translate(815.283203 0)"/>
       <use xlink:href="#DejaVuSans-64" transform="translate(876.464844 0)"/>
       <use xlink:href="#DejaVuSans-5f" transform="translate(939.941406 0)"/>
       <use xlink:href="#DejaVuSans-62" transform="translate(989.941406 0)"/>
       <use xlink:href="#DejaVuSans-6f" transform="translate(1053.417969 0)"/>
       <use xlink:href="#DejaVuSans-74" transform="translate(1114.599609 0)"/>
       <use xlink:href="#DejaVuSans-68" transform="translate(1153.808594 0)"/>
      </g>
     </g>
    </g>
    <g id="xtick_14">
     <g id="line2d_14">
      <g>
       <use xlink:href="#m83e06ba533" x="333.918305" y="299.518125" style="stroke: #000000; stroke-width: 0.8"/>
      </g>
     </g>
     <g id="text_14">
      <!-- md22_double_walled_nanotube -->
      <g transform="translate(279.929598 423.574128) rotate(-45) scale(0.1 -0.1)">
       <defs>
        <path id="DejaVuSans-75" d="M 544 1381 
L 544 3500 
L 1119 3500 
L 1119 1403 
Q 1119 906 1312 657 
Q 1506 409 1894 409 
Q 2359 409 2629 706 
Q 2900 1003 2900 1516 
L 2900 3500 
L 3475 3500 
L 3475 0 
L 2900 0 
L 2900 538 
Q 2691 219 2414 64 
Q 2138 -91 1772 -91 
Q 1169 -91 856 284 
Q 544 659 544 1381 
z
M 1991 3584 
L 1991 3584 
z
" transform="scale(0.015625)"/>
        <path id="DejaVuSans-77" d="M 269 3500 
L 844 3500 
L 1563 769 
L 2278 3500 
L 2956 3500 
L 3675 769 
L 4391 3500 
L 4966 3500 
L 4050 0 
L 3372 0 
L 2619 2869 
L 1863 0 
L 1184 0 
L 269 3500 
z
" transform="scale(0.015625)"/>
       </defs>
       <use xlink:href="#DejaVuSans-6d"/>
       <use xlink:href="#DejaVuSans-64" transform="translate(97.412109 0)"/>
       <use xlink:href="#DejaVuSans-32" transform="translate(160.888672 0)"/>
       <use xlink:href="#DejaVuSans-32" transform="translate(224.511719 0)"/>
       <use xlink:href="#DejaVuSans-5f" transform="translate(288.134766 0)"/>
       <use xlink:href="#DejaVuSans-64" transform="translate(338.134766 0)"/>
       <use xlink:href="#DejaVuSans-6f" transform="translate(401.611328 0)"/>
       <use xlink:href="#DejaVuSans-75" transform="translate(462.792969 0)"/>
       <use xlink:href="#DejaVuSans-62" transform="translate(526.171875 0)"/>
       <use xlink:href="#DejaVuSans-6c" transform="translate(589.648438 0)"/>
       <use xlink:href="#DejaVuSans-65" transform="translate(617.431641 0)"/>
       <use xlink:href="#DejaVuSans-5f" transform="translate(678.955078 0)"/>
       <use xlink:href="#DejaVuSans-77" transform="translate(728.955078 0)"/>
       <use xlink:href="#DejaVuSans-61" transform="translate(810.742188 0)"/>
       <use xlink:href="#DejaVuSans-6c" transform="translate(872.021484 0)"/>
       <use xlink:href="#DejaVuSans-6c" transform="translate(899.804688 0)"/>
       <use xlink:href="#DejaVuSans-65" transform="translate(927.587891 0)"/>
       <use xlink:href="#DejaVuSans-64" transform="translate(989.111328 0)"/>
       <use xlink:href="#DejaVuSans-5f" transform="translate(1052.587891 0)"/>
       <use xlink:href="#DejaVuSans-6e" transform="translate(1102.587891 0)"/>
       <use xlink:href="#DejaVuSans-61" transform="translate(1165.966797 0)"/>
       <use xlink:href="#DejaVuSans-6e" transform="translate(1227.246094 0)"/>
       <use xlink:href="#DejaVuSans-6f" transform="translate(1290.625 0)"/>
       <use xlink:href="#DejaVuSans-74" transform="translate(1351.806641 0)"/>
       <use xlink:href="#DejaVuSans-75" transform="translate(1391.015625 0)"/>
       <use xlink:href="#DejaVuSans-62" transform="translate(1454.394531 0)"/>
       <use xlink:href="#DejaVuSans-65" transform="translate(1517.871094 0)"/>
      </g>
     </g>
    </g>
    <g id="xtick_15">
     <g id="line2d_15">
      <g>
       <use xlink:href="#m83e06ba533" x="353.31984" y="299.518125" style="stroke: #000000; stroke-width: 0.8"/>
      </g>
     </g>
     <g id="text_15">
      <!-- mptrj -->
      <g transform="translate(345.760979 330.911099) rotate(-45) scale(0.1 -0.1)">
       <defs>
        <path id="DejaVuSans-6a" d="M 603 3500 
L 1178 3500 
L 1178 -63 
Q 1178 -731 923 -1031 
Q 669 -1331 103 -1331 
L -116 -1331 
L -116 -844 
L 38 -844 
Q 366 -844 484 -692 
Q 603 -541 603 -63 
L 603 3500 
z
M 603 4863 
L 1178 4863 
L 1178 4134 
L 603 4134 
L 603 4863 
z
" transform="scale(0.015625)"/>
       </defs>
       <use xlink:href="#DejaVuSans-6d"/>
       <use xlink:href="#DejaVuSans-70" transform="translate(97.412109 0)"/>
       <use xlink:href="#DejaVuSans-74" transform="translate(160.888672 0)"/>
       <use xlink:href="#DejaVuSans-72" transform="translate(200.097656 0)"/>
       <use xlink:href="#DejaVuSans-6a" transform="translate(241.210938 0)"/>
      </g>
     </g>
    </g>
    <g id="xtick_16">
     <g id="line2d_16">
      <g>
       <use xlink:href="#m83e06ba533" x="372.721375" y="299.518125" style="stroke: #000000; stroke-width: 0.8"/>
      </g>
     </g>
     <g id="text_16">
      <!-- ani1x -->
      <g transform="translate(364.940991 331.354146) rotate(-45) scale(0.1 -0.1)">
       <use xlink:href="#DejaVuSans-61"/>
       <use xlink:href="#DejaVuSans-6e" transform="translate(61.279297 0)"/>
       <use xlink:href="#DejaVuSans-69" transform="translate(124.658203 0)"/>
       <use xlink:href="#DejaVuSans-31" transform="translate(152.441406 0)"/>
       <use xlink:href="#DejaVuSans-78" transform="translate(216.064453 0)"/>
      </g>
     </g>
    </g>
    <g id="xtick_17">
     <g id="line2d_17">
      <g>
       <use xlink:href="#m83e06ba533" x="392.12291" y="299.518125" style="stroke: #000000; stroke-width: 0.8"/>
      </g>
     </g>
     <g id="text_17">
      <!-- md22_dha -->
      <g transform="translate(375.368899 349.104736) rotate(-45) scale(0.1 -0.1)">
       <use xlink:href="#DejaVuSans-6d"/>
       <use xlink:href="#DejaVuSans-64" transform="translate(97.412109 0)"/>
       <use xlink:href="#DejaVuSans-32" transform="translate(160.888672 0)"/>
       <use xlink:href="#DejaVuSans-32" transform="translate(224.511719 0)"/>
       <use xlink:href="#DejaVuSans-5f" transform="translate(288.134766 0)"/>
       <use xlink:href="#DejaVuSans-64" transform="translate(338.134766 0)"/>
       <use xlink:href="#DejaVuSans-68" transform="translate(401.611328 0)"/>
       <use xlink:href="#DejaVuSans-61" transform="translate(464.990234 0)"/>
      </g>
     </g>
    </g>
    <g id="xtick_18">
     <g id="line2d_18">
      <g>
       <use xlink:href="#m83e06ba533" x="411.524445" y="299.518125" style="stroke: #000000; stroke-width: 0.8"/>
      </g>
     </g>
     <g id="text_18">
      <!-- md22_ac_ala3_nhme -->
      <g transform="translate(376.110548 386.424506) rotate(-45) scale(0.1 -0.1)">
       <defs>
        <path id="DejaVuSans-33" d="M 2597 2516 
Q 3050 2419 3304 2112 
Q 3559 1806 3559 1356 
Q 3559 666 3084 287 
Q 2609 -91 1734 -91 
Q 1441 -91 1130 -33 
Q 819 25 488 141 
L 488 750 
Q 750 597 1062 519 
Q 1375 441 1716 441 
Q 2309 441 2620 675 
Q 2931 909 2931 1356 
Q 2931 1769 2642 2001 
Q 2353 2234 1838 2234 
L 1294 2234 
L 1294 2753 
L 1863 2753 
Q 2328 2753 2575 2939 
Q 2822 3125 2822 3475 
Q 2822 3834 2567 4026 
Q 2313 4219 1838 4219 
Q 1578 4219 1281 4162 
Q 984 4106 628 3988 
L 628 4550 
Q 988 4650 1302 4700 
Q 1616 4750 1894 4750 
Q 2613 4750 3031 4423 
Q 3450 4097 3450 3541 
Q 3450 3153 3228 2886 
Q 3006 2619 2597 2516 
z
" transform="scale(0.015625)"/>
       </defs>
       <use xlink:href="#DejaVuSans-6d"/>
       <use xlink:href="#DejaVuSans-64" transform="translate(97.412109 0)"/>
       <use xlink:href="#DejaVuSans-32" transform="translate(160.888672 0)"/>
       <use xlink:href="#DejaVuSans-32" transform="translate(224.511719 0)"/>
       <use xlink:href="#DejaVuSans-5f" transform="translate(288.134766 0)"/>
       <use xlink:href="#DejaVuSans-61" transform="translate(338.134766 0)"/>
       <use xlink:href="#DejaVuSans-63" transform="translate(399.414062 0)"/>
       <use xlink:href="#DejaVuSans-5f" transform="translate(454.394531 0)"/>
       <use xlink:href="#DejaVuSans-61" transform="translate(504.394531 0)"/>
       <use xlink:href="#DejaVuSans-6c" transform="translate(565.673828 0)"/>
       <use xlink:href="#DejaVuSans-61" transform="translate(593.457031 0)"/>
       <use xlink:href="#DejaVuSans-33" transform="translate(654.736328 0)"/>
       <use xlink:href="#DejaVuSans-5f" transform="translate(718.359375 0)"/>
       <use xlink:href="#DejaVuSans-6e" transform="translate(768.359375 0)"/>
       <use xlink:href="#DejaVuSans-68" transform="translate(831.738281 0)"/>
       <use xlink:href="#DejaVuSans-6d" transform="translate(895.117188 0)"/>
       <use xlink:href="#DejaVuSans-65" transform="translate(992.529297 0)"/>
      </g>
     </g>
    </g>
    <g id="xtick_19">
     <g id="line2d_19">
      <g>
       <use xlink:href="#m83e06ba533" x="430.925979" y="299.518125" style="stroke: #000000; stroke-width: 0.8"/>
      </g>
     </g>
     <g id="text_19">
      <!-- md22_at_at_cg_cg -->
      <g transform="translate(400.038119 377.372434) rotate(-45) scale(0.1 -0.1)">
       <defs>
        <path id="DejaVuSans-67" d="M 2906 1791 
Q 2906 2416 2648 2759 
Q 2391 3103 1925 3103 
Q 1463 3103 1205 2759 
Q 947 2416 947 1791 
Q 947 1169 1205 825 
Q 1463 481 1925 481 
Q 2391 481 2648 825 
Q 2906 1169 2906 1791 
z
M 3481 434 
Q 3481 -459 3084 -895 
Q 2688 -1331 1869 -1331 
Q 1566 -1331 1297 -1286 
Q 1028 -1241 775 -1147 
L 775 -588 
Q 1028 -725 1275 -790 
Q 1522 -856 1778 -856 
Q 2344 -856 2625 -561 
Q 2906 -266 2906 331 
L 2906 616 
Q 2728 306 2450 153 
Q 2172 0 1784 0 
Q 1141 0 747 490 
Q 353 981 353 1791 
Q 353 2603 747 3093 
Q 1141 3584 1784 3584 
Q 2172 3584 2450 3431 
Q 2728 3278 2906 2969 
L 2906 3500 
L 3481 3500 
L 3481 434 
z
" transform="scale(0.015625)"/>
       </defs>
       <use xlink:href="#DejaVuSans-6d"/>
       <use xlink:href="#DejaVuSans-64" transform="translate(97.412109 0)"/>
       <use xlink:href="#DejaVuSans-32" transform="translate(160.888672 0)"/>
       <use xlink:href="#DejaVuSans-32" transform="translate(224.511719 0)"/>
       <use xlink:href="#DejaVuSans-5f" transform="translate(288.134766 0)"/>
       <use xlink:href="#DejaVuSans-61" transform="translate(338.134766 0)"/>
       <use xlink:href="#DejaVuSans-74" transform="translate(399.414062 0)"/>
       <use xlink:href="#DejaVuSans-5f" transform="translate(438.623047 0)"/>
       <use xlink:href="#DejaVuSans-61" transform="translate(488.623047 0)"/>
       <use xlink:href="#DejaVuSans-74" transform="translate(549.902344 0)"/>
       <use xlink:href="#DejaVuSans-5f" transform="translate(589.111328 0)"/>
       <use xlink:href="#DejaVuSans-63" transform="translate(639.111328 0)"/>
       <use xlink:href="#DejaVuSans-67" transform="translate(694.091797 0)"/>
       <use xlink:href="#DejaVuSans-5f" transform="translate(757.568359 0)"/>
       <use xlink:href="#DejaVuSans-63" transform="translate(807.568359 0)"/>
       <use xlink:href="#DejaVuSans-67" transform="translate(862.548828 0)"/>
      </g>
     </g>
    </g>
    <g id="xtick_20">
     <g id="line2d_20">
      <g>
       <use xlink:href="#m83e06ba533" x="450.327514" y="299.518125" style="stroke: #000000; stroke-width: 0.8"/>
      </g>
     </g>
     <g id="text_20">
      <!-- oc20_s2ef_val_ood_ads -->
      <g transform="translate(410.926199 394.399345) rotate(-45) scale(0.1 -0.1)">
       <use xlink:href="#DejaVuSans-6f"/>
       <use xlink:href="#DejaVuSans-63" transform="translate(61.181641 0)"/>
       <use xlink:href="#DejaVuSans-32" transform="translate(116.162109 0)"/>
       <use xlink:href="#DejaVuSans-30" transform="translate(179.785156 0)"/>
       <use xlink:href="#DejaVuSans-5f" transform="translate(243.408203 0)"/>
       <use xlink:href="#DejaVuSans-73" transform="translate(293.408203 0)"/>
       <use xlink:href="#DejaVuSans-32" transform="translate(345.507812 0)"/>
       <use xlink:href="#DejaVuSans-65" transform="translate(409.130859 0)"/>
       <use xlink:href="#DejaVuSans-66" transform="translate(470.654297 0)"/>
       <use xlink:href="#DejaVuSans-5f" transform="translate(505.859375 0)"/>
       <use xlink:href="#DejaVuSans-76" transform="translate(555.859375 0)"/>
       <use xlink:href="#DejaVuSans-61" transform="translate(615.039062 0)"/>
       <use xlink:href="#DejaVuSans-6c" transform="translate(676.318359 0)"/>
       <use xlink:href="#DejaVuSans-5f" transform="translate(704.101562 0)"/>
       <use xlink:href="#DejaVuSans-6f" transform="translate(754.101562 0)"/>
       <use xlink:href="#DejaVuSans-6f" transform="translate(815.283203 0)"/>
       <use xlink:href="#DejaVuSans-64" transform="translate(876.464844 0)"/>
       <use xlink:href="#DejaVuSans-5f" transform="translate(939.941406 0)"/>
       <use xlink:href="#DejaVuSans-61" transform="translate(989.941406 0)"/>
       <use xlink:href="#DejaVuSans-64" transform="translate(1051.220703 0)"/>
       <use xlink:href="#DejaVuSans-73" transform="translate(1114.697266 0)"/>
      </g>
     </g>
    </g>
    <g id="xtick_21">
     <g id="line2d_21">
      <g>
       <use xlink:href="#m83e06ba533" x="469.729049" y="299.518125" style="stroke: #000000; stroke-width: 0.8"/>
      </g>
     </g>
     <g id="text_21">
      <!-- wbm_initial -->
      <g transform="translate(451.512211 352.03039) rotate(-45) scale(0.1 -0.1)">
       <use xlink:href="#DejaVuSans-77"/>
       <use xlink:href="#DejaVuSans-62" transform="translate(81.787109 0)"/>
       <use xlink:href="#DejaVuSans-6d" transform="translate(145.263672 0)"/>
       <use xlink:href="#DejaVuSans-5f" transform="translate(242.675781 0)"/>
       <use xlink:href="#DejaVuSans-69" transform="translate(292.675781 0)"/>
       <use xlink:href="#DejaVuSans-6e" transform="translate(320.458984 0)"/>
       <use xlink:href="#DejaVuSans-69" transform="translate(383.837891 0)"/>
       <use xlink:href="#DejaVuSans-74" transform="translate(411.621094 0)"/>
       <use xlink:href="#DejaVuSans-69" transform="translate(450.830078 0)"/>
       <use xlink:href="#DejaVuSans-61" transform="translate(478.613281 0)"/>
       <use xlink:href="#DejaVuSans-6c" transform="translate(539.892578 0)"/>
      </g>
     </g>
    </g>
    <g id="xtick_22">
     <g id="line2d_22">
      <g>
       <use xlink:href="#m83e06ba533" x="489.130584" y="299.518125" style="stroke: #000000; stroke-width: 0.8"/>
      </g>
     </g>
     <g id="text_22">
      <!-- oc20_s2ef_train_2m -->
      <g transform="translate(455.640239 382.577403) rotate(-45) scale(0.1 -0.1)">
       <use xlink:href="#DejaVuSans-6f"/>
       <use xlink:href="#DejaVuSans-63" transform="translate(61.181641 0)"/>
       <use xlink:href="#DejaVuSans-32" transform="translate(116.162109 0)"/>
       <use xlink:href="#DejaVuSans-30" transform="translate(179.785156 0)"/>
       <use xlink:href="#DejaVuSans-5f" transform="translate(243.408203 0)"/>
       <use xlink:href="#DejaVuSans-73" transform="translate(293.408203 0)"/>
       <use xlink:href="#DejaVuSans-32" transform="translate(345.507812 0)"/>
       <use xlink:href="#DejaVuSans-65" transform="translate(409.130859 0)"/>
       <use xlink:href="#DejaVuSans-66" transform="translate(470.654297 0)"/>
       <use xlink:href="#DejaVuSans-5f" transform="translate(505.859375 0)"/>
       <use xlink:href="#DejaVuSans-74" transform="translate(555.859375 0)"/>
       <use xlink:href="#DejaVuSans-72" transform="translate(595.068359 0)"/>
       <use xlink:href="#DejaVuSans-61" transform="translate(636.181641 0)"/>
       <use xlink:href="#DejaVuSans-69" transform="translate(697.460938 0)"/>
       <use xlink:href="#DejaVuSans-6e" transform="translate(725.244141 0)"/>
       <use xlink:href="#DejaVuSans-5f" transform="translate(788.623047 0)"/>
       <use xlink:href="#DejaVuSans-32" transform="translate(838.623047 0)"/>
       <use xlink:href="#DejaVuSans-6d" transform="translate(902.246094 0)"/>
      </g>
     </g>
    </g>
    <g id="xtick_23">
     <g id="line2d_23">
      <g>
       <use xlink:href="#m83e06ba533" x="508.532119" y="299.518125" style="stroke: #000000; stroke-width: 0.8"/>
      </g>
     </g>
     <g id="text_23">
      <!-- md22_at_at -->
      <g transform="translate(489.556798 353.547355) rotate(-45) scale(0.1 -0.1)">
       <use xlink:href="#DejaVuSans-6d"/>
       <use xlink:href="#DejaVuSans-64" transform="translate(97.412109 0)"/>
       <use xlink:href="#DejaVuSans-32" transform="translate(160.888672 0)"/>
       <use xlink:href="#DejaVuSans-32" transform="translate(224.511719 0)"/>
       <use xlink:href="#DejaVuSans-5f" transform="translate(288.134766 0)"/>
       <use xlink:href="#DejaVuSans-61" transform="translate(338.134766 0)"/>
       <use xlink:href="#DejaVuSans-74" transform="translate(399.414062 0)"/>
       <use xlink:href="#DejaVuSans-5f" transform="translate(438.623047 0)"/>
       <use xlink:href="#DejaVuSans-61" transform="translate(488.623047 0)"/>
       <use xlink:href="#DejaVuSans-74" transform="translate(549.902344 0)"/>
      </g>
     </g>
    </g>
    <g id="xtick_24">
     <g id="line2d_24">
      <g>
       <use xlink:href="#m83e06ba533" x="527.933654" y="299.518125" style="stroke: #000000; stroke-width: 0.8"/>
      </g>
     </g>
     <g id="text_24">
      <!-- md22_stachyose -->
      <g transform="translate(499.979181 371.505658) rotate(-45) scale(0.1 -0.1)">
       <defs>
        <path id="DejaVuSans-79" d="M 2059 -325 
Q 1816 -950 1584 -1140 
Q 1353 -1331 966 -1331 
L 506 -1331 
L 506 -850 
L 844 -850 
Q 1081 -850 1212 -737 
Q 1344 -625 1503 -206 
L 1606 56 
L 191 3500 
L 800 3500 
L 1894 763 
L 2988 3500 
L 3597 3500 
L 2059 -325 
z
" transform="scale(0.015625)"/>
       </defs>
       <use xlink:href="#DejaVuSans-6d"/>
       <use xlink:href="#DejaVuSans-64" transform="translate(97.412109 0)"/>
       <use xlink:href="#DejaVuSans-32" transform="translate(160.888672 0)"/>
       <use xlink:href="#DejaVuSans-32" transform="translate(224.511719 0)"/>
       <use xlink:href="#DejaVuSans-5f" transform="translate(288.134766 0)"/>
       <use xlink:href="#DejaVuSans-73" transform="translate(338.134766 0)"/>
       <use xlink:href="#DejaVuSans-74" transform="translate(390.234375 0)"/>
       <use xlink:href="#DejaVuSans-61" transform="translate(429.443359 0)"/>
       <use xlink:href="#DejaVuSans-63" transform="translate(490.722656 0)"/>
       <use xlink:href="#DejaVuSans-68" transform="translate(545.703125 0)"/>
       <use xlink:href="#DejaVuSans-79" transform="translate(609.082031 0)"/>
       <use xlink:href="#DejaVuSans-6f" transform="translate(668.261719 0)"/>
       <use xlink:href="#DejaVuSans-73" transform="translate(729.443359 0)"/>
       <use xlink:href="#DejaVuSans-65" transform="translate(781.542969 0)"/>
      </g>
     </g>
    </g>
    <g id="xtick_25">
     <g id="line2d_25">
      <g>
       <use xlink:href="#m83e06ba533" x="547.335188" y="299.518125" style="stroke: #000000; stroke-width: 0.8"/>
      </g>
     </g>
     <g id="text_25">
      <!-- oc20_s2ef_val_ood_cat -->
      <g transform="translate(508.690146 392.886799) rotate(-45) scale(0.1 -0.1)">
       <use xlink:href="#DejaVuSans-6f"/>
       <use xlink:href="#DejaVuSans-63" transform="translate(61.181641 0)"/>
       <use xlink:href="#DejaVuSans-32" transform="translate(116.162109 0)"/>
       <use xlink:href="#DejaVuSans-30" transform="translate(179.785156 0)"/>
       <use xlink:href="#DejaVuSans-5f" transform="translate(243.408203 0)"/>
       <use xlink:href="#DejaVuSans-73" transform="translate(293.408203 0)"/>
       <use xlink:href="#DejaVuSans-32" transform="translate(345.507812 0)"/>
       <use xlink:href="#DejaVuSans-65" transform="translate(409.130859 0)"/>
       <use xlink:href="#DejaVuSans-66" transform="translate(470.654297 0)"/>
       <use xlink:href="#DejaVuSans-5f" transform="translate(505.859375 0)"/>
       <use xlink:href="#DejaVuSans-76" transform="translate(555.859375 0)"/>
       <use xlink:href="#DejaVuSans-61" transform="translate(615.039062 0)"/>
       <use xlink:href="#DejaVuSans-6c" transform="translate(676.318359 0)"/>
       <use xlink:href="#DejaVuSans-5f" transform="translate(704.101562 0)"/>
       <use xlink:href="#DejaVuSans-6f" transform="translate(754.101562 0)"/>
       <use xlink:href="#DejaVuSans-6f" transform="translate(815.283203 0)"/>
       <use xlink:href="#DejaVuSans-64" transform="translate(876.464844 0)"/>
       <use xlink:href="#DejaVuSans-5f" transform="translate(939.941406 0)"/>
       <use xlink:href="#DejaVuSans-63" transform="translate(989.941406 0)"/>
       <use xlink:href="#DejaVuSans-61" transform="translate(1044.921875 0)"/>
       <use xlink:href="#DejaVuSans-74" transform="translate(1106.201172 0)"/>
      </g>
     </g>
    </g>
    <g id="xtick_26">
     <g id="line2d_26">
      <g>
       <use xlink:href="#m83e06ba533" x="566.736723" y="299.518125" style="stroke: #000000; stroke-width: 0.8"/>
      </g>
     </g>
     <g id="text_26">
      <!-- salex_train_official -->
      <g transform="translate(535.918469 377.233223) rotate(-45) scale(0.1 -0.1)">
       <use xlink:href="#DejaVuSans-73"/>
       <use xlink:href="#DejaVuSans-61" transform="translate(52.099609 0)"/>
       <use xlink:href="#DejaVuSans-6c" transform="translate(113.378906 0)"/>
       <use xlink:href="#DejaVuSans-65" transform="translate(141.162109 0)"/>
       <use xlink:href="#DejaVuSans-78" transform="translate(200.935547 0)"/>
       <use xlink:href="#DejaVuSans-5f" transform="translate(260.115234 0)"/>
       <use xlink:href="#DejaVuSans-74" transform="translate(310.115234 0)"/>
       <use xlink:href="#DejaVuSans-72" transform="translate(349.324219 0)"/>
       <use xlink:href="#DejaVuSans-61" transform="translate(390.4375 0)"/>
       <use xlink:href="#DejaVuSans-69" transform="translate(451.716797 0)"/>
       <use xlink:href="#DejaVuSans-6e" transform="translate(479.5 0)"/>
       <use xlink:href="#DejaVuSans-5f" transform="translate(542.878906 0)"/>
       <use xlink:href="#DejaVuSans-6f" transform="translate(592.878906 0)"/>
       <use xlink:href="#DejaVuSans-66" transform="translate(654.060547 0)"/>
       <use xlink:href="#DejaVuSans-66" transform="translate(689.265625 0)"/>
       <use xlink:href="#DejaVuSans-69" transform="translate(724.470703 0)"/>
       <use xlink:href="#DejaVuSans-63" transform="translate(752.253906 0)"/>
       <use xlink:href="#DejaVuSans-69" transform="translate(807.234375 0)"/>
       <use xlink:href="#DejaVuSans-61" transform="translate(835.017578 0)"/>
       <use xlink:href="#DejaVuSans-6c" transform="translate(896.296875 0)"/>
      </g>
     </g>
    </g>
    <g id="xtick_27">
     <g id="line2d_27">
      <g>
       <use xlink:href="#m83e06ba533" x="586.138258" y="299.518125" style="stroke: #000000; stroke-width: 0.8"/>
      </g>
     </g>
     <g id="text_27">
      <!-- md22_buckyball_catcher -->
      <g transform="translate(544.14164 399.58995) rotate(-45) scale(0.1 -0.1)">
       <defs>
        <path id="DejaVuSans-6b" d="M 581 4863 
L 1159 4863 
L 1159 1991 
L 2875 3500 
L 3609 3500 
L 1753 1863 
L 3688 0 
L 2938 0 
L 1159 1709 
L 1159 0 
L 581 0 
L 581 4863 
z
" transform="scale(0.015625)"/>
       </defs>
       <use xlink:href="#DejaVuSans-6d"/>
       <use xlink:href="#DejaVuSans-64" transform="translate(97.412109 0)"/>
       <use xlink:href="#DejaVuSans-32" transform="translate(160.888672 0)"/>
       <use xlink:href="#DejaVuSans-32" transform="translate(224.511719 0)"/>
       <use xlink:href="#DejaVuSans-5f" transform="translate(288.134766 0)"/>
       <use xlink:href="#DejaVuSans-62" transform="translate(338.134766 0)"/>
       <use xlink:href="#DejaVuSans-75" transform="translate(401.611328 0)"/>
       <use xlink:href="#DejaVuSans-63" transform="translate(464.990234 0)"/>
       <use xlink:href="#DejaVuSans-6b" transform="translate(519.970703 0)"/>
       <use xlink:href="#DejaVuSans-79" transform="translate(574.255859 0)"/>
       <use xlink:href="#DejaVuSans-62" transform="translate(633.435547 0)"/>
       <use xlink:href="#DejaVuSans-61" transform="translate(696.912109 0)"/>
       <use xlink:href="#DejaVuSans-6c" transform="translate(758.191406 0)"/>
       <use xlink:href="#DejaVuSans-6c" transform="translate(785.974609 0)"/>
       <use xlink:href="#DejaVuSans-5f" transform="translate(813.757812 0)"/>
       <use xlink:href="#DejaVuSans-63" transform="translate(863.757812 0)"/>
       <use xlink:href="#DejaVuSans-61" transform="translate(918.738281 0)"/>
       <use xlink:href="#DejaVuSans-74" transform="translate(980.017578 0)"/>
       <use xlink:href="#DejaVuSans-63" transform="translate(1019.226562 0)"/>
       <use xlink:href="#DejaVuSans-68" transform="translate(1074.207031 0)"/>
       <use xlink:href="#DejaVuSans-65" transform="translate(1137.585938 0)"/>
       <use xlink:href="#DejaVuSans-72" transform="translate(1199.109375 0)"/>
      </g>
     </g>
    </g>
    <g id="xtick_28">
     <g id="line2d_28">
      <g>
       <use xlink:href="#m83e06ba533" x="605.539793" y="299.518125" style="stroke: #000000; stroke-width: 0.8"/>
      </g>
     </g>
     <g id="text_28">
      <!-- omol25_train_neutral -->
      <g transform="translate(569.731464 387.213372) rotate(-45) scale(0.1 -0.1)">
       <use xlink:href="#DejaVuSans-6f"/>
       <use xlink:href="#DejaVuSans-6d" transform="translate(61.181641 0)"/>
       <use xlink:href="#DejaVuSans-6f" transform="translate(158.59375 0)"/>
       <use xlink:href="#DejaVuSans-6c" transform="translate(219.775391 0)"/>
       <use xlink:href="#DejaVuSans-32" transform="translate(247.558594 0)"/>
       <use xlink:href="#DejaVuSans-35" transform="translate(311.181641 0)"/>
       <use xlink:href="#DejaVuSans-5f" transform="translate(374.804688 0)"/>
       <use xlink:href="#DejaVuSans-74" transform="translate(424.804688 0)"/>
       <use xlink:href="#DejaVuSans-72" transform="translate(464.013672 0)"/>
       <use xlink:href="#DejaVuSans-61" transform="translate(505.126953 0)"/>
       <use xlink:href="#DejaVuSans-69" transform="translate(566.40625 0)"/>
       <use xlink:href="#DejaVuSans-6e" transform="translate(594.189453 0)"/>
       <use xlink:href="#DejaVuSans-5f" transform="translate(657.568359 0)"/>
       <use xlink:href="#DejaVuSans-6e" transform="translate(707.568359 0)"/>
       <use xlink:href="#DejaVuSans-65" transform="translate(770.947266 0)"/>
       <use xlink:href="#DejaVuSans-75" transform="translate(832.470703 0)"/>
       <use xlink:href="#DejaVuSans-74" transform="translate(895.849609 0)"/>
       <use xlink:href="#DejaVuSans-72" transform="translate(935.058594 0)"/>
       <use xlink:href="#DejaVuSans-61" transform="translate(976.171875 0)"/>
       <use xlink:href="#DejaVuSans-6c" transform="translate(1037.451172 0)"/>
      </g>
     </g>
    </g>
    <g id="xtick_29">
     <g id="line2d_29">
      <g>
       <use xlink:href="#m83e06ba533" x="624.941328" y="299.518125" style="stroke: #000000; stroke-width: 0.8"/>
      </g>
     </g>
     <g id="text_29">
      <!-- oc20_s2ef_train_20m -->
      <g transform="translate(589.201499 387.07637) rotate(-45) scale(0.1 -0.1)">
       <use xlink:href="#DejaVuSans-6f"/>
       <use xlink:href="#DejaVuSans-63" transform="translate(61.181641 0)"/>
       <use xlink:href="#DejaVuSans-32" transform="translate(116.162109 0)"/>
       <use xlink:href="#DejaVuSans-30" transform="translate(179.785156 0)"/>
       <use xlink:href="#DejaVuSans-5f" transform="translate(243.408203 0)"/>
       <use xlink:href="#DejaVuSans-73" transform="translate(293.408203 0)"/>
       <use xlink:href="#DejaVuSans-32" transform="translate(345.507812 0)"/>
       <use xlink:href="#DejaVuSans-65" transform="translate(409.130859 0)"/>
       <use xlink:href="#DejaVuSans-66" transform="translate(470.654297 0)"/>
       <use xlink:href="#DejaVuSans-5f" transform="translate(505.859375 0)"/>
       <use xlink:href="#DejaVuSans-74" transform="translate(555.859375 0)"/>
       <use xlink:href="#DejaVuSans-72" transform="translate(595.068359 0)"/>
       <use xlink:href="#DejaVuSans-61" transform="translate(636.181641 0)"/>
       <use xlink:href="#DejaVuSans-69" transform="translate(697.460938 0)"/>
       <use xlink:href="#DejaVuSans-6e" transform="translate(725.244141 0)"/>
       <use xlink:href="#DejaVuSans-5f" transform="translate(788.623047 0)"/>
       <use xlink:href="#DejaVuSans-32" transform="translate(838.623047 0)"/>
       <use xlink:href="#DejaVuSans-30" transform="translate(902.246094 0)"/>
       <use xlink:href="#DejaVuSans-6d" transform="translate(965.869141 0)"/>
      </g>
     </g>
    </g>
    <g id="xtick_30">
     <g id="line2d_30">
      <g>
       <use xlink:href="#m83e06ba533" x="644.342863" y="299.518125" style="stroke: #000000; stroke-width: 0.8"/>
      </g>
     </g>
     <g id="text_30">
      <!-- spice_2023 -->
      <g transform="translate(626.242034 351.798371) rotate(-45) scale(0.1 -0.1)">
       <use xlink:href="#DejaVuSans-73"/>
       <use xlink:href="#DejaVuSans-70" transform="translate(52.099609 0)"/>
       <use xlink:href="#DejaVuSans-69" transform="translate(115.576172 0)"/>
       <use xlink:href="#DejaVuSans-63" transform="translate(143.359375 0)"/>
       <use xlink:href="#DejaVuSans-65" transform="translate(198.339844 0)"/>
       <use xlink:href="#DejaVuSans-5f" transform="translate(259.863281 0)"/>
       <use xlink:href="#DejaVuSans-32" transform="translate(309.863281 0)"/>
       <use xlink:href="#DejaVuSans-30" transform="translate(373.486328 0)"/>
       <use xlink:href="#DejaVuSans-32" transform="translate(437.109375 0)"/>
       <use xlink:href="#DejaVuSans-33" transform="translate(500.732422 0)"/>
      </g>
     </g>
    </g>
    <g id="xtick_31">
     <g id="line2d_31">
      <g>
       <use xlink:href="#m83e06ba533" x="663.744397" y="299.518125" style="stroke: #000000; stroke-width: 0.8"/>
      </g>
     </g>
     <g id="text_31">
      <!-- ani1ccx -->
      <g transform="translate(652.076031 339.130111) rotate(-45) scale(0.1 -0.1)">
       <use xlink:href="#DejaVuSans-61"/>
       <use xlink:href="#DejaVuSans-6e" transform="translate(61.279297 0)"/>
       <use xlink:href="#DejaVuSans-69" transform="translate(124.658203 0)"/>
       <use xlink:href="#DejaVuSans-31" transform="translate(152.441406 0)"/>
       <use xlink:href="#DejaVuSans-63" transform="translate(216.064453 0)"/>
       <use xlink:href="#DejaVuSans-63" transform="translate(271.044922 0)"/>
       <use xlink:href="#DejaVuSans-78" transform="translate(326.025391 0)"/>
      </g>
     </g>
    </g>
   </g>
   <g id="matplotlib.axis_2">
    <g id="ytick_1">
     <g id="line2d_32">
      <defs>
       <path id="m8a30a868f8" d="M 0 0 
L -3.5 0 
" style="stroke: #000000; stroke-width: 0.8"/>
      </defs>
      <g>
       <use xlink:href="#m8a30a868f8" x="44.059375" y="299.518125" style="stroke: #000000; stroke-width: 0.8"/>
      </g>
     </g>
     <g id="text_32">
      <!-- 0.0 -->
      <g transform="translate(21.15625 303.317344) scale(0.1 -0.1)">
       <defs>
        <path id="DejaVuSans-2e" d="M 684 794 
L 1344 794 
L 1344 0 
L 684 0 
L 684 794 
z
" transform="scale(0.015625)"/>
       </defs>
       <use xlink:href="#DejaVuSans-30"/>
       <use xlink:href="#DejaVuSans-2e" transform="translate(63.623047 0)"/>
       <use xlink:href="#DejaVuSans-30" transform="translate(95.410156 0)"/>
      </g>
     </g>
    </g>
    <g id="ytick_2">
     <g id="line2d_33">
      <g>
       <use xlink:href="#m8a30a868f8" x="44.059375" y="247.541007" style="stroke: #000000; stroke-width: 0.8"/>
      </g>
     </g>
     <g id="text_33">
      <!-- 0.2 -->
      <g transform="translate(21.15625 251.340226) scale(0.1 -0.1)">
       <use xlink:href="#DejaVuSans-30"/>
       <use xlink:href="#DejaVuSans-2e" transform="translate(63.623047 0)"/>
       <use xlink:href="#DejaVuSans-32" transform="translate(95.410156 0)"/>
      </g>
     </g>
    </g>
    <g id="ytick_3">
     <g id="line2d_34">
      <g>
       <use xlink:href="#m8a30a868f8" x="44.059375" y="195.563889" style="stroke: #000000; stroke-width: 0.8"/>
      </g>
     </g>
     <g id="text_34">
      <!-- 0.4 -->
      <g transform="translate(21.15625 199.363108) scale(0.1 -0.1)">
       <use xlink:href="#DejaVuSans-30"/>
       <use xlink:href="#DejaVuSans-2e" transform="translate(63.623047 0)"/>
       <use xlink:href="#DejaVuSans-34" transform="translate(95.410156 0)"/>
      </g>
     </g>
    </g>
    <g id="ytick_4">
     <g id="line2d_35">
      <g>
       <use xlink:href="#m8a30a868f8" x="44.059375" y="143.586771" style="stroke: #000000; stroke-width: 0.8"/>
      </g>
     </g>
     <g id="text_35">
      <!-- 0.6 -->
      <g transform="translate(21.15625 147.385989) scale(0.1 -0.1)">
       <defs>
        <path id="DejaVuSans-36" d="M 2113 2584 
Q 1688 2584 1439 2293 
Q 1191 2003 1191 1497 
Q 1191 994 1439 701 
Q 1688 409 2113 409 
Q 2538 409 2786 701 
Q 3034 994 3034 1497 
Q 3034 2003 2786 2293 
Q 2538 2584 2113 2584 
z
M 3366 4563 
L 3366 3988 
Q 3128 4100 2886 4159 
Q 2644 4219 2406 4219 
Q 1781 4219 1451 3797 
Q 1122 3375 1075 2522 
Q 1259 2794 1537 2939 
Q 1816 3084 2150 3084 
Q 2853 3084 3261 2657 
Q 3669 2231 3669 1497 
Q 3669 778 3244 343 
Q 2819 -91 2113 -91 
Q 1303 -91 875 529 
Q 447 1150 447 2328 
Q 447 3434 972 4092 
Q 1497 4750 2381 4750 
Q 2619 4750 2861 4703 
Q 3103 4656 3366 4563 
z
" transform="scale(0.015625)"/>
       </defs>
       <use xlink:href="#DejaVuSans-30"/>
       <use xlink:href="#DejaVuSans-2e" transform="translate(63.623047 0)"/>
       <use xlink:href="#DejaVuSans-36" transform="translate(95.410156 0)"/>
      </g>
     </g>
    </g>
    <g id="ytick_5">
     <g id="line2d_36">
      <g>
       <use xlink:href="#m8a30a868f8" x="44.059375" y="91.609653" style="stroke: #000000; stroke-width: 0.8"/>
      </g>
     </g>
     <g id="text_36">
      <!-- 0.8 -->
      <g transform="translate(21.15625 95.408871) scale(0.1 -0.1)">
       <defs>
        <path id="DejaVuSans-38" d="M 2034 2216 
Q 1584 2216 1326 1975 
Q 1069 1734 1069 1313 
Q 1069 891 1326 650 
Q 1584 409 2034 409 
Q 2484 409 2743 651 
Q 3003 894 3003 1313 
Q 3003 1734 2745 1975 
Q 2488 2216 2034 2216 
z
M 1403 2484 
Q 997 2584 770 2862 
Q 544 3141 544 3541 
Q 544 4100 942 4425 
Q 1341 4750 2034 4750 
Q 2731 4750 3128 4425 
Q 3525 4100 3525 3541 
Q 3525 3141 3298 2862 
Q 3072 2584 2669 2484 
Q 3125 2378 3379 2068 
Q 3634 1759 3634 1313 
Q 3634 634 3220 271 
Q 2806 -91 2034 -91 
Q 1263 -91 848 271 
Q 434 634 434 1313 
Q 434 1759 690 2068 
Q 947 2378 1403 2484 
z
M 1172 3481 
Q 1172 3119 1398 2916 
Q 1625 2713 2034 2713 
Q 2441 2713 2670 2916 
Q 2900 3119 2900 3481 
Q 2900 3844 2670 4047 
Q 2441 4250 2034 4250 
Q 1625 4250 1398 4047 
Q 1172 3844 1172 3481 
z
" transform="scale(0.015625)"/>
       </defs>
       <use xlink:href="#DejaVuSans-30"/>
       <use xlink:href="#DejaVuSans-2e" transform="translate(63.623047 0)"/>
       <use xlink:href="#DejaVuSans-38" transform="translate(95.410156 0)"/>
      </g>
     </g>
    </g>
    <g id="ytick_6">
     <g id="line2d_37">
      <g>
       <use xlink:href="#m8a30a868f8" x="44.059375" y="39.632534" style="stroke: #000000; stroke-width: 0.8"/>
      </g>
     </g>
     <g id="text_37">
      <!-- 1.0 -->
      <g transform="translate(21.15625 43.431753) scale(0.1 -0.1)">
       <use xlink:href="#DejaVuSans-31"/>
       <use xlink:href="#DejaVuSans-2e" transform="translate(63.623047 0)"/>
       <use xlink:href="#DejaVuSans-30" transform="translate(95.410156 0)"/>
      </g>
     </g>
    </g>
    <g id="text_38">
     <!-- flash_baseline / flash_pair_auto -->
     <g transform="translate(14.798438 239.132188) rotate(-90) scale(0.1 -0.1)">
      <defs>
       <path id="DejaVuSans-20" transform="scale(0.015625)"/>
       <path id="DejaVuSans-2f" d="M 1625 4666 
L 2156 4666 
L 531 -594 
L 0 -594 
L 1625 4666 
z
" transform="scale(0.015625)"/>
      </defs>
      <use xlink:href="#DejaVuSans-66"/>
      <use xlink:href="#DejaVuSans-6c" transform="translate(35.205078 0)"/>
      <use xlink:href="#DejaVuSans-61" transform="translate(62.988281 0)"/>
      <use xlink:href="#DejaVuSans-73" transform="translate(124.267578 0)"/>
      <use xlink:href="#DejaVuSans-68" transform="translate(176.367188 0)"/>
      <use xlink:href="#DejaVuSans-5f" transform="translate(239.746094 0)"/>
      <use xlink:href="#DejaVuSans-62" transform="translate(289.746094 0)"/>
      <use xlink:href="#DejaVuSans-61" transform="translate(353.222656 0)"/>
      <use xlink:href="#DejaVuSans-73" transform="translate(414.501953 0)"/>
      <use xlink:href="#DejaVuSans-65" transform="translate(466.601562 0)"/>
      <use xlink:href="#DejaVuSans-6c" transform="translate(528.125 0)"/>
      <use xlink:href="#DejaVuSans-69" transform="translate(555.908203 0)"/>
      <use xlink:href="#DejaVuSans-6e" transform="translate(583.691406 0)"/>
      <use xlink:href="#DejaVuSans-65" transform="translate(647.070312 0)"/>
      <use xlink:href="#DejaVuSans-20" transform="translate(708.59375 0)"/>
      <use xlink:href="#DejaVuSans-2f" transform="translate(740.380859 0)"/>
      <use xlink:href="#DejaVuSans-20" transform="translate(774.072266 0)"/>
      <use xlink:href="#DejaVuSans-66" transform="translate(805.859375 0)"/>
      <use xlink:href="#DejaVuSans-6c" transform="translate(841.064453 0)"/>
      <use xlink:href="#DejaVuSans-61" transform="translate(868.847656 0)"/>
      <use xlink:href="#DejaVuSans-73" transform="translate(930.126953 0)"/>
      <use xlink:href="#DejaVuSans-68" transform="translate(982.226562 0)"/>
      <use xlink:href="#DejaVuSans-5f" transform="translate(1045.605469 0)"/>
      <use xlink:href="#DejaVuSans-70" transform="translate(1095.605469 0)"/>
      <use xlink:href="#DejaVuSans-61" transform="translate(1159.082031 0)"/>
      <use xlink:href="#DejaVuSans-69" transform="translate(1220.361328 0)"/>
      <use xlink:href="#DejaVuSans-72" transform="translate(1248.144531 0)"/>
      <use xlink:href="#DejaVuSans-5f" transform="translate(1289.257812 0)"/>
      <use xlink:href="#DejaVuSans-61" transform="translate(1339.257812 0)"/>
      <use xlink:href="#DejaVuSans-75" transform="translate(1400.537109 0)"/>
      <use xlink:href="#DejaVuSans-74" transform="translate(1463.916016 0)"/>
      <use xlink:href="#DejaVuSans-6f" transform="translate(1503.125 0)"/>
     </g>
    </g>
   </g>
   <g id="line2d_38">
    <path d="M 44.059375 39.632534 
L 701.383375 39.632534 
" clip-path="url(#p7051bfd1eb)" style="fill: none; stroke-dasharray: 3.7,1.6; stroke-dashoffset: 0; stroke: #000000"/>
   </g>
   <g id="patch_34">
    <path d="M 44.059375 299.518125 
L 44.059375 22.318125 
" style="fill: none; stroke: #000000; stroke-width: 0.8; stroke-linejoin: miter; stroke-linecap: square"/>
   </g>
   <g id="patch_35">
    <path d="M 701.383375 299.518125 
L 701.383375 22.318125 
" style="fill: none; stroke: #000000; stroke-width: 0.8; stroke-linejoin: miter; stroke-linecap: square"/>
   </g>
   <g id="patch_36">
    <path d="M 44.059375 299.518125 
L 701.383375 299.518125 
" style="fill: none; stroke: #000000; stroke-width: 0.8; stroke-linejoin: miter; stroke-linecap: square"/>
   </g>
   <g id="patch_37">
    <path d="M 44.059375 22.318125 
L 701.383375 22.318125 
" style="fill: none; stroke: #000000; stroke-width: 0.8; stroke-linejoin: miter; stroke-linecap: square"/>
   </g>
   <g id="text_39">
    <!-- FlashTP pair reuse speedup by dataset -->
    <g transform="translate(256.134812 16.318125) scale(0.12 -0.12)">
     <defs>
      <path id="DejaVuSans-46" d="M 628 4666 
L 3309 4666 
L 3309 4134 
L 1259 4134 
L 1259 2759 
L 3109 2759 
L 3109 2228 
L 1259 2228 
L 1259 0 
L 628 0 
L 628 4666 
z
" transform="scale(0.015625)"/>
      <path id="DejaVuSans-54" d="M -19 4666 
L 3928 4666 
L 3928 4134 
L 2272 4134 
L 2272 0 
L 1638 0 
L 1638 4134 
L -19 4134 
L -19 4666 
z
" transform="scale(0.015625)"/>
      <path id="DejaVuSans-50" d="M 1259 4147 
L 1259 2394 
L 2053 2394 
Q 2494 2394 2734 2622 
Q 2975 2850 2975 3272 
Q 2975 3691 2734 3919 
Q 2494 4147 2053 4147 
L 1259 4147 
z
M 628 4666 
L 2053 4666 
Q 2838 4666 3239 4311 
Q 3641 3956 3641 3272 
Q 3641 2581 3239 2228 
Q 2838 1875 2053 1875 
L 1259 1875 
L 1259 0 
L 628 0 
L 628 4666 
z
" transform="scale(0.015625)"/>
     </defs>
     <use xlink:href="#DejaVuSans-46"/>
     <use xlink:href="#DejaVuSans-6c" transform="translate(57.519531 0)"/>
     <use xlink:href="#DejaVuSans-61" transform="translate(85.302734 0)"/>
     <use xlink:href="#DejaVuSans-73" transform="translate(146.582031 0)"/>
     <use xlink:href="#DejaVuSans-68" transform="translate(198.681641 0)"/>
     <use xlink:href="#DejaVuSans-54" transform="translate(262.060547 0)"/>
     <use xlink:href="#DejaVuSans-50" transform="translate(323.144531 0)"/>
     <use xlink:href="#DejaVuSans-20" transform="translate(383.447266 0)"/>
     <use xlink:href="#DejaVuSans-70" transform="translate(415.234375 0)"/>
     <use xlink:href="#DejaVuSans-61" transform="translate(478.710938 0)"/>
     <use xlink:href="#DejaVuSans-69" transform="translate(539.990234 0)"/>
     <use xlink:href="#DejaVuSans-72" transform="translate(567.773438 0)"/>
     <use xlink:href="#DejaVuSans-20" transform="translate(608.886719 0)"/>
     <use xlink:href="#DejaVuSans-72" transform="translate(640.673828 0)"/>
     <use xlink:href="#DejaVuSans-65" transform="translate(679.537109 0)"/>
     <use xlink:href="#DejaVuSans-75" transform="translate(741.060547 0)"/>
     <use xlink:href="#DejaVuSans-73" transform="translate(804.439453 0)"/>
     <use xlink:href="#DejaVuSans-65" transform="translate(856.539062 0)"/>
     <use xlink:href="#DejaVuSans-20" transform="translate(918.0625 0)"/>
     <use xlink:href="#DejaVuSans-73" transform="translate(949.849609 0)"/>
     <use xlink:href="#DejaVuSans-70" transform="translate(1001.949219 0)"/>
     <use xlink:href="#DejaVuSans-65" transform="translate(1065.425781 0)"/>
     <use xlink:href="#DejaVuSans-65" transform="translate(1126.949219 0)"/>
     <use xlink:href="#DejaVuSans-64" transform="translate(1188.472656 0)"/>
     <use xlink:href="#DejaVuSans-75" transform="translate(1251.949219 0)"/>
     <use xlink:href="#DejaVuSans-70" transform="translate(1315.328125 0)"/>
     <use xlink:href="#DejaVuSans-20" transform="translate(1378.804688 0)"/>
     <use xlink:href="#DejaVuSans-62" transform="translate(1410.591797 0)"/>
     <use xlink:href="#DejaVuSans-79" transform="translate(1474.068359 0)"/>
     <use xlink:href="#DejaVuSans-20" transform="translate(1533.248047 0)"/>
     <use xlink:href="#DejaVuSans-64" transform="translate(1565.035156 0)"/>
     <use xlink:href="#DejaVuSans-61" transform="translate(1628.511719 0)"/>
     <use xlink:href="#DejaVuSans-74" transform="translate(1689.791016 0)"/>
     <use xlink:href="#DejaVuSans-61" transform="translate(1729 0)"/>
     <use xlink:href="#DejaVuSans-73" transform="translate(1790.279297 0)"/>
     <use xlink:href="#DejaVuSans-65" transform="translate(1842.378906 0)"/>
     <use xlink:href="#DejaVuSans-74" transform="translate(1903.902344 0)"/>
    </g>
   </g>
  </g>
 </g>
 <defs>
  <clipPath id="p7051bfd1eb">
   <rect x="44.059375" y="22.318125" width="657.324" height="277.2"/>
  </clipPath>
 </defs>
</svg>
