<?xml version="1.0" encoding="utf-8" standalone="no"?>
<!DOCTYPE svg PUBLIC "-//W3C//DTD SVG 1.1//EN"
  "http://www.w3.org/Graphics/SVG/1.1/DTD/svg11.dtd">
<svg xmlns:xlink="http://www.w3.org/1999/xlink" width="751.665625pt" height="379.502312pt" viewBox="0 0 751.665625 379.502312" xmlns="http://www.w3.org/2000/svg" version="1.1">
 <metadata>
  <rdf:RDF xmlns:dc="http://purl.org/dc/elements/1.1/" xmlns:cc="http://creativecommons.org/ns#" xmlns:rdf="http://www.w3.org/1999/02/22-rdf-syntax-ns#">
   <cc:Work>
    <dc:type rdf:resource="http://purl.org/dc/dcmitype/StillImage"/>
    <dc:date>2026-04-13T14:49:19.910933</dc:date>
    <dc:format>image/svg+xml</dc:format>
    <dc:creator>
     <cc:Agent>
      <dc:title>Matplotlib v3.10.1, https://matplotlib.org/</dc:title>
     </cc:Agent>
    </dc:creator>
   </cc:Work>
  </rdf:RDF>
 </metadata>
 <defs>
  <style type="text/css">*{stroke-linejoin: round; stroke-linecap: butt}</style>
 </defs>
 <g id="figure_1">
  <g id="patch_1">
   <path d="M 0 379.502312 
L 751.665625 379.502312 
L 751.665625 0 
L 0 0 
z
" style="fill: #ffffff"/>
  </g>
  <g id="axes_1">
   <g id="patch_2">
    <path d="M 46.965625 343.870125 
L 744.465625 343.870125 
L 744.465625 22.318125 
L 46.965625 22.318125 
z
" style="fill: #ffffff"/>
   </g>
   <g id="patch_3">
    <path d="M 78.67017 343.870125 
L 121.659385 343.870125 
L 121.659385 343.719863 
L 78.67017 343.719863 
z
" clip-path="url(#p16e401ca5b)" style="fill: #e69f00"/>
   </g>
   <g id="patch_4">
    <path d="M 132.406688 343.870125 
L 175.395902 343.870125 
L 175.395902 343.719465 
L 132.406688 343.719465 
z
" clip-path="url(#p16e401ca5b)" style="fill: #e69f00"/>
   </g>
   <g id="patch_5">
    <path d="M 186.143206 343.870125 
L 229.13242 343.870125 
L 229.13242 343.71194 
L 186.143206 343.71194 
z
" clip-path="url(#p16e401ca5b)" style="fill: #e69f00"/>
   </g>
   <g id="patch_6">
    <path d="M 239.879724 343.870125 
L 282.868938 343.870125 
L 282.868938 343.704174 
L 239.879724 343.704174 
z
" clip-path="url(#p16e401ca5b)" style="fill: #e69f00"/>
   </g>
   <g id="patch_7">
    <path d="M 293.616241 343.870125 
L 336.605456 343.870125 
L 336.605456 343.706395 
L 293.616241 343.706395 
z
" clip-path="url(#p16e401ca5b)" style="fill: #e69f00"/>
   </g>
   <g id="patch_8">
    <path d="M 347.352759 343.870125 
L 390.341973 343.870125 
L 390.341973 343.704999 
L 347.352759 343.704999 
z
" clip-path="url(#p16e401ca5b)" style="fill: #e69f00"/>
   </g>
   <g id="patch_9">
    <path d="M 401.089277 343.870125 
L 444.078491 343.870125 
L 444.078491 343.703601 
L 401.089277 343.703601 
z
" clip-path="url(#p16e401ca5b)" style="fill: #e69f00"/>
   </g>
   <g id="patch_10">
    <path d="M 454.825794 343.870125 
L 497.815009 343.870125 
L 497.815009 343.705253 
L 454.825794 343.705253 
z
" clip-path="url(#p16e401ca5b)" style="fill: #e69f00"/>
   </g>
   <g id="patch_11">
    <path d="M 508.562312 343.870125 
L 551.551526 343.870125 
L 551.551526 343.712008 
L 508.562312 343.712008 
z
" clip-path="url(#p16e401ca5b)" style="fill: #e69f00"/>
   </g>
   <g id="patch_12">
    <path d="M 562.29883 343.870125 
L 605.288044 343.870125 
L 605.288044 343.71488 
L 562.29883 343.71488 
z
" clip-path="url(#p16e401ca5b)" style="fill: #e69f00"/>
   </g>
   <g id="patch_13">
    <path d="M 616.035348 343.870125 
L 659.024562 343.870125 
L 659.024562 343.705415 
L 616.035348 343.705415 
z
" clip-path="url(#p16e401ca5b)" style="fill: #e69f00"/>
   </g>
   <g id="patch_14">
    <path d="M 669.771865 343.870125 
L 712.76108 343.870125 
L 712.76108 343.707038 
L 669.771865 343.707038 
z
" clip-path="url(#p16e401ca5b)" style="fill: #e69f00"/>
   </g>
   <g id="patch_15">
    <path d="M 78.67017 343.719863 
L 121.659385 343.719863 
L 121.659385 343.699488 
L 78.67017 343.699488 
z
" clip-path="url(#p16e401ca5b)" style="fill: #999999"/>
   </g>
   <g id="patch_16">
    <path d="M 132.406688 343.719465 
L 175.395902 343.719465 
L 175.395902 343.699406 
L 132.406688 343.699406 
z
" clip-path="url(#p16e401ca5b)" style="fill: #999999"/>
   </g>
   <g id="patch_17">
    <path d="M 186.143206 343.71194 
L 229.13242 343.71194 
L 229.13242 343.689386 
L 186.143206 343.689386 
z
" clip-path="url(#p16e401ca5b)" style="fill: #999999"/>
   </g>
   <g id="patch_18">
    <path d="M 239.879724 343.704174 
L 282.868938 343.704174 
L 282.868938 343.680062 
L 239.879724 343.680062 
z
" clip-path="url(#p16e401ca5b)" style="fill: #999999"/>
   </g>
   <g id="patch_19">
    <path d="M 293.616241 343.706395 
L 336.605456 343.706395 
L 336.605456 343.682743 
L 293.616241 343.682743 
z
" clip-path="url(#p16e401ca5b)" style="fill: #999999"/>
   </g>
   <g id="patch_20">
    <path d="M 347.352759 343.704999 
L 390.341973 343.704999 
L 390.341973 343.681401 
L 347.352759 343.681401 
z
" clip-path="url(#p16e401ca5b)" style="fill: #999999"/>
   </g>
   <g id="patch_21">
    <path d="M 401.089277 343.703601 
L 444.078491 343.703601 
L 444.078491 343.678586 
L 401.089277 343.678586 
z
" clip-path="url(#p16e401ca5b)" style="fill: #999999"/>
   </g>
   <g id="patch_22">
    <path d="M 454.825794 343.705253 
L 497.815009 343.705253 
L 497.815009 343.680857 
L 454.825794 343.680857 
z
" clip-path="url(#p16e401ca5b)" style="fill: #999999"/>
   </g>
   <g id="patch_23">
    <path d="M 508.562312 343.712008 
L 551.551526 343.712008 
L 551.551526 343.68992 
L 508.562312 343.68992 
z
" clip-path="url(#p16e401ca5b)" style="fill: #999999"/>
   </g>
   <g id="patch_24">
    <path d="M 562.29883 343.71488 
L 605.288044 343.71488 
L 605.288044 343.694276 
L 562.29883 343.694276 
z
" clip-path="url(#p16e401ca5b)" style="fill: #999999"/>
   </g>
   <g id="patch_25">
    <path d="M 616.035348 343.705415 
L 659.024562 343.705415 
L 659.024562 343.684141 
L 616.035348 343.684141 
z
" clip-path="url(#p16e401ca5b)" style="fill: #999999"/>
   </g>
   <g id="patch_26">
    <path d="M 669.771865 343.707038 
L 712.76108 343.707038 
L 712.76108 343.683814 
L 669.771865 343.683814 
z
" clip-path="url(#p16e401ca5b)" style="fill: #999999"/>
   </g>
   <g id="patch_27">
    <path d="M 78.67017 343.699488 
L 121.659385 343.699488 
L 121.659385 343.656806 
L 78.67017 343.656806 
z
" clip-path="url(#p16e401ca5b)" style="fill: #999999"/>
   </g>
   <g id="patch_28">
    <path d="M 132.406688 343.699406 
L 175.395902 343.699406 
L 175.395902 343.655374 
L 132.406688 343.655374 
z
" clip-path="url(#p16e401ca5b)" style="fill: #999999"/>
   </g>
   <g id="patch_29">
    <path d="M 186.143206 343.689386 
L 229.13242 343.689386 
L 229.13242 343.643763 
L 186.143206 343.643763 
z
" clip-path="url(#p16e401ca5b)" style="fill: #999999"/>
   </g>
   <g id="patch_30">
    <path d="M 239.879724 343.680062 
L 282.868938 343.680062 
L 282.868938 343.632225 
L 239.879724 343.632225 
z
" clip-path="url(#p16e401ca5b)" style="fill: #999999"/>
   </g>
   <g id="patch_31">
    <path d="M 293.616241 343.682743 
L 336.605456 343.682743 
L 336.605456 343.635755 
L 293.616241 343.635755 
z
" clip-path="url(#p16e401ca5b)" style="fill: #999999"/>
   </g>
   <g id="patch_32">
    <path d="M 347.352759 343.681401 
L 390.341973 343.681401 
L 390.341973 343.63367 
L 347.352759 343.63367 
z
" clip-path="url(#p16e401ca5b)" style="fill: #999999"/>
   </g>
   <g id="patch_33">
    <path d="M 401.089277 343.678586 
L 444.078491 343.678586 
L 444.078491 343.630832 
L 401.089277 343.630832 
z
" clip-path="url(#p16e401ca5b)" style="fill: #999999"/>
   </g>
   <g id="patch_34">
    <path d="M 454.825794 343.680857 
L 497.815009 343.680857 
L 497.815009 343.632485 
L 454.825794 343.632485 
z
" clip-path="url(#p16e401ca5b)" style="fill: #999999"/>
   </g>
   <g id="patch_35">
    <path d="M 508.562312 343.68992 
L 551.551526 343.68992 
L 551.551526 343.646807 
L 508.562312 343.646807 
z
" clip-path="url(#p16e401ca5b)" style="fill: #999999"/>
   </g>
   <g id="patch_36">
    <path d="M 562.29883 343.694276 
L 605.288044 343.694276 
L 605.288044 343.651551 
L 562.29883 343.651551 
z
" clip-path="url(#p16e401ca5b)" style="fill: #999999"/>
   </g>
   <g id="patch_37">
    <path d="M 616.035348 343.684141 
L 659.024562 343.684141 
L 659.024562 343.638708 
L 616.035348 343.638708 
z
" clip-path="url(#p16e401ca5b)" style="fill: #999999"/>
   </g>
   <g id="patch_38">
    <path d="M 669.771865 343.683814 
L 712.76108 343.683814 
L 712.76108 343.636988 
L 669.771865 343.636988 
z
" clip-path="url(#p16e401ca5b)" style="fill: #999999"/>
   </g>
   <g id="patch_39">
    <path d="M 78.67017 343.656806 
L 121.659385 343.656806 
L 121.659385 343.424496 
L 78.67017 343.424496 
z
" clip-path="url(#p16e401ca5b)" style="fill: #4c9f70"/>
   </g>
   <g id="patch_40">
    <path d="M 132.406688 343.655374 
L 175.395902 343.655374 
L 175.395902 343.415909 
L 132.406688 343.415909 
z
" clip-path="url(#p16e401ca5b)" style="fill: #4c9f70"/>
   </g>
   <g id="patch_41">
    <path d="M 186.143206 343.643763 
L 229.13242 343.643763 
L 229.13242 342.853791 
L 186.143206 342.853791 
z
" clip-path="url(#p16e401ca5b)" style="fill: #4c9f70"/>
   </g>
   <g id="patch_42">
    <path d="M 239.879724 343.632225 
L 282.868938 343.632225 
L 282.868938 343.145946 
L 239.879724 343.145946 
z
" clip-path="url(#p16e401ca5b)" style="fill: #4c9f70"/>
   </g>
   <g id="patch_43">
    <path d="M 293.616241 343.635755 
L 336.605456 343.635755 
L 336.605456 343.265463 
L 293.616241 343.265463 
z
" clip-path="url(#p16e401ca5b)" style="fill: #4c9f70"/>
   </g>
   <g id="patch_44">
    <path d="M 347.352759 343.63367 
L 390.341973 343.63367 
L 390.341973 343.325947 
L 347.352759 343.325947 
z
" clip-path="url(#p16e401ca5b)" style="fill: #4c9f70"/>
   </g>
   <g id="patch_45">
    <path d="M 401.089277 343.630832 
L 444.078491 343.630832 
L 444.078491 343.106363 
L 401.089277 343.106363 
z
" clip-path="url(#p16e401ca5b)" style="fill: #4c9f70"/>
   </g>
   <g id="patch_46">
    <path d="M 454.825794 343.632485 
L 497.815009 343.632485 
L 497.815009 343.259574 
L 454.825794 343.259574 
z
" clip-path="url(#p16e401ca5b)" style="fill: #4c9f70"/>
   </g>
   <g id="patch_47">
    <path d="M 508.562312 343.646807 
L 551.551526 343.646807 
L 551.551526 343.41034 
L 508.562312 343.41034 
z
" clip-path="url(#p16e401ca5b)" style="fill: #4c9f70"/>
   </g>
   <g id="patch_48">
    <path d="M 562.29883 343.651551 
L 605.288044 343.651551 
L 605.288044 343.407217 
L 562.29883 343.407217 
z
" clip-path="url(#p16e401ca5b)" style="fill: #4c9f70"/>
   </g>
   <g id="patch_49">
    <path d="M 616.035348 343.638708 
L 659.024562 343.638708 
L 659.024562 343.394212 
L 616.035348 343.394212 
z
" clip-path="url(#p16e401ca5b)" style="fill: #4c9f70"/>
   </g>
   <g id="patch_50">
    <path d="M 669.771865 343.636988 
L 712.76108 343.636988 
L 712.76108 343.391145 
L 669.771865 343.391145 
z
" clip-path="url(#p16e401ca5b)" style="fill: #4c9f70"/>
   </g>
   <g id="patch_51">
    <path d="M 78.67017 343.424496 
L 121.659385 343.424496 
L 121.659385 343.424496 
L 78.67017 343.424496 
z
" clip-path="url(#p16e401ca5b)" style="fill: #8b6bb8"/>
   </g>
   <g id="patch_52">
    <path d="M 132.406688 343.415909 
L 175.395902 343.415909 
L 175.395902 343.376908 
L 132.406688 343.376908 
z
" clip-path="url(#p16e401ca5b)" style="fill: #8b6bb8"/>
   </g>
   <g id="patch_53">
    <path d="M 186.143206 342.853791 
L 229.13242 342.853791 
L 229.13242 342.853791 
L 186.143206 342.853791 
z
" clip-path="url(#p16e401ca5b)" style="fill: #8b6bb8"/>
   </g>
   <g id="patch_54">
    <path d="M 239.879724 343.145946 
L 282.868938 343.145946 
L 282.868938 343.101282 
L 239.879724 343.101282 
z
" clip-path="url(#p16e401ca5b)" style="fill: #8b6bb8"/>
   </g>
   <g id="patch_55">
    <path d="M 293.616241 343.265463 
L 336.605456 343.265463 
L 336.605456 343.265463 
L 293.616241 343.265463 
z
" clip-path="url(#p16e401ca5b)" style="fill: #8b6bb8"/>
   </g>
   <g id="patch_56">
    <path d="M 347.352759 343.325947 
L 390.341973 343.325947 
L 390.341973 343.274641 
L 347.352759 343.274641 
z
" clip-path="url(#p16e401ca5b)" style="fill: #8b6bb8"/>
   </g>
   <g id="patch_57">
    <path d="M 401.089277 343.106363 
L 444.078491 343.106363 
L 444.078491 343.106363 
L 401.089277 343.106363 
z
" clip-path="url(#p16e401ca5b)" style="fill: #8b6bb8"/>
   </g>
   <g id="patch_58">
    <path d="M 454.825794 343.259574 
L 497.815009 343.259574 
L 497.815009 343.214963 
L 454.825794 343.214963 
z
" clip-path="url(#p16e401ca5b)" style="fill: #8b6bb8"/>
   </g>
   <g id="patch_59">
    <path d="M 508.562312 343.41034 
L 551.551526 343.41034 
L 551.551526 343.41034 
L 508.562312 343.41034 
z
" clip-path="url(#p16e401ca5b)" style="fill: #8b6bb8"/>
   </g>
   <g id="patch_60">
    <path d="M 562.29883 343.407217 
L 605.288044 343.407217 
L 605.288044 343.365297 
L 562.29883 343.365297 
z
" clip-path="url(#p16e401ca5b)" style="fill: #8b6bb8"/>
   </g>
   <g id="patch_61">
    <path d="M 616.035348 343.394212 
L 659.024562 343.394212 
L 659.024562 343.394212 
L 616.035348 343.394212 
z
" clip-path="url(#p16e401ca5b)" style="fill: #8b6bb8"/>
   </g>
   <g id="patch_62">
    <path d="M 669.771865 343.391145 
L 712.76108 343.391145 
L 712.76108 343.351187 
L 669.771865 343.351187 
z
" clip-path="url(#p16e401ca5b)" style="fill: #8b6bb8"/>
   </g>
   <g id="patch_63">
    <path d="M 78.67017 343.424496 
L 121.659385 343.424496 
L 121.659385 343.424496 
L 78.67017 343.424496 
z
" clip-path="url(#p16e401ca5b)" style="fill: #a84832"/>
   </g>
   <g id="patch_64">
    <path d="M 132.406688 343.376908 
L 175.395902 343.376908 
L 175.395902 343.258235 
L 132.406688 343.258235 
z
" clip-path="url(#p16e401ca5b)" style="fill: #a84832"/>
   </g>
   <g id="patch_65">
    <path d="M 186.143206 342.853791 
L 229.13242 342.853791 
L 229.13242 342.853791 
L 186.143206 342.853791 
z
" clip-path="url(#p16e401ca5b)" style="fill: #a84832"/>
   </g>
   <g id="patch_66">
    <path d="M 239.879724 343.101282 
L 282.868938 343.101282 
L 282.868938 342.430296 
L 239.879724 342.430296 
z
" clip-path="url(#p16e401ca5b)" style="fill: #a84832"/>
   </g>
   <g id="patch_67">
    <path d="M 293.616241 343.265463 
L 336.605456 343.265463 
L 336.605456 343.265463 
L 293.616241 343.265463 
z
" clip-path="url(#p16e401ca5b)" style="fill: #a84832"/>
   </g>
   <g id="patch_68">
    <path d="M 347.352759 343.274641 
L 390.341973 343.274641 
L 390.341973 343.01157 
L 347.352759 343.01157 
z
" clip-path="url(#p16e401ca5b)" style="fill: #a84832"/>
   </g>
   <g id="patch_69">
    <path d="M 401.089277 343.106363 
L 444.078491 343.106363 
L 444.078491 343.106363 
L 401.089277 343.106363 
z
" clip-path="url(#p16e401ca5b)" style="fill: #a84832"/>
   </g>
   <g id="patch_70">
    <path d="M 454.825794 343.214963 
L 497.815009 343.214963 
L 497.815009 342.800559 
L 454.825794 342.800559 
z
" clip-path="url(#p16e401ca5b)" style="fill: #a84832"/>
   </g>
   <g id="patch_71">
    <path d="M 508.562312 343.41034 
L 551.551526 343.41034 
L 551.551526 343.41034 
L 508.562312 343.41034 
z
" clip-path="url(#p16e401ca5b)" style="fill: #a84832"/>
   </g>
   <g id="patch_72">
    <path d="M 562.29883 343.365297 
L 605.288044 343.365297 
L 605.288044 343.240164 
L 562.29883 343.240164 
z
" clip-path="url(#p16e401ca5b)" style="fill: #a84832"/>
   </g>
   <g id="patch_73">
    <path d="M 616.035348 343.394212 
L 659.024562 343.394212 
L 659.024562 343.394212 
L 616.035348 343.394212 
z
" clip-path="url(#p16e401ca5b)" style="fill: #a84832"/>
   </g>
   <g id="patch_74">
    <path d="M 669.771865 343.351187 
L 712.76108 343.351187 
L 712.76108 343.222022 
L 669.771865 343.222022 
z
" clip-path="url(#p16e401ca5b)" style="fill: #a84832"/>
   </g>
   <g id="patch_75">
    <path d="M 78.67017 343.424496 
L 121.659385 343.424496 
L 121.659385 311.384954 
L 78.67017 311.384954 
z
" clip-path="url(#p16e401ca5b)" style="fill: #4d4d4d"/>
   </g>
   <g id="patch_76">
    <path d="M 132.406688 343.258235 
L 175.395902 343.258235 
L 175.395902 339.035873 
L 132.406688 339.035873 
z
" clip-path="url(#p16e401ca5b)" style="fill: #4d4d4d"/>
   </g>
   <g id="patch_77">
    <path d="M 186.143206 342.853791 
L 229.13242 342.853791 
L 229.13242 289.412092 
L 186.143206 289.412092 
z
" clip-path="url(#p16e401ca5b)" style="fill: #4d4d4d"/>
   </g>
   <g id="patch_78">
    <path d="M 239.879724 342.430296 
L 282.868938 342.430296 
L 282.868938 319.274385 
L 239.879724 319.274385 
z
" clip-path="url(#p16e401ca5b)" style="fill: #4d4d4d"/>
   </g>
   <g id="patch_79">
    <path d="M 293.616241 343.265463 
L 336.605456 343.265463 
L 336.605456 306.385941 
L 293.616241 306.385941 
z
" clip-path="url(#p16e401ca5b)" style="fill: #4d4d4d"/>
   </g>
   <g id="patch_80">
    <path d="M 347.352759 343.01157 
L 390.341973 343.01157 
L 390.341973 335.066528 
L 347.352759 335.066528 
z
" clip-path="url(#p16e401ca5b)" style="fill: #4d4d4d"/>
   </g>
   <g id="patch_81">
    <path d="M 401.089277 343.106363 
L 444.078491 343.106363 
L 444.078491 300.368845 
L 401.089277 300.368845 
z
" clip-path="url(#p16e401ca5b)" style="fill: #4d4d4d"/>
   </g>
   <g id="patch_82">
    <path d="M 454.825794 342.800559 
L 497.815009 342.800559 
L 497.815009 329.729068 
L 454.825794 329.729068 
z
" clip-path="url(#p16e401ca5b)" style="fill: #4d4d4d"/>
   </g>
   <g id="patch_83">
    <path d="M 508.562312 343.41034 
L 551.551526 343.41034 
L 551.551526 310.914808 
L 508.562312 310.914808 
z
" clip-path="url(#p16e401ca5b)" style="fill: #4d4d4d"/>
   </g>
   <g id="patch_84">
    <path d="M 562.29883 343.240164 
L 605.288044 343.240164 
L 605.288044 338.928126 
L 562.29883 338.928126 
z
" clip-path="url(#p16e401ca5b)" style="fill: #4d4d4d"/>
   </g>
   <g id="patch_85">
    <path d="M 616.035348 343.394212 
L 659.024562 343.394212 
L 659.024562 311.425878 
L 616.035348 311.425878 
z
" clip-path="url(#p16e401ca5b)" style="fill: #4d4d4d"/>
   </g>
   <g id="patch_86">
    <path d="M 669.771865 343.222022 
L 712.76108 343.222022 
L 712.76108 339.043447 
L 669.771865 339.043447 
z
" clip-path="url(#p16e401ca5b)" style="fill: #4d4d4d"/>
   </g>
   <g id="patch_87">
    <path d="M 78.67017 311.384954 
L 121.659385 311.384954 
L 121.659385 311.251319 
L 78.67017 311.251319 
z
" clip-path="url(#p16e401ca5b)" style="fill: #999999"/>
   </g>
   <g id="patch_88">
    <path d="M 132.406688 339.035873 
L 175.395902 339.035873 
L 175.395902 338.803312 
L 132.406688 338.803312 
z
" clip-path="url(#p16e401ca5b)" style="fill: #999999"/>
   </g>
   <g id="patch_89">
    <path d="M 186.143206 289.412092 
L 229.13242 289.412092 
L 229.13242 286.731549 
L 186.143206 286.731549 
z
" clip-path="url(#p16e401ca5b)" style="fill: #999999"/>
   </g>
   <g id="patch_90">
    <path d="M 239.879724 319.274385 
L 282.868938 319.274385 
L 282.868938 316.160256 
L 239.879724 316.160256 
z
" clip-path="url(#p16e401ca5b)" style="fill: #999999"/>
   </g>
   <g id="patch_91">
    <path d="M 293.616241 306.385941 
L 336.605456 306.385941 
L 336.605456 305.458772 
L 293.616241 305.458772 
z
" clip-path="url(#p16e401ca5b)" style="fill: #999999"/>
   </g>
   <g id="patch_92">
    <path d="M 347.352759 335.066528 
L 390.341973 335.066528 
L 390.341973 333.960707 
L 347.352759 333.960707 
z
" clip-path="url(#p16e401ca5b)" style="fill: #999999"/>
   </g>
   <g id="patch_93">
    <path d="M 401.089277 300.368845 
L 444.078491 300.368845 
L 444.078491 298.820793 
L 401.089277 298.820793 
z
" clip-path="url(#p16e401ca5b)" style="fill: #999999"/>
   </g>
   <g id="patch_94">
    <path d="M 454.825794 329.729068 
L 497.815009 329.729068 
L 497.815009 328.038172 
L 454.825794 328.038172 
z
" clip-path="url(#p16e401ca5b)" style="fill: #999999"/>
   </g>
   <g id="patch_95">
    <path d="M 508.562312 310.914808 
L 551.551526 310.914808 
L 551.551526 310.761285 
L 508.562312 310.761285 
z
" clip-path="url(#p16e401ca5b)" style="fill: #999999"/>
   </g>
   <g id="patch_96">
    <path d="M 562.29883 338.928126 
L 605.288044 338.928126 
L 605.288044 338.678026 
L 562.29883 338.678026 
z
" clip-path="url(#p16e401ca5b)" style="fill: #999999"/>
   </g>
   <g id="patch_97">
    <path d="M 616.035348 311.425878 
L 659.024562 311.425878 
L 659.024562 311.26734 
L 616.035348 311.26734 
z
" clip-path="url(#p16e401ca5b)" style="fill: #999999"/>
   </g>
   <g id="patch_98">
    <path d="M 669.771865 339.043447 
L 712.76108 339.043447 
L 712.76108 338.786384 
L 669.771865 338.786384 
z
" clip-path="url(#p16e401ca5b)" style="fill: #999999"/>
   </g>
   <g id="patch_99">
    <path d="M 78.67017 311.251319 
L 121.659385 311.251319 
L 121.659385 296.969673 
L 78.67017 296.969673 
z
" clip-path="url(#p16e401ca5b)" style="fill: #3b4c63"/>
   </g>
   <g id="patch_100">
    <path d="M 132.406688 338.803312 
L 175.395902 338.803312 
L 175.395902 317.886778 
L 132.406688 317.886778 
z
" clip-path="url(#p16e401ca5b)" style="fill: #3b4c63"/>
   </g>
   <g id="patch_101">
    <path d="M 186.143206 286.731549 
L 229.13242 286.731549 
L 229.13242 95.120763 
L 186.143206 95.120763 
z
" clip-path="url(#p16e401ca5b)" style="fill: #3b4c63"/>
   </g>
   <g id="patch_102">
    <path d="M 239.879724 316.160256 
L 282.868938 316.160256 
L 282.868938 128.183774 
L 239.879724 128.183774 
z
" clip-path="url(#p16e401ca5b)" style="fill: #3b4c63"/>
   </g>
   <g id="patch_103">
    <path d="M 293.616241 305.458772 
L 336.605456 305.458772 
L 336.605456 249.207254 
L 293.616241 249.207254 
z
" clip-path="url(#p16e401ca5b)" style="fill: #3b4c63"/>
   </g>
   <g id="patch_104">
    <path d="M 347.352759 333.960707 
L 390.341973 333.960707 
L 390.341973 283.359739 
L 347.352759 283.359739 
z
" clip-path="url(#p16e401ca5b)" style="fill: #3b4c63"/>
   </g>
   <g id="patch_105">
    <path d="M 401.089277 298.820793 
L 444.078491 298.820793 
L 444.078491 194.637193 
L 401.089277 194.637193 
z
" clip-path="url(#p16e401ca5b)" style="fill: #3b4c63"/>
   </g>
   <g id="patch_106">
    <path d="M 454.825794 328.038172 
L 497.815009 328.038172 
L 497.815009 227.257828 
L 454.825794 227.257828 
z
" clip-path="url(#p16e401ca5b)" style="fill: #3b4c63"/>
   </g>
   <g id="patch_107">
    <path d="M 508.562312 310.761285 
L 551.551526 310.761285 
L 551.551526 296.189547 
L 508.562312 296.189547 
z
" clip-path="url(#p16e401ca5b)" style="fill: #3b4c63"/>
   </g>
   <g id="patch_108">
    <path d="M 562.29883 338.678026 
L 605.288044 338.678026 
L 605.288044 317.358534 
L 562.29883 317.358534 
z
" clip-path="url(#p16e401ca5b)" style="fill: #3b4c63"/>
   </g>
   <g id="patch_109">
    <path d="M 616.035348 311.26734 
L 659.024562 311.26734 
L 659.024562 297.008164 
L 616.035348 297.008164 
z
" clip-path="url(#p16e401ca5b)" style="fill: #3b4c63"/>
   </g>
   <g id="patch_110">
    <path d="M 669.771865 338.786384 
L 712.76108 338.786384 
L 712.76108 317.838017 
L 669.771865 317.838017 
z
" clip-path="url(#p16e401ca5b)" style="fill: #3b4c63"/>
   </g>
   <g id="patch_111">
    <path d="M 78.67017 296.969673 
L 121.659385 296.969673 
L 121.659385 264.350833 
L 78.67017 264.350833 
z
" clip-path="url(#p16e401ca5b)" style="fill: #9e9e9e"/>
   </g>
   <g id="patch_112">
    <path d="M 132.406688 317.886778 
L 175.395902 317.886778 
L 175.395902 312.523087 
L 132.406688 312.523087 
z
" clip-path="url(#p16e401ca5b)" style="fill: #9e9e9e"/>
   </g>
   <g id="patch_113">
    <path d="M 186.143206 95.120763 
L 229.13242 95.120763 
L 229.13242 37.630125 
L 186.143206 37.630125 
z
" clip-path="url(#p16e401ca5b)" style="fill: #9e9e9e"/>
   </g>
   <g id="patch_114">
    <path d="M 239.879724 128.183774 
L 282.868938 128.183774 
L 282.868938 99.787161 
L 239.879724 99.787161 
z
" clip-path="url(#p16e401ca5b)" style="fill: #9e9e9e"/>
   </g>
   <g id="patch_115">
    <path d="M 293.616241 249.207254 
L 336.605456 249.207254 
L 336.605456 210.703871 
L 293.616241 210.703871 
z
" clip-path="url(#p16e401ca5b)" style="fill: #9e9e9e"/>
   </g>
   <g id="patch_116">
    <path d="M 347.352759 283.359739 
L 390.341973 283.359739 
L 390.341973 273.065049 
L 347.352759 273.065049 
z
" clip-path="url(#p16e401ca5b)" style="fill: #9e9e9e"/>
   </g>
   <g id="patch_117">
    <path d="M 401.089277 194.637193 
L 444.078491 194.637193 
L 444.078491 149.419208 
L 401.089277 149.419208 
z
" clip-path="url(#p16e401ca5b)" style="fill: #9e9e9e"/>
   </g>
   <g id="patch_118">
    <path d="M 454.825794 227.257828 
L 497.815009 227.257828 
L 497.815009 210.941624 
L 454.825794 210.941624 
z
" clip-path="url(#p16e401ca5b)" style="fill: #9e9e9e"/>
   </g>
   <g id="patch_119">
    <path d="M 508.562312 296.189547 
L 551.551526 296.189547 
L 551.551526 263.081523 
L 508.562312 263.081523 
z
" clip-path="url(#p16e401ca5b)" style="fill: #9e9e9e"/>
   </g>
   <g id="patch_120">
    <path d="M 562.29883 317.358534 
L 605.288044 317.358534 
L 605.288044 311.851993 
L 562.29883 311.851993 
z
" clip-path="url(#p16e401ca5b)" style="fill: #9e9e9e"/>
   </g>
   <g id="patch_121">
    <path d="M 616.035348 297.008164 
L 659.024562 297.008164 
L 659.024562 264.414463 
L 616.035348 264.414463 
z
" clip-path="url(#p16e401ca5b)" style="fill: #9e9e9e"/>
   </g>
   <g id="patch_122">
    <path d="M 669.771865 317.838017 
L 712.76108 317.838017 
L 712.76108 312.449732 
L 669.771865 312.449732 
z
" clip-path="url(#p16e401ca5b)" style="fill: #9e9e9e"/>
   </g>
   <g id="matplotlib.axis_1">
    <g id="xtick_1">
     <g id="line2d_1">
      <defs>
       <path id="m282dfb1d5d" d="M 0 0 
L 0 3.5 
" style="stroke: #000000; stroke-width: 0.8"/>
      </defs>
      <g>
       <use xlink:href="#m282dfb1d5d" x="100.164778" y="343.870125" style="stroke: #000000; stroke-width: 0.8"/>
      </g>
     </g>
     <g id="text_1">
      <!-- iso17 -->
      <g transform="translate(86.749153 358.468562) scale(0.1 -0.1)">
       <defs>
        <path id="DejaVuSans-69" d="M 603 3500 
L 1178 3500 
L 1178 0 
L 603 0 
L 603 3500 
z
M 603 4863 
L 1178 4863 
L 1178 4134 
L 603 4134 
L 603 4863 
z
" transform="scale(0.015625)"/>
        <path id="DejaVuSans-73" d="M 2834 3397 
L 2834 2853 
Q 2591 2978 2328 3040 
Q 2066 3103 1784 3103 
Q 1356 3103 1142 2972 
Q 928 2841 928 2578 
Q 928 2378 1081 2264 
Q 1234 2150 1697 2047 
L 1894 2003 
Q 2506 1872 2764 1633 
Q 3022 1394 3022 966 
Q 3022 478 2636 193 
Q 2250 -91 1575 -91 
Q 1294 -91 989 -36 
Q 684 19 347 128 
L 347 722 
Q 666 556 975 473 
Q 1284 391 1588 391 
Q 1994 391 2212 530 
Q 2431 669 2431 922 
Q 2431 1156 2273 1281 
Q 2116 1406 1581 1522 
L 1381 1569 
Q 847 1681 609 1914 
Q 372 2147 372 2553 
Q 372 3047 722 3315 
Q 1072 3584 1716 3584 
Q 2034 3584 2315 3537 
Q 2597 3491 2834 3397 
z
" transform="scale(0.015625)"/>
        <path id="DejaVuSans-6f" d="M 1959 3097 
Q 1497 3097 1228 2736 
Q 959 2375 959 1747 
Q 959 1119 1226 758 
Q 1494 397 1959 397 
Q 2419 397 2687 759 
Q 2956 1122 2956 1747 
Q 2956 2369 2687 2733 
Q 2419 3097 1959 3097 
z
M 1959 3584 
Q 2709 3584 3137 3096 
Q 3566 2609 3566 1747 
Q 3566 888 3137 398 
Q 2709 -91 1959 -91 
Q 1206 -91 779 398 
Q 353 888 353 1747 
Q 353 2609 779 3096 
Q 1206 3584 1959 3584 
z
" transform="scale(0.015625)"/>
        <path id="DejaVuSans-31" d="M 794 531 
L 1825 531 
L 1825 4091 
L 703 3866 
L 703 4441 
L 1819 4666 
L 2450 4666 
L 2450 531 
L 3481 531 
L 3481 0 
L 794 0 
L 794 531 
z
" transform="scale(0.015625)"/>
        <path id="DejaVuSans-37" d="M 525 4666 
L 3525 4666 
L 3525 4397 
L 1831 0 
L 1172 0 
L 2766 4134 
L 525 4134 
L 525 4666 
z
" transform="scale(0.015625)"/>
       </defs>
       <use xlink:href="#DejaVuSans-69"/>
       <use xlink:href="#DejaVuSans-73" transform="translate(27.783203 0)"/>
       <use xlink:href="#DejaVuSans-6f" transform="translate(79.882812 0)"/>
       <use xlink:href="#DejaVuSans-31" transform="translate(141.064453 0)"/>
       <use xlink:href="#DejaVuSans-37" transform="translate(204.6875 0)"/>
      </g>
      <!-- baseline -->
      <g transform="translate(79.221809 369.666375) scale(0.1 -0.1)">
       <defs>
        <path id="DejaVuSans-62" d="M 3116 1747 
Q 3116 2381 2855 2742 
Q 2594 3103 2138 3103 
Q 1681 3103 1420 2742 
Q 1159 2381 1159 1747 
Q 1159 1113 1420 752 
Q 1681 391 2138 391 
Q 2594 391 2855 752 
Q 3116 1113 3116 1747 
z
M 1159 2969 
Q 1341 3281 1617 3432 
Q 1894 3584 2278 3584 
Q 2916 3584 3314 3078 
Q 3713 2572 3713 1747 
Q 3713 922 3314 415 
Q 2916 -91 2278 -91 
Q 1894 -91 1617 61 
Q 1341 213 1159 525 
L 1159 0 
L 581 0 
L 581 4863 
L 1159 4863 
L 1159 2969 
z
" transform="scale(0.015625)"/>
        <path id="DejaVuSans-61" d="M 2194 1759 
Q 1497 1759 1228 1600 
Q 959 1441 959 1056 
Q 959 750 1161 570 
Q 1363 391 1709 391 
Q 2188 391 2477 730 
Q 2766 1069 2766 1631 
L 2766 1759 
L 2194 1759 
z
M 3341 1997 
L 3341 0 
L 2766 0 
L 2766 531 
Q 2569 213 2275 61 
Q 1981 -91 1556 -91 
Q 1019 -91 701 211 
Q 384 513 384 1019 
Q 384 1609 779 1909 
Q 1175 2209 1959 2209 
L 2766 2209 
L 2766 2266 
Q 2766 2663 2505 2880 
Q 2244 3097 1772 3097 
Q 1472 3097 1187 3025 
Q 903 2953 641 2809 
L 641 3341 
Q 956 3463 1253 3523 
Q 1550 3584 1831 3584 
Q 2591 3584 2966 3190 
Q 3341 2797 3341 1997 
z
" transform="scale(0.015625)"/>
        <path id="DejaVuSans-65" d="M 3597 1894 
L 3597 1613 
L 953 1613 
Q 991 1019 1311 708 
Q 1631 397 2203 397 
Q 2534 397 2845 478 
Q 3156 559 3463 722 
L 3463 178 
Q 3153 47 2828 -22 
Q 2503 -91 2169 -91 
Q 1331 -91 842 396 
Q 353 884 353 1716 
Q 353 2575 817 3079 
Q 1281 3584 2069 3584 
Q 2775 3584 3186 3129 
Q 3597 2675 3597 1894 
z
M 3022 2063 
Q 3016 2534 2758 2815 
Q 2500 3097 2075 3097 
Q 1594 3097 1305 2825 
Q 1016 2553 972 2059 
L 3022 2063 
z
" transform="scale(0.015625)"/>
        <path id="DejaVuSans-6c" d="M 603 4863 
L 1178 4863 
L 1178 0 
L 603 0 
L 603 4863 
z
" transform="scale(0.015625)"/>
        <path id="DejaVuSans-6e" d="M 3513 2113 
L 3513 0 
L 2938 0 
L 2938 2094 
Q 2938 2591 2744 2837 
Q 2550 3084 2163 3084 
Q 1697 3084 1428 2787 
Q 1159 2491 1159 1978 
L 1159 0 
L 581 0 
L 581 3500 
L 1159 3500 
L 1159 2956 
Q 1366 3272 1645 3428 
Q 1925 3584 2291 3584 
Q 2894 3584 3203 3211 
Q 3513 2838 3513 2113 
z
" transform="scale(0.015625)"/>
       </defs>
       <use xlink:href="#DejaVuSans-62"/>
       <use xlink:href="#DejaVuSans-61" transform="translate(63.476562 0)"/>
       <use xlink:href="#DejaVuSans-73" transform="translate(124.755859 0)"/>
       <use xlink:href="#DejaVuSans-65" transform="translate(176.855469 0)"/>
       <use xlink:href="#DejaVuSans-6c" transform="translate(238.378906 0)"/>
       <use xlink:href="#DejaVuSans-69" transform="translate(266.162109 0)"/>
       <use xlink:href="#DejaVuSans-6e" transform="translate(293.945312 0)"/>
       <use xlink:href="#DejaVuSans-65" transform="translate(357.324219 0)"/>
      </g>
     </g>
    </g>
    <g id="xtick_2">
     <g id="line2d_2">
      <g>
       <use xlink:href="#m282dfb1d5d" x="153.901295" y="343.870125" style="stroke: #000000; stroke-width: 0.8"/>
      </g>
     </g>
     <g id="text_2">
      <!-- iso17 -->
      <g transform="translate(140.48567 358.468562) scale(0.1 -0.1)">
       <use xlink:href="#DejaVuSans-69"/>
       <use xlink:href="#DejaVuSans-73" transform="translate(27.783203 0)"/>
       <use xlink:href="#DejaVuSans-6f" transform="translate(79.882812 0)"/>
       <use xlink:href="#DejaVuSans-31" transform="translate(141.064453 0)"/>
       <use xlink:href="#DejaVuSans-37" transform="translate(204.6875 0)"/>
      </g>
      <!-- pair_full -->
      <g transform="translate(134.011452 369.666375) scale(0.1 -0.1)">
       <defs>
        <path id="DejaVuSans-70" d="M 1159 525 
L 1159 -1331 
L 581 -1331 
L 581 3500 
L 1159 3500 
L 1159 2969 
Q 1341 3281 1617 3432 
Q 1894 3584 2278 3584 
Q 2916 3584 3314 3078 
Q 3713 2572 3713 1747 
Q 3713 922 3314 415 
Q 2916 -91 2278 -91 
Q 1894 -91 1617 61 
Q 1341 213 1159 525 
z
M 3116 1747 
Q 3116 2381 2855 2742 
Q 2594 3103 2138 3103 
Q 1681 3103 1420 2742 
Q 1159 2381 1159 1747 
Q 1159 1113 1420 752 
Q 1681 391 2138 391 
Q 2594 391 2855 752 
Q 3116 1113 3116 1747 
z
" transform="scale(0.015625)"/>
        <path id="DejaVuSans-72" d="M 2631 2963 
Q 2534 3019 2420 3045 
Q 2306 3072 2169 3072 
Q 1681 3072 1420 2755 
Q 1159 2438 1159 1844 
L 1159 0 
L 581 0 
L 581 3500 
L 1159 3500 
L 1159 2956 
Q 1341 3275 1631 3429 
Q 1922 3584 2338 3584 
Q 2397 3584 2469 3576 
Q 2541 3569 2628 3553 
L 2631 2963 
z
" transform="scale(0.015625)"/>
        <path id="DejaVuSans-5f" d="M 3263 -1063 
L 3263 -1509 
L -63 -1509 
L -63 -1063 
L 3263 -1063 
z
" transform="scale(0.015625)"/>
        <path id="DejaVuSans-66" d="M 2375 4863 
L 2375 4384 
L 1825 4384 
Q 1516 4384 1395 4259 
Q 1275 4134 1275 3809 
L 1275 3500 
L 2222 3500 
L 2222 3053 
L 1275 3053 
L 1275 0 
L 697 0 
L 697 3053 
L 147 3053 
L 147 3500 
L 697 3500 
L 697 3744 
Q 697 4328 969 4595 
Q 1241 4863 1831 4863 
L 2375 4863 
z
" transform="scale(0.015625)"/>
        <path id="DejaVuSans-75" d="M 544 1381 
L 544 3500 
L 1119 3500 
L 1119 1403 
Q 1119 906 1312 657 
Q 1506 409 1894 409 
Q 2359 409 2629 706 
Q 2900 1003 2900 1516 
L 2900 3500 
L 3475 3500 
L 3475 0 
L 2900 0 
L 2900 538 
Q 2691 219 2414 64 
Q 2138 -91 1772 -91 
Q 1169 -91 856 284 
Q 544 659 544 1381 
z
M 1991 3584 
L 1991 3584 
z
" transform="scale(0.015625)"/>
       </defs>
       <use xlink:href="#DejaVuSans-70"/>
       <use xlink:href="#DejaVuSans-61" transform="translate(63.476562 0)"/>
       <use xlink:href="#DejaVuSans-69" transform="translate(124.755859 0)"/>
       <use xlink:href="#DejaVuSans-72" transform="translate(152.539062 0)"/>
       <use xlink:href="#DejaVuSans-5f" transform="translate(193.652344 0)"/>
       <use xlink:href="#DejaVuSans-66" transform="translate(243.652344 0)"/>
       <use xlink:href="#DejaVuSans-75" transform="translate(278.857422 0)"/>
       <use xlink:href="#DejaVuSans-6c" transform="translate(342.236328 0)"/>
       <use xlink:href="#DejaVuSans-6c" transform="translate(370.019531 0)"/>
      </g>
     </g>
    </g>
    <g id="xtick_3">
     <g id="line2d_3">
      <g>
       <use xlink:href="#m282dfb1d5d" x="207.637813" y="343.870125" style="stroke: #000000; stroke-width: 0.8"/>
      </g>
     </g>
     <g id="text_3">
      <!-- mptrj -->
      <g transform="translate(194.188594 358.468562) scale(0.1 -0.1)">
       <defs>
        <path id="DejaVuSans-6d" d="M 3328 2828 
Q 3544 3216 3844 3400 
Q 4144 3584 4550 3584 
Q 5097 3584 5394 3201 
Q 5691 2819 5691 2113 
L 5691 0 
L 5113 0 
L 5113 2094 
Q 5113 2597 4934 2840 
Q 4756 3084 4391 3084 
Q 3944 3084 3684 2787 
Q 3425 2491 3425 1978 
L 3425 0 
L 2847 0 
L 2847 2094 
Q 2847 2600 2669 2842 
Q 2491 3084 2119 3084 
Q 1678 3084 1418 2786 
Q 1159 2488 1159 1978 
L 1159 0 
L 581 0 
L 581 3500 
L 1159 3500 
L 1159 2956 
Q 1356 3278 1631 3431 
Q 1906 3584 2284 3584 
Q 2666 3584 2933 3390 
Q 3200 3197 3328 2828 
z
" transform="scale(0.015625)"/>
        <path id="DejaVuSans-74" d="M 1172 4494 
L 1172 3500 
L 2356 3500 
L 2356 3053 
L 1172 3053 
L 1172 1153 
Q 1172 725 1289 603 
Q 1406 481 1766 481 
L 2356 481 
L 2356 0 
L 1766 0 
Q 1100 0 847 248 
Q 594 497 594 1153 
L 594 3053 
L 172 3053 
L 172 3500 
L 594 3500 
L 594 4494 
L 1172 4494 
z
" transform="scale(0.015625)"/>
        <path id="DejaVuSans-6a" d="M 603 3500 
L 1178 3500 
L 1178 -63 
Q 1178 -731 923 -1031 
Q 669 -1331 103 -1331 
L -116 -1331 
L -116 -844 
L 38 -844 
Q 366 -844 484 -692 
Q 603 -541 603 -63 
L 603 3500 
z
M 603 4863 
L 1178 4863 
L 1178 4134 
L 603 4134 
L 603 4863 
z
" transform="scale(0.015625)"/>
       </defs>
       <use xlink:href="#DejaVuSans-6d"/>
       <use xlink:href="#DejaVuSans-70" transform="translate(97.412109 0)"/>
       <use xlink:href="#DejaVuSans-74" transform="translate(160.888672 0)"/>
       <use xlink:href="#DejaVuSans-72" transform="translate(200.097656 0)"/>
       <use xlink:href="#DejaVuSans-6a" transform="translate(241.210938 0)"/>
      </g>
      <!-- baseline -->
      <g transform="translate(186.694844 369.666375) scale(0.1 -0.1)">
       <use xlink:href="#DejaVuSans-62"/>
       <use xlink:href="#DejaVuSans-61" transform="translate(63.476562 0)"/>
       <use xlink:href="#DejaVuSans-73" transform="translate(124.755859 0)"/>
       <use xlink:href="#DejaVuSans-65" transform="translate(176.855469 0)"/>
       <use xlink:href="#DejaVuSans-6c" transform="translate(238.378906 0)"/>
       <use xlink:href="#DejaVuSans-69" transform="translate(266.162109 0)"/>
       <use xlink:href="#DejaVuSans-6e" transform="translate(293.945312 0)"/>
       <use xlink:href="#DejaVuSans-65" transform="translate(357.324219 0)"/>
      </g>
     </g>
    </g>
    <g id="xtick_4">
     <g id="line2d_4">
      <g>
       <use xlink:href="#m282dfb1d5d" x="261.374331" y="343.870125" style="stroke: #000000; stroke-width: 0.8"/>
      </g>
     </g>
     <g id="text_4">
      <!-- mptrj -->
      <g transform="translate(247.925112 358.468562) scale(0.1 -0.1)">
       <use xlink:href="#DejaVuSans-6d"/>
       <use xlink:href="#DejaVuSans-70" transform="translate(97.412109 0)"/>
       <use xlink:href="#DejaVuSans-74" transform="translate(160.888672 0)"/>
       <use xlink:href="#DejaVuSans-72" transform="translate(200.097656 0)"/>
       <use xlink:href="#DejaVuSans-6a" transform="translate(241.210938 0)"/>
      </g>
      <!-- pair_full -->
      <g transform="translate(241.484487 369.666375) scale(0.1 -0.1)">
       <use xlink:href="#DejaVuSans-70"/>
       <use xlink:href="#DejaVuSans-61" transform="translate(63.476562 0)"/>
       <use xlink:href="#DejaVuSans-69" transform="translate(124.755859 0)"/>
       <use xlink:href="#DejaVuSans-72" transform="translate(152.539062 0)"/>
       <use xlink:href="#DejaVuSans-5f" transform="translate(193.652344 0)"/>
       <use xlink:href="#DejaVuSans-66" transform="translate(243.652344 0)"/>
       <use xlink:href="#DejaVuSans-75" transform="translate(278.857422 0)"/>
       <use xlink:href="#DejaVuSans-6c" transform="translate(342.236328 0)"/>
       <use xlink:href="#DejaVuSans-6c" transform="translate(370.019531 0)"/>
      </g>
     </g>
    </g>
    <g id="xtick_5">
     <g id="line2d_5">
      <g>
       <use xlink:href="#m282dfb1d5d" x="315.110848" y="343.870125" style="stroke: #000000; stroke-width: 0.8"/>
      </g>
     </g>
     <g id="text_5">
      <!-- oc20_s2ef_train_20m -->
      <g transform="translate(261.946786 358.468562) scale(0.1 -0.1)">
       <defs>
        <path id="DejaVuSans-63" d="M 3122 3366 
L 3122 2828 
Q 2878 2963 2633 3030 
Q 2388 3097 2138 3097 
Q 1578 3097 1268 2742 
Q 959 2388 959 1747 
Q 959 1106 1268 751 
Q 1578 397 2138 397 
Q 2388 397 2633 464 
Q 2878 531 3122 666 
L 3122 134 
Q 2881 22 2623 -34 
Q 2366 -91 2075 -91 
Q 1284 -91 818 406 
Q 353 903 353 1747 
Q 353 2603 823 3093 
Q 1294 3584 2113 3584 
Q 2378 3584 2631 3529 
Q 2884 3475 3122 3366 
z
" transform="scale(0.015625)"/>
        <path id="DejaVuSans-32" d="M 1228 531 
L 3431 531 
L 3431 0 
L 469 0 
L 469 531 
Q 828 903 1448 1529 
Q 2069 2156 2228 2338 
Q 2531 2678 2651 2914 
Q 2772 3150 2772 3378 
Q 2772 3750 2511 3984 
Q 2250 4219 1831 4219 
Q 1534 4219 1204 4116 
Q 875 4013 500 3803 
L 500 4441 
Q 881 4594 1212 4672 
Q 1544 4750 1819 4750 
Q 2544 4750 2975 4387 
Q 3406 4025 3406 3419 
Q 3406 3131 3298 2873 
Q 3191 2616 2906 2266 
Q 2828 2175 2409 1742 
Q 1991 1309 1228 531 
z
" transform="scale(0.015625)"/>
        <path id="DejaVuSans-30" d="M 2034 4250 
Q 1547 4250 1301 3770 
Q 1056 3291 1056 2328 
Q 1056 1369 1301 889 
Q 1547 409 2034 409 
Q 2525 409 2770 889 
Q 3016 1369 3016 2328 
Q 3016 3291 2770 3770 
Q 2525 4250 2034 4250 
z
M 2034 4750 
Q 2819 4750 3233 4129 
Q 3647 3509 3647 2328 
Q 3647 1150 3233 529 
Q 2819 -91 2034 -91 
Q 1250 -91 836 529 
Q 422 1150 422 2328 
Q 422 3509 836 4129 
Q 1250 4750 2034 4750 
z
" transform="scale(0.015625)"/>
       </defs>
       <use xlink:href="#DejaVuSans-6f"/>
       <use xlink:href="#DejaVuSans-63" transform="translate(61.181641 0)"/>
       <use xlink:href="#DejaVuSans-32" transform="translate(116.162109 0)"/>
       <use xlink:href="#DejaVuSans-30" transform="translate(179.785156 0)"/>
       <use xlink:href="#DejaVuSans-5f" transform="translate(243.408203 0)"/>
       <use xlink:href="#DejaVuSans-73" transform="translate(293.408203 0)"/>
       <use xlink:href="#DejaVuSans-32" transform="translate(345.507812 0)"/>
       <use xlink:href="#DejaVuSans-65" transform="translate(409.130859 0)"/>
       <use xlink:href="#DejaVuSans-66" transform="translate(470.654297 0)"/>
       <use xlink:href="#DejaVuSans-5f" transform="translate(505.859375 0)"/>
       <use xlink:href="#DejaVuSans-74" transform="translate(555.859375 0)"/>
       <use xlink:href="#DejaVuSans-72" transform="translate(595.068359 0)"/>
       <use xlink:href="#DejaVuSans-61" transform="translate(636.181641 0)"/>
       <use xlink:href="#DejaVuSans-69" transform="translate(697.460938 0)"/>
       <use xlink:href="#DejaVuSans-6e" transform="translate(725.244141 0)"/>
       <use xlink:href="#DejaVuSans-5f" transform="translate(788.623047 0)"/>
       <use xlink:href="#DejaVuSans-32" transform="translate(838.623047 0)"/>
       <use xlink:href="#DejaVuSans-30" transform="translate(902.246094 0)"/>
       <use xlink:href="#DejaVuSans-6d" transform="translate(965.869141 0)"/>
      </g>
      <!-- baseline -->
      <g transform="translate(294.16788 369.9445) scale(0.1 -0.1)">
       <use xlink:href="#DejaVuSans-62"/>
       <use xlink:href="#DejaVuSans-61" transform="translate(63.476562 0)"/>
       <use xlink:href="#DejaVuSans-73" transform="translate(124.755859 0)"/>
       <use xlink:href="#DejaVuSans-65" transform="translate(176.855469 0)"/>
       <use xlink:href="#DejaVuSans-6c" transform="translate(238.378906 0)"/>
       <use xlink:href="#DejaVuSans-69" transform="translate(266.162109 0)"/>
       <use xlink:href="#DejaVuSans-6e" transform="translate(293.945312 0)"/>
       <use xlink:href="#DejaVuSans-65" transform="translate(357.324219 0)"/>
      </g>
     </g>
    </g>
    <g id="xtick_6">
     <g id="line2d_6">
      <g>
       <use xlink:href="#m282dfb1d5d" x="368.847366" y="343.870125" style="stroke: #000000; stroke-width: 0.8"/>
      </g>
     </g>
     <g id="text_6">
      <!-- oc20_s2ef_train_20m -->
      <g transform="translate(315.683304 358.468562) scale(0.1 -0.1)">
       <use xlink:href="#DejaVuSans-6f"/>
       <use xlink:href="#DejaVuSans-63" transform="translate(61.181641 0)"/>
       <use xlink:href="#DejaVuSans-32" transform="translate(116.162109 0)"/>
       <use xlink:href="#DejaVuSans-30" transform="translate(179.785156 0)"/>
       <use xlink:href="#DejaVuSans-5f" transform="translate(243.408203 0)"/>
       <use xlink:href="#DejaVuSans-73" transform="translate(293.408203 0)"/>
       <use xlink:href="#DejaVuSans-32" transform="translate(345.507812 0)"/>
       <use xlink:href="#DejaVuSans-65" transform="translate(409.130859 0)"/>
       <use xlink:href="#DejaVuSans-66" transform="translate(470.654297 0)"/>
       <use xlink:href="#DejaVuSans-5f" transform="translate(505.859375 0)"/>
       <use xlink:href="#DejaVuSans-74" transform="translate(555.859375 0)"/>
       <use xlink:href="#DejaVuSans-72" transform="translate(595.068359 0)"/>
       <use xlink:href="#DejaVuSans-61" transform="translate(636.181641 0)"/>
       <use xlink:href="#DejaVuSans-69" transform="translate(697.460938 0)"/>
       <use xlink:href="#DejaVuSans-6e" transform="translate(725.244141 0)"/>
       <use xlink:href="#DejaVuSans-5f" transform="translate(788.623047 0)"/>
       <use xlink:href="#DejaVuSans-32" transform="translate(838.623047 0)"/>
       <use xlink:href="#DejaVuSans-30" transform="translate(902.246094 0)"/>
       <use xlink:href="#DejaVuSans-6d" transform="translate(965.869141 0)"/>
      </g>
      <!-- pair_full -->
      <g transform="translate(348.957522 369.9445) scale(0.1 -0.1)">
       <use xlink:href="#DejaVuSans-70"/>
       <use xlink:href="#DejaVuSans-61" transform="translate(63.476562 0)"/>
       <use xlink:href="#DejaVuSans-69" transform="translate(124.755859 0)"/>
       <use xlink:href="#DejaVuSans-72" transform="translate(152.539062 0)"/>
       <use xlink:href="#DejaVuSans-5f" transform="translate(193.652344 0)"/>
       <use xlink:href="#DejaVuSans-66" transform="translate(243.652344 0)"/>
       <use xlink:href="#DejaVuSans-75" transform="translate(278.857422 0)"/>
       <use xlink:href="#DejaVuSans-6c" transform="translate(342.236328 0)"/>
       <use xlink:href="#DejaVuSans-6c" transform="translate(370.019531 0)"/>
      </g>
     </g>
    </g>
    <g id="xtick_7">
     <g id="line2d_7">
      <g>
       <use xlink:href="#m282dfb1d5d" x="422.583884" y="343.870125" style="stroke: #000000; stroke-width: 0.8"/>
      </g>
     </g>
     <g id="text_7">
      <!-- omat24_1m_official -->
      <g transform="translate(373.655759 358.468562) scale(0.1 -0.1)">
       <defs>
        <path id="DejaVuSans-34" d="M 2419 4116 
L 825 1625 
L 2419 1625 
L 2419 4116 
z
M 2253 4666 
L 3047 4666 
L 3047 1625 
L 3713 1625 
L 3713 1100 
L 3047 1100 
L 3047 0 
L 2419 0 
L 2419 1100 
L 313 1100 
L 313 1709 
L 2253 4666 
z
" transform="scale(0.015625)"/>
       </defs>
       <use xlink:href="#DejaVuSans-6f"/>
       <use xlink:href="#DejaVuSans-6d" transform="translate(61.181641 0)"/>
       <use xlink:href="#DejaVuSans-61" transform="translate(158.59375 0)"/>
       <use xlink:href="#DejaVuSans-74" transform="translate(219.873047 0)"/>
       <use xlink:href="#DejaVuSans-32" transform="translate(259.082031 0)"/>
       <use xlink:href="#DejaVuSans-34" transform="translate(322.705078 0)"/>
       <use xlink:href="#DejaVuSans-5f" transform="translate(386.328125 0)"/>
       <use xlink:href="#DejaVuSans-31" transform="translate(436.328125 0)"/>
       <use xlink:href="#DejaVuSans-6d" transform="translate(499.951172 0)"/>
       <use xlink:href="#DejaVuSans-5f" transform="translate(597.363281 0)"/>
       <use xlink:href="#DejaVuSans-6f" transform="translate(647.363281 0)"/>
       <use xlink:href="#DejaVuSans-66" transform="translate(708.544922 0)"/>
       <use xlink:href="#DejaVuSans-66" transform="translate(743.75 0)"/>
       <use xlink:href="#DejaVuSans-69" transform="translate(778.955078 0)"/>
       <use xlink:href="#DejaVuSans-63" transform="translate(806.738281 0)"/>
       <use xlink:href="#DejaVuSans-69" transform="translate(861.71875 0)"/>
       <use xlink:href="#DejaVuSans-61" transform="translate(889.501953 0)"/>
       <use xlink:href="#DejaVuSans-6c" transform="translate(950.78125 0)"/>
      </g>
      <!-- baseline -->
      <g transform="translate(401.640915 369.9445) scale(0.1 -0.1)">
       <use xlink:href="#DejaVuSans-62"/>
       <use xlink:href="#DejaVuSans-61" transform="translate(63.476562 0)"/>
       <use xlink:href="#DejaVuSans-73" transform="translate(124.755859 0)"/>
       <use xlink:href="#DejaVuSans-65" transform="translate(176.855469 0)"/>
       <use xlink:href="#DejaVuSans-6c" transform="translate(238.378906 0)"/>
       <use xlink:href="#DejaVuSans-69" transform="translate(266.162109 0)"/>
       <use xlink:href="#DejaVuSans-6e" transform="translate(293.945312 0)"/>
       <use xlink:href="#DejaVuSans-65" transform="translate(357.324219 0)"/>
      </g>
     </g>
    </g>
    <g id="xtick_8">
     <g id="line2d_8">
      <g>
       <use xlink:href="#m282dfb1d5d" x="476.320402" y="343.870125" style="stroke: #000000; stroke-width: 0.8"/>
      </g>
     </g>
     <g id="text_8">
      <!-- omat24_1m_official -->
      <g transform="translate(427.392277 358.468562) scale(0.1 -0.1)">
       <use xlink:href="#DejaVuSans-6f"/>
       <use xlink:href="#DejaVuSans-6d" transform="translate(61.181641 0)"/>
       <use xlink:href="#DejaVuSans-61" transform="translate(158.59375 0)"/>
       <use xlink:href="#DejaVuSans-74" transform="translate(219.873047 0)"/>
       <use xlink:href="#DejaVuSans-32" transform="translate(259.082031 0)"/>
       <use xlink:href="#DejaVuSans-34" transform="translate(322.705078 0)"/>
       <use xlink:href="#DejaVuSans-5f" transform="translate(386.328125 0)"/>
       <use xlink:href="#DejaVuSans-31" transform="translate(436.328125 0)"/>
       <use xlink:href="#DejaVuSans-6d" transform="translate(499.951172 0)"/>
       <use xlink:href="#DejaVuSans-5f" transform="translate(597.363281 0)"/>
       <use xlink:href="#DejaVuSans-6f" transform="translate(647.363281 0)"/>
       <use xlink:href="#DejaVuSans-66" transform="translate(708.544922 0)"/>
       <use xlink:href="#DejaVuSans-66" transform="translate(743.75 0)"/>
       <use xlink:href="#DejaVuSans-69" transform="translate(778.955078 0)"/>
       <use xlink:href="#DejaVuSans-63" transform="translate(806.738281 0)"/>
       <use xlink:href="#DejaVuSans-69" transform="translate(861.71875 0)"/>
       <use xlink:href="#DejaVuSans-61" transform="translate(889.501953 0)"/>
       <use xlink:href="#DejaVuSans-6c" transform="translate(950.78125 0)"/>
      </g>
      <!-- pair_full -->
      <g transform="translate(456.430558 369.9445) scale(0.1 -0.1)">
       <use xlink:href="#DejaVuSans-70"/>
       <use xlink:href="#DejaVuSans-61" transform="translate(63.476562 0)"/>
       <use xlink:href="#DejaVuSans-69" transform="translate(124.755859 0)"/>
       <use xlink:href="#DejaVuSans-72" transform="translate(152.539062 0)"/>
       <use xlink:href="#DejaVuSans-5f" transform="translate(193.652344 0)"/>
       <use xlink:href="#DejaVuSans-66" transform="translate(243.652344 0)"/>
       <use xlink:href="#DejaVuSans-75" transform="translate(278.857422 0)"/>
       <use xlink:href="#DejaVuSans-6c" transform="translate(342.236328 0)"/>
       <use xlink:href="#DejaVuSans-6c" transform="translate(370.019531 0)"/>
      </g>
     </g>
    </g>
    <g id="xtick_9">
     <g id="line2d_9">
      <g>
       <use xlink:href="#m282dfb1d5d" x="530.056919" y="343.870125" style="stroke: #000000; stroke-width: 0.8"/>
      </g>
     </g>
     <g id="text_9">
      <!-- qm9_hf -->
      <g transform="translate(511.402232 358.468562) scale(0.1 -0.1)">
       <defs>
        <path id="DejaVuSans-71" d="M 947 1747 
Q 947 1113 1208 752 
Q 1469 391 1925 391 
Q 2381 391 2643 752 
Q 2906 1113 2906 1747 
Q 2906 2381 2643 2742 
Q 2381 3103 1925 3103 
Q 1469 3103 1208 2742 
Q 947 2381 947 1747 
z
M 2906 525 
Q 2725 213 2448 61 
Q 2172 -91 1784 -91 
Q 1150 -91 751 415 
Q 353 922 353 1747 
Q 353 2572 751 3078 
Q 1150 3584 1784 3584 
Q 2172 3584 2448 3432 
Q 2725 3281 2906 2969 
L 2906 3500 
L 3481 3500 
L 3481 -1331 
L 2906 -1331 
L 2906 525 
z
" transform="scale(0.015625)"/>
        <path id="DejaVuSans-39" d="M 703 97 
L 703 672 
Q 941 559 1184 500 
Q 1428 441 1663 441 
Q 2288 441 2617 861 
Q 2947 1281 2994 2138 
Q 2813 1869 2534 1725 
Q 2256 1581 1919 1581 
Q 1219 1581 811 2004 
Q 403 2428 403 3163 
Q 403 3881 828 4315 
Q 1253 4750 1959 4750 
Q 2769 4750 3195 4129 
Q 3622 3509 3622 2328 
Q 3622 1225 3098 567 
Q 2575 -91 1691 -91 
Q 1453 -91 1209 -44 
Q 966 3 703 97 
z
M 1959 2075 
Q 2384 2075 2632 2365 
Q 2881 2656 2881 3163 
Q 2881 3666 2632 3958 
Q 2384 4250 1959 4250 
Q 1534 4250 1286 3958 
Q 1038 3666 1038 3163 
Q 1038 2656 1286 2365 
Q 1534 2075 1959 2075 
z
" transform="scale(0.015625)"/>
        <path id="DejaVuSans-68" d="M 3513 2113 
L 3513 0 
L 2938 0 
L 2938 2094 
Q 2938 2591 2744 2837 
Q 2550 3084 2163 3084 
Q 1697 3084 1428 2787 
Q 1159 2491 1159 1978 
L 1159 0 
L 581 0 
L 581 4863 
L 1159 4863 
L 1159 2956 
Q 1366 3272 1645 3428 
Q 1925 3584 2291 3584 
Q 2894 3584 3203 3211 
Q 3513 2838 3513 2113 
z
" transform="scale(0.015625)"/>
       </defs>
       <use xlink:href="#DejaVuSans-71"/>
       <use xlink:href="#DejaVuSans-6d" transform="translate(63.476562 0)"/>
       <use xlink:href="#DejaVuSans-39" transform="translate(160.888672 0)"/>
       <use xlink:href="#DejaVuSans-5f" transform="translate(224.511719 0)"/>
       <use xlink:href="#DejaVuSans-68" transform="translate(274.511719 0)"/>
       <use xlink:href="#DejaVuSans-66" transform="translate(337.890625 0)"/>
      </g>
      <!-- baseline -->
      <g transform="translate(509.113951 369.9445) scale(0.1 -0.1)">
       <use xlink:href="#DejaVuSans-62"/>
       <use xlink:href="#DejaVuSans-61" transform="translate(63.476562 0)"/>
       <use xlink:href="#DejaVuSans-73" transform="translate(124.755859 0)"/>
       <use xlink:href="#DejaVuSans-65" transform="translate(176.855469 0)"/>
       <use xlink:href="#DejaVuSans-6c" transform="translate(238.378906 0)"/>
       <use xlink:href="#DejaVuSans-69" transform="translate(266.162109 0)"/>
       <use xlink:href="#DejaVuSans-6e" transform="translate(293.945312 0)"/>
       <use xlink:href="#DejaVuSans-65" transform="translate(357.324219 0)"/>
      </g>
     </g>
    </g>
    <g id="xtick_10">
     <g id="line2d_10">
      <g>
       <use xlink:href="#m282dfb1d5d" x="583.793437" y="343.870125" style="stroke: #000000; stroke-width: 0.8"/>
      </g>
     </g>
     <g id="text_10">
      <!-- qm9_hf -->
      <g transform="translate(565.13875 358.468562) scale(0.1 -0.1)">
       <use xlink:href="#DejaVuSans-71"/>
       <use xlink:href="#DejaVuSans-6d" transform="translate(63.476562 0)"/>
       <use xlink:href="#DejaVuSans-39" transform="translate(160.888672 0)"/>
       <use xlink:href="#DejaVuSans-5f" transform="translate(224.511719 0)"/>
       <use xlink:href="#DejaVuSans-68" transform="translate(274.511719 0)"/>
       <use xlink:href="#DejaVuSans-66" transform="translate(337.890625 0)"/>
      </g>
      <!-- pair_full -->
      <g transform="translate(563.903593 369.9445) scale(0.1 -0.1)">
       <use xlink:href="#DejaVuSans-70"/>
       <use xlink:href="#DejaVuSans-61" transform="translate(63.476562 0)"/>
       <use xlink:href="#DejaVuSans-69" transform="translate(124.755859 0)"/>
       <use xlink:href="#DejaVuSans-72" transform="translate(152.539062 0)"/>
       <use xlink:href="#DejaVuSans-5f" transform="translate(193.652344 0)"/>
       <use xlink:href="#DejaVuSans-66" transform="translate(243.652344 0)"/>
       <use xlink:href="#DejaVuSans-75" transform="translate(278.857422 0)"/>
       <use xlink:href="#DejaVuSans-6c" transform="translate(342.236328 0)"/>
       <use xlink:href="#DejaVuSans-6c" transform="translate(370.019531 0)"/>
      </g>
     </g>
    </g>
    <g id="xtick_11">
     <g id="line2d_11">
      <g>
       <use xlink:href="#m282dfb1d5d" x="637.529955" y="343.870125" style="stroke: #000000; stroke-width: 0.8"/>
      </g>
     </g>
     <g id="text_11">
      <!-- spice_2023 -->
      <g transform="translate(609.311205 358.468562) scale(0.1 -0.1)">
       <defs>
        <path id="DejaVuSans-33" d="M 2597 2516 
Q 3050 2419 3304 2112 
Q 3559 1806 3559 1356 
Q 3559 666 3084 287 
Q 2609 -91 1734 -91 
Q 1441 -91 1130 -33 
Q 819 25 488 141 
L 488 750 
Q 750 597 1062 519 
Q 1375 441 1716 441 
Q 2309 441 2620 675 
Q 2931 909 2931 1356 
Q 2931 1769 2642 2001 
Q 2353 2234 1838 2234 
L 1294 2234 
L 1294 2753 
L 1863 2753 
Q 2328 2753 2575 2939 
Q 2822 3125 2822 3475 
Q 2822 3834 2567 4026 
Q 2313 4219 1838 4219 
Q 1578 4219 1281 4162 
Q 984 4106 628 3988 
L 628 4550 
Q 988 4650 1302 4700 
Q 1616 4750 1894 4750 
Q 2613 4750 3031 4423 
Q 3450 4097 3450 3541 
Q 3450 3153 3228 2886 
Q 3006 2619 2597 2516 
z
" transform="scale(0.015625)"/>
       </defs>
       <use xlink:href="#DejaVuSans-73"/>
       <use xlink:href="#DejaVuSans-70" transform="translate(52.099609 0)"/>
       <use xlink:href="#DejaVuSans-69" transform="translate(115.576172 0)"/>
       <use xlink:href="#DejaVuSans-63" transform="translate(143.359375 0)"/>
       <use xlink:href="#DejaVuSans-65" transform="translate(198.339844 0)"/>
       <use xlink:href="#DejaVuSans-5f" transform="translate(259.863281 0)"/>
       <use xlink:href="#DejaVuSans-32" transform="translate(309.863281 0)"/>
       <use xlink:href="#DejaVuSans-30" transform="translate(373.486328 0)"/>
       <use xlink:href="#DejaVuSans-32" transform="translate(437.109375 0)"/>
       <use xlink:href="#DejaVuSans-33" transform="translate(500.732422 0)"/>
      </g>
      <!-- baseline -->
      <g transform="translate(616.586986 369.9445) scale(0.1 -0.1)">
       <use xlink:href="#DejaVuSans-62"/>
       <use xlink:href="#DejaVuSans-61" transform="translate(63.476562 0)"/>
       <use xlink:href="#DejaVuSans-73" transform="translate(124.755859 0)"/>
       <use xlink:href="#DejaVuSans-65" transform="translate(176.855469 0)"/>
       <use xlink:href="#DejaVuSans-6c" transform="translate(238.378906 0)"/>
       <use xlink:href="#DejaVuSans-69" transform="translate(266.162109 0)"/>
       <use xlink:href="#DejaVuSans-6e" transform="translate(293.945312 0)"/>
       <use xlink:href="#DejaVuSans-65" transform="translate(357.324219 0)"/>
      </g>
     </g>
    </g>
    <g id="xtick_12">
     <g id="line2d_12">
      <g>
       <use xlink:href="#m282dfb1d5d" x="691.266472" y="343.870125" style="stroke: #000000; stroke-width: 0.8"/>
      </g>
     </g>
     <g id="text_12">
      <!-- spice_2023 -->
      <g transform="translate(663.047722 358.468562) scale(0.1 -0.1)">
       <use xlink:href="#DejaVuSans-73"/>
       <use xlink:href="#DejaVuSans-70" transform="translate(52.099609 0)"/>
       <use xlink:href="#DejaVuSans-69" transform="translate(115.576172 0)"/>
       <use xlink:href="#DejaVuSans-63" transform="translate(143.359375 0)"/>
       <use xlink:href="#DejaVuSans-65" transform="translate(198.339844 0)"/>
       <use xlink:href="#DejaVuSans-5f" transform="translate(259.863281 0)"/>
       <use xlink:href="#DejaVuSans-32" transform="translate(309.863281 0)"/>
       <use xlink:href="#DejaVuSans-30" transform="translate(373.486328 0)"/>
       <use xlink:href="#DejaVuSans-32" transform="translate(437.109375 0)"/>
       <use xlink:href="#DejaVuSans-33" transform="translate(500.732422 0)"/>
      </g>
      <!-- pair_full -->
      <g transform="translate(671.376629 369.9445) scale(0.1 -0.1)">
       <use xlink:href="#DejaVuSans-70"/>
       <use xlink:href="#DejaVuSans-61" transform="translate(63.476562 0)"/>
       <use xlink:href="#DejaVuSans-69" transform="translate(124.755859 0)"/>
       <use xlink:href="#DejaVuSans-72" transform="translate(152.539062 0)"/>
       <use xlink:href="#DejaVuSans-5f" transform="translate(193.652344 0)"/>
       <use xlink:href="#DejaVuSans-66" transform="translate(243.652344 0)"/>
       <use xlink:href="#DejaVuSans-75" transform="translate(278.857422 0)"/>
       <use xlink:href="#DejaVuSans-6c" transform="translate(342.236328 0)"/>
       <use xlink:href="#DejaVuSans-6c" transform="translate(370.019531 0)"/>
      </g>
     </g>
    </g>
   </g>
   <g id="matplotlib.axis_2">
    <g id="ytick_1">
     <g id="line2d_13">
      <defs>
       <path id="macaca2c690" d="M 0 0 
L -3.5 0 
" style="stroke: #000000; stroke-width: 0.8"/>
      </defs>
      <g>
       <use xlink:href="#macaca2c690" x="46.965625" y="343.870125" style="stroke: #000000; stroke-width: 0.8"/>
      </g>
     </g>
     <g id="text_13">
      <!-- 0 -->
      <g transform="translate(33.603125 347.669344) scale(0.1 -0.1)">
       <use xlink:href="#DejaVuSans-30"/>
      </g>
     </g>
    </g>
    <g id="ytick_2">
     <g id="line2d_14">
      <g>
       <use xlink:href="#macaca2c690" x="46.965625" y="291.600467" style="stroke: #000000; stroke-width: 0.8"/>
      </g>
     </g>
     <g id="text_14">
      <!-- 100 -->
      <g transform="translate(20.878125 295.399686) scale(0.1 -0.1)">
       <use xlink:href="#DejaVuSans-31"/>
       <use xlink:href="#DejaVuSans-30" transform="translate(63.623047 0)"/>
       <use xlink:href="#DejaVuSans-30" transform="translate(127.246094 0)"/>
      </g>
     </g>
    </g>
    <g id="ytick_3">
     <g id="line2d_15">
      <g>
       <use xlink:href="#macaca2c690" x="46.965625" y="239.330809" style="stroke: #000000; stroke-width: 0.8"/>
      </g>
     </g>
     <g id="text_15">
      <!-- 200 -->
      <g transform="translate(20.878125 243.130028) scale(0.1 -0.1)">
       <use xlink:href="#DejaVuSans-32"/>
       <use xlink:href="#DejaVuSans-30" transform="translate(63.623047 0)"/>
       <use xlink:href="#DejaVuSans-30" transform="translate(127.246094 0)"/>
      </g>
     </g>
    </g>
    <g id="ytick_4">
     <g id="line2d_16">
      <g>
       <use xlink:href="#macaca2c690" x="46.965625" y="187.061152" style="stroke: #000000; stroke-width: 0.8"/>
      </g>
     </g>
     <g id="text_16">
      <!-- 300 -->
      <g transform="translate(20.878125 190.86037) scale(0.1 -0.1)">
       <use xlink:href="#DejaVuSans-33"/>
       <use xlink:href="#DejaVuSans-30" transform="translate(63.623047 0)"/>
       <use xlink:href="#DejaVuSans-30" transform="translate(127.246094 0)"/>
      </g>
     </g>
    </g>
    <g id="ytick_5">
     <g id="line2d_17">
      <g>
       <use xlink:href="#macaca2c690" x="46.965625" y="134.791494" style="stroke: #000000; stroke-width: 0.8"/>
      </g>
     </g>
     <g id="text_17">
      <!-- 400 -->
      <g transform="translate(20.878125 138.590713) scale(0.1 -0.1)">
       <use xlink:href="#DejaVuSans-34"/>
       <use xlink:href="#DejaVuSans-30" transform="translate(63.623047 0)"/>
       <use xlink:href="#DejaVuSans-30" transform="translate(127.246094 0)"/>
      </g>
     </g>
    </g>
    <g id="ytick_6">
     <g id="line2d_18">
      <g>
       <use xlink:href="#macaca2c690" x="46.965625" y="82.521836" style="stroke: #000000; stroke-width: 0.8"/>
      </g>
     </g>
     <g id="text_18">
      <!-- 500 -->
      <g transform="translate(20.878125 86.321055) scale(0.1 -0.1)">
       <defs>
        <path id="DejaVuSans-35" d="M 691 4666 
L 3169 4666 
L 3169 4134 
L 1269 4134 
L 1269 2991 
Q 1406 3038 1543 3061 
Q 1681 3084 1819 3084 
Q 2600 3084 3056 2656 
Q 3513 2228 3513 1497 
Q 3513 744 3044 326 
Q 2575 -91 1722 -91 
Q 1428 -91 1123 -41 
Q 819 9 494 109 
L 494 744 
Q 775 591 1075 516 
Q 1375 441 1709 441 
Q 2250 441 2565 725 
Q 2881 1009 2881 1497 
Q 2881 1984 2565 2268 
Q 2250 2553 1709 2553 
Q 1456 2553 1204 2497 
Q 953 2441 691 2322 
L 691 4666 
z
" transform="scale(0.015625)"/>
       </defs>
       <use xlink:href="#DejaVuSans-35"/>
       <use xlink:href="#DejaVuSans-30" transform="translate(63.623047 0)"/>
       <use xlink:href="#DejaVuSans-30" transform="translate(127.246094 0)"/>
      </g>
     </g>
    </g>
    <g id="ytick_7">
     <g id="line2d_19">
      <g>
       <use xlink:href="#macaca2c690" x="46.965625" y="30.252178" style="stroke: #000000; stroke-width: 0.8"/>
      </g>
     </g>
     <g id="text_19">
      <!-- 600 -->
      <g transform="translate(20.878125 34.051397) scale(0.1 -0.1)">
       <defs>
        <path id="DejaVuSans-36" d="M 2113 2584 
Q 1688 2584 1439 2293 
Q 1191 2003 1191 1497 
Q 1191 994 1439 701 
Q 1688 409 2113 409 
Q 2538 409 2786 701 
Q 3034 994 3034 1497 
Q 3034 2003 2786 2293 
Q 2538 2584 2113 2584 
z
M 3366 4563 
L 3366 3988 
Q 3128 4100 2886 4159 
Q 2644 4219 2406 4219 
Q 1781 4219 1451 3797 
Q 1122 3375 1075 2522 
Q 1259 2794 1537 2939 
Q 1816 3084 2150 3084 
Q 2853 3084 3261 2657 
Q 3669 2231 3669 1497 
Q 3669 778 3244 343 
Q 2819 -91 2113 -91 
Q 1303 -91 875 529 
Q 447 1150 447 2328 
Q 447 3434 972 4092 
Q 1497 4750 2381 4750 
Q 2619 4750 2861 4703 
Q 3103 4656 3366 4563 
z
" transform="scale(0.015625)"/>
       </defs>
       <use xlink:href="#DejaVuSans-36"/>
       <use xlink:href="#DejaVuSans-30" transform="translate(63.623047 0)"/>
       <use xlink:href="#DejaVuSans-30" transform="translate(127.246094 0)"/>
      </g>
     </g>
    </g>
    <g id="text_20">
     <!-- Intrusive stage time (ms) -->
     <g transform="translate(14.798438 246.271469) rotate(-90) scale(0.1 -0.1)">
      <defs>
       <path id="DejaVuSans-49" d="M 628 4666 
L 1259 4666 
L 1259 0 
L 628 0 
L 628 4666 
z
" transform="scale(0.015625)"/>
       <path id="DejaVuSans-76" d="M 191 3500 
L 800 3500 
L 1894 563 
L 2988 3500 
L 3597 3500 
L 2284 0 
L 1503 0 
L 191 3500 
z
" transform="scale(0.015625)"/>
       <path id="DejaVuSans-20" transform="scale(0.015625)"/>
       <path id="DejaVuSans-67" d="M 2906 1791 
Q 2906 2416 2648 2759 
Q 2391 3103 1925 3103 
Q 1463 3103 1205 2759 
Q 947 2416 947 1791 
Q 947 1169 1205 825 
Q 1463 481 1925 481 
Q 2391 481 2648 825 
Q 2906 1169 2906 1791 
z
M 3481 434 
Q 3481 -459 3084 -895 
Q 2688 -1331 1869 -1331 
Q 1566 -1331 1297 -1286 
Q 1028 -1241 775 -1147 
L 775 -588 
Q 1028 -725 1275 -790 
Q 1522 -856 1778 -856 
Q 2344 -856 2625 -561 
Q 2906 -266 2906 331 
L 2906 616 
Q 2728 306 2450 153 
Q 2172 0 1784 0 
Q 1141 0 747 490 
Q 353 981 353 1791 
Q 353 2603 747 3093 
Q 1141 3584 1784 3584 
Q 2172 3584 2450 3431 
Q 2728 3278 2906 2969 
L 2906 3500 
L 3481 3500 
L 3481 434 
z
" transform="scale(0.015625)"/>
       <path id="DejaVuSans-28" d="M 1984 4856 
Q 1566 4138 1362 3434 
Q 1159 2731 1159 2009 
Q 1159 1288 1364 580 
Q 1569 -128 1984 -844 
L 1484 -844 
Q 1016 -109 783 600 
Q 550 1309 550 2009 
Q 550 2706 781 3412 
Q 1013 4119 1484 4856 
L 1984 4856 
z
" transform="scale(0.015625)"/>
       <path id="DejaVuSans-29" d="M 513 4856 
L 1013 4856 
Q 1481 4119 1714 3412 
Q 1947 2706 1947 2009 
Q 1947 1309 1714 600 
Q 1481 -109 1013 -844 
L 513 -844 
Q 928 -128 1133 580 
Q 1338 1288 1338 2009 
Q 1338 2731 1133 3434 
Q 928 4138 513 4856 
z
" transform="scale(0.015625)"/>
      </defs>
      <use xlink:href="#DejaVuSans-49"/>
      <use xlink:href="#DejaVuSans-6e" transform="translate(29.492188 0)"/>
      <use xlink:href="#DejaVuSans-74" transform="translate(92.871094 0)"/>
      <use xlink:href="#DejaVuSans-72" transform="translate(132.080078 0)"/>
      <use xlink:href="#DejaVuSans-75" transform="translate(173.193359 0)"/>
      <use xlink:href="#DejaVuSans-73" transform="translate(236.572266 0)"/>
      <use xlink:href="#DejaVuSans-69" transform="translate(288.671875 0)"/>
      <use xlink:href="#DejaVuSans-76" transform="translate(316.455078 0)"/>
      <use xlink:href="#DejaVuSans-65" transform="translate(375.634766 0)"/>
      <use xlink:href="#DejaVuSans-20" transform="translate(437.158203 0)"/>
      <use xlink:href="#DejaVuSans-73" transform="translate(468.945312 0)"/>
      <use xlink:href="#DejaVuSans-74" transform="translate(521.044922 0)"/>
      <use xlink:href="#DejaVuSans-61" transform="translate(560.253906 0)"/>
      <use xlink:href="#DejaVuSans-67" transform="translate(621.533203 0)"/>
      <use xlink:href="#DejaVuSans-65" transform="translate(685.009766 0)"/>
      <use xlink:href="#DejaVuSans-20" transform="translate(746.533203 0)"/>
      <use xlink:href="#DejaVuSans-74" transform="translate(778.320312 0)"/>
      <use xlink:href="#DejaVuSans-69" transform="translate(817.529297 0)"/>
      <use xlink:href="#DejaVuSans-6d" transform="translate(845.3125 0)"/>
      <use xlink:href="#DejaVuSans-65" transform="translate(942.724609 0)"/>
      <use xlink:href="#DejaVuSans-20" transform="translate(1004.248047 0)"/>
      <use xlink:href="#DejaVuSans-28" transform="translate(1036.035156 0)"/>
      <use xlink:href="#DejaVuSans-6d" transform="translate(1075.048828 0)"/>
      <use xlink:href="#DejaVuSans-73" transform="translate(1172.460938 0)"/>
      <use xlink:href="#DejaVuSans-29" transform="translate(1224.560547 0)"/>
     </g>
    </g>
   </g>
   <g id="patch_123">
    <path d="M 46.965625 343.870125 
L 46.965625 22.318125 
" style="fill: none; stroke: #000000; stroke-width: 0.8; stroke-linejoin: miter; stroke-linecap: square"/>
   </g>
   <g id="patch_124">
    <path d="M 744.465625 343.870125 
L 744.465625 22.318125 
" style="fill: none; stroke: #000000; stroke-width: 0.8; stroke-linejoin: miter; stroke-linecap: square"/>
   </g>
   <g id="patch_125">
    <path d="M 46.965625 343.870125 
L 744.465625 343.870125 
" style="fill: none; stroke: #000000; stroke-width: 0.8; stroke-linejoin: miter; stroke-linecap: square"/>
   </g>
   <g id="patch_126">
    <path d="M 46.965625 22.318125 
L 744.465625 22.318125 
" style="fill: none; stroke: #000000; stroke-width: 0.8; stroke-linejoin: miter; stroke-linecap: square"/>
   </g>
   <g id="text_21">
    <!-- Representative detailed stage breakdown -->
    <g transform="translate(270.466563 16.318125) scale(0.12 -0.12)">
     <defs>
      <path id="DejaVuSans-52" d="M 2841 2188 
Q 3044 2119 3236 1894 
Q 3428 1669 3622 1275 
L 4263 0 
L 3584 0 
L 2988 1197 
Q 2756 1666 2539 1819 
Q 2322 1972 1947 1972 
L 1259 1972 
L 1259 0 
L 628 0 
L 628 4666 
L 2053 4666 
Q 2853 4666 3247 4331 
Q 3641 3997 3641 3322 
Q 3641 2881 3436 2590 
Q 3231 2300 2841 2188 
z
M 1259 4147 
L 1259 2491 
L 2053 2491 
Q 2509 2491 2742 2702 
Q 2975 2913 2975 3322 
Q 2975 3731 2742 3939 
Q 2509 4147 2053 4147 
L 1259 4147 
z
" transform="scale(0.015625)"/>
      <path id="DejaVuSans-64" d="M 2906 2969 
L 2906 4863 
L 3481 4863 
L 3481 0 
L 2906 0 
L 2906 525 
Q 2725 213 2448 61 
Q 2172 -91 1784 -91 
Q 1150 -91 751 415 
Q 353 922 353 1747 
Q 353 2572 751 3078 
Q 1150 3584 1784 3584 
Q 2172 3584 2448 3432 
Q 2725 3281 2906 2969 
z
M 947 1747 
Q 947 1113 1208 752 
Q 1469 391 1925 391 
Q 2381 391 2643 752 
Q 2906 1113 2906 1747 
Q 2906 2381 2643 2742 
Q 2381 3103 1925 3103 
Q 1469 3103 1208 2742 
Q 947 2381 947 1747 
z
" transform="scale(0.015625)"/>
      <path id="DejaVuSans-6b" d="M 581 4863 
L 1159 4863 
L 1159 1991 
L 2875 3500 
L 3609 3500 
L 1753 1863 
L 3688 0 
L 2938 0 
L 1159 1709 
L 1159 0 
L 581 0 
L 581 4863 
z
" transform="scale(0.015625)"/>
      <path id="DejaVuSans-77" d="M 269 3500 
L 844 3500 
L 1563 769 
L 2278 3500 
L 2956 3500 
L 3675 769 
L 4391 3500 
L 4966 3500 
L 4050 0 
L 3372 0 
L 2619 2869 
L 1863 0 
L 1184 0 
L 269 3500 
z
" transform="scale(0.015625)"/>
     </defs>
     <use xlink:href="#DejaVuSans-52"/>
     <use xlink:href="#DejaVuSans-65" transform="translate(64.982422 0)"/>
     <use xlink:href="#DejaVuSans-70" transform="translate(126.505859 0)"/>
     <use xlink:href="#DejaVuSans-72" transform="translate(189.982422 0)"/>
     <use xlink:href="#DejaVuSans-65" transform="translate(228.845703 0)"/>
     <use xlink:href="#DejaVuSans-73" transform="translate(290.369141 0)"/>
     <use xlink:href="#DejaVuSans-65" transform="translate(342.46875 0)"/>
     <use xlink:href="#DejaVuSans-6e" transform="translate(403.992188 0)"/>
     <use xlink:href="#DejaVuSans-74" transform="translate(467.371094 0)"/>
     <use xlink:href="#DejaVuSans-61" transform="translate(506.580078 0)"/>
     <use xlink:href="#DejaVuSans-74" transform="translate(567.859375 0)"/>
     <use xlink:href="#DejaVuSans-69" transform="translate(607.068359 0)"/>
     <use xlink:href="#DejaVuSans-76" transform="translate(634.851562 0)"/>
     <use xlink:href="#DejaVuSans-65" transform="translate(694.03125 0)"/>
     <use xlink:href="#DejaVuSans-20" transform="translate(755.554688 0)"/>
     <use xlink:href="#DejaVuSans-64" transform="translate(787.341797 0)"/>
     <use xlink:href="#DejaVuSans-65" transform="translate(850.818359 0)"/>
     <use xlink:href="#DejaVuSans-74" transform="translate(912.341797 0)"/>
     <use xlink:href="#DejaVuSans-61" transform="translate(951.550781 0)"/>
     <use xlink:href="#DejaVuSans-69" transform="translate(1012.830078 0)"/>
     <use xlink:href="#DejaVuSans-6c" transform="translate(1040.613281 0)"/>
     <use xlink:href="#DejaVuSans-65" transform="translate(1068.396484 0)"/>
     <use xlink:href="#DejaVuSans-64" transform="translate(1129.919922 0)"/>
     <use xlink:href="#DejaVuSans-20" transform="translate(1193.396484 0)"/>
     <use xlink:href="#DejaVuSans-73" transform="translate(1225.183594 0)"/>
     <use xlink:href="#DejaVuSans-74" transform="translate(1277.283203 0)"/>
     <use xlink:href="#DejaVuSans-61" transform="translate(1316.492188 0)"/>
     <use xlink:href="#DejaVuSans-67" transform="translate(1377.771484 0)"/>
     <use xlink:href="#DejaVuSans-65" transform="translate(1441.248047 0)"/>
     <use xlink:href="#DejaVuSans-20" transform="translate(1502.771484 0)"/>
     <use xlink:href="#DejaVuSans-62" transform="translate(1534.558594 0)"/>
     <use xlink:href="#DejaVuSans-72" transform="translate(1598.035156 0)"/>
     <use xlink:href="#DejaVuSans-65" transform="translate(1636.898438 0)"/>
     <use xlink:href="#DejaVuSans-61" transform="translate(1698.421875 0)"/>
     <use xlink:href="#DejaVuSans-6b" transform="translate(1759.701172 0)"/>
     <use xlink:href="#DejaVuSans-64" transform="translate(1817.611328 0)"/>
     <use xlink:href="#DejaVuSans-6f" transform="translate(1881.087891 0)"/>
     <use xlink:href="#DejaVuSans-77" transform="translate(1942.269531 0)"/>
     <use xlink:href="#DejaVuSans-6e" transform="translate(2024.056641 0)"/>
    </g>
   </g>
   <g id="legend_1">
    <g id="patch_127">
     <path d="M 363.881875 76.578125 
L 738.865625 76.578125 
Q 740.465625 76.578125 740.465625 74.978125 
L 740.465625 27.918125 
Q 740.465625 26.318125 738.865625 26.318125 
L 363.881875 26.318125 
Q 362.281875 26.318125 362.281875 27.918125 
L 362.281875 74.978125 
Q 362.281875 76.578125 363.881875 76.578125 
z
" style="fill: #ffffff; opacity: 0.8; stroke: #cccccc; stroke-linejoin: miter"/>
    </g>
    <g id="patch_128">
     <path d="M 365.481875 35.596875 
L 381.481875 35.596875 
L 381.481875 29.996875 
L 365.481875 29.996875 
z
" style="fill: #e69f00"/>
    </g>
    <g id="text_22">
     <!-- spherical_harmonics_ms -->
     <g transform="translate(387.881875 35.596875) scale(0.08 -0.08)">
      <use xlink:href="#DejaVuSans-73"/>
      <use xlink:href="#DejaVuSans-70" transform="translate(52.099609 0)"/>
      <use xlink:href="#DejaVuSans-68" transform="translate(115.576172 0)"/>
      <use xlink:href="#DejaVuSans-65" transform="translate(178.955078 0)"/>
      <use xlink:href="#DejaVuSans-72" transform="translate(240.478516 0)"/>
      <use xlink:href="#DejaVuSans-69" transform="translate(281.591797 0)"/>
      <use xlink:href="#DejaVuSans-63" transform="translate(309.375 0)"/>
      <use xlink:href="#DejaVuSans-61" transform="translate(364.355469 0)"/>
      <use xlink:href="#DejaVuSans-6c" transform="translate(425.634766 0)"/>
      <use xlink:href="#DejaVuSans-5f" transform="translate(453.417969 0)"/>
      <use xlink:href="#DejaVuSans-68" transform="translate(503.417969 0)"/>
      <use xlink:href="#DejaVuSans-61" transform="translate(566.796875 0)"/>
      <use xlink:href="#DejaVuSans-72" transform="translate(628.076172 0)"/>
      <use xlink:href="#DejaVuSans-6d" transform="translate(667.439453 0)"/>
      <use xlink:href="#DejaVuSans-6f" transform="translate(764.851562 0)"/>
      <use xlink:href="#DejaVuSans-6e" transform="translate(826.033203 0)"/>
      <use xlink:href="#DejaVuSans-69" transform="translate(889.412109 0)"/>
      <use xlink:href="#DejaVuSans-63" transform="translate(917.195312 0)"/>
      <use xlink:href="#DejaVuSans-73" transform="translate(972.175781 0)"/>
      <use xlink:href="#DejaVuSans-5f" transform="translate(1024.275391 0)"/>
      <use xlink:href="#DejaVuSans-6d" transform="translate(1074.275391 0)"/>
      <use xlink:href="#DejaVuSans-73" transform="translate(1171.6875 0)"/>
     </g>
    </g>
    <g id="patch_129">
     <path d="M 365.481875 47.561875 
L 381.481875 47.561875 
L 381.481875 41.961875 
L 365.481875 41.961875 
z
" style="fill: #999999"/>
    </g>
    <g id="text_23">
     <!-- radial_basis_ms -->
     <g transform="translate(387.881875 47.561875) scale(0.08 -0.08)">
      <use xlink:href="#DejaVuSans-72"/>
      <use xlink:href="#DejaVuSans-61" transform="translate(41.113281 0)"/>
      <use xlink:href="#DejaVuSans-64" transform="translate(102.392578 0)"/>
      <use xlink:href="#DejaVuSans-69" transform="translate(165.869141 0)"/>
      <use xlink:href="#DejaVuSans-61" transform="translate(193.652344 0)"/>
      <use xlink:href="#DejaVuSans-6c" transform="translate(254.931641 0)"/>
      <use xlink:href="#DejaVuSans-5f" transform="translate(282.714844 0)"/>
      <use xlink:href="#DejaVuSans-62" transform="translate(332.714844 0)"/>
      <use xlink:href="#DejaVuSans-61" transform="translate(396.191406 0)"/>
      <use xlink:href="#DejaVuSans-73" transform="translate(457.470703 0)"/>
      <use xlink:href="#DejaVuSans-69" transform="translate(509.570312 0)"/>
      <use xlink:href="#DejaVuSans-73" transform="translate(537.353516 0)"/>
      <use xlink:href="#DejaVuSans-5f" transform="translate(589.453125 0)"/>
      <use xlink:href="#DejaVuSans-6d" transform="translate(639.453125 0)"/>
      <use xlink:href="#DejaVuSans-73" transform="translate(736.865234 0)"/>
     </g>
    </g>
    <g id="patch_130">
     <path d="M 365.481875 59.526875 
L 381.481875 59.526875 
L 381.481875 53.926875 
L 365.481875 53.926875 
z
" style="fill: #999999"/>
    </g>
    <g id="text_24">
     <!-- cutoff_ms -->
     <g transform="translate(387.881875 59.526875) scale(0.08 -0.08)">
      <use xlink:href="#DejaVuSans-63"/>
      <use xlink:href="#DejaVuSans-75" transform="translate(54.980469 0)"/>
      <use xlink:href="#DejaVuSans-74" transform="translate(118.359375 0)"/>
      <use xlink:href="#DejaVuSans-6f" transform="translate(157.568359 0)"/>
      <use xlink:href="#DejaVuSans-66" transform="translate(218.75 0)"/>
      <use xlink:href="#DejaVuSans-66" transform="translate(253.955078 0)"/>
      <use xlink:href="#DejaVuSans-5f" transform="translate(289.160156 0)"/>
      <use xlink:href="#DejaVuSans-6d" transform="translate(339.160156 0)"/>
      <use xlink:href="#DejaVuSans-73" transform="translate(436.572266 0)"/>
     </g>
    </g>
    <g id="patch_131">
     <path d="M 365.481875 71.491875 
L 381.481875 71.491875 
L 381.481875 65.891875 
L 365.481875 65.891875 
z
" style="fill: #4c9f70"/>
    </g>
    <g id="text_25">
     <!-- conv_weight_nn_ms -->
     <g transform="translate(387.881875 71.491875) scale(0.08 -0.08)">
      <use xlink:href="#DejaVuSans-63"/>
      <use xlink:href="#DejaVuSans-6f" transform="translate(54.980469 0)"/>
      <use xlink:href="#DejaVuSans-6e" transform="translate(116.162109 0)"/>
      <use xlink:href="#DejaVuSans-76" transform="translate(179.541016 0)"/>
      <use xlink:href="#DejaVuSans-5f" transform="translate(238.720703 0)"/>
      <use xlink:href="#DejaVuSans-77" transform="translate(288.720703 0)"/>
      <use xlink:href="#DejaVuSans-65" transform="translate(370.507812 0)"/>
      <use xlink:href="#DejaVuSans-69" transform="translate(432.03125 0)"/>
      <use xlink:href="#DejaVuSans-67" transform="translate(459.814453 0)"/>
      <use xlink:href="#DejaVuSans-68" transform="translate(523.291016 0)"/>
      <use xlink:href="#DejaVuSans-74" transform="translate(586.669922 0)"/>
      <use xlink:href="#DejaVuSans-5f" transform="translate(625.878906 0)"/>
      <use xlink:href="#DejaVuSans-6e" transform="translate(675.878906 0)"/>
      <use xlink:href="#DejaVuSans-6e" transform="translate(739.257812 0)"/>
      <use xlink:href="#DejaVuSans-5f" transform="translate(802.636719 0)"/>
      <use xlink:href="#DejaVuSans-6d" transform="translate(852.636719 0)"/>
      <use xlink:href="#DejaVuSans-73" transform="translate(950.048828 0)"/>
     </g>
    </g>
    <g id="patch_132">
     <path d="M 501.783125 35.596875 
L 517.783125 35.596875 
L 517.783125 29.996875 
L 501.783125 29.996875 
z
" style="fill: #8b6bb8"/>
    </g>
    <g id="text_26">
     <!-- pair_expand_ms -->
     <g transform="translate(524.183125 35.596875) scale(0.08 -0.08)">
      <defs>
       <path id="DejaVuSans-78" d="M 3513 3500 
L 2247 1797 
L 3578 0 
L 2900 0 
L 1881 1375 
L 863 0 
L 184 0 
L 1544 1831 
L 300 3500 
L 978 3500 
L 1906 2253 
L 2834 3500 
L 3513 3500 
z
" transform="scale(0.015625)"/>
      </defs>
      <use xlink:href="#DejaVuSans-70"/>
      <use xlink:href="#DejaVuSans-61" transform="translate(63.476562 0)"/>
      <use xlink:href="#DejaVuSans-69" transform="translate(124.755859 0)"/>
      <use xlink:href="#DejaVuSans-72" transform="translate(152.539062 0)"/>
      <use xlink:href="#DejaVuSans-5f" transform="translate(193.652344 0)"/>
      <use xlink:href="#DejaVuSans-65" transform="translate(243.652344 0)"/>
      <use xlink:href="#DejaVuSans-78" transform="translate(303.425781 0)"/>
      <use xlink:href="#DejaVuSans-70" transform="translate(362.605469 0)"/>
      <use xlink:href="#DejaVuSans-61" transform="translate(426.082031 0)"/>
      <use xlink:href="#DejaVuSans-6e" transform="translate(487.361328 0)"/>
      <use xlink:href="#DejaVuSans-64" transform="translate(550.740234 0)"/>
      <use xlink:href="#DejaVuSans-5f" transform="translate(614.216797 0)"/>
      <use xlink:href="#DejaVuSans-6d" transform="translate(664.216797 0)"/>
      <use xlink:href="#DejaVuSans-73" transform="translate(761.628906 0)"/>
     </g>
    </g>
    <g id="patch_133">
     <path d="M 501.783125 47.561875 
L 517.783125 47.561875 
L 517.783125 41.961875 
L 501.783125 41.961875 
z
" style="fill: #a84832"/>
    </g>
    <g id="text_27">
     <!-- pair_indexing_ms -->
     <g transform="translate(524.183125 47.561875) scale(0.08 -0.08)">
      <use xlink:href="#DejaVuSans-70"/>
      <use xlink:href="#DejaVuSans-61" transform="translate(63.476562 0)"/>
      <use xlink:href="#DejaVuSans-69" transform="translate(124.755859 0)"/>
      <use xlink:href="#DejaVuSans-72" transform="translate(152.539062 0)"/>
      <use xlink:href="#DejaVuSans-5f" transform="translate(193.652344 0)"/>
      <use xlink:href="#DejaVuSans-69" transform="translate(243.652344 0)"/>
      <use xlink:href="#DejaVuSans-6e" transform="translate(271.435547 0)"/>
      <use xlink:href="#DejaVuSans-64" transform="translate(334.814453 0)"/>
      <use xlink:href="#DejaVuSans-65" transform="translate(398.291016 0)"/>
      <use xlink:href="#DejaVuSans-78" transform="translate(458.064453 0)"/>
      <use xlink:href="#DejaVuSans-69" transform="translate(517.244141 0)"/>
      <use xlink:href="#DejaVuSans-6e" transform="translate(545.027344 0)"/>
      <use xlink:href="#DejaVuSans-67" transform="translate(608.40625 0)"/>
      <use xlink:href="#DejaVuSans-5f" transform="translate(671.882812 0)"/>
      <use xlink:href="#DejaVuSans-6d" transform="translate(721.882812 0)"/>
      <use xlink:href="#DejaVuSans-73" transform="translate(819.294922 0)"/>
     </g>
    </g>
    <g id="patch_134">
     <path d="M 501.783125 59.526875 
L 517.783125 59.526875 
L 517.783125 53.926875 
L 501.783125 53.926875 
z
" style="fill: #4d4d4d"/>
    </g>
    <g id="text_28">
     <!-- conv_message_tp_ms -->
     <g transform="translate(524.183125 59.526875) scale(0.08 -0.08)">
      <use xlink:href="#DejaVuSans-63"/>
      <use xlink:href="#DejaVuSans-6f" transform="translate(54.980469 0)"/>
      <use xlink:href="#DejaVuSans-6e" transform="translate(116.162109 0)"/>
      <use xlink:href="#DejaVuSans-76" transform="translate(179.541016 0)"/>
      <use xlink:href="#DejaVuSans-5f" transform="translate(238.720703 0)"/>
      <use xlink:href="#DejaVuSans-6d" transform="translate(288.720703 0)"/>
      <use xlink:href="#DejaVuSans-65" transform="translate(386.132812 0)"/>
      <use xlink:href="#DejaVuSans-73" transform="translate(447.65625 0)"/>
      <use xlink:href="#DejaVuSans-73" transform="translate(499.755859 0)"/>
      <use xlink:href="#DejaVuSans-61" transform="translate(551.855469 0)"/>
      <use xlink:href="#DejaVuSans-67" transform="translate(613.134766 0)"/>
      <use xlink:href="#DejaVuSans-65" transform="translate(676.611328 0)"/>
      <use xlink:href="#DejaVuSans-5f" transform="translate(738.134766 0)"/>
      <use xlink:href="#DejaVuSans-74" transform="translate(788.134766 0)"/>
      <use xlink:href="#DejaVuSans-70" transform="translate(827.34375 0)"/>
      <use xlink:href="#DejaVuSans-5f" transform="translate(890.820312 0)"/>
      <use xlink:href="#DejaVuSans-6d" transform="translate(940.820312 0)"/>
      <use xlink:href="#DejaVuSans-73" transform="translate(1038.232422 0)"/>
     </g>
    </g>
    <g id="patch_135">
     <path d="M 627.410625 35.596875 
L 643.410625 35.596875 
L 643.410625 29.996875 
L 627.410625 29.996875 
z
" style="fill: #999999"/>
    </g>
    <g id="text_29">
     <!-- conv_aggregation_ms -->
     <g transform="translate(649.810625 35.596875) scale(0.08 -0.08)">
      <use xlink:href="#DejaVuSans-63"/>
      <use xlink:href="#DejaVuSans-6f" transform="translate(54.980469 0)"/>
      <use xlink:href="#DejaVuSans-6e" transform="translate(116.162109 0)"/>
      <use xlink:href="#DejaVuSans-76" transform="translate(179.541016 0)"/>
      <use xlink:href="#DejaVuSans-5f" transform="translate(238.720703 0)"/>
      <use xlink:href="#DejaVuSans-61" transform="translate(288.720703 0)"/>
      <use xlink:href="#DejaVuSans-67" transform="translate(350 0)"/>
      <use xlink:href="#DejaVuSans-67" transform="translate(413.476562 0)"/>
      <use xlink:href="#DejaVuSans-72" transform="translate(476.953125 0)"/>
      <use xlink:href="#DejaVuSans-65" transform="translate(515.816406 0)"/>
      <use xlink:href="#DejaVuSans-67" transform="translate(577.339844 0)"/>
      <use xlink:href="#DejaVuSans-61" transform="translate(640.816406 0)"/>
      <use xlink:href="#DejaVuSans-74" transform="translate(702.095703 0)"/>
      <use xlink:href="#DejaVuSans-69" transform="translate(741.304688 0)"/>
      <use xlink:href="#DejaVuSans-6f" transform="translate(769.087891 0)"/>
      <use xlink:href="#DejaVuSans-6e" transform="translate(830.269531 0)"/>
      <use xlink:href="#DejaVuSans-5f" transform="translate(893.648438 0)"/>
      <use xlink:href="#DejaVuSans-6d" transform="translate(943.648438 0)"/>
      <use xlink:href="#DejaVuSans-73" transform="translate(1041.060547 0)"/>
     </g>
    </g>
    <g id="patch_136">
     <path d="M 627.410625 47.561875 
L 643.410625 47.561875 
L 643.410625 41.961875 
L 627.410625 41.961875 
z
" style="fill: #3b4c63"/>
    </g>
    <g id="text_30">
     <!-- top_force_output_ms -->
     <g transform="translate(649.810625 47.561875) scale(0.08 -0.08)">
      <use xlink:href="#DejaVuSans-74"/>
      <use xlink:href="#DejaVuSans-6f" transform="translate(39.208984 0)"/>
      <use xlink:href="#DejaVuSans-70" transform="translate(100.390625 0)"/>
      <use xlink:href="#DejaVuSans-5f" transform="translate(163.867188 0)"/>
      <use xlink:href="#DejaVuSans-66" transform="translate(213.867188 0)"/>
      <use xlink:href="#DejaVuSans-6f" transform="translate(249.072266 0)"/>
      <use xlink:href="#DejaVuSans-72" transform="translate(310.253906 0)"/>
      <use xlink:href="#DejaVuSans-63" transform="translate(349.117188 0)"/>
      <use xlink:href="#DejaVuSans-65" transform="translate(404.097656 0)"/>
      <use xlink:href="#DejaVuSans-5f" transform="translate(465.621094 0)"/>
      <use xlink:href="#DejaVuSans-6f" transform="translate(515.621094 0)"/>
      <use xlink:href="#DejaVuSans-75" transform="translate(576.802734 0)"/>
      <use xlink:href="#DejaVuSans-74" transform="translate(640.181641 0)"/>
      <use xlink:href="#DejaVuSans-70" transform="translate(679.390625 0)"/>
      <use xlink:href="#DejaVuSans-75" transform="translate(742.867188 0)"/>
      <use xlink:href="#DejaVuSans-74" transform="translate(806.246094 0)"/>
      <use xlink:href="#DejaVuSans-5f" transform="translate(845.455078 0)"/>
      <use xlink:href="#DejaVuSans-6d" transform="translate(895.455078 0)"/>
      <use xlink:href="#DejaVuSans-73" transform="translate(992.867188 0)"/>
     </g>
    </g>
    <g id="patch_137">
     <path d="M 627.410625 59.526875 
L 643.410625 59.526875 
L 643.410625 53.926875 
L 627.410625 53.926875 
z
" style="fill: #9e9e9e"/>
    </g>
    <g id="text_31">
     <!-- other_ms -->
     <g transform="translate(649.810625 59.526875) scale(0.08 -0.08)">
      <use xlink:href="#DejaVuSans-6f"/>
      <use xlink:href="#DejaVuSans-74" transform="translate(61.181641 0)"/>
      <use xlink:href="#DejaVuSans-68" transform="translate(100.390625 0)"/>
      <use xlink:href="#DejaVuSans-65" transform="translate(163.769531 0)"/>
      <use xlink:href="#DejaVuSans-72" transform="translate(225.292969 0)"/>
      <use xlink:href="#DejaVuSans-5f" transform="translate(266.40625 0)"/>
      <use xlink:href="#DejaVuSans-6d" transform="translate(316.40625 0)"/>
      <use xlink:href="#DejaVuSans-73" transform="translate(413.818359 0)"/>
     </g>
    </g>
   </g>
  </g>
 </g>
 <defs>
  <clipPath id="p16e401ca5b">
   <rect x="46.965625" y="22.318125" width="697.5" height="321.552"/>
  </clipPath>
 </defs>
</svg>
